<svg width="84" height="70" viewBox="0 0 84 70" fill="none" xmlns="http://www.w3.org/2000/svg">
<g id="Logo">
<g id="Icon">
<path id="Vector" d="M67.4326 0.00102161C67.2998 -0.000912725 67.1664 0.000376886 67.0335 0.00102161C64.4731 0.0332594 61.8257 0.665123 59.2203 1.91654C55.155 3.86952 50.839 7.65038 48.1715 11.597C47.0961 13.1882 46.5036 14.3475 45.882 16.078C44.889 18.8434 44.7698 19.8808 44.7401 25.9918C44.7143 31.2544 44.6834 31.7605 44.2965 33.1178C43.3352 36.4924 42.1765 38.1301 37.1828 43.1793L33.1343 47.2723L36.0023 50.1402L39.9959 46.1368C42.1926 43.9349 44.533 41.7543 45.1972 41.2908C46.8704 40.1232 47.891 39.6293 49.7326 39.0954C51.9338 38.4577 54.4246 38.2475 57.6393 38.4287C65.3132 38.8613 70.0096 37.1437 75.3535 31.9501C79.251 28.1615 81.6173 24.3953 82.7663 20.1528C83.3046 18.1637 83.3382 14.0836 82.8314 12.2468C82.0151 9.2899 80.6217 6.87458 78.5057 4.75142C75.425 1.65986 71.5512 0.0492031 67.4325 0.000180393L67.4326 0.00102161ZM67.3927 1.94427C69.7576 1.94491 70.1277 1.99263 71.4792 2.46394C72.2968 2.74893 73.5502 3.32536 74.2653 3.74509C75.7689 4.62713 78.23 7.01475 79.2603 8.59173C83.3564 14.8589 81.5363 23.0318 74.451 30.1848C71.2414 33.4248 68.2535 35.1734 64.6609 35.9135C62.6055 36.3372 58.5524 36.2914 56.6478 35.8239C51.2789 34.5047 47.694 30.2345 47.0415 24.3827C46.5341 19.8306 47.8287 15.0936 50.5645 11.4925C52.8239 8.51878 57.103 5.01192 60.3004 3.51351C62.9664 2.26396 64.4185 1.94287 67.3928 1.9448L67.3927 1.94427ZM68.1645 3.61104L68.0574 4.81804L67.9498 6.02504L66.1882 6.0792C64.1714 6.14109 63.9779 6.02568 63.9258 4.73551C63.8987 4.06624 63.8832 4.09655 63.7865 5.00309L63.6775 6.0244L61.916 6.07855C60.3995 6.12498 60.1203 6.08565 59.9089 5.80002C59.6755 5.48408 59.6536 5.48408 59.4782 5.79292C59.377 5.97152 59.11 6.12626 58.885 6.13658C58.5078 6.15399 58.5123 6.16495 58.9404 6.28423C59.3995 6.41189 59.4047 6.43639 59.4047 8.44866V10.4835H55.6895L55.5818 9.36936C55.4877 8.39706 55.4696 8.35708 55.4426 9.05665C55.3929 10.3333 55.1789 10.5725 54.0583 10.6028L53.0898 10.6286L54.0537 10.7459C54.5837 10.8104 55.0712 10.9168 55.1363 10.9819C55.3652 11.2108 55.4413 14.2605 55.2279 14.659C55.0357 15.0181 54.8842 15.0432 53.2194 14.9942L51.4186 14.9414L51.3071 14.1057C51.2349 13.5648 51.1859 13.4545 51.1678 13.793C51.1298 14.5023 50.8222 15.0316 50.4373 15.049C50.1826 15.0606 50.1742 15.0839 50.3973 15.1632C50.9641 15.3656 51.1401 15.8531 51.1401 17.218C51.1401 19.1013 51.006 19.2981 49.6945 19.3405L48.6326 19.3753L49.6539 19.4411C50.9718 19.5262 51.1401 19.7583 51.1401 21.4901C51.1401 23.4263 51.0292 23.5707 49.5082 23.6139L48.2606 23.6494L49.4676 23.7132C50.318 23.7584 50.7435 23.868 50.9073 24.0846C51.1743 24.4386 51.2233 27.059 50.9705 27.4586C50.8802 27.6005 50.485 27.7791 50.0911 27.8551L49.3754 27.9938L50.0653 28.015C50.9222 28.0415 51.1278 28.38 51.173 29.8351C51.2059 30.8996 51.2078 30.8951 51.3122 29.5224L51.418 28.1291L53.2188 28.0762C54.9009 28.0266 55.0338 28.0498 55.2343 28.4238C55.4722 28.868 55.4155 31.6231 55.1634 31.8758C55.0789 31.9603 54.4522 32.0796 53.7707 32.1402L52.5321 32.2504L53.7797 32.2794C55.1131 32.3104 55.3794 32.5 55.4381 33.4574C55.4529 33.6941 55.5155 33.5535 55.5774 33.1447L55.6902 32.402H59.4054L59.4866 33.609C59.5388 34.3846 59.5891 34.5838 59.6278 34.166C59.6607 33.8082 59.7335 33.2414 59.7883 32.9062L59.8889 32.2962L63.6775 32.402L63.7852 33.5161C63.889 34.5871 63.8948 34.5961 63.9245 33.7631C63.9774 32.2911 63.9522 32.3085 66.0252 32.3085C67.7634 32.3085 67.8777 32.3323 68.0221 32.723L68.1755 33.1383L68.3071 32.723C68.3793 32.4948 68.5798 32.3039 68.7513 32.2982C69.0028 32.2911 68.9821 32.2311 68.6462 31.997C68.2671 31.7327 68.2284 31.5567 68.231 30.1033C68.2323 29.2219 68.3019 28.3928 68.3857 28.2613C68.4966 28.0859 69.0312 28.0362 70.3793 28.0756L72.2214 28.1291L72.3291 29.2432C72.4329 30.3142 72.4387 30.3239 72.4683 29.4902C72.5173 28.1233 72.5908 28.0395 73.7733 28.0021L74.8217 27.9685L73.8978 27.897C73.3897 27.8576 72.8674 27.7371 72.7372 27.6294C72.4903 27.4244 72.3929 24.6306 72.6128 24.0573C72.705 23.8175 73.057 23.7633 74.5407 23.7633C76.4652 23.7633 76.6665 23.8452 76.8218 24.6918C76.8933 25.0806 76.9114 25.0567 76.9327 24.5467C76.9482 24.1702 77.0745 23.8923 77.2628 23.8201C77.5439 23.7124 77.5433 23.6853 77.2557 23.4751C76.9933 23.2836 76.9527 22.9561 76.9972 21.4157L77.0507 19.5839L79.279 19.3788L77.0507 19.2125V15.3116L79.6517 15.144L77.0507 14.9402L76.9978 13.0052C76.9398 10.9001 76.9875 10.7898 77.9798 10.7377C78.4556 10.7125 78.4285 10.6919 77.7941 10.5952L77.0513 10.4823L76.8385 7.88132L76.8057 9.00515C76.7876 9.62348 76.6728 10.2289 76.5497 10.3521C76.4072 10.4946 75.6793 10.5752 74.5264 10.5752C73.0563 10.5752 72.7056 10.521 72.6133 10.2812C72.4032 9.73375 72.4902 6.75879 72.7236 6.52605C72.8461 6.40355 73.4522 6.28749 74.0705 6.26815L75.1943 6.23333L74.086 6.16498C72.8223 6.08697 72.5108 5.90257 72.4767 5.21267C72.4567 4.81485 72.4309 4.84515 72.3374 5.37516L72.2226 6.02508L70.4857 6.07859C69.3645 6.11341 68.6565 6.05538 68.4888 5.91611C68.3309 5.78523 68.2161 5.2894 68.1967 4.65496L68.1645 3.6098L68.1645 3.61104ZM61.0012 6.32742C61.243 6.32549 61.5422 6.33194 61.9161 6.34354L63.6776 6.3977V10.4842L61.8768 10.5371C60.245 10.5855 60.0574 10.5558 59.88 10.2244C59.6014 9.70345 59.6304 7.00641 59.9193 6.61109C60.0689 6.40606 60.2759 6.33259 61.0012 6.32742ZM65.2734 6.32742C65.5152 6.32549 65.8144 6.33194 66.1884 6.34354L67.9499 6.3977V10.4842L66.1819 10.5365C64.9659 10.5726 64.343 10.5178 64.185 10.3598C63.8717 10.0465 63.8762 7.04178 64.1908 6.61114C64.3404 6.40611 64.5474 6.33261 65.2728 6.32744L65.2734 6.32742ZM69.7243 6.33452C69.9506 6.33194 70.2053 6.33452 70.4857 6.34354L72.2227 6.39706V10.4836L70.3413 10.5358C68.7488 10.5803 68.4418 10.5423 68.3444 10.2882C68.2812 10.1232 68.229 9.25276 68.229 8.35457C68.229 7.18109 68.3019 6.66007 68.4889 6.50475C68.6146 6.40029 69.0446 6.34162 69.7242 6.33388L69.7243 6.33452ZM70.302 10.7532C71.1415 10.7615 71.9739 10.8531 72.1138 11.0214C72.2538 11.1903 72.3105 11.9215 72.2763 13.111L72.2228 14.9409L70.4549 14.9931C69.2388 15.0292 68.6159 14.9744 68.458 14.8165C68.1498 14.5083 68.1446 11.2916 68.4522 10.9839C68.6172 10.8189 69.4631 10.7434 70.3026 10.7518L70.302 10.7532ZM65.9834 10.7622C67.1633 10.7622 67.6861 10.835 67.8409 11.0214C67.9809 11.1903 68.0376 11.9215 68.0034 13.111L67.9499 14.9409L66.1491 14.9938C64.5172 15.0421 64.3297 15.0125 64.1522 14.6811C63.9001 14.2097 63.8975 11.59 64.1483 11.1207C64.316 10.8074 64.5494 10.7616 65.9833 10.7616L65.9834 10.7622ZM74.667 10.7622C76.7309 10.7622 76.7728 10.8041 76.7728 12.8982C76.7728 14.9923 76.7309 15.0343 74.667 15.0343C73.576 15.0343 72.8649 14.9524 72.7237 14.8112C72.5832 14.6706 72.5006 13.9652 72.5006 12.8981C72.5006 11.831 72.5825 11.1257 72.7237 10.9851C72.8649 10.8439 73.5768 10.762 74.667 10.762V10.7622ZM61.6872 10.7648C62.5776 10.7667 63.4132 10.8357 63.5448 10.9189C63.7208 11.0304 63.7698 11.5823 63.7305 13.0054L63.6776 14.9404L61.8768 14.9932C60.2449 15.0416 60.0573 15.0119 59.8799 14.6805C59.6278 14.2092 59.6252 11.5895 59.876 11.1202C60.0437 10.8069 60.2752 10.7611 61.6872 10.7636L61.6872 10.7648ZM57.6413 10.7686C58.3976 10.7783 59.1345 10.8312 59.2731 10.9195C59.4492 11.0311 59.4982 11.583 59.4588 13.006L59.406 14.941L57.6322 14.9932C56.6567 15.0223 55.7997 14.9874 55.7283 14.9159C55.6567 14.8443 55.598 13.9313 55.598 12.8861C55.598 11.3252 55.6503 10.9667 55.892 10.8739C56.1093 10.7907 56.885 10.7578 57.6413 10.7675L57.6413 10.7686ZM74.6671 15.2201C76.7195 15.2201 76.773 15.2717 76.773 17.2634C76.773 19.2551 76.7201 19.3067 74.6671 19.3067C73.5762 19.3067 72.865 19.2248 72.7239 19.0836C72.5853 18.945 72.5008 18.2583 72.5008 17.2635C72.5008 16.2687 72.5846 15.5818 72.7239 15.4434C72.8651 15.3022 73.5769 15.2201 74.6671 15.2201ZM61.0014 15.2433C61.2431 15.2414 61.5423 15.2479 61.9163 15.2595L63.6778 15.3136V19.2145L61.877 19.2673C60.2451 19.3157 60.0576 19.286 59.8801 18.9546C59.6029 18.4362 59.6312 15.921 59.9195 15.5277C60.069 15.3226 60.276 15.2491 61.0014 15.244V15.2433ZM65.2736 15.2433C65.5154 15.2414 65.8146 15.2479 66.1885 15.2595L67.95 15.3136V19.2145L66.1492 19.2673C64.5173 19.3157 64.3298 19.286 64.1524 18.9546C63.8751 18.4362 63.9035 15.921 64.1917 15.5277C64.3413 15.3226 64.5482 15.2491 65.2736 15.244V15.2433ZM53.9355 15.244C55.3604 15.2324 55.3688 15.4651 55.3688 17.2633C55.3688 19.2911 55.3527 19.3066 53.2772 19.3066C51.9741 19.3066 51.4757 19.2408 51.4067 19.0603C51.3545 18.9249 51.3364 18.0261 51.3661 17.0634L51.4203 15.3129L53.2346 15.2594C53.5002 15.2523 53.7323 15.2452 53.9361 15.2433L53.9355 15.244ZM69.7244 15.2504C69.9508 15.2479 70.2054 15.2504 70.4859 15.2595L72.2228 15.313L72.2763 17.155C72.3157 18.5039 72.266 19.0377 72.0907 19.1486C71.7077 19.3917 68.7069 19.3375 68.4522 19.0835C68.1215 18.7527 68.1524 15.7011 68.489 15.4212C68.6147 15.3167 69.0449 15.2582 69.7244 15.2504ZM55.6917 15.313H59.4069V19.2138L57.5926 19.2667C56.196 19.308 55.7556 19.2622 55.6815 19.0668C55.628 18.9276 55.6086 18.0262 55.6383 17.0635L55.6925 15.313L55.6917 15.313ZM55.0457 19.4787L55.2449 19.9965C55.5325 20.7425 55.3835 23.1803 55.0373 23.3995C54.6994 23.6129 51.8812 23.6303 51.5517 23.4214C51.3763 23.3105 51.3267 22.776 51.366 21.4279L51.4195 19.5858L53.2326 19.5329L55.0456 19.4794L55.0457 19.4787ZM74.668 19.4923C76.7203 19.4923 76.7738 19.5439 76.7738 21.5356C76.7738 23.5272 76.7209 23.5788 74.668 23.5788C73.577 23.5788 72.8658 23.4969 72.7247 23.3557C72.5861 23.2171 72.5016 22.5304 72.5016 21.5356C72.5016 20.5408 72.5854 19.854 72.7247 19.7155C72.8659 19.5743 73.5777 19.4923 74.668 19.4923ZM61.0022 19.5155C61.244 19.5136 61.5431 19.52 61.9171 19.5316L63.6786 19.5858L63.7321 21.4278C63.7715 22.7767 63.7218 23.3105 63.5464 23.4214C63.4149 23.5046 62.5741 23.5742 61.6773 23.5762C60.0976 23.5788 60.0422 23.5646 59.8661 23.1023C59.6043 22.4137 59.6411 20.1809 59.9203 19.7991C60.0699 19.5941 60.2768 19.5207 61.0022 19.5155ZM65.2744 19.5155C65.5162 19.5136 65.8154 19.52 66.1893 19.5316L67.9509 19.5858L68.0044 21.4278C68.0437 22.7767 67.9941 23.3105 67.8187 23.4214C67.6871 23.5046 66.8509 23.5742 65.9604 23.5762C64.5484 23.5788 64.3169 23.533 64.1492 23.2196C63.8746 22.7064 63.9062 20.1899 64.1924 19.7991C64.342 19.594 64.5491 19.5207 65.2744 19.5155ZM69.7252 19.5226C69.9516 19.52 70.2063 19.5226 70.4867 19.5316L72.2236 19.5851L72.2772 21.3221C72.312 22.4433 72.2539 23.1512 72.1147 23.3189C71.8348 23.6555 68.7831 23.6871 68.4523 23.3563C68.1216 23.0256 68.1525 19.9739 68.4891 19.694C68.6148 19.5895 69.0449 19.5309 69.7245 19.5231L69.7252 19.5226ZM55.6925 19.5851H59.4077L59.4612 21.4272C59.5005 22.776 59.4509 23.3099 59.2755 23.4208C59.144 23.504 58.3677 23.5723 57.5502 23.5723C56.7326 23.5723 55.9563 23.504 55.8248 23.4208C55.6494 23.3099 55.5998 22.7754 55.6391 21.4272L55.6925 19.5851ZM54.218 23.7851C54.9743 23.7877 55.0865 23.8708 55.2367 24.152C55.5494 24.7361 55.3985 27.4434 55.0407 27.6697C54.7015 27.8844 51.8839 27.9031 51.5525 27.6929C51.3771 27.582 51.3275 27.0475 51.3668 25.6993L51.4203 23.8573L53.2211 23.8044C53.6415 23.7921 53.9659 23.7844 54.218 23.7851ZM60.8822 23.7851C61.1343 23.7844 61.458 23.7915 61.8791 23.8044L63.6799 23.8573L63.7334 25.6994C63.7727 27.0482 63.7231 27.582 63.5477 27.6929C63.2163 27.9031 60.3993 27.8844 60.0595 27.6697C59.7016 27.4434 59.5508 24.7361 59.8635 24.152C60.0137 23.8715 60.1259 23.7883 60.8822 23.7851ZM65.4536 23.7947C65.6799 23.7922 65.9346 23.7947 66.215 23.8038L67.952 23.8573L68.0055 25.5942C68.0403 26.7155 67.9823 27.4234 67.843 27.5911C67.5213 27.9786 64.6443 27.9535 64.2503 27.5595C63.8564 27.1656 63.8306 24.288 64.2181 23.9662C64.3438 23.8617 64.7739 23.803 65.4534 23.7953L65.4536 23.7947ZM69.7258 23.7947C69.9521 23.7922 70.2068 23.7947 70.4873 23.8038L72.2242 23.8573L72.2777 25.5942C72.3125 26.7155 72.2545 27.4234 72.1152 27.5911C71.7935 27.9786 68.9165 27.9535 68.5225 27.5595C68.1286 27.1656 68.1028 24.288 68.4903 23.9662C68.616 23.8617 69.0461 23.803 69.7257 23.7953L69.7258 23.7947ZM55.6931 23.8573H59.4083L59.4618 25.6994C59.5011 27.0482 59.4515 27.582 59.2761 27.6929C59.1446 27.7761 58.3683 27.8445 57.5507 27.8445C56.7332 27.8445 55.9569 27.7761 55.8254 27.6929C55.65 27.582 55.6003 27.0475 55.6397 25.6994L55.6931 23.8573ZM61.2162 28.0605C61.4212 28.0612 61.6539 28.067 61.9183 28.0754L63.6798 28.1295L63.7333 29.9716C63.7727 31.3204 63.723 31.8543 63.5477 31.9652C63.4161 32.0483 62.6224 32.118 61.7835 32.1199C60.4514 32.1225 60.2103 32.0709 59.8795 31.7163C59.5816 31.3965 59.501 31.3726 59.501 31.6035C59.501 31.7653 59.3689 31.9478 59.207 32.0097C58.7725 32.1766 56.1024 32.1412 55.8253 31.9652C55.6499 31.8543 55.6003 31.3198 55.6396 29.9716L55.6931 28.1295H59.4083L59.6185 31.1019L59.6526 29.8833C59.6965 28.3165 59.7803 28.0579 61.2169 28.0612L61.2162 28.0605ZM65.4536 28.0663C65.6799 28.0638 65.9346 28.0663 66.215 28.0754L67.952 28.1289L68.0055 29.9709C68.0448 31.3198 67.9952 31.8536 67.8198 31.9645C67.6883 32.0477 66.8971 32.1173 66.0616 32.1193C64.9255 32.1212 64.469 32.0483 64.2504 31.8304C63.8564 31.4365 63.8306 28.5589 64.2181 28.2371C64.3439 28.1326 64.774 28.0741 65.4536 28.0663ZM31.2945 48.5964L26.3529 53.2973H33.3828L34.4248 52.0046L31.2945 48.5964ZM23.9396 55.5263L21.4231 58.1686L28.5646 58.313L31.0811 55.6714L23.9396 55.527V55.5263ZM18.9053 60.5413L16.3249 63.1417H23.9403L26.5206 60.5413H18.9053ZM14.212 65.3706C13.9096 65.8026 13.2732 66.2939 13.25 66.8426C13.25 67.6531 15.3081 69.7325 16.3733 69.9994C16.4055 70.0084 16.6144 69.9169 16.8375 69.7982C17.3584 69.5216 21.4223 65.7363 21.4223 65.528L14.2112 65.3706L14.212 65.3706Z" fill="#3B4650"/>
<path id="Vector_2" d="M15.7584 0.000964329C11.6397 0.0499672 7.76657 1.66064 4.68589 4.7522C2.57049 6.87537 1.1764 9.29068 0.360178 12.2476C-0.146604 14.0845 -0.113081 18.1653 0.425944 20.1536C1.57491 24.3968 3.94122 28.1623 7.83877 31.9509C13.1819 37.1445 17.8784 38.8628 25.553 38.4301C28.7678 38.2489 31.2584 38.4585 33.4596 39.0968C34.1205 39.2883 34.6744 39.4759 35.1915 39.69L39.6372 35.2347C39.3502 34.579 39.1162 33.8955 38.895 33.1187C38.5082 31.7614 38.4772 31.2553 38.4514 25.9927C38.4218 19.8817 38.3025 18.8448 37.3096 16.0789C36.6887 14.3484 36.0955 13.1884 35.02 11.5979C32.352 7.65129 28.0365 3.87044 23.9713 1.91745C21.3665 0.665973 18.7184 0.0341256 16.158 0.00193903C16.0245 4.69805e-06 15.8917 4.69805e-06 15.7589 0.00193903L15.7584 0.000964329ZM15.7984 1.94421C18.7728 1.94228 20.2246 2.26401 22.8908 3.51292C26.0882 5.01135 30.3675 8.51819 32.6267 11.4919C35.3624 15.0922 36.6578 19.83 36.1497 24.3821C35.4973 30.2346 31.9117 34.5048 26.5428 35.8233C24.6382 36.2914 20.5851 36.3366 18.5296 35.913C14.937 35.1728 11.9485 33.4242 8.73962 30.1842C1.65494 23.0312 -0.165174 14.8588 3.93094 8.59114C4.96128 7.01404 7.42162 4.62707 8.92598 3.74449C9.64101 3.32475 10.8951 2.74833 11.712 2.46335C13.0634 1.99202 13.4336 1.94497 15.7986 1.94368L15.7984 1.94421ZM15.0266 3.61356L14.9944 4.65614C14.975 5.2906 14.8603 5.78642 14.7023 5.9173C14.5347 6.05657 13.8267 6.11395 12.7054 6.07978L10.9685 6.02626L10.8537 5.37634C10.7602 4.84699 10.7344 4.81669 10.7145 5.21386C10.6796 5.9044 10.3688 6.08881 9.10512 6.16617L7.99678 6.23451L9.1206 6.26933C9.73893 6.28868 10.3444 6.40473 10.4675 6.52724C10.7003 6.76001 10.788 9.73501 10.5778 10.2823C10.4856 10.5222 10.1348 10.5763 8.66474 10.5763C7.51189 10.5763 6.78454 10.4964 6.64144 10.3533C6.51893 10.2307 6.40352 9.62466 6.38546 9.00633L6.35258 7.88251L6.1398 10.4835L5.39703 10.5964C4.76258 10.6931 4.73551 10.7137 5.21134 10.7388C6.20363 10.7911 6.25135 10.9013 6.19331 13.0064L6.14044 14.9414L3.53943 15.1452L6.14044 15.3128V19.2137L3.91214 19.38L6.14044 19.585L6.19396 21.4169C6.23909 22.9579 6.19783 23.2847 5.93541 23.4763C5.64784 23.6865 5.64784 23.7136 5.92832 23.8213C6.11658 23.8935 6.24295 24.1714 6.25844 24.5479C6.27971 25.0579 6.29777 25.0818 6.36934 24.693C6.52472 23.8464 6.72654 23.7645 8.65046 23.7645C10.1341 23.7645 10.4854 23.818 10.5777 24.0585C10.7976 24.6317 10.7002 27.4254 10.4533 27.6306C10.323 27.7389 9.80076 27.8595 9.29269 27.8982L8.36873 27.9697L9.41713 28.0033C10.5996 28.0413 10.6731 28.1245 10.7221 29.4914C10.7524 30.3244 10.7576 30.3147 10.8614 29.2438L10.9691 28.1296L12.8111 28.0761C14.16 28.0368 14.6938 28.0864 14.8047 28.2618C14.8879 28.3933 14.9582 29.2225 14.9595 30.1039C14.962 31.5572 14.9234 31.7332 14.5442 31.9976C14.2083 32.2323 14.1877 32.291 14.4391 32.2987C14.6113 32.3045 14.8105 32.4953 14.8834 32.7236L15.0149 33.1388L15.1684 32.7236C15.3128 32.3322 15.4269 32.309 17.1653 32.309C19.2376 32.309 19.213 32.2916 19.266 33.7636C19.2963 34.5966 19.3014 34.587 19.4052 33.5166L19.5129 32.4019L23.3015 32.2961L23.4028 32.9061C23.4582 33.2413 23.5304 33.8087 23.5633 34.1659C23.602 34.5837 23.6523 34.3845 23.7045 33.6088L23.7857 32.4019H27.5009L27.6144 33.1446C27.6763 33.5534 27.7388 33.694 27.7537 33.4573C27.8123 32.4998 28.0786 32.3103 29.412 32.2793L30.659 32.2503L29.4204 32.1401C28.7389 32.0795 28.1122 31.9608 28.0277 31.8757C27.7756 31.623 27.7189 28.8678 27.9568 28.4237C28.1573 28.0491 28.2901 28.0265 29.973 28.0761L31.7738 28.129L31.8802 29.5223C31.9846 30.895 31.9866 30.8996 32.0194 29.835C32.0646 28.3798 32.2702 28.0413 33.1271 28.0149L33.817 27.9936L33.1014 27.855C32.7074 27.7789 32.3122 27.6003 32.2225 27.4585C31.9698 27.0587 32.0182 24.4384 32.2851 24.0845C32.4489 23.8679 32.8744 23.7583 33.7249 23.7131L34.9318 23.6493L33.6849 23.6138C32.1639 23.57 32.053 23.4256 32.053 21.49C32.053 19.7582 32.2213 19.5261 33.5392 19.441L34.5605 19.3752L33.4992 19.3404C32.1871 19.2978 32.053 19.1012 32.053 17.2179C32.053 15.8529 32.229 15.3654 32.7958 15.1631C33.0188 15.0831 33.0111 15.0605 32.7558 15.0489C32.3709 15.0309 32.0627 14.5022 32.0246 13.7929C32.0066 13.4544 31.9576 13.5647 31.8853 14.1056L31.7738 14.9412L29.973 14.9941C28.3082 15.0431 28.1567 15.018 27.9646 14.6589C27.7511 14.2604 27.8266 11.2106 28.0555 10.9818C28.1206 10.9167 28.608 10.8103 29.138 10.7458L30.1013 10.6285L29.1329 10.6021C28.0123 10.5717 27.7982 10.3325 27.7485 9.0559C27.7215 8.35698 27.7034 8.39695 27.6093 9.36861L27.501 10.4828H23.7858V8.44791C23.7858 6.43567 23.791 6.41173 24.25 6.28348C24.6788 6.1642 24.6833 6.15324 24.3055 6.13583C24.0805 6.12551 23.8142 5.97077 23.713 5.79218C23.5382 5.48333 23.5163 5.48398 23.2822 5.79927C23.0708 6.08555 22.7909 6.12424 21.2745 6.07781L19.5129 6.02365L19.404 5.00234C19.3073 4.09516 19.2918 4.06485 19.2647 4.73476C19.2131 6.02494 19.0191 6.1397 17.0022 6.07845L15.2407 6.02429L15.133 4.81729L15.0266 3.61356ZM17.9178 6.32731C18.6431 6.33182 18.8495 6.40597 18.9997 6.61101C19.3143 7.04172 19.3195 10.0462 19.0055 10.3597C18.8482 10.517 18.2247 10.5725 17.0086 10.5363L15.2407 10.4841V6.39757L17.0028 6.34341C17.3768 6.3318 17.676 6.32602 17.9178 6.32731ZM22.19 6.32731C22.9154 6.33182 23.1217 6.40597 23.272 6.61101C23.5608 7.0056 23.5898 9.70323 23.3106 10.2243C23.1333 10.5557 22.9457 10.5854 21.3137 10.537L19.5129 10.4842V6.39762L21.2751 6.34346C21.6491 6.33185 21.9482 6.32602 22.19 6.32731ZM13.467 6.3344C14.1465 6.34278 14.5766 6.40081 14.703 6.50527C14.89 6.66001 14.9622 7.18163 14.9622 8.35509C14.9622 9.25389 14.9106 10.1237 14.8468 10.2888C14.7494 10.5428 14.4425 10.5808 12.8499 10.5364L10.9685 10.4841V6.39758L12.7054 6.34407C12.9859 6.33568 13.24 6.33246 13.4663 6.33504L13.467 6.3344ZM12.8893 10.753C13.7287 10.7447 14.574 10.8195 14.7391 10.9851C15.046 11.2921 15.0415 14.5095 14.7333 14.8177C14.576 14.975 13.9525 15.0304 12.7364 14.9943L10.9684 14.9421L10.9149 13.1123C10.8801 11.9227 10.9368 11.1915 11.0774 11.0226C11.2173 10.8543 12.0497 10.7628 12.8893 10.7544V10.753ZM8.5236 10.7621C9.61454 10.7621 10.3257 10.844 10.4668 10.9852C10.6074 11.1257 10.6899 11.8311 10.6899 12.8982C10.6899 13.9653 10.6081 14.6706 10.4668 14.8112C10.3256 14.9524 9.61381 15.0343 8.5236 15.0343C6.45969 15.0343 6.41776 14.9924 6.41776 12.8983C6.41776 10.8042 6.45968 10.7623 8.5236 10.7623V10.7621ZM17.2072 10.7621C18.6412 10.7621 18.874 10.8078 19.0422 11.1212C19.2936 11.5906 19.2904 14.2103 19.0383 14.6815C18.861 15.0129 18.6734 15.0426 17.0414 14.9942L15.2406 14.9414L15.1871 13.1115C15.1523 11.9219 15.209 11.1907 15.3496 11.0219C15.5043 10.8355 16.0272 10.7627 17.2072 10.7627L17.2072 10.7621ZM21.5032 10.7646C22.9153 10.7621 23.1467 10.8078 23.3144 11.1212C23.5659 11.5906 23.5633 14.2103 23.3112 14.6815C23.1339 15.0129 22.9463 15.0426 21.3143 14.9942L19.5135 14.9414L19.4606 13.0064C19.4213 11.5834 19.4703 11.0314 19.6463 10.9199C19.7779 10.8367 20.6135 10.7671 21.5039 10.7658L21.5032 10.7646ZM25.5492 10.7685C26.3055 10.7588 27.0818 10.7917 27.2985 10.8749C27.5396 10.9677 27.5925 11.3269 27.5925 12.8871C27.5925 13.9317 27.5338 14.8452 27.4622 14.9169C27.3907 14.9884 26.5338 15.0233 25.5583 14.9943L23.7845 14.942L23.7317 13.007C23.6923 11.584 23.7413 11.0321 23.9174 10.9205C24.056 10.8328 24.7923 10.7793 25.5492 10.7696L25.5492 10.7685ZM8.52326 15.22C9.61421 15.22 10.3254 15.3019 10.4665 15.4431C10.6051 15.5817 10.6896 16.2684 10.6896 17.2632C10.6896 18.258 10.6058 18.9448 10.4665 19.0833C10.3253 19.2245 9.61348 19.3064 8.52326 19.3064C6.47091 19.3064 6.41743 19.2548 6.41743 17.2631C6.41743 15.2715 6.4703 15.22 8.52326 15.22ZM17.9175 15.2432C18.6428 15.2477 18.8491 15.3219 18.9994 15.5269C19.2869 15.9202 19.3153 18.4361 19.0381 18.9539C18.8608 19.2853 18.6731 19.315 17.0412 19.2666L15.2404 19.2137V15.3129L17.0026 15.2587C17.3765 15.2471 17.6757 15.2413 17.9175 15.2426L17.9175 15.2432ZM22.1897 15.2432C22.9151 15.2477 23.1214 15.3219 23.2716 15.5269C23.5592 15.9202 23.5876 18.4361 23.3103 18.9539C23.133 19.2853 22.9454 19.315 21.3134 19.2666L19.5126 19.2137V15.3129L21.2748 15.2587C21.6487 15.2471 21.9479 15.2413 22.1897 15.2426L22.1897 15.2432ZM29.2557 15.2439C29.4595 15.2458 29.6916 15.2522 29.9572 15.26L31.7716 15.3135L31.8257 17.064C31.8554 18.0266 31.8367 18.9253 31.7851 19.0608C31.7161 19.2414 31.2177 19.3071 29.9147 19.3071C27.8385 19.3071 27.823 19.2917 27.823 17.2639C27.823 15.4656 27.8321 15.2328 29.2563 15.2445L29.2557 15.2439ZM13.4668 15.2503C14.1464 15.2587 14.5764 15.3167 14.7028 15.4212C15.0394 15.701 15.0703 18.7527 14.7396 19.0835C14.4849 19.3382 11.4841 19.3917 11.1012 19.1486C10.9258 19.0377 10.8761 18.5032 10.9155 17.1551L10.969 15.313L12.7059 15.2595C12.9864 15.2511 13.2405 15.2477 13.4668 15.2503ZM23.785 15.3129H27.5002L27.5543 17.0633C27.584 18.0259 27.5646 18.9273 27.5111 19.0666C27.4363 19.2614 26.9966 19.3071 25.6001 19.2665L23.7857 19.2136V17.2633L23.785 15.3129ZM28.1462 19.4786L29.9586 19.5321L31.7716 19.585L31.8251 21.4271C31.8644 22.7759 31.8148 23.3097 31.6394 23.4207C31.3093 23.6302 28.4911 23.6122 28.1538 23.3987C27.8076 23.1795 27.6593 20.7416 27.9469 19.9957L28.1462 19.4786ZM8.52393 19.4922C9.61487 19.4922 10.326 19.574 10.4672 19.7153C10.6058 19.8539 10.6903 20.5406 10.6903 21.5354C10.6903 22.5302 10.6064 23.217 10.4672 23.3555C10.326 23.4967 9.61414 23.5786 8.52393 23.5786C6.47157 23.5786 6.41809 23.527 6.41809 21.5353C6.41809 19.5437 6.47097 19.4922 8.52393 19.4922ZM17.9181 19.5154C18.6435 19.5199 18.8498 19.594 19 19.7991C19.2857 20.1898 19.3173 22.7069 19.0426 23.2196C18.875 23.533 18.6435 23.5787 17.2314 23.5762C16.341 23.5742 15.5047 23.5052 15.3732 23.4214C15.1978 23.3105 15.1481 22.776 15.1875 21.4278L15.241 19.5858L17.0032 19.5316C17.3771 19.52 17.6763 19.5141 17.9181 19.5154ZM22.1904 19.5154C22.9157 19.5199 23.122 19.594 23.2723 19.7991C23.5515 20.1808 23.5882 22.4143 23.3264 23.1023C23.1511 23.5639 23.095 23.5787 21.5152 23.5762C20.619 23.5742 19.7777 23.5052 19.6461 23.4214C19.4707 23.3105 19.4211 22.776 19.4604 21.4278L19.5139 19.5858L21.2761 19.5316C21.6501 19.52 21.9492 19.5142 22.191 19.5155L22.1904 19.5154ZM13.4673 19.5225C14.1469 19.5309 14.5769 19.5889 14.7033 19.6933C15.0399 19.9732 15.0708 23.0249 14.7401 23.3557C14.4093 23.6864 11.3577 23.6555 11.0784 23.3183C10.9391 23.1506 10.8817 22.4427 10.9159 21.3214L10.9694 19.5845L12.7063 19.531C12.9868 19.5226 13.2408 19.5194 13.4672 19.5219L13.4673 19.5225ZM23.7855 19.585H27.5007L27.5542 21.4271C27.5935 22.7759 27.5439 23.3097 27.3685 23.4207C27.237 23.5038 26.4607 23.5722 25.6431 23.5722C24.8256 23.5722 24.0499 23.5038 23.9184 23.4207C23.743 23.3098 23.6934 22.7753 23.7327 21.4271L23.7855 19.585ZM22.3109 23.785C23.0672 23.7875 23.1794 23.8714 23.3297 24.1518C23.6424 24.736 23.4915 27.4433 23.1336 27.6696C22.7945 27.8843 19.9769 27.903 19.6454 27.6928C19.4701 27.5819 19.4204 27.0474 19.4598 25.6992L19.5133 23.8571L21.3141 23.8043C21.7345 23.792 22.0588 23.7843 22.3109 23.785ZM28.9745 23.785C29.2266 23.7843 29.551 23.7914 29.9714 23.8043L31.7722 23.8572L31.8257 25.6992C31.865 27.0481 31.8154 27.5819 31.64 27.6928C31.3086 27.903 28.491 27.8843 28.1518 27.6696C27.7939 27.4433 27.6431 24.736 27.9564 24.1519C28.1066 23.8714 28.2182 23.7882 28.9745 23.785ZM13.4674 23.7946C14.1469 23.803 14.577 23.861 14.7034 23.9655C15.0909 24.2872 15.0651 27.1648 14.6711 27.5588C14.2772 27.9528 11.4003 27.9786 11.0785 27.5904C10.9392 27.4228 10.8818 26.7148 10.916 25.5935L10.9695 23.8566L12.7064 23.8031C12.9869 23.7947 13.2409 23.7915 13.4672 23.7941L13.4674 23.7946ZM17.7396 23.7946C18.4192 23.803 18.8492 23.861 18.9756 23.9655C19.3631 24.2872 19.3373 27.1648 18.9434 27.5588C18.5494 27.9528 15.6726 27.9786 15.3507 27.5904C15.2114 27.4228 15.154 26.7148 15.1882 25.5935L15.2417 23.8566L16.9786 23.8031C17.2591 23.7947 17.5132 23.7915 17.7395 23.7941L17.7396 23.7946ZM23.7856 23.8572H27.5007L27.5542 25.6992C27.5936 27.0481 27.5439 27.5819 27.3686 27.6928C27.237 27.776 26.4607 27.8443 25.6432 27.8443C24.8256 27.8443 24.05 27.776 23.9185 27.6928C23.7431 27.5819 23.6934 27.0474 23.7328 25.6992L23.7856 23.8572ZM21.9777 28.0611C23.4142 28.0572 23.498 28.3158 23.5419 29.8832L23.576 31.1018L23.6811 29.6156L23.7856 28.1294H27.5008L27.5543 29.9715C27.5936 31.3203 27.544 31.8541 27.3686 31.9651C27.0907 32.1411 24.4214 32.1765 23.9868 32.0095C23.825 31.9476 23.6928 31.7645 23.6928 31.6034C23.6928 31.3725 23.6122 31.3964 23.3143 31.7162C22.9836 32.0714 22.7425 32.1224 21.4104 32.1198C20.5716 32.1179 19.7772 32.0489 19.6457 31.9651C19.4704 31.8542 19.4207 31.3196 19.46 29.9715L19.5136 28.1294L21.2757 28.0752C21.5401 28.0669 21.7728 28.0611 21.9779 28.0604L21.9777 28.0611ZM17.7396 28.0669C18.4192 28.0753 18.8492 28.1333 18.9756 28.2377C19.3631 28.5595 19.3373 31.4371 18.9434 31.8311C18.7248 32.0497 18.2683 32.1225 17.1322 32.1199C16.2966 32.118 15.5054 32.049 15.374 31.9652C15.1986 31.8543 15.1489 31.3198 15.1883 29.9716L15.2418 28.1295L16.9787 28.076C17.2592 28.0676 17.5133 28.0643 17.7396 28.0669ZM47.3249 44.5116L44.4485 47.3944L47.1894 50.1423C48.1449 49.1861 49.1011 48.2299 50.0579 47.2744L47.3249 44.5116ZM51.8982 48.5962L48.7678 52.0043L49.8098 53.2971H56.8397L51.8982 48.5962ZM59.2531 55.526L52.1116 55.6704L54.6281 58.3127L61.7696 58.1683L59.2531 55.526ZM56.672 60.541L59.2524 63.1414H66.8678L64.2874 60.541H56.672ZM68.9805 65.3703L61.7694 65.5277C61.7694 65.7366 65.8333 69.5213 66.3543 69.7979C66.5774 69.9165 66.7863 70.0068 66.8185 69.9991C67.8836 69.7328 69.9418 67.6528 69.9418 66.843C69.9185 66.2943 69.2828 65.803 68.9798 65.371L68.9805 65.3703Z" fill="#3B4650"/>
</g>
<path id="Vector 1" d="M71.9256 40.7285L12.1328 40.8523L18.1369 49.5179L12.1328 58.4312H71.9256L66.0454 49.5179L71.9256 40.7285Z" fill="#3B4650"/>
<g id="MPR">
<path d="M31.0376 42.4614H36.3913V42.8424H35.2884V56.1163H36.3913V56.4973H30.2756V56.1163H31.3785V43.5843H31.2983L28.2906 56.4973H25.7842L22.2551 43.5241H22.1749V56.1163H23.2778V56.4973H20.5508V56.1163H21.6536V42.8424H20.5508V42.4614H25.9646L28.6314 52.7878L31.0376 42.4614Z" fill="white"/>
<path d="M37.1902 42.4614H43.0853C45.1037 42.4614 46.6076 42.7555 47.5968 43.3437C48.586 43.9185 49.0806 44.9545 49.0806 46.4516C49.0806 48.1092 48.479 49.2521 47.276 49.8804C46.1531 50.4552 44.5824 50.7426 42.5639 50.7426H42.4035V56.1163H44.9099V56.4973H37.1902V56.1163H38.4935V42.8424H37.1902V42.4614ZM42.4035 42.8424V50.3616H42.8246C43.6266 50.3616 44.1814 50.0876 44.4888 49.5395C44.7963 48.9914 44.95 48.1025 44.95 46.8727V45.9102C44.95 44.774 44.803 43.9786 44.5089 43.5241C44.2282 43.0696 43.7068 42.8424 42.9449 42.8424H42.4035Z" fill="white"/>
<path d="M56.1745 49.3992H55.1118V56.1163H56.4151V56.4973H49.8984V56.1163H51.2018V42.8424H49.8984V42.4614H55.9539C57.6917 42.4614 58.9215 42.555 59.6434 42.7421C60.3786 42.9159 60.8932 43.1298 61.1873 43.3838C61.8289 43.9051 62.1498 44.7339 62.1498 45.8701C62.1498 47.0064 61.869 47.8218 61.3076 48.3164C60.7462 48.7976 59.8907 49.085 58.741 49.1786V49.2387C59.8238 49.3858 60.5791 49.7066 61.0068 50.2012C61.4346 50.6958 61.6485 51.5246 61.6485 52.6876V53.7503C61.6485 54.4454 61.6819 54.9133 61.7487 55.1539C61.8289 55.3945 61.9893 55.5148 62.23 55.5148C62.4706 55.5148 62.6577 55.4078 62.7914 55.194C62.9384 54.9667 63.0721 54.4989 63.1924 53.7904L63.5333 53.8305C63.3863 54.9667 63.1256 55.7287 62.7513 56.1163C62.3904 56.504 61.6618 56.6978 60.5657 56.6978C59.4696 56.6978 58.6876 56.4438 58.2197 55.9359C57.7652 55.4145 57.538 54.4454 57.538 53.0284V51.5647C57.538 50.8161 57.4377 50.268 57.2372 49.9205C57.0501 49.5729 56.6958 49.3992 56.1745 49.3992ZM55.1118 42.8424V49.0182H55.7534C56.5154 49.0182 57.0768 48.7843 57.4377 48.3164C57.812 47.8485 57.9992 47.0866 57.9992 46.0305V45.4491C57.9992 44.393 57.8187 43.6979 57.4578 43.3637C57.1102 43.0162 56.5488 42.8424 55.7735 42.8424H55.1118Z" fill="white"/>
</g>
</g>
</svg>
