<svg width="20" height="21" viewBox="0 0 20 21" fill="none" xmlns="http://www.w3.org/2000/svg">
<g id="vuesax/bold/call-calling">
<g id="call-calling">
<path id="Vector" d="M14.6846 9.3737C14.3263 9.3737 14.043 9.08203 14.043 8.73203C14.043 8.4237 13.7346 7.78203 13.218 7.2237C12.7096 6.68203 12.1513 6.36536 11.6846 6.36536C11.3263 6.36536 11.043 6.0737 11.043 5.7237C11.043 5.3737 11.3346 5.08203 11.6846 5.08203C12.518 5.08203 13.393 5.53203 14.1596 6.34036C14.8763 7.0987 15.3346 8.04037 15.3346 8.7237C15.3346 9.08203 15.043 9.3737 14.6846 9.3737Z" fill="#3B2273"/>
<path id="Vector_2" d="M17.6924 9.37467C17.3341 9.37467 17.0508 9.08301 17.0508 8.73301C17.0508 5.77467 14.6424 3.37467 11.6924 3.37467C11.3341 3.37467 11.0508 3.08301 11.0508 2.73301C11.0508 2.38301 11.3341 2.08301 11.6841 2.08301C15.3508 2.08301 18.3341 5.06634 18.3341 8.73301C18.3341 9.08301 18.0424 9.37467 17.6924 9.37467Z" fill="#3B2273"/>
<path id="Vector_3" d="M9.20964 12.8747L7.66797 14.4163C7.34297 14.7413 6.8263 14.7413 6.49297 14.4247C6.4013 14.333 6.30964 14.2497 6.21797 14.158C5.35964 13.2913 4.58464 12.383 3.89297 11.433C3.20964 10.483 2.65964 9.53301 2.25964 8.59134C1.86797 7.64134 1.66797 6.73301 1.66797 5.86634C1.66797 5.29967 1.76797 4.75801 1.96797 4.25801C2.16797 3.74967 2.48464 3.28301 2.9263 2.86634C3.45964 2.34134 4.04297 2.08301 4.65964 2.08301C4.89297 2.08301 5.1263 2.13301 5.33464 2.23301C5.5513 2.33301 5.74297 2.48301 5.89297 2.69967L7.8263 5.42467C7.9763 5.63301 8.08464 5.82467 8.15964 6.00801C8.23464 6.18301 8.2763 6.35801 8.2763 6.51634C8.2763 6.71634 8.21797 6.91634 8.1013 7.10801C7.99297 7.29967 7.83464 7.49967 7.63464 7.69967L7.0013 8.35801C6.90963 8.44967 6.86797 8.55801 6.86797 8.69134C6.86797 8.75801 6.8763 8.81634 6.89297 8.88301C6.91797 8.94967 6.94297 8.99967 6.95964 9.04967C7.10964 9.32467 7.36797 9.68301 7.73464 10.1163C8.10964 10.5497 8.50963 10.9913 8.94297 11.433C9.0263 11.5163 9.11797 11.5997 9.2013 11.683C9.53464 12.008 9.54297 12.5413 9.20964 12.8747Z" fill="#3B2273"/>
<path id="Vector_4" d="M18.3083 15.6911C18.3083 15.9244 18.2667 16.1661 18.1833 16.3994C18.1583 16.4661 18.1333 16.5328 18.1 16.5994C17.9583 16.8994 17.775 17.1828 17.5333 17.4494C17.125 17.8994 16.675 18.2244 16.1667 18.4328C16.1583 18.4328 16.15 18.4411 16.1417 18.4411C15.65 18.6411 15.1167 18.7494 14.5417 18.7494C13.6917 18.7494 12.7833 18.5494 11.825 18.1411C10.8667 17.7328 9.90833 17.1828 8.95833 16.4911C8.63333 16.2494 8.30833 16.0078 8 15.7494L10.725 13.0244C10.9583 13.1994 11.1667 13.3328 11.3417 13.4244C11.3833 13.4411 11.4333 13.4661 11.4917 13.4911C11.5583 13.5161 11.625 13.5244 11.7 13.5244C11.8417 13.5244 11.95 13.4744 12.0417 13.3828L12.675 12.7578C12.8833 12.5494 13.0833 12.3911 13.275 12.2911C13.4667 12.1744 13.6583 12.1161 13.8667 12.1161C14.025 12.1161 14.1917 12.1494 14.375 12.2244C14.5583 12.2994 14.75 12.4078 14.9583 12.5494L17.7167 14.5078C17.9333 14.6578 18.0833 14.8328 18.175 15.0411C18.2583 15.2494 18.3083 15.4578 18.3083 15.6911Z" fill="#3B2273"/>
</g>
</g>
</svg>
