<svg width="16" height="16" viewBox="0 0 16 16" fill="none" xmlns="http://www.w3.org/2000/svg">
<path d="M4.82634 1.33398H3.55967C2.09967 1.33398 1.33301 2.10065 1.33301 3.55398V4.82065C1.33301 6.27398 2.09967 7.04065 3.55301 7.04065H4.81967C6.27301 7.04065 7.03967 6.27398 7.03967 4.82065V3.55398C7.04634 2.10065 6.27967 1.33398 4.82634 1.33398Z" fill="white"/>
<path d="M12.4466 1.33398H11.18C9.72663 1.33398 8.95996 2.10065 8.95996 3.55398V4.82065C8.95996 6.27398 9.72663 7.04065 11.18 7.04065H12.4466C13.9 7.04065 14.6666 6.27398 14.6666 4.82065V3.55398C14.6666 2.10065 13.9 1.33398 12.4466 1.33398Z" fill="white"/>
<path d="M12.4466 8.95312H11.18C9.72663 8.95312 8.95996 9.71979 8.95996 11.1731V12.4398C8.95996 13.8931 9.72663 14.6598 11.18 14.6598H12.4466C13.9 14.6598 14.6666 13.8931 14.6666 12.4398V11.1731C14.6666 9.71979 13.9 8.95312 12.4466 8.95312Z" fill="white"/>
<path d="M4.82634 8.95312H3.55967C2.09967 8.95312 1.33301 9.71979 1.33301 11.1731V12.4398C1.33301 13.8998 2.09967 14.6665 3.55301 14.6665H4.81967C6.27301 14.6665 7.03967 13.8998 7.03967 12.4465V11.1798C7.04634 9.71979 6.27967 8.95312 4.82634 8.95312Z" fill="white"/>
</svg>
