<svg width="12" height="12" viewBox="0 0 12 12" fill="none" xmlns="http://www.w3.org/2000/svg">
<path fill-rule="evenodd" clip-rule="evenodd" d="M10.9729 1.94578C11.2063 1.94578 11.4006 2.13958 11.4006 2.38618V2.61417C11.4006 2.85477 11.2063 3.05457 10.9729 3.05457H1.0289C0.794902 3.05457 0.600586 2.85477 0.600586 2.61417V2.38618C0.600586 2.13958 0.794902 1.94578 1.0289 1.94578H2.77833C3.1337 1.94578 3.44297 1.69318 3.52291 1.33679L3.61453 0.927591C3.75691 0.370196 4.22548 0 4.76175 0H7.23942C7.76985 0 8.24368 0.370196 8.38081 0.898191L8.47884 1.33619C8.5582 1.69318 8.86748 1.94578 9.22343 1.94578H10.9729ZM10.084 10.2805C10.2666 8.57831 10.5864 4.53435 10.5864 4.49355C10.598 4.36996 10.5578 4.25296 10.4778 4.15876C10.3921 4.07056 10.2835 4.01836 10.1639 4.01836H1.84157C1.72136 4.01836 1.60699 4.07056 1.52763 4.15876C1.4471 4.25296 1.40742 4.36996 1.41326 4.49355C1.41433 4.50105 1.4258 4.6435 1.44499 4.88165C1.53021 5.9396 1.76756 8.88618 1.92093 10.2805C2.02947 11.3077 2.70345 11.9533 3.67969 11.9767C4.43303 11.9941 5.20913 12.0001 6.00273 12.0001C6.75024 12.0001 7.50941 11.9941 8.28609 11.9767C9.29618 11.9593 9.96958 11.3251 10.084 10.2805Z" fill="#3B2273"/>
</svg>
