<svg width="10" height="11" viewBox="0 0 10 11" fill="none" xmlns="http://www.w3.org/2000/svg">
<path fill-rule="evenodd" clip-rule="evenodd" d="M6.92371 0C6.37818 0 5.85499 0.215939 5.46924 0.600312L3.04333 3.01755C1.92916 4.12774 1.13874 5.51879 0.756587 7.04195L0.639369 7.50915C0.517794 7.99371 0.958283 8.43263 1.44458 8.31149L1.91346 8.19469C3.44209 7.8139 4.83811 7.02631 5.95228 5.91611L8.37819 3.49887C8.76394 3.1145 8.98065 2.59318 8.98065 2.04959C8.98065 0.917634 8.05973 0 6.92371 0ZM6.22655 2.74427C6.59789 3.11428 7.02838 3.2719 7.3477 3.21653L7.72126 2.8443C7.93279 2.63353 8.05162 2.34766 8.05162 2.04959C8.05162 1.42889 7.54664 0.925714 6.92371 0.925714C6.62457 0.925714 6.33769 1.04412 6.12616 1.25489L5.7526 1.62712C5.69702 1.9453 5.85521 2.37425 6.22655 2.74427Z" fill="#3B2273"/>
<path fill-rule="evenodd" clip-rule="evenodd" d="M0 10.3371C0 10.0815 0.207971 9.87429 0.464516 9.87429H9.13548C9.39203 9.87429 9.6 10.0815 9.6 10.3371C9.6 10.5928 9.39203 10.8 9.13548 10.8H0.464516C0.207971 10.8 0 10.5928 0 10.3371Z" fill="#3B2273"/>
</svg>
