<svg width="20" height="20" viewBox="0 0 20 20" fill="none" xmlns="http://www.w3.org/2000/svg">
<path d="M10 8.18164V12.0544H15.3818C15.1455 13.2998 14.4363 14.3544 13.3727 15.0635L16.6181 17.5817C18.509 15.8363 19.5999 13.2726 19.5999 10.2272C19.5999 9.51812 19.5363 8.83623 19.4181 8.18175L10 8.18164Z" fill="#4285F4"/>
<path d="M4.39714 11.9033L3.66517 12.4636L1.07422 14.4818C2.71967 17.7454 6.09215 20 10.0012 20C12.7011 20 14.9647 19.1091 16.6193 17.5818L13.3739 15.0636C12.483 15.6636 11.3466 16.0273 10.0012 16.0273C7.40122 16.0273 5.19219 14.2728 4.40123 11.9091L4.39714 11.9033Z" fill="#34A853"/>
<path d="M1.07265 5.51855C0.390868 6.86395 0 8.38216 0 10.0003C0 11.6185 0.390868 13.1367 1.07265 14.4821C1.07265 14.4911 4.39998 11.9003 4.39998 11.9003C4.19998 11.3003 4.08177 10.6639 4.08177 10.0002C4.08177 9.33649 4.19998 8.70016 4.39998 8.10016L1.07265 5.51855Z" fill="#FBBC05"/>
<path d="M10.0014 3.98182C11.4742 3.98182 12.7832 4.49089 13.8287 5.47272L16.6923 2.60912C14.9559 0.990971 12.7014 0 10.0014 0C6.09235 0 2.71967 2.24545 1.07422 5.51819L4.40145 8.10001C5.19231 5.73635 7.40143 3.98182 10.0014 3.98182Z" fill="#EA4335"/>
</svg>
