<svg width="50" height="50" viewBox="0 0 50 50" fill="none" xmlns="http://www.w3.org/2000/svg">
<g id="Group 1000008916">
<circle id="Ellipse 148" cx="25" cy="25" r="24.5" fill="white" stroke="#027333"/>
<g id="Group 1000008915">
<path id="Vector" d="M18.592 17.3177L20.8057 15.1126L18.1715 12.4756C17.0888 12.7236 16.0884 13.2478 15.2686 13.9972L18.592 17.3177Z" fill="#027333"/>
<path id="Vector_2" d="M23.8205 17.3173L26.2 14.9405C25.4287 14.2049 24.5453 13.5968 23.583 13.1387L21.6152 15.1121L23.8205 17.3173Z" fill="#027333"/>
<path id="Vector_3" d="M26.4318 19.9289L28.3996 17.9584L28.3994 17.9582C27.9433 16.9971 27.336 16.1156 26.6005 15.3471L24.2266 17.7152L26.4318 19.9289Z" fill="#027333"/>
<path id="Vector_4" d="M19.0039 17.722L21.2103 15.5156L23.4167 17.722L21.2103 19.9284L19.0039 17.722Z" fill="#027333"/>
<path id="Vector_5" d="M21.6133 20.3347L23.8197 18.1284L26.024 20.3327L23.8177 22.5391L21.6133 20.3347Z" fill="#027333"/>
<path id="Vector_6" d="M23.8204 23.3496L21.6152 25.5547L24.2579 28.1974C25.3375 27.95 26.3353 27.4289 27.1552 26.6845L23.8204 23.3496Z" fill="#027333"/>
<path id="Vector_7" d="M18.902 33.6025C18.1256 33.602 17.3933 33.9627 16.9203 34.5781C16.4473 35.1937 16.2876 35.9943 16.488 36.7443C16.6885 37.4943 17.2262 38.1082 17.9434 38.4057C18.6603 38.7033 19.4749 38.6502 20.1474 38.2626C20.8198 37.8747 21.2738 37.1964 21.3755 36.4268C21.4773 35.6572 21.2152 34.8841 20.6666 34.3347C20.1999 33.8649 19.5644 33.6013 18.902 33.6026L18.902 33.6025Z" fill="#027333"/>
<path id="Vector_8" d="M18.5937 23.3496L16.2227 25.7234C16.9935 26.4572 17.8759 27.0644 18.8367 27.5225L20.8073 25.552L18.5937 23.3496Z" fill="#027333"/>
<path id="Vector_9" d="M15.9893 19.9288L18.1947 17.7151L14.874 14.3887C14.1244 15.2071 13.5983 16.2051 13.3467 17.2862L15.9893 19.9288Z" fill="#027333"/>
<path id="Vector_10" d="M15.9901 20.7379L14.0166 22.7057C14.4747 23.668 15.083 24.5512 15.8187 25.3226L18.1983 22.943L15.9901 20.7379Z" fill="#027333"/>
<path id="Vector_11" d="M26.8359 20.3321L29.1983 22.6945C29.2697 22.1444 29.2822 21.5885 29.2356 21.0356C29.1633 20.174 28.9638 19.3277 28.6434 18.5246L26.8359 20.3321Z" fill="#027333"/>
<path id="Vector_12" d="M29.8412 27.2932L29.398 24.293C29.0536 25.2613 28.4977 26.1407 27.7705 26.867C27.0335 27.6008 26.1411 28.1599 25.1592 28.5031L28.1337 28.9779L29.8412 27.2932Z" fill="#027333"/>
<path id="Vector_13" d="M30.1468 27.7969L28.6309 29.3128L35.2378 35.9197V35.9195C35.4419 36.115 35.7133 36.224 35.9958 36.224C36.2783 36.224 36.5497 36.115 36.7537 35.9195C36.9552 35.7189 37.0686 35.4462 37.0686 35.1616C37.0686 34.8772 36.9552 34.6044 36.7537 34.4036L30.1468 27.7969Z" fill="#027333"/>
<path id="Vector_14" d="M21.2089 25.958L19.4014 27.7685C20.2053 28.086 21.0512 28.2855 21.9124 28.3604C22.4653 28.4063 23.0214 28.3927 23.5713 28.3204L21.2089 25.958Z" fill="#027333"/>
<path id="Vector_15" d="M15.5834 20.3321L13.2238 17.9725C13.1514 18.5225 13.138 19.0785 13.1837 19.6314C13.2575 20.4929 13.457 21.3389 13.7759 22.1426L15.5834 20.3321Z" fill="#027333"/>
<path id="Vector_16" d="M19.0039 22.9448L21.2083 20.7404L23.4126 22.9448L21.2083 25.1492L19.0039 22.9448Z" fill="#027333"/>
<path id="Vector_17" d="M16.3926 20.3336L18.5969 18.1292L20.8033 20.3356L18.599 22.54L16.3926 20.3336Z" fill="#027333"/>
<path id="Vector_18" d="M26.4317 20.7378L24.2236 22.9429L27.5614 26.295C28.3086 25.4692 28.8299 24.4643 29.0743 23.3777L26.4317 20.7378Z" fill="#027333"/>
<path id="Vector_19" d="M21.2084 14.7061L23.016 12.8986C22.2133 12.5801 21.3681 12.3817 20.5077 12.3094C20.2846 12.2808 20.0644 12.2808 19.8441 12.2808C19.513 12.2828 19.1825 12.3066 18.8545 12.3523L21.2084 14.7061Z" fill="#027333"/>
</g>
</g>
</svg>
