<svg width="20" height="20" viewBox="0 0 20 20" fill="none" xmlns="http://www.w3.org/2000/svg">
<g id="location_ic">
<g id="lo">
<path id="Vector" d="M18.3334 9.37508H16.6334C16.3334 6.20008 13.8001 3.65841 10.6251 3.36675V1.66675C10.6251 1.32508 10.3417 1.04175 10.0001 1.04175C9.65842 1.04175 9.37508 1.32508 9.37508 1.66675V3.36675C6.20008 3.66675 3.65841 6.20008 3.36675 9.37508H1.66675C1.32508 9.37508 1.04175 9.65842 1.04175 10.0001C1.04175 10.3417 1.32508 10.6251 1.66675 10.6251H3.36675C3.66675 13.8001 6.20008 16.3417 9.37508 16.6334V18.3334C9.37508 18.6751 9.65842 18.9584 10.0001 18.9584C10.3417 18.9584 10.6251 18.6751 10.6251 18.3334V16.6334C13.8001 16.3334 16.3417 13.8001 16.6334 10.6251H18.3334C18.6751 10.6251 18.9584 10.3417 18.9584 10.0001C18.9584 9.65842 18.6751 9.37508 18.3334 9.37508ZM10.0001 12.6001C8.56675 12.6001 7.40008 11.4334 7.40008 10.0001C7.40008 8.56675 8.56675 7.40008 10.0001 7.40008C11.4334 7.40008 12.6001 8.56675 12.6001 10.0001C12.6001 11.4334 11.4334 12.6001 10.0001 12.6001Z" fill="#FFBB34"/>
</g>
</g>
</svg>
