<svg width="302" height="340" viewBox="0 0 302 340" fill="none" xmlns="http://www.w3.org/2000/svg">
<path d="M140.048 404.081L142.338 407.081C142.008 400.921 140.778 395.081 142.038 389.181H142.478C142.576 389.606 142.649 390.037 142.698 390.471C143.038 395.821 143.298 401.161 143.698 406.471C143.72 408.522 144.102 410.553 144.828 412.471C145.68 414.466 146.024 416.641 145.828 418.801C145.454 421.915 146.081 425.067 147.618 427.801C147.705 427.934 147.772 428.079 147.818 428.231C148.918 433.471 153.218 436.841 155.518 441.381C154.438 437.451 153.378 433.531 151.128 430.061C150.568 429.191 150.198 428.201 149.678 427.311C148.958 426.081 148.148 424.901 147.408 423.681C147.028 423.071 146.718 422.411 146.408 421.781L146.698 421.571L147.628 422.021C147.628 418.111 147.678 414.201 147.628 410.301C147.578 407.431 147.388 404.571 147.288 401.711C147.299 401.429 147.36 401.151 147.468 400.891C147.888 399.721 148.638 399.521 149.538 400.351C149.82 400.579 150.069 400.845 150.278 401.141C151.808 403.461 153.278 405.801 154.668 408.251C151.668 406.971 151.128 403.471 148.518 401.251C148.518 402.531 148.518 403.461 148.518 404.391C148.738 408.861 148.988 413.331 149.208 417.801C149.208 418.431 149.138 419.071 149.108 419.711C149.018 421.581 148.818 423.371 150.028 425.141C151.27 427.177 152.385 429.288 153.368 431.461L153.728 431.371C153.728 430.451 153.728 429.531 153.728 428.611C153.628 426.681 153.438 424.751 153.378 422.811C153.258 419.431 153.218 416.041 153.108 412.651C153.108 412.431 152.768 412.181 152.538 412.001C152.308 411.821 151.758 411.411 151.358 411.121L151.468 410.761C151.942 410.748 152.415 410.791 152.878 410.891C154.448 411.461 155.998 412.111 157.558 412.731C158.118 412.951 158.658 413.211 159.218 413.411C161.588 414.281 161.718 414.201 162.098 411.851C159.978 411.261 157.878 410.701 155.798 410.071C155.208 409.891 154.318 409.791 154.558 408.841C155.079 408.738 155.617 408.759 156.128 408.901C158.238 409.461 160.338 410.101 162.528 410.731C163.038 409.341 163.758 408.241 163.048 406.821C162.942 406.544 162.898 406.247 162.921 405.951C162.943 405.655 163.031 405.368 163.178 405.111C163.928 404.051 164.178 403.111 162.708 401.991H164.448C166.638 399.131 168.158 398.711 170.118 400.521C170.331 400.374 170.528 400.206 170.708 400.021C176.088 393.531 182.768 388.571 189.958 384.351C195.428 381.141 201.198 378.451 206.808 375.491C209.998 373.821 213.128 372.061 216.288 370.341C216.698 370.111 217.118 369.901 217.528 369.681L217.768 369.941C217.28 370.507 216.734 371.019 216.138 371.471C212.938 373.421 209.708 375.341 206.448 377.201C204.678 378.201 202.798 379.021 201.018 380.011C196.308 382.621 191.508 385.111 186.958 388.011C180.979 391.716 175.612 396.328 171.048 401.681C170.408 402.441 170.628 403.921 170.428 405.151C171.297 404.859 172.191 404.648 173.098 404.521C173.698 404.521 174.608 404.731 174.848 405.151C175.09 405.801 175.064 406.519 174.778 407.151C174.502 407.682 174.069 408.115 173.538 408.391C171.949 409.37 170.115 409.88 168.248 409.861L168.428 410.751L169.118 410.431C169.118 410.601 169.238 410.731 169.208 410.821C168.468 413.051 167.848 415.321 166.938 417.481C166.028 419.641 164.788 421.591 163.858 423.711C163.528 424.772 163.288 425.859 163.138 426.961C162.939 427.51 162.695 428.042 162.408 428.551C161.818 427.711 161.408 427.171 161.028 426.551L160.178 428.551H159.878C159.791 428.252 159.747 427.942 159.748 427.631C159.948 425.951 159.808 424.171 160.958 422.711C161.064 422.547 161.12 422.356 161.118 422.161C161.118 419.891 161.118 417.621 161.118 415.441L154.238 412.961C154.418 414.781 154.618 416.551 154.758 418.321C154.853 419.115 154.853 419.917 154.758 420.711C153.978 425.261 154.848 429.791 154.878 434.331C154.878 436.281 155.928 438.241 156.608 440.151C157.088 441.328 157.635 442.477 158.248 443.591C158.328 443.751 158.488 443.871 158.838 443.941C158.558 442.031 158.308 440.121 157.988 438.231C157.988 438.021 157.558 437.831 157.288 437.701C157.018 437.571 156.448 437.351 155.928 437.141C157.268 436.271 161.308 437.061 164.108 438.681C163.828 437.561 163.558 436.601 163.358 435.621C163.158 434.641 163.028 433.621 162.868 432.621L163.168 432.541C163.327 432.739 163.464 432.954 163.578 433.181C164.578 435.971 165.578 438.761 166.528 441.551C166.705 442.055 166.749 442.596 166.654 443.122C166.559 443.648 166.33 444.14 165.988 444.551C165.006 446.027 163.56 447.135 161.878 447.701C161.273 447.871 160.633 447.871 160.028 447.701C158.97 447.401 157.983 446.893 157.124 446.206C156.265 445.519 155.553 444.667 155.028 443.701C153.178 440.541 151.028 437.531 149.028 434.461C148.847 434.245 148.689 434.01 148.558 433.761C146.608 428.951 143.838 424.361 144.468 418.831C144.588 416.385 144.108 413.948 143.068 411.731C142.052 409.249 140.659 406.938 138.938 404.881C136.208 401.461 134.418 397.601 134.538 393.131C134.644 391.66 134.982 390.216 135.538 388.851C135.766 388.157 136.178 387.539 136.732 387.063C137.285 386.587 137.958 386.271 138.678 386.151C140.4 385.863 142.136 385.669 143.878 385.571C146.038 385.572 148.178 385.168 150.188 384.381C151.19 383.892 152.258 383.555 153.358 383.381C155.418 383.091 156.358 383.891 156.588 385.951C156.588 386.211 156.588 386.481 156.668 386.811C158.868 385.201 160.968 383.621 163.108 382.121C168.942 378.03 174.018 372.954 178.108 367.121C180.419 364.004 182.91 361.026 185.568 358.201C188.628 354.821 191.788 351.531 195.008 348.301C197.228 346.081 199.638 344.031 202.178 341.711C200.898 340.611 199.618 339.381 198.178 338.311C196.468 337.001 194.698 335.751 192.868 334.611C190.768 333.239 188.576 332.013 186.308 330.941C180.688 328.441 174.918 326.261 169.308 323.671C166.472 322.196 163.742 320.525 161.138 318.671C160.851 318.441 160.501 318.302 160.134 318.271C159.767 318.241 159.4 318.321 159.078 318.501C157.788 319.14 156.45 319.682 155.078 320.121C151.478 321.231 146.208 319.321 144.488 315.371C143.858 313.921 142.388 312.821 141.268 311.591C140.518 310.751 139.708 309.961 138.918 309.151L139.138 308.871C139.36 308.861 139.58 308.895 139.788 308.971C142.258 310.531 144.608 312.161 146.018 314.971C146.945 316.488 148.017 317.911 149.218 319.221C149.298 319.321 149.508 319.331 149.658 319.351C152.954 319.663 156.259 318.864 159.048 317.081L157.628 315.491L157.768 315.271C158.205 315.553 158.659 315.807 159.128 316.031C159.718 316.291 160.358 316.451 160.968 316.681C161.214 316.757 161.439 316.887 161.628 317.061C161.973 317.527 162.361 317.959 162.788 318.351C167.318 321.351 172.328 323.251 177.358 325.261C184.118 327.961 190.948 330.661 196.748 335.351C199.138 337.281 201.808 338.841 203.748 341.291C204.266 341.788 204.829 342.236 205.428 342.631C206.988 343.931 208.508 345.261 210.088 346.541C210.839 347.123 211.62 347.663 212.428 348.161C212.798 348.401 213.308 348.471 213.588 348.781C213.908 349.228 214.173 349.711 214.378 350.221L212.918 350.501L212.348 352.951L211.738 352.851C211.818 351.851 211.908 350.851 212.008 349.741L209.418 348.311L208.798 352.061H208.268C208.149 351.527 208.069 350.986 208.028 350.441C208.023 349.717 208.103 348.995 208.268 348.291C208.402 347.827 208.363 347.33 208.159 346.893C207.955 346.456 207.599 346.107 207.158 345.911C206.868 348.591 206.588 351.241 206.318 353.911H205.638C205.638 353.041 205.638 352.171 205.638 351.311C205.685 349.871 205.812 348.436 206.018 347.011C206.338 345.271 205.578 344.331 203.918 343.781L202.268 356.841C201.058 352.241 202.508 347.781 202.928 343.081C201.738 343.721 201.038 344.341 201.028 345.631C201.028 347.581 200.858 349.541 200.718 351.491C200.671 351.993 200.503 352.477 200.228 352.901C199.368 350.641 199.998 348.331 199.808 346.041C199.528 347.411 199.248 348.791 198.958 350.171L198.428 350.081L198.748 346.771C197.848 347.611 197.118 348.201 196.478 348.881C193.128 352.431 189.708 355.881 186.478 359.581C183.608 362.861 180.898 366.281 178.268 369.751C173.68 375.991 167.903 381.263 161.268 385.261C159.817 386.108 158.411 387.033 157.058 388.031C156.555 388.445 156.226 389.035 156.138 389.681C156.023 390.955 156.023 392.237 156.138 393.511C156.158 394.319 156.381 395.109 156.786 395.808C157.192 396.507 157.767 397.093 158.458 397.511C159.458 398.121 160.458 398.661 161.458 399.231C161.858 399.461 162.238 399.701 162.618 399.941V400.331C162.166 400.435 161.701 400.472 161.238 400.441C158.108 399.681 154.648 397.441 154.648 393.121C154.594 391.375 154.769 389.631 155.168 387.931C155.708 385.851 155.038 384.471 152.708 385.191C151.769 385.513 150.853 385.901 149.968 386.351C149.86 386.422 149.769 386.518 149.705 386.631C149.641 386.744 149.604 386.871 149.598 387.001C149.621 389.512 149.822 392.018 150.198 394.501C150.519 396.06 151.241 397.509 152.293 398.703C153.346 399.898 154.692 400.796 156.198 401.311C157.507 401.816 158.757 402.459 159.928 403.231C155.878 403.071 152.498 401.641 150.218 398.151C147.938 394.661 148.368 390.811 148.368 386.841C147.508 386.951 146.778 387.081 146.048 387.131C144.138 387.261 142.228 387.321 140.328 387.471C139.355 387.485 138.418 387.837 137.675 388.466C136.933 389.096 136.432 389.963 136.258 390.921C135.838 392.571 135.518 394.251 135.158 395.921L135.558 395.871C135.902 396.377 136.187 396.92 136.408 397.491C137.019 399.984 138.262 402.278 140.018 404.151L140.048 404.081ZM159.048 438.351C159.128 438.851 159.218 439.271 159.268 439.701C159.478 441.501 159.778 443.311 159.848 445.131C159.848 446.231 160.368 446.911 161.398 446.581C162.23 446.369 163.005 445.979 163.671 445.439C164.338 444.899 164.879 444.22 165.258 443.451C165.396 443.096 165.446 442.714 165.404 442.336C165.363 441.959 165.23 441.596 165.018 441.281C163.298 439.841 161.598 438.311 159.048 438.351ZM163.948 418.451C164.013 417.774 164.242 417.124 164.615 416.556C164.988 415.988 165.494 415.519 166.088 415.191C167.158 414.501 167.398 413.461 167.798 412.191L164.048 414.811L163.718 414.391L167.188 410.901H164.048C162.208 414.901 162.678 419.201 162.448 423.491L165.518 417.341L165.348 417.221L163.948 418.451ZM168.608 406.581C170.298 405.941 169.548 404.391 169.658 403.091C168.348 403.091 168.348 403.091 168.938 401.401C168.814 401.26 168.669 401.138 168.508 401.041C167.308 400.571 164.978 402.371 165.158 403.661C165.245 403.945 165.425 404.191 165.668 404.361C166.538 405.081 167.488 405.771 168.558 406.581H168.608ZM174.138 405.861C173.513 405.7 172.855 405.72 172.241 405.918C171.627 406.116 171.081 406.485 170.668 406.981C170.568 407.141 170.198 407.101 170.018 407.241C169.648 407.531 169.318 407.871 169.018 408.241C169.298 408.431 169.668 408.851 169.838 408.781C171.017 408.293 172.166 407.735 173.278 407.111C173.548 406.851 173.748 406.331 174.048 405.861H174.138ZM165.428 405.751C164.908 408.081 165.148 408.521 167.058 408.751C167.518 407.471 167.048 406.471 165.378 405.751H165.428Z" fill="white"/>
<path d="M52.2484 84.2307L51.4184 83.8807L51.2184 84.7607L50.8384 84.8307L49.9484 81.0807C48.9484 82.4007 48.0284 81.6107 47.1284 80.9307C46.6484 80.5707 46.1284 80.2907 45.6484 79.9307C45.3669 79.6475 45.1155 79.3358 44.8984 79.0007C45.3225 78.9595 45.7502 78.9797 46.1684 79.0607C46.7264 79.2749 47.2438 79.5826 47.6984 79.9707C48.2984 80.4907 48.7484 80.3407 49.2584 79.8807C50.2584 78.9607 51.3284 77.9907 52.4584 77.1807C53.175 76.7628 53.9365 76.4274 54.7284 76.1807C54.9068 76.1157 55.0778 76.0319 55.2384 75.9307C59.7684 72.8707 63.3284 68.7607 67.1084 64.9307C73.5384 58.3707 79.8984 51.7307 86.2784 45.0807C87.8584 43.4407 89.4284 41.7907 90.9584 40.0807C91.1066 39.9105 91.2184 39.7118 91.2872 39.4969C91.356 39.282 91.3802 39.0553 91.3584 38.8307C90.8342 35.7474 90.9912 32.5868 91.8184 29.5707C92.8184 25.7407 93.5484 21.8707 95.3884 18.2907C96.9851 15.152 99.0335 12.2646 101.468 9.72069C104.264 6.8575 107.429 4.37909 110.878 2.35069C114.177 0.360378 118.073 -0.401057 121.878 0.200689C123.355 0.411233 124.743 1.03031 125.886 1.98803C127.03 2.94575 127.882 4.20398 128.348 5.62069C129.978 10.1307 129.528 14.7707 127.948 19.2507C124.403 29.281 118.742 38.4313 111.348 46.0807C109.199 48.1672 106.657 49.8056 103.868 50.9007C100.298 52.4907 96.7584 50.5007 94.9684 47.7307C94.2641 46.5113 93.6232 45.2563 93.0484 43.9707C91.3284 45.5907 89.5884 47.1507 87.9284 48.7907C81.9284 54.7307 75.9284 60.7207 69.8184 66.6207C67.2984 69.0707 64.5784 71.2907 62.0084 73.6807C61.0079 74.6548 60.0725 75.6937 59.2084 76.7907C58.3284 77.8507 57.5184 78.9807 56.5084 80.3007C56.103 79.7187 55.742 79.1069 55.4284 78.4707C55.0484 77.4707 54.5284 77.3707 53.7184 77.9507C53.2684 78.2707 52.7984 78.5607 52.4684 78.7707L53.6184 81.3107L53.1184 81.5907L51.6984 79.5907L51.3584 79.6507C51.3584 79.9707 51.4084 80.3007 51.4784 80.6507C51.7284 81.8707 51.9884 83.0907 52.2384 84.3107L52.2484 84.2307ZM110.248 39.0507L108.538 38.5307L107.768 46.6907L108.228 46.9107C108.818 46.1207 109.758 45.3907 109.918 44.5207C110.149 42.7067 110.26 40.8793 110.248 39.0507C110.338 38.1107 110.388 37.1607 110.518 36.2207C110.668 35.0807 110.028 34.7107 109.088 34.5107C108.448 37.1407 108.448 37.1607 110.148 38.8407C110.211 38.9102 110.259 38.9919 110.288 39.0807L110.248 39.0507ZM94.9084 24.1407L96.3184 22.2507C96.2929 22.8453 96.1748 23.4324 95.9684 23.9907C95.6084 25.4907 95.2584 26.9907 94.9684 28.5107C94.7984 29.3307 95.2084 29.7707 95.9684 29.9107L97.7484 22.1507L98.1384 22.2307L97.4584 26.0807C97.3284 26.8207 97.4584 27.3607 98.3684 27.2007C99.0684 24.7607 99.7584 22.3707 100.448 19.9807C100.258 22.1405 99.9242 24.2853 99.4484 26.4007C99.1484 27.8607 99.2184 27.9807 100.748 28.3107L102.648 22.0807L102.998 22.1807C102.598 24.1307 102.218 26.0807 101.778 28.0207C101.578 28.8907 101.778 29.4207 102.778 29.5607L104.578 22.1507L105.018 22.2407L104.388 26.2407H104.708C105.375 23.3674 106.042 20.4907 106.708 17.6107L107.038 17.6807C106.588 20.3907 106.158 23.1107 105.668 25.8107C105.518 26.6707 105.748 27.0807 106.668 27.1007C107.158 24.9107 107.668 22.7907 108.108 20.6607L108.438 20.7307C108.148 22.6407 107.838 24.5507 107.578 26.4607C107.398 27.8007 107.578 28.0307 109.078 28.3007C109.178 27.1307 110.078 25.8207 108.408 24.8707L109.618 24.7607C110.098 22.434 110.575 20.1007 111.048 17.7607L111.378 17.8307C111.288 18.5007 111.208 19.1707 111.098 19.8307C110.988 20.4907 110.718 21.2607 111.978 21.1107L112.628 18.9507C112.798 19.7107 112.478 20.5407 112.748 21.0907C113.018 21.6407 113.848 21.9007 114.678 22.4507V19.8407L120.068 21.8407L120.398 20.3607L121.058 23.0207C120.826 23.4115 120.657 23.8368 120.558 24.2807C120.468 26.2307 120.448 28.1907 120.418 30.1407C120.418 30.4307 120.478 30.7207 120.548 31.3007C121.018 30.5807 121.348 30.1407 121.548 29.6507C122.548 27.7307 123.548 25.8307 124.428 23.8507C126.428 19.2907 127.938 14.6407 127.648 9.50069C127.438 5.83069 124.578 2.05069 120.998 1.77069C119.998 1.68069 118.878 1.77069 117.808 1.77069V2.08069C118.978 2.34069 119.968 3.35069 121.098 2.99069L126.178 6.16069L126.038 6.45069L121.518 4.54069C121.128 5.42069 121.438 5.76069 122.228 6.00069C123.328 6.33069 124.398 6.80069 125.478 7.22069L125.318 7.67069L120.958 6.53069C121.208 7.19069 121.248 7.75069 121.518 7.91069C122.298 8.37069 123.218 8.62069 124.018 9.07069C124.46 9.40835 124.857 9.80159 125.198 10.2407H124.198C123.358 11.6807 125.078 11.7007 125.498 12.6007L123.618 12.1407L123.978 14.5107C122.858 14.5107 123.438 15.6607 123.298 16.3507C123.153 17.1746 123.053 18.0058 122.998 18.8407L122.528 18.7907C122.628 17.5207 122.758 16.2407 122.808 14.9607C122.808 14.6207 122.738 14.1007 122.508 13.9607C121.829 13.5798 121.124 13.2457 120.398 12.9607L120.108 13.3007C120.35 13.6036 120.611 13.8908 120.888 14.1607C121.244 14.4344 121.615 14.6882 121.998 14.9207L121.888 15.1207L120.208 14.6207L119.558 17.5407L119.188 17.4807C119.118 16.7791 119.118 16.0723 119.188 15.3707C119.267 15.1664 119.299 14.947 119.282 14.7287C119.265 14.5104 119.2 14.2986 119.091 14.1088C118.981 13.9191 118.831 13.7561 118.651 13.6319C118.47 13.5076 118.265 13.4252 118.048 13.3907C117.709 13.2856 117.375 13.1621 117.048 13.0207L116.598 14.3807C115.598 11.8307 115.398 11.6607 114.298 12.2107L112.298 10.6007L114.078 10.7507C113.858 9.58069 114.818 8.42069 113.798 7.54069C114.078 7.14069 114.508 6.78069 114.558 6.38069C114.481 5.85061 114.309 5.33896 114.048 4.87069L117.278 6.01069C117.278 4.64069 115.828 5.17069 115.428 4.42069L118.048 4.19069C118.318 5.27069 119.568 5.04069 120.598 5.41069L120.838 4.32069L116.418 1.94069C115.319 2.23276 114.246 2.61402 113.208 3.08069C106.942 6.15949 101.684 10.9603 98.0484 16.9207C96.8539 19.2565 95.8312 21.6762 94.9884 24.1607C93.7084 27.9907 93.6684 28.3007 94.4784 28.8207L94.9084 24.1407ZM62.5084 71.5507L62.7184 71.7707C64.9884 69.6507 67.2984 67.5807 69.5184 65.4007C73.3184 61.6807 77.0284 57.8707 80.8184 54.1507C84.3984 50.6207 88.0084 47.1507 91.6884 43.6707C92.6884 42.7807 92.3884 42.1407 91.8784 41.3207L62.5084 71.5507ZM111.048 43.7807C113.048 42.3907 113.448 41.6107 113.438 39.5507C113.438 38.9907 113.438 38.4407 113.438 37.8807C113.438 36.3107 113.268 36.1207 111.618 35.9907C111.398 38.5207 111.208 41.0807 111.048 43.7807ZM104.748 48.4807L105.148 48.7907C105.758 48.1107 106.628 47.5307 106.928 46.7307C107.175 45.7238 107.269 44.6856 107.208 43.6507C107.298 41.8707 107.288 41.8707 105.368 41.3507C105.118 43.7407 104.918 46.0807 104.708 48.4807H104.748ZM114.378 39.7307C115.848 38.5507 116.818 37.2507 116.608 35.2707C116.438 33.6107 116.488 33.5007 114.678 33.0807C114.538 35.3107 114.438 37.5207 114.338 39.7307H114.378ZM112.508 22.5707C112.438 23.2607 112.358 23.9207 112.308 24.5707C112.158 26.4107 112.308 26.5707 114.118 26.9207C114.188 26.2907 114.228 25.6607 114.308 25.0307C114.508 23.2407 114.438 23.1407 112.468 22.5707H112.508ZM115.188 24.0807L115.048 26.1707C114.898 27.8107 115.108 28.0907 116.778 28.4907C117.348 25.2107 117.188 24.7507 115.188 24.0807ZM111.848 31.3307C111.788 32.1407 111.758 32.8407 111.698 33.5407C111.568 35.1107 111.788 35.4107 113.378 35.6707C114.048 32.3607 113.978 32.2607 111.848 31.3007V31.3307ZM105.908 37.2607C105.268 40.4407 105.128 40.6907 107.368 41.3807C107.418 40.7907 107.438 40.1907 107.508 39.6007C107.708 37.8307 107.718 37.8307 105.908 37.2307V37.2607ZM55.9084 76.5607L56.8084 78.4807L60.7384 73.3707L60.6184 73.2807L55.9084 76.5607ZM113.698 31.0807C114.148 27.9507 114.208 28.0107 112.128 27.4507C111.648 30.1707 111.738 30.3907 113.698 31.0807ZM108.298 32.8007C108.37 32.127 108.487 31.4588 108.648 30.8007C109.068 29.5307 108.408 29.0807 107.248 28.8007C107.189 29.4451 107.079 30.0837 106.918 30.7107C106.508 31.8707 107.048 32.4607 108.298 32.7707V32.8007ZM106.638 33.1307C105.758 36.0807 105.858 36.4507 107.758 37.0207C107.777 36.3916 107.854 35.7656 107.988 35.1507C108.358 33.9107 107.858 33.3407 106.638 33.0807V33.1307ZM117.928 25.9507C117.308 28.8307 117.498 29.4007 119.288 30.0807C119.898 27.0807 119.748 26.6707 117.928 25.9207V25.9507ZM116.458 32.7107C116.898 29.6607 116.898 29.6607 115.038 29.0307C114.598 32.3207 114.418 31.8107 116.458 32.6807V32.7107ZM99.9884 32.4707C100.118 31.8207 100.238 31.2507 100.358 30.6807C100.658 29.2507 100.518 29.0507 99.0284 28.7507C97.9784 32.2707 98.3684 31.7007 99.9884 32.4407V32.4707ZM117.848 22.0807C117.648 24.5307 117.848 24.8607 119.558 25.6207C120.048 22.7307 120.048 22.7307 117.848 22.0807ZM118.738 33.9907C119.978 31.9907 119.578 30.6107 117.538 30.5807C117.878 31.7107 116.688 33.3107 118.738 33.9707V33.9907ZM101.048 49.8107C101.988 49.6107 102.258 48.5807 102.488 44.3707C102.488 44.0407 102.208 43.6907 102.058 43.3707L101.738 43.5107L101.048 49.8107ZM98.3584 32.8107C97.5784 35.5307 97.7084 35.9707 99.3584 36.3807C100.048 33.5007 100.048 33.5007 98.3484 32.7607L98.3584 32.8107ZM110.538 34.0807C111.178 31.7107 110.938 30.4807 109.778 30.0807C108.908 33.1907 108.938 33.3707 110.538 34.0807ZM93.5384 29.3707C92.9078 31.4865 92.7272 33.7109 93.0084 35.9007C93.8584 34.5207 94.2184 30.0807 93.5184 29.4107L93.5384 29.3707ZM117.048 23.8407C118.048 21.8407 117.588 21.1407 115.288 21.1107C115.048 22.6807 115.048 22.6807 117.048 23.8407ZM103.918 44.4707L103.448 44.5307L102.728 49.3107L102.998 49.5307C103.328 49.2307 103.928 48.9407 103.928 48.6307C103.958 47.2507 104.458 45.8207 103.918 44.4707ZM99.1684 45.8207C98.4184 49.0507 98.7584 49.6007 100.108 49.5307C100.368 46.0807 100.638 46.5607 99.1684 45.8207ZM120.718 10.8207C120.258 12.2507 120.908 12.9507 122.978 13.3407C123.538 11.7807 123.528 11.7707 120.718 10.8207ZM97.7784 48.3507C98.4184 45.3507 98.2984 44.8207 96.8684 44.2607C97.3084 45.6107 95.9084 47.1907 97.7784 48.3507ZM105.778 31.6707C106.778 28.9007 106.658 28.0507 105.298 27.8507C105.428 29.0807 104.358 30.3807 105.798 31.6707H105.778ZM101.778 33.5807C102.778 31.3207 102.708 30.5807 101.458 30.0807C100.678 32.0807 100.768 33.0807 101.848 33.5807H101.778ZM100.308 45.6407C100.828 42.4207 100.818 42.4007 99.5484 42.0007C99.0484 44.8507 99.0484 44.8507 100.378 45.6407H100.308ZM98.1484 43.9507C98.9184 41.1807 98.8384 40.8107 97.3784 40.3607C97.5384 41.5807 96.3384 43.0807 98.1484 43.9507ZM111.048 25.8907C111.948 23.2207 111.848 22.1907 110.658 22.0307C110.938 23.2407 109.738 24.5107 111.048 25.8907ZM123.358 11.0007C124.058 9.87069 123.798 9.93069 120.988 8.77069C120.608 9.99069 120.798 10.1707 123.398 11.0007H123.358ZM97.8584 36.7907C97.3484 38.8807 97.4284 39.1507 98.7184 39.7907C99.5084 37.8907 99.4084 37.4907 97.8584 36.7907ZM117.858 7.27069C117.458 8.72069 117.688 8.96069 119.768 9.38069C120.308 8.08069 120.118 7.88069 117.898 7.27069H117.858ZM102.578 42.8307C103.378 40.3007 103.268 39.6707 101.908 39.3907C102.358 40.5007 101.048 41.8107 102.578 42.8307ZM94.8684 30.5407C94.2284 32.4707 94.3384 33.4907 95.2184 33.9007C96.0484 31.4007 96.0484 31.0807 94.8684 30.5407ZM102.808 35.3407C101.898 37.8707 101.978 38.3407 103.388 38.6207C102.948 37.5807 104.168 36.3807 102.808 35.3407ZM117.548 9.61069C117.268 10.6107 117.788 11.1507 119.548 11.6107C119.868 10.2307 119.578 9.95069 117.548 9.61069ZM100.868 34.2107C100.078 36.2107 100.158 37.1407 101.268 37.4907C101.048 36.4107 102.508 35.2107 100.868 34.2107ZM104.948 32.1307C104.418 34.7507 104.438 35.0407 105.178 35.4907C105.948 33.6407 105.908 32.6707 104.948 32.1307ZM110.258 26.3107C109.678 29.0907 109.678 29.0907 111.088 29.3707C110.648 28.3907 111.878 27.1307 110.258 26.3107ZM95.4384 38.6207C95.5884 39.9507 94.6084 41.1807 96.0084 42.0607C95.9184 40.9907 97.0484 39.7207 95.4384 38.6207ZM100.218 38.2907C100.338 39.2907 99.0584 40.5007 100.858 41.4707C100.678 40.2207 101.588 39.0807 100.218 38.2907ZM116.808 8.19069C117.128 6.79069 116.398 6.13069 114.938 6.27069C114.628 7.79069 115.978 7.63069 116.808 8.19069ZM97.3284 31.0807C98.3284 28.7107 98.3284 28.1307 97.1984 27.9107C97.2484 28.8807 96.4884 29.9107 97.3284 31.0807ZM94.4284 37.6507H93.9184L93.6584 41.4307H94.0684C94.4965 40.2054 94.6201 38.8944 94.4284 37.6107V37.6507ZM117.258 11.1707C117.058 12.4607 117.488 12.8207 119.438 13.1707C119.348 11.7707 118.048 11.9007 117.258 11.1307V11.1707ZM96.8084 31.7807C96.6784 32.7807 95.8084 33.7807 96.8084 34.8607C96.8884 33.8307 97.7384 32.8207 96.8084 31.7807ZM103.988 31.3507H103.398C103.578 32.4207 102.458 33.4807 103.268 34.5507H103.718L103.988 31.3507ZM115.048 8.20069C114.678 9.67069 114.818 9.84069 116.488 10.0507C117.048 8.56069 115.748 8.68069 115.048 8.20069ZM104.518 40.5507H104.088C103.488 42.4607 103.498 43.2707 104.268 43.9707L104.518 40.5507ZM104.588 36.4507C104.538 37.5107 103.828 38.5707 104.588 39.6107C104.578 38.5507 105.418 37.5007 104.588 36.4507ZM95.4684 45.4507L95.8284 45.3807C96.0184 43.1307 96.0184 43.1307 94.8284 42.5607L95.4684 45.4507ZM118.048 5.84069C118.458 6.74069 119.398 6.84069 120.208 7.18069C120.338 6.17069 120.048 5.99069 118.048 5.84069ZM96.5184 38.0807C96.8284 35.9607 96.8284 35.9607 96.0184 35.7107C95.6184 37.5507 95.6184 37.5507 96.5184 38.0807ZM114.818 10.2007C114.568 11.4707 115.538 11.4107 116.208 11.7407C116.648 10.3507 115.528 10.5707 114.818 10.2407V10.2007ZM94.8184 36.8107C94.7184 35.9207 95.4884 35.0907 94.3184 34.6507C94.5784 35.3507 93.5484 36.1807 94.8684 36.8507L94.8184 36.8107ZM104.538 27.1707H104.148L103.678 30.2507L104.078 30.3107L104.538 27.1707Z" fill="white"/>
<path d="M27.0483 369.98C28.0877 368.684 29.0462 367.325 29.9183 365.91C30.9183 364.08 32.4783 363.35 34.2583 362.47C38.9083 360.19 44.1383 360.55 48.8683 358.84C49.8869 358.527 50.8882 358.159 51.8683 357.74C56.8683 355.25 62.3083 354.22 67.7883 353.5C72.2583 352.91 76.7883 352.36 81.2583 352.14C83.7702 352.195 86.2743 352.442 88.7483 352.88L89.7483 353.01C89.8783 352.5 89.9883 352.01 90.1283 351.52C92.2483 343.81 92.5083 335.92 92.5383 327.98C92.5383 321.39 92.7683 314.79 93.0583 308.2C93.2913 305.833 93.6518 303.479 94.1383 301.15L92.0283 301.75C90.7683 302.1 90.0283 301.75 90.1083 300.44C90.1381 298.611 90.3288 296.787 90.6783 294.99C91.9715 289.178 92.642 283.245 92.6783 277.29C92.7511 273.109 93.5706 268.974 95.0983 265.08C95.5537 263.718 96.2818 262.462 97.2383 261.39C99.8057 258.683 101.28 255.121 101.378 251.39C101.508 248.62 103.378 247.29 105.378 245.98C105.879 245.658 106.297 245.223 106.598 244.71C107.398 243.29 108.098 241.82 108.978 240.09C107.929 239.378 106.83 238.743 105.688 238.19C105.203 238.056 104.771 237.776 104.451 237.388C104.131 237 103.938 236.522 103.898 236.02C103.818 234.4 103.958 232.78 103.898 231.16C103.863 230.701 103.73 230.255 103.508 229.85C103.038 228.91 102.508 228 103.228 226.94C103.878 228.11 104.528 229.22 105.108 230.37C105.248 230.65 105.108 231.05 105.108 231.37C105.108 232.91 105.018 234.45 105.108 235.99C105.169 236.214 105.273 236.422 105.416 236.604C105.559 236.787 105.736 236.938 105.938 237.05C107.098 237.78 108.328 238.39 109.498 239.11C111.187 240.154 113.066 240.853 115.026 241.165C116.986 241.478 118.989 241.398 120.918 240.93C124.188 240.2 127.368 239.06 130.588 238.11C130.744 238.074 130.895 238.02 131.038 237.95C133.208 236.59 135.728 236.08 138.038 234.95C140.351 233.857 142.728 232.909 145.158 232.11C152.116 229.573 159.436 228.169 166.838 227.95C170.243 227.8 173.648 228.213 176.918 229.17C178 229.594 179.055 230.081 180.078 230.63L179.908 231.04C179.548 230.96 179.178 230.9 178.818 230.8C178.458 230.7 177.908 230.49 177.448 230.35C173.618 229.24 173.608 229.35 171.128 232.47C168.648 235.59 165.678 238.64 162.928 241.7C162.803 241.814 162.653 241.897 162.489 241.943C162.326 241.988 162.154 241.994 161.988 241.96C162.176 241.44 162.424 240.943 162.728 240.48C164.608 238.254 166.515 236.047 168.448 233.86C169.762 232.443 170.987 230.947 172.118 229.38C171.118 229.38 170.118 229.38 169.188 229.38C168.969 229.428 168.771 229.547 168.628 229.72C165.215 233.62 161.805 237.53 158.398 241.45C158.136 241.737 157.783 241.925 157.398 241.98C160.058 237.21 163.868 233.42 167.708 229.6C166.018 229.05 165.078 229.32 164.058 230.5C161.578 233.374 159.082 236.23 156.568 239.07C155.902 239.776 155.198 240.443 154.458 241.07L153.998 240.66C155.339 238.717 156.791 236.854 158.348 235.08C159.908 233.28 161.648 231.63 163.238 229.78C161.708 229.93 160.298 229.49 158.948 231.1C156.068 234.55 152.758 237.65 149.618 240.89C149.347 241.161 148.997 241.339 148.618 241.4C151.622 237.421 154.932 233.683 158.518 230.22C157.317 230.306 156.135 230.566 155.008 230.99C154.198 231.45 153.798 232.58 153.138 233.35C150.798 236.13 148.442 238.897 146.068 241.65C145.833 241.896 145.517 242.048 145.178 242.08C147.248 238.03 150.578 234.95 153.478 231.31C151.478 231.68 149.798 232.08 148.478 233.76C145.968 236.91 143.218 239.88 140.558 242.91C140.356 243.13 140.076 243.262 139.778 243.28C141.698 239.33 144.918 236.38 147.778 233.15L147.618 232.87C146.328 233.32 145.028 233.77 143.748 234.25C143.568 234.32 143.428 234.59 143.328 234.79C141.168 238.79 137.958 242.02 134.848 245.28C134.848 245.28 134.708 245.28 134.188 245.34C135.598 243.43 136.808 241.73 138.078 240.09C139.348 238.45 140.668 236.86 141.868 235.09C140.488 235.62 139.128 235.88 138.108 237.24C136.058 240 133.718 242.53 131.478 245.14C131.182 245.469 130.812 245.722 130.398 245.88C131.708 242.56 134.448 240.28 136.398 237.37C134.448 238.47 132.038 238.61 130.568 240.69C129.576 241.913 128.496 243.063 127.338 244.13L126.838 243.71L129.478 240.21C127.388 240.07 126.428 241.71 125.258 243.02L124.968 242.81L125.198 241.63C122.688 241.96 120.198 242.43 117.608 242.58C114.925 242.649 112.267 242.055 109.868 240.85C109.368 242.66 107.378 243.85 107.998 246.28L106.638 247.28C106.028 247.37 105.558 247.28 105.268 247.51C104.624 247.916 104.076 248.459 103.665 249.1C103.254 249.741 102.988 250.465 102.888 251.22C102.859 252.911 102.617 254.591 102.168 256.22C101.397 258.18 100.353 260.022 99.0683 261.69C97.806 263.235 96.8429 265.002 96.2283 266.9C95.3883 269.73 94.4683 272.54 93.5883 275.36C93.5283 275.54 93.4183 275.78 93.4883 275.91C94.7883 278.29 94.1583 280.83 93.9583 283.27C93.5283 288.56 92.9583 293.85 91.1483 298.91C91.1322 299.067 91.1322 299.224 91.1483 299.38C93.8683 296.52 97.1483 294.93 100.618 293.43C105.298 291.37 109.838 288.97 114.618 287.17C118.809 285.726 123.092 284.563 127.438 283.69C114.528 287.91 102.178 293.27 90.7783 300.74C94.0083 299.36 97.4683 299.29 100.838 298.89C106.908 298.15 112.968 298.17 118.898 299.96C119.88 300.297 120.825 300.732 121.718 301.26C124.718 302.89 127.658 304.56 130.618 306.26C131.018 306.48 131.398 306.73 131.788 306.97L131.628 307.37C130.088 306.89 128.518 306.5 127.038 305.9C125.502 305.322 124.033 304.578 122.658 303.68C119.488 301.47 115.918 300.68 112.188 300.27C107.008 299.66 101.898 300.27 96.7683 300.84C96.5981 300.828 96.4271 300.851 96.2661 300.908C96.1051 300.964 95.9576 301.054 95.8327 301.17C95.7079 301.287 95.6084 301.428 95.5405 301.584C95.4727 301.741 95.4379 301.91 95.4383 302.08C95.1383 305.08 94.6283 308.18 94.5283 311.24C94.2683 320.07 94.1783 328.91 93.9983 337.74C93.9083 342.61 92.6083 347.29 91.6283 352.02C91.5074 352.768 91.4405 353.523 91.4283 354.28C91.01 354.98 90.6903 355.734 90.4783 356.52C90.2317 357.559 89.866 358.566 89.3883 359.52C88.8516 361.219 88.4044 362.945 88.0483 364.69C87.9483 365.06 87.8383 365.43 87.7383 365.79H87.3383C87.3383 364.79 87.3383 363.87 87.3383 362.91C87.1883 360.18 87.0983 357.43 86.7783 354.71C86.6283 353.45 85.3283 354.09 84.4483 353.71C85.0061 356.225 85.1211 358.817 84.7883 361.37L84.2983 361.42C84.1683 360.63 83.9783 359.84 83.9083 359.04C83.7783 357.53 83.7583 356.04 83.5883 354.51C83.5883 354.12 83.1083 353.78 82.8483 353.42L82.6083 353.62C82.7783 355.07 82.9383 356.52 83.1083 357.96L82.5083 358.08C82.3383 357.38 82.1583 356.67 81.9983 355.97C81.8383 355.27 81.6683 354.43 81.4483 353.42C76.2783 354.05 71.2083 354.65 66.1483 355.31C61.3568 355.986 56.676 357.294 52.2283 359.2C49.3183 360.41 46.0883 360.86 43.0083 361.68C42.1783 361.9 41.3683 362.23 40.5483 362.5C40.0134 362.763 39.4391 362.935 38.8483 363.01C34.1783 362.95 31.6983 366.01 29.5583 369.51C29.2552 370.114 28.8935 370.687 28.4783 371.22C28.2083 371.51 27.6683 371.54 27.2483 371.69C27.1683 371.27 27.0683 370.84 27.0083 370.41C27.0137 370.249 27.0475 370.09 27.1083 369.94L27.0483 369.98ZM88.3883 357.45H88.6283L89.2683 354.39L87.8183 354.18L88.3883 357.45Z" fill="white"/>
<path d="M115.788 88.6203C116.668 89.9003 117.528 91.2003 118.448 92.4403C119.368 93.6803 120.258 94.7603 121.168 95.9203L120.898 96.2103C119.948 95.2903 118.898 94.4103 118.048 93.4303C117.198 92.4503 116.318 91.3303 115.518 90.2403C114.718 89.1503 113.958 87.9403 112.948 86.4303C112.208 88.3203 111.438 89.9003 110.948 91.5603C109.558 96.4003 109.478 96.4803 111.818 100.91C113.428 103.97 115.458 106.81 117.298 109.75L118.048 111.08C116.718 110.9 115.048 109.15 112.938 105.28C111.678 103 110.738 100.53 109.478 98.1403C109.578 99.1476 109.804 100.139 110.148 101.09C112.235 105.422 114.977 109.405 118.278 112.9C118.608 113.24 118.958 113.55 119.418 113.99L118.238 114.18C118.778 114.77 119.318 115.28 119.758 115.86C120.198 116.44 121.028 116.74 120.118 117.63L121.778 119.37L121.688 119.62C121.214 119.487 120.765 119.278 120.358 119C117.998 116.74 115.678 114.44 113.358 112.15C113.117 111.847 112.826 111.587 112.498 111.38C112.568 111.69 112.618 112.01 112.708 112.31C113.608 115.4 114.708 118.38 117.028 120.76C117.573 121.428 118.253 121.972 119.024 122.358C119.794 122.745 120.637 122.963 121.498 123C122.748 123 122.388 124.07 122.768 124.87C122.768 124.29 122.768 123.87 122.768 123.41C122.794 123.135 122.834 122.861 122.888 122.59C123.176 122.652 123.455 122.749 123.718 122.88C125.948 124.45 126.378 126.88 126.638 129.32C126.768 130.58 126.638 131.87 126.638 133.14C126.651 133.349 126.711 133.551 126.813 133.733C126.915 133.915 127.057 134.071 127.228 134.19C130.848 135.66 134.448 137.19 138.148 138.44C140.958 139.36 143.408 138.15 145.488 136.24C146.808 135.02 148.018 133.69 149.308 132.43C149.778 132.03 150.272 131.659 150.788 131.32C150.668 131.91 150.698 132.2 150.568 132.37C148.668 134.79 146.848 137.3 144.068 138.83C142.903 139.499 141.596 139.881 140.254 139.947C138.912 140.013 137.574 139.761 136.348 139.21C132.918 137.81 129.448 136.52 125.928 135.15C125.438 135.9 123.668 135.46 123.388 137.08C123.092 138.352 122.708 139.602 122.238 140.82C121.098 139.53 121.648 138.22 122.088 136.7C121.15 136.693 120.215 136.811 119.308 137.05C117.208 137.9 115.138 138.87 113.118 139.92C111.916 140.644 110.567 141.088 109.17 141.219C107.773 141.351 106.364 141.167 105.048 140.68C104.244 140.478 103.396 140.538 102.628 140.85C99.8384 141.85 97.0884 142.92 94.3484 144.01C91.157 145.427 87.6887 146.111 84.1984 146.01C78.5444 145.709 72.895 146.683 67.6684 148.86C65.6942 149.64 63.6611 150.262 61.5884 150.72C62.1753 150.22 62.812 149.781 63.4884 149.41C67.9184 147.46 72.3484 145.41 77.2184 144.89C79.5484 144.62 81.9384 144.89 84.2784 144.67C86.664 144.554 89.034 144.22 91.3584 143.67C94.2384 142.9 97.0084 141.67 99.8384 140.67C100.828 140.245 101.871 139.956 102.938 139.81C104.065 139.807 105.188 139.948 106.278 140.23C108.193 140.496 110.143 140.127 111.828 139.18C114.138 138.09 116.408 136.91 118.828 135.95C119.786 135.711 120.771 135.6 121.758 135.62C122.134 135.597 122.503 135.509 122.848 135.36C123.641 134.911 124.466 134.523 125.318 134.2C126.078 131.07 125.468 127.96 124.238 124.64C123.568 126.57 123.008 128.2 122.448 129.83L121.928 129.69L122.338 126.94C121.658 128.1 121.158 129.05 120.558 129.94C119.958 130.83 119.288 131.58 118.658 132.39L118.298 132.14C119.018 130.8 119.728 129.45 120.458 128.14C121.29 126.834 121.682 125.296 121.578 123.75C117.008 124.11 115.228 120.75 113.438 117.52C112.729 116.045 112.154 114.509 111.718 112.93C110.718 110.15 109.778 107.37 108.928 104.56C107.528 99.8803 108.328 95.2803 109.738 90.7703C110.3 89.3229 110.969 87.919 111.738 86.5703C111.957 86.145 112.197 85.7311 112.458 85.3303L108.618 84.9703V84.6203L112.048 84.1803C112.608 84.1803 113.178 84.0903 113.738 84.0703C113.918 84.0703 114.168 84.0703 114.248 84.2103C114.291 84.2941 114.313 84.3865 114.313 84.4803C114.313 84.5741 114.291 84.6666 114.248 84.7503C114.025 85.1205 113.782 85.4777 113.518 85.8203L114.958 87.3503L115.788 88.6203ZM109.698 101.62C109.688 103.813 110.195 105.978 111.179 107.938C112.162 109.897 113.594 111.598 115.358 112.9C113.968 110.79 111.928 109.19 111.358 106.6L113.728 109.29L109.698 101.62Z" fill="white"/>
<path d="M278.928 69.4004C278.202 70.5105 277.331 71.5194 276.338 72.4004C273.88 74.1045 271.325 75.6671 268.688 77.0804C260.008 81.7704 251.318 86.4404 243.268 92.1804C237.768 96.1004 232.358 100.18 226.788 103.96C223.038 106.53 219.118 108.86 215.208 111.19C214.058 111.87 212.668 112.13 211.438 112.7C211.23 112.807 211.049 112.96 210.909 113.147C210.768 113.334 210.673 113.551 210.628 113.78C210.628 117.97 210.628 122.17 210.718 126.35C210.768 128.35 212.038 129.79 213.198 131.22C215.068 130.22 216.908 129.22 218.688 128.22C222.622 125.768 226.342 122.988 229.808 119.91C232.808 117.44 236.128 115.46 239.308 113.24C240.308 112.57 241.218 111.84 242.168 111.13C244.168 109.83 246.168 108.61 248.008 107.2C253.458 103.08 258.888 98.9204 264.248 94.6904C267.248 92.3204 270.148 89.7904 273.058 87.3004C277.708 83.3004 282.328 79.3004 286.978 75.3604C287.318 75.101 287.672 74.8606 288.038 74.6404L288.268 74.8404C288.031 75.1567 287.777 75.4604 287.508 75.7504C282.508 80.4704 277.728 85.4304 272.508 89.8504C265.508 95.7504 258.198 101.38 250.828 106.85C245.388 110.85 239.618 114.52 234.028 118.36C232.649 119.239 231.353 120.244 230.158 121.36C226.687 124.679 222.833 127.572 218.678 129.98C218.257 130.273 217.958 130.711 217.838 131.21C217.635 132.609 216.923 133.884 215.838 134.79C214.697 135.712 213.487 136.544 212.218 137.28C213.308 134.89 216.408 134 216.798 130.8C216.017 131.222 215.212 131.599 214.388 131.93C214.167 132.011 213.933 132.047 213.698 132.037C213.462 132.026 213.232 131.97 213.018 131.87C211.858 131.222 210.892 130.276 210.219 129.13C209.546 127.984 209.19 126.679 209.188 125.35C209.188 121.24 209.338 117.13 209.468 113.03C209.468 111.85 211.938 110.22 213.298 110.29C213.749 110.335 214.203 110.252 214.608 110.05C218.828 107.39 223.058 104.73 227.218 101.97C230.678 99.6804 234.058 97.2504 237.468 94.8704C239.958 93.1404 242.398 91.3304 244.938 89.6704C248.618 87.2604 252.348 84.9504 256.068 82.6104C256.54 82.3086 257.028 82.0315 257.528 81.7804C261.758 79.6204 266.078 77.6104 270.208 75.2704C273.208 73.5404 276.038 71.3804 278.948 69.4104L278.928 69.4004Z" fill="white"/>
<path d="M52.2183 84.2608L56.1383 80.9308C56.4234 82.632 56.5473 84.3563 56.5083 86.0808C56.2983 87.8808 55.4183 89.5808 54.9983 91.3608C54.4883 93.5408 54.3483 95.8108 53.7183 97.9408C53.035 100.271 52.1309 102.532 51.0183 104.691C49.3683 107.841 47.4583 110.851 45.6283 113.901C44.3092 116.387 43.6417 119.167 43.6883 121.981C43.2935 130.904 44.3437 139.833 46.7983 148.421C47.2183 149.831 47.7983 151.201 48.3483 152.571C48.4193 152.703 48.5191 152.817 48.6402 152.905C48.7614 152.994 48.9009 153.054 49.0483 153.081C51.8454 153.735 54.7334 153.907 57.5883 153.591C57.8783 153.541 58.5183 154.181 58.5883 154.591C59.1383 157.411 59.6783 160.241 60.0283 163.091C60.6517 167.193 61.7145 171.216 63.1983 175.091C63.5283 176.031 63.8283 176.981 64.1183 177.881C67.6483 178.151 71.1183 178.471 74.5383 178.651C76.8783 178.771 79.3183 178.301 81.5383 178.781C85.1325 179.567 88.6496 180.672 92.0483 182.081C95.2483 183.391 97.2983 186.201 99.1783 189.011C100.178 190.561 101.068 192.231 102.008 193.841L101.768 194.011C101.568 193.771 101.378 193.531 101.168 193.301C98.7483 190.601 96.4483 187.771 93.8383 185.301C92.5032 184.099 90.9187 183.208 89.1983 182.691C86.1083 181.691 82.9083 180.941 79.7283 180.211C78.7372 180.038 77.7256 180.018 76.7283 180.151C73.8609 180.487 70.956 180.294 68.1583 179.581C67.1753 179.347 66.1688 179.226 65.1583 179.221C64.8483 179.221 64.5283 179.451 64.0383 179.651C63.6776 179.072 63.3471 178.474 63.0483 177.861C60.4726 172.699 58.911 167.091 58.4483 161.341C58.3083 159.551 57.9783 157.771 57.7983 155.991C57.7183 155.241 57.4583 154.991 56.6783 154.991C54.0395 155.25 51.3761 154.908 48.8883 153.991C48.5583 153.851 48.0483 154.141 47.5583 154.241C46.8883 152.491 46.0983 150.711 45.5583 148.881C43.7884 143.066 42.7274 137.06 42.3983 130.991C41.9155 126.373 42.0906 121.71 42.9183 117.141C43.1581 115.929 43.576 114.76 44.1583 113.671C45.8283 110.671 47.7083 107.771 49.3483 104.761C50.6367 102.6 51.6894 100.307 52.4883 97.9208C53.6983 93.8008 54.4883 89.5608 55.4883 85.3508C55.5507 84.6421 55.5507 83.9294 55.4883 83.2208C52.5983 85.2908 51.4883 88.2908 49.4883 91.0608C48.7283 86.5808 48.2483 82.2108 43.1183 80.4608C43.6819 80.147 44.3317 80.0233 44.9711 80.108C45.6106 80.1926 46.2058 80.4812 46.6683 80.9308C48.5029 82.3928 49.6942 84.5134 49.9883 86.8408C50.0483 87.1908 50.1183 87.5308 50.2483 88.2308L52.3783 84.2308L52.2183 84.2608Z" fill="white"/>
<path d="M154.738 318.59C154.338 318.49 153.738 318.51 153.568 318.25C153.4 318.042 153.277 317.801 153.206 317.543C153.136 317.285 153.119 317.015 153.158 316.75C153.607 315.647 154.22 314.619 154.978 313.7C156.327 312.173 157.763 310.724 159.278 309.36C163.118 305.86 166.808 302.15 170.928 299.01C178.478 293.01 187.452 289.065 196.978 287.56C197.929 287.513 198.882 287.601 199.808 287.82C200.088 287.82 200.548 288.13 200.568 288.32C200.668 289.62 201.908 289.85 202.568 290.59C205.958 294.2 209.358 297.79 212.738 301.41C213.828 302.58 214.838 303.81 215.878 305.02C216.458 305.69 217.048 306.34 217.578 307.02C223.388 314.69 229.168 322.39 234.998 330.02C237.382 332.985 239.239 336.337 240.488 339.93C241.358 342.692 241.448 345.641 240.748 348.45C240.748 348.68 240.548 348.99 240.638 349.13C241.948 351.13 240.848 352.82 239.488 354.13C234.767 358.423 229.589 362.185 224.048 365.35C223.725 365.521 223.391 365.671 223.048 365.8C222.778 365.86 222.504 365.904 222.228 365.93C222.808 365.38 223.108 365.04 223.458 364.77C226.658 362.37 229.888 360.01 233.058 357.58C234.968 356.12 236.848 354.63 238.648 353.04C239.23 352.52 239.676 351.865 239.948 351.133C240.22 350.402 240.309 349.614 240.208 348.84C240.038 346.84 240.108 344.76 239.818 342.75C239.195 339.391 237.802 336.221 235.748 333.49C232.748 329.09 229.488 324.8 226.268 320.49C223.048 316.18 219.858 311.8 216.338 307.73C211.158 301.73 206.388 295.3 200.148 290.26C199.928 290.08 199.588 289.89 199.568 289.68C199.448 288.25 198.358 288.57 197.648 288.74C191.908 290.1 186.108 291.24 180.958 294.46C176.958 296.96 172.718 299.06 169.228 302.32L156.228 314.44C155.789 314.85 155.385 315.295 155.018 315.77C154.448 316.51 153.878 317.29 155.018 318.19L154.738 318.59Z" fill="white"/>
<path d="M210.668 138.36C210.671 138.806 210.531 139.241 210.268 139.601C210.005 139.961 209.634 140.227 209.208 140.36C207.355 141.37 205.441 142.266 203.478 143.04C200.428 144.17 197.368 145.22 194.858 147.38C189.968 151.61 187.178 156.95 185.608 163.23C184.558 167.39 184.878 171.47 184.798 175.58C184.688 181.46 184.588 187.33 183.248 193.09C182.048 198.27 180.708 203.41 179.648 208.61C178.953 212.752 179.089 216.991 180.048 221.08C180.162 221.462 180.316 221.831 180.508 222.18C180.648 222.49 180.778 222.8 180.948 223.18C179.148 222.68 178.948 221.86 178.398 214.43L176.778 220.57H176.498C176.788 218.45 176.978 216.32 177.398 214.23C178.898 206.897 180.441 199.594 182.028 192.32C183.03 186.979 183.526 181.555 183.508 176.12C183.608 172.17 183.668 168.21 183.758 164.25C183.758 163.75 183.698 163.25 184.518 163.15C184.688 163.15 184.908 162.39 184.928 161.97C185.076 159.404 185.804 156.905 187.058 154.66C188.575 151.655 190.68 148.985 193.248 146.809C195.816 144.632 198.795 142.994 202.008 141.99C204.691 140.992 207.321 139.857 209.888 138.59C210.143 138.498 210.404 138.421 210.668 138.36Z" fill="white"/>
<path d="M115.048 82.1808C115.238 81.7527 115.48 81.3497 115.768 80.9808C116.668 80.0908 116.208 79.4808 115.478 78.8208C114.106 77.6449 112.391 76.9435 110.588 76.8208C105.958 76.2508 101.928 77.9808 98.388 80.5808C92.788 84.7008 87.588 89.3508 81.988 93.4508C77.198 96.9608 72.268 100.371 66.358 101.881C65.3434 102.24 64.2459 102.294 63.201 102.036C62.156 101.778 61.2094 101.22 60.478 100.431C60.6553 100.439 60.8305 100.472 60.998 100.531C62.878 101.791 64.828 101.531 66.858 100.901C70.2349 99.6616 73.4485 98.0162 76.428 96.0008C82.228 92.3808 87.128 87.6508 92.428 83.4008C95.7571 80.5829 99.4968 78.2898 103.518 76.6008C106.584 75.3495 109.993 75.215 113.148 76.2208C114.483 76.7916 115.753 77.5022 116.938 78.3408C116.738 72.3408 112.638 68.3408 108.858 64.3408C110.191 67.0608 111.525 69.7874 112.858 72.5208L112.508 72.7108C112.148 72.1108 111.758 71.5208 111.418 70.9008C110.098 68.4808 108.768 66.0708 107.488 63.6208C107.381 63.1895 107.35 62.7427 107.398 62.3008C107.84 62.3843 108.264 62.5469 108.648 62.7808C112.098 65.7186 114.895 69.3465 116.858 73.4308C117.402 75.0582 117.797 76.7318 118.038 78.4308C120.568 76.2008 123.798 76.4308 126.858 76.1608C131.35 75.5966 135.732 74.3629 139.858 72.5008C141.498 71.7491 143.296 71.406 145.098 71.5008C145.524 71.5918 145.939 71.7258 146.338 71.9008C146.028 72.1508 145.938 72.2808 145.848 72.2808C142.958 72.2808 140.438 73.5708 137.848 74.6608C133.005 76.5649 127.869 77.617 122.668 77.7708C121.647 77.8048 120.647 78.0666 119.74 78.5373C118.833 79.0079 118.043 79.6754 117.428 80.4908C116.747 81.1926 115.993 81.8195 115.178 82.3608L115.048 82.1808Z" fill="white"/>
<path d="M278.948 69.4303C280.348 66.9503 281.948 64.5403 283.108 61.9603C284.576 58.6752 285.663 55.2328 286.348 51.7003C286.748 49.8403 287.628 48.1003 286.788 46.1503C286.698 45.9403 286.788 45.4503 286.938 45.3903C287.838 45.0003 287.568 44.2103 287.608 43.5603C287.738 41.6503 287.828 39.7303 287.908 37.8203C287.988 35.9103 288.448 34.6203 290.298 33.8203C291.577 33.0877 292.8 32.2621 293.958 31.3503C294.228 31.1703 294.708 31.3503 295.088 31.3503L295.228 31.6903L298.118 28.8303C299.118 29.7103 299.948 28.0403 301.068 28.4003L301.208 29.4803C299.892 30.0351 298.627 30.7043 297.428 31.4803C294.738 33.6103 292.178 35.9103 289.588 38.1603C289.461 38.3335 289.397 38.5455 289.408 38.7603C289.208 40.8203 288.998 42.8803 288.858 44.9403C288.816 45.4564 288.942 45.9722 289.218 46.4103C290.378 47.9903 291.628 49.5003 292.748 50.9103C292.998 47.8003 292.208 44.2703 293.438 40.9103H293.758C293.818 41.2779 293.858 41.6484 293.878 42.0203C293.828 45.0203 293.708 48.0903 293.738 51.1303C293.77 51.3185 293.759 51.5114 293.706 51.6948C293.653 51.8782 293.56 52.0476 293.434 52.1904C293.307 52.3332 293.15 52.446 292.975 52.5204C292.799 52.5947 292.609 52.6289 292.418 52.6203C292.128 52.6203 291.758 51.9203 291.488 51.5003C290.688 50.3003 289.928 49.0803 289.028 47.9403C288.538 53.2103 289.438 58.4703 287.588 63.9403C287.389 63.3271 287.261 62.6929 287.208 62.0503C287.338 60.4603 287.678 58.8903 287.748 57.3003C287.848 55.0903 287.748 52.8703 287.748 50.6603H287.288C287.158 51.6603 287.058 52.7303 286.898 53.7603C286.107 58.8689 284.187 63.737 281.278 68.0103C281.014 68.4109 280.777 68.8285 280.568 69.2603C279.948 70.5503 279.868 70.5603 278.908 69.5003L278.948 69.4303ZM289.128 36.8803L292.048 34.2503L291.818 34.0103C291.048 35.0203 289.198 34.8103 289.128 36.8803Z" fill="white"/>
<path d="M176.098 250.501C177.156 251.512 177.971 252.75 178.482 254.122C178.993 255.494 179.187 256.964 179.048 258.421C178.988 260.201 179.048 261.991 179.048 263.781L178.658 263.911C178.38 263.413 178.165 262.882 178.018 262.331C177.808 260.391 177.858 258.401 177.488 256.501C177.117 255.049 176.576 253.646 175.878 252.321C175.708 251.941 175.188 251.721 174.718 251.321L174.338 252.441C174.267 252.472 174.194 252.495 174.118 252.511C173.564 252.382 172.997 252.322 172.428 252.331C170.808 252.541 169.198 252.871 167.578 253.121C167.119 253.151 166.658 253.151 166.198 253.121L166.138 252.731L173.548 251.251L173.608 251.051C173.198 250.961 172.778 250.911 172.378 250.791C172.091 250.676 171.814 250.539 171.548 250.381C171.798 250.111 171.998 249.731 172.298 249.611C172.742 249.537 173.195 249.537 173.638 249.611V238.991C172.538 240.271 171.348 241.631 170.158 242.991L169.738 242.721C170.228 241.921 170.668 241.091 171.208 240.321C172.08 239.238 172.895 238.109 173.648 236.941C173.99 236.049 174.202 235.113 174.278 234.161L173.788 233.921L166.898 242.921L166.478 242.631C167.248 240.341 168.918 238.561 170.288 236.631C171.658 234.701 173.368 232.921 175.158 230.791C177.588 230.301 178.378 232.361 179.158 234.481L179.548 234.361L179.188 232.111C179.323 232.054 179.469 232.031 179.614 232.043C179.759 232.055 179.899 232.102 180.023 232.179C180.146 232.257 180.249 232.363 180.324 232.488C180.398 232.614 180.44 232.755 180.448 232.901C180.616 233.74 180.544 234.611 180.238 235.411C178.608 238.971 176.768 242.411 175.238 246.001C174.85 247.169 174.717 248.407 174.848 249.631C174.848 249.931 175.738 250.211 176.228 250.511L176.098 250.501ZM175.048 240.011V245.011C175.275 243.992 175.569 242.99 175.928 242.011C176.318 241.081 176.048 240.481 175.048 240.011ZM176.098 231.601L175.678 231.731C175.678 232.036 175.739 232.339 175.858 232.621C176.618 233.711 177.418 234.771 178.208 235.841L178.458 236.181L178.978 235.251L178.668 235.371L176.098 231.601ZM175.308 233.811C175.318 234.334 175.43 234.851 175.638 235.331C176.261 236.103 176.929 236.837 177.638 237.531C177.818 237.221 176.568 234.831 175.278 233.811H175.308ZM176.688 239.691C177.088 239.001 176.398 237.511 175.308 236.691C175.048 238.081 175.148 238.291 176.658 239.691H176.688Z" fill="white"/>
<path d="M118.228 369.881C118.294 369.626 118.392 369.381 118.518 369.151C121.988 364.661 123.278 359.351 124.218 353.931C125.788 344.851 127.278 335.751 128.768 326.651C129.507 321.708 130.757 316.855 132.498 312.171C132.988 310.911 133.238 309.561 133.628 308.271C133.747 308.018 133.91 307.788 134.108 307.591C134.318 307.791 134.658 307.971 134.718 308.221C134.818 308.604 134.818 309.007 134.718 309.391C133.908 312.151 132.878 314.851 132.278 317.651C131.278 322.451 130.398 327.291 129.588 332.131C127.968 341.851 126.588 351.621 124.068 361.181C123.13 364.249 121.49 367.057 119.278 369.381C119.027 369.627 118.752 369.848 118.458 370.041L118.228 369.881Z" fill="white"/>
<path d="M108.048 161.241C103.048 168.081 97.2981 174.431 94.1781 182.501L93.8381 182.361L93.6681 181.511L92.8581 181.941C92.7581 181.651 92.6581 181.371 92.5681 181.091C92.139 180.015 91.8044 178.904 91.5681 177.771C90.8857 171.279 91.4009 164.717 93.0881 158.411C93.3681 157.321 93.6381 156.241 93.9281 155.161C93.9281 155.111 94.0481 155.081 94.2881 154.941C93.7481 159.001 93.0181 162.941 92.7581 166.861C92.5772 170.86 92.6206 174.866 92.8881 178.861C95.4681 169.761 98.4781 160.861 103.738 152.931C99.7987 161.398 96.6423 170.208 94.3081 179.251C95.6081 177.101 96.8081 174.901 98.2181 172.831C99.6281 170.761 101.218 168.771 102.778 166.831C104.338 164.891 106.068 162.971 107.718 161.041L108.048 161.241Z" fill="white"/>
<path d="M69.4283 103.92C72.9983 103.92 76.2883 102.68 79.4783 101.44L78.2383 103.85L78.5383 104.06L79.4683 103.75C78.6183 104.82 79.1283 107.08 80.5283 108.4C80.5283 106.9 80.5283 105.53 80.5283 104.16C80.7383 98.5702 83.2483 94.0302 87.2083 90.2902C92.0883 85.6902 97.9683 82.7102 104.208 80.2902C106.78 79.42 109.505 79.0998 112.208 79.3502C113.028 79.3502 113.718 79.7102 113.398 80.8602C111.668 79.6802 109.838 80.3402 108.078 80.4802C104.398 80.7602 101.188 82.4802 97.9983 84.1502C94.5815 85.822 91.3979 87.9332 88.5283 90.4302C86.0289 92.5469 84.0912 95.2484 82.8875 98.2944C81.6837 101.34 81.2512 104.637 81.6283 107.89C81.9797 110.359 82.9383 112.703 84.4183 114.71C84.6618 115.014 84.8113 115.383 84.8483 115.77C84.4521 115.508 84.0835 115.207 83.7483 114.87C83.0982 114.218 82.5789 113.448 82.2183 112.6C81.4183 109.76 78.8583 108.13 77.7083 105.49C76.1583 106.33 74.8783 107.8 72.7083 106.99C74.4083 105.86 77.1283 106.25 77.4883 103.28C73.9383 104.56 70.6183 105.5 67.1183 104.77L67.0483 104.29L69.4583 103.85L69.4283 103.92Z" fill="white"/>
<path d="M40.5682 96.8104C40.5684 97.0467 40.5381 97.2819 40.4782 97.5104C39.3382 99.2404 38.2782 101.04 36.9982 102.66C35.9597 103.884 34.8298 105.028 33.6182 106.08C33.2285 106.522 32.6838 106.796 32.0973 106.846C31.5107 106.897 30.9273 106.719 30.4682 106.35C28.4682 105.04 27.1382 102.35 27.8282 100.13C28.2782 98.6404 28.6782 96.9404 30.4182 96.0804C31.4307 95.4453 32.3905 94.7296 33.2882 93.9404C34.6482 92.9404 36.0382 92.0604 37.6382 90.9404L35.5282 89.8504C35.5739 89.6919 35.6582 89.5471 35.7735 89.429C35.8888 89.3109 36.0316 89.2232 36.189 89.1737C36.3464 89.1242 36.5137 89.1144 36.6758 89.1453C36.8379 89.1761 36.9899 89.2466 37.1182 89.3504C37.9493 89.8034 38.6752 90.427 39.2482 91.1804C40.2482 92.6404 41.1082 94.2504 42.0682 95.7604C42.3389 96.0762 42.6559 96.3493 43.0082 96.5704C43.2782 96.1604 43.8082 95.7304 43.7782 95.3404C43.6348 94.0398 43.4211 92.748 43.1382 91.4704C42.9782 90.7004 42.7382 89.9604 42.4682 88.9404C42.8882 89.1704 43.0882 89.2204 43.1782 89.3404C44.5726 91.074 45.2586 93.2714 45.0982 95.4904C45.0446 96.0413 44.8481 96.5687 44.5282 97.0204C44.3669 97.3009 44.1345 97.5338 43.8545 97.6958C43.5745 97.8578 43.2567 97.9431 42.9332 97.9431C42.6097 97.9431 42.2919 97.8578 42.0119 97.6958C41.7318 97.5338 41.4995 97.3009 41.3382 97.0204C40.7882 96.2504 40.3882 95.3704 39.8982 94.5404C39.4082 93.7104 38.8982 92.9304 38.3182 91.9604L29.9682 98.0804C33.0782 98.2204 34.1582 100.27 34.8482 102.78C37.2082 101.26 37.4382 97.7804 40.5682 96.8104ZM33.5182 103.81C33.5182 101.81 32.5182 100.06 31.3182 99.5804C30.1182 99.1004 29.1482 99.7104 29.2382 100.96C29.2427 101.999 29.4784 103.024 29.9282 103.96C30.1665 104.343 30.4865 104.667 30.8651 104.911C31.2438 105.155 31.6717 105.312 32.1182 105.37C32.6982 105.35 33.2282 104.18 33.5182 103.84V103.81Z" fill="white"/>
<path d="M109.528 246.991C110.024 246.828 110.538 246.731 111.058 246.701C114.058 246.931 117.118 247.021 120.058 247.531C126.118 248.531 132.058 250.081 138.188 250.941C143.828 251.741 149.548 252.001 155.188 252.401C157.938 252.591 160.708 252.561 163.458 252.651C164.042 252.698 164.623 252.775 165.198 252.881V253.191C164.124 253.406 163.039 253.566 161.948 253.671C151.28 254.19 140.591 253.272 130.168 250.941C125.328 249.891 120.458 248.941 115.588 248.081C113.929 247.866 112.26 247.736 110.588 247.691C110.21 247.64 109.836 247.563 109.468 247.461L109.528 246.991Z" fill="white"/>
<path d="M103.548 99.6605C97.3583 103.811 95.3783 109.531 96.5483 116.591C95.6098 115.4 95.1497 113.902 95.2583 112.391C95.2583 106.571 97.8983 102.141 102.658 98.9205C103.392 98.4548 103.94 97.7474 104.208 96.9205C104.495 96.1469 104.973 95.4587 105.598 94.9205C106.176 94.5667 106.856 94.4187 107.528 94.5005C106.678 95.3605 105.838 96.2305 104.998 97.0905L105.248 97.4005C105.841 97.2547 106.442 97.1479 107.048 97.0805C107.298 97.0805 107.558 97.3305 107.818 97.4705C107.598 97.6405 107.408 97.9205 107.168 97.9805C104.608 98.6005 104.498 98.8105 104.968 101.421C105.438 104.031 105.918 106.821 106.288 109.541C106.306 110.399 106.259 111.259 106.148 112.111C107.418 108.881 106.978 105.591 106.328 102.291L106.698 102.221L107.858 105.391L108.048 103.451C108.988 107.071 107.448 116.961 102.718 120.121C102.718 119.681 102.598 119.291 102.718 119.041C105.296 114.281 105.892 108.697 104.378 103.501C104.048 102.311 103.838 101.081 103.548 99.6605Z" fill="white"/>
<path d="M168.858 268.081C168.218 268.601 167.548 269.081 166.948 269.641C160.268 275.742 154.34 282.617 149.288 290.121C146.958 293.681 145.148 297.581 143.118 301.331C142.418 302.631 141.838 304.001 141.118 305.331C140.248 306.931 136.698 307.851 135.118 306.911C134.888 306.781 134.788 306.451 134.618 306.211C134.856 306.033 135.119 305.892 135.398 305.791C135.608 305.741 135.858 305.891 136.088 305.921C136.95 306.099 137.847 305.965 138.619 305.544C139.392 305.123 139.99 304.442 140.308 303.621C146.139 289.993 155.275 278.033 166.888 268.821C167.398 268.421 167.958 268.071 168.498 267.701L168.858 268.081Z" fill="white"/>
<path d="M162.468 107.841C162.918 106.841 163.368 105.841 163.838 104.841C164.047 104.414 164.106 103.93 164.006 103.466C163.906 103.001 163.653 102.584 163.288 102.281C161.408 100.091 159.058 98.1306 158.528 95.1206C158.348 94.1206 159.028 92.8806 159.308 91.7606L159.878 91.6806C158.668 89.9706 157.488 88.2406 156.248 86.5506C155.178 85.1106 154.028 83.7406 152.948 82.3106C152.733 82.0179 152.602 81.6722 152.568 81.3106C152.568 81.0906 152.728 80.8406 152.818 80.6006C153.069 80.6697 153.306 80.7813 153.518 80.9306C154.058 81.5606 154.518 82.2306 155.068 82.9306C157.348 85.9306 159.998 88.7306 161.378 92.3306C161.743 93.1717 161.827 94.1079 161.618 95.0006C160.758 97.6606 162.058 99.4106 163.778 101.071C165.978 103.211 166.038 104.351 164.198 106.851C163.916 107.252 163.792 107.743 163.848 108.231C164.069 109.542 163.836 110.889 163.188 112.051C163.018 112.371 163.128 112.851 163.058 113.251C162.964 113.975 162.814 114.69 162.608 115.391C162.558 115.541 161.998 115.521 161.678 115.581C161.663 115.301 161.663 115.02 161.678 114.741C161.728 113.741 161.798 112.671 161.868 111.441H156.488L156.398 111.051C158.136 109.51 160.217 108.409 162.468 107.841ZM159.808 96.6206L160.388 96.4306L159.528 94.0106L159.028 94.1806L159.808 96.6206Z" fill="white"/>
<path d="M32.0481 109.581C32.1181 110.231 32.2381 110.881 32.2581 111.581C32.2121 116.288 31.6894 120.979 30.6981 125.581C30.0267 129.354 29.5494 133.159 29.2681 136.981C28.5681 145.341 28.0181 153.711 27.4081 162.081C27.4225 162.279 27.4057 162.478 27.3581 162.671C27.1981 163.021 26.9881 163.341 26.7981 163.671C26.6281 163.311 26.3081 162.941 26.3181 162.581C26.3781 158.991 26.3981 155.381 26.6181 151.801C26.8781 147.611 27.2181 143.431 27.7381 139.271C28.5581 132.771 29.5781 126.271 30.4681 119.821C30.8781 116.821 31.1781 113.711 31.5381 110.661C31.5381 110.291 31.6681 109.941 31.7381 109.581H32.0481Z" fill="white"/>
<path d="M162.508 180.931C162.058 181.091 161.618 181.261 161.168 181.401C150.37 184.688 140.056 189.396 130.498 195.401C127.068 197.561 123.918 200.191 120.648 202.611C120.488 202.731 120.368 202.941 120.188 202.991C119.807 203.086 119.419 203.157 119.028 203.201C119.158 202.861 119.188 202.391 119.428 202.201C121.698 200.301 123.888 198.291 126.308 196.611C135.808 190.082 146.239 185.025 157.248 181.611C158.964 181.155 160.704 180.791 162.458 180.521L162.508 180.931Z" fill="white"/>
<path d="M117.988 141.221C118.398 141.931 118.718 142.571 119.108 143.161C123.778 150.281 130.108 155.451 137.648 159.391C143.418 162.391 149.158 165.471 155.198 167.921C155.631 168.082 156.004 168.372 156.268 168.751C155.568 168.561 154.858 168.401 154.158 168.191C146.158 165.811 138.988 161.821 131.908 157.631C126.259 154.234 121.544 149.484 118.188 143.811C117.718 143.081 117.048 142.211 117.988 141.221Z" fill="white"/>
<path d="M131.698 99.8311L126.698 93.8311L127.078 93.4511L133.508 97.9611L134.118 97.1711C132.558 95.9211 131.118 94.7311 129.428 93.4111C131.888 92.6711 133.298 93.8311 134.878 95.1211L133.688 95.6811L134.198 96.2011L136.118 94.8911C136.339 95.4336 136.404 96.0266 136.307 96.604C136.21 97.1814 135.954 97.7205 135.568 98.1611C134.78 98.9441 133.931 99.663 133.028 100.311C132.028 101.051 131.208 101.311 130.028 100.201C128.338 98.5511 126.568 99.1311 124.608 100.571C123.942 101.221 123.519 102.08 123.408 103.004C123.297 103.928 123.505 104.862 123.998 105.651C125.453 107.69 127.065 109.612 128.818 111.401C129.568 112.161 130.898 112.341 132.028 112.821C131.658 113.601 130.798 113.491 130.108 113.201C129.206 112.877 128.384 112.362 127.698 111.691C126.132 109.995 124.666 108.209 123.308 106.341C122.692 105.375 122.405 104.236 122.49 103.093C122.574 101.95 123.026 100.866 123.778 100.001C125.268 98.6011 127.778 97.6211 129.828 98.8511C130.238 99.0911 130.548 99.4711 130.948 99.7311C131.191 99.8075 131.444 99.8413 131.698 99.8311Z" fill="white"/>
<path d="M114.178 231.47C110.728 230.89 107.228 230.29 104.888 227.27C103.398 225.36 103.508 222.99 103.728 220.71C103.898 218.93 104.278 217.17 104.538 215.39C105.068 211.77 104.078 208.25 103.738 204.69C103.603 202.82 103.563 200.945 103.618 199.07C103.618 198.76 103.988 198.46 104.188 198.15C104.408 198.42 104.798 198.67 104.828 198.95C105.258 202.8 105.648 206.64 106.038 210.49C106.233 213.802 105.963 217.124 105.238 220.36C105.071 221.543 105.044 222.741 105.158 223.93C105.328 226.8 107.408 228.08 109.688 229.12C110.888 229.66 112.138 230.12 113.358 230.58C113.702 230.74 114.036 230.921 114.358 231.12L114.178 231.47Z" fill="white"/>
<path d="M168.348 288.081C162.908 294.171 157.508 300.201 153.108 307.161L163.848 297.261L164.198 297.591L163.148 298.701C159.588 302.431 156.028 306.171 152.448 309.881C151.878 310.457 151.255 310.979 150.588 311.441C150.368 311.611 149.978 311.541 149.658 311.581C149.597 311.251 149.597 310.912 149.658 310.581C150.157 309.49 150.718 308.428 151.338 307.401C155.612 300.577 160.85 294.407 166.888 289.081C167.192 288.821 167.509 288.578 167.838 288.351C168.002 288.249 168.172 288.159 168.348 288.081Z" fill="white"/>
<path d="M111.278 72.4807C109.278 72.1407 107.278 71.7107 105.278 71.4807C103.086 71.2052 100.868 71.7462 99.0484 73.0007C97.3184 74.2907 95.0484 74.7507 93.6684 76.3707C92.2143 77.9637 90.9151 79.6915 89.7884 81.5307C88.2124 84.1861 86.1456 86.5175 83.6984 88.4007C80.5984 90.7807 77.2484 92.8207 73.9984 94.9907C73.582 95.2453 73.0942 95.3576 72.6084 95.3107C72.8684 95.1107 73.1384 94.9107 73.4084 94.7307C78.2559 91.6844 82.6864 88.0203 86.5884 83.8307C88.2484 81.9607 89.3484 79.5807 91.0484 77.7607C95.5284 72.9807 100.728 69.5907 107.708 70.7607C109.022 71.1271 110.29 71.6404 111.488 72.2907L111.278 72.4807Z" fill="white"/>
<path d="M96.9684 289.301C96.6584 288.851 96.5084 288.731 96.4884 288.591C96.0984 285.591 95.6084 282.591 96.4284 279.531C96.7584 278.301 97.2484 277.111 97.6684 275.901C97.9184 275.181 98.4184 274.471 97.5084 273.781C97.3684 273.671 97.5084 272.921 97.7384 272.611C98.4584 271.611 99.2584 270.661 100.058 269.711C101.058 268.491 102.168 267.341 103.128 266.071C104.468 264.291 105.738 262.441 107.008 260.601C108.008 259.071 108.058 258.131 107.188 256.911C107.988 256.371 108.848 256.691 108.868 257.721C108.992 258.861 108.777 260.012 108.248 261.031C105.748 264.481 103.808 268.361 100.528 271.231C99.3584 272.231 99.3784 272.751 100.098 273.971C100.177 274.116 100.218 274.28 100.218 274.446C100.218 274.611 100.177 274.775 100.098 274.921C97.3784 278.631 97.0984 282.921 97.0984 287.281C97.1184 287.841 97.0484 288.401 96.9684 289.301Z" fill="white"/>
<path d="M151.618 258.28C151.218 258.33 150.808 258.42 150.408 258.43C138.506 258.87 126.588 258.241 114.798 256.55C113.268 256.281 111.757 255.907 110.278 255.43C109.988 255.35 109.808 254.92 109.578 254.64C109.898 254.57 110.238 254.37 110.518 254.44C118.028 256.21 125.708 256.44 133.348 256.97C139.008 257.35 144.678 257.55 150.348 257.84C150.768 257.84 151.198 257.94 151.618 258V258.28Z" fill="white"/>
<path d="M26.878 166.001C27.538 166.601 28.248 167.161 28.878 167.811C31.7479 170.723 35.6402 172.402 39.728 172.491C43.318 172.691 46.918 172.651 50.508 172.791C53.338 172.901 56.158 173.111 58.988 173.291C59.3333 173.3 59.6733 173.379 59.988 173.521C60.2768 173.737 60.5299 173.997 60.738 174.291C60.4492 174.448 60.1339 174.549 59.808 174.591C58.168 174.501 56.538 174.271 54.908 174.241C51.518 174.181 48.118 174.241 44.728 174.241C40.888 174.141 37.048 173.941 33.408 172.541C30.9685 171.597 28.8536 169.969 27.318 167.851C27.0014 167.344 26.7271 166.813 26.498 166.261L26.878 166.001Z" fill="white"/>
<path d="M88.8582 116.771C88.4025 116.477 87.9741 116.142 87.5782 115.771C86.4239 114.354 85.7669 112.598 85.7082 110.771C85.2982 106.191 85.6282 101.771 87.9582 97.641C88.3189 97.0117 88.7742 96.4417 89.3082 95.951C86.7081 101.218 85.9679 107.21 87.2082 112.951C88.2082 103.471 93.2082 96.301 100.068 90.251L100.388 90.441C100.168 90.721 99.9482 91.011 99.6982 91.271C96.0956 94.8634 93.121 99.0346 90.8982 103.611C89.4605 106.7 88.632 110.038 88.4582 113.441C88.5055 114.56 88.6392 115.673 88.8582 116.771Z" fill="white"/>
<path d="M126.208 201.4C127.509 200.44 128.868 199.562 130.278 198.77C139.984 194.003 150.5 191.103 161.278 190.22C162.518 190.12 163.748 189.98 164.978 189.87C165.294 189.836 165.613 189.914 165.878 190.09C165.318 190.25 164.768 190.46 164.198 190.57C159.138 191.52 154.048 192.35 149.018 193.44C145.817 194.119 142.671 195.038 139.608 196.19C135.328 197.83 131.188 199.81 126.988 201.65C126.815 201.714 126.638 201.767 126.458 201.81L126.208 201.4Z" fill="white"/>
<path d="M195.558 279.961C195.705 280.24 195.883 280.501 196.088 280.741C197.448 282.201 198.838 283.631 200.198 285.091C200.678 285.562 201.095 286.093 201.438 286.671C201.492 286.839 201.504 287.019 201.473 287.193C201.442 287.368 201.368 287.532 201.258 287.671C201.068 287.841 200.548 287.671 200.258 287.581C200.007 287.453 199.796 287.26 199.648 287.021C197.688 284.461 195.731 281.894 193.778 279.321C193.657 279.121 193.502 278.945 193.318 278.801C190.991 277.414 188.658 276.037 186.318 274.671C184.688 273.731 183.018 272.881 181.428 271.891C180.642 271.366 180.021 270.629 179.637 269.765C179.253 268.901 179.121 267.946 179.258 267.011C179.258 266.691 179.618 266.401 179.818 266.091C180.018 266.391 180.378 266.691 180.378 266.991C180.378 269.351 181.678 270.731 183.658 271.701C187.729 273.549 191.552 275.901 195.038 278.701C195.356 278.997 195.656 279.311 195.938 279.641L195.558 279.961Z" fill="white"/>
<path d="M156.398 124.29H150.688C150.688 124.29 150.568 124.56 150.348 125.1C150.145 124.716 149.896 124.357 149.608 124.03C149.318 123.842 149.001 123.697 148.668 123.6L148.578 125.14L148.208 125.29L146.508 123.05L146.248 123.19V125.33C144.698 124.86 145.688 122.6 143.878 122.33V125.22C142.318 124.55 143.488 122.22 141.598 121.74C141.768 123.21 141.928 124.52 142.088 125.83L141.698 125.97C141.44 125.672 141.231 125.334 141.078 124.97C140.821 124.09 140.657 123.185 140.588 122.27C140.588 121.42 140.228 121.01 139.278 120.97C139.598 122.4 139.918 123.8 140.278 125.21L139.958 125.31C138.488 123.98 138.788 121.8 137.648 120.31C137.898 121.94 138.138 123.57 138.388 125.21L137.878 125.33C137.479 124.323 137.145 123.291 136.878 122.24C136.578 120.65 136.138 119.24 134.478 118.58C133.998 118.38 133.658 117.86 133.258 117.49L133.398 117.23C133.743 117.33 134.077 117.461 134.398 117.62C139.718 121.03 145.708 122.24 151.838 122.97C153.028 123.11 154.238 123.12 155.418 123.33C155.848 123.4 156.218 123.87 156.608 124.16L156.398 124.29Z" fill="white"/>
<path d="M164.548 177.211C162.258 176.921 159.948 176.741 157.688 176.321C148.368 174.7 139.783 170.224 133.118 163.511C132.388 162.781 131.598 162.111 130.848 161.381C130.382 160.99 130.003 160.506 129.734 159.96C129.466 159.414 129.314 158.819 129.288 158.211C133.795 163.317 139.155 167.6 145.128 170.871C151.128 174.171 157.838 175.711 164.608 176.871L164.548 177.211Z" fill="white"/>
<path d="M209.238 110.671C208.558 110.961 207.888 111.311 207.188 111.531C202.188 113.091 197.188 114.641 192.188 116.181C188.718 117.251 185.248 118.331 181.768 119.361C180.576 119.689 179.368 119.953 178.148 120.151C177.78 120.181 177.409 120.157 177.048 120.081L176.958 119.621C182.268 117.961 187.548 116.191 192.898 114.691C198.248 113.191 203.388 110.621 209.068 110.251L209.238 110.671Z" fill="white"/>
<path d="M154.258 135.731C153.653 136.643 153.099 137.588 152.598 138.561C152.099 139.702 151.675 140.875 151.328 142.071C151.153 142.768 150.833 143.421 150.391 143.987C149.948 144.554 149.392 145.022 148.758 145.361C147.093 146.245 145.267 146.784 143.389 146.946C141.511 147.107 139.619 146.888 137.828 146.301C133.828 145.101 129.878 143.721 125.908 142.411C125.712 142.367 125.532 142.27 125.388 142.131C125.236 141.882 125.106 141.621 124.998 141.351C125.278 141.351 125.588 141.171 125.828 141.251C126.928 141.591 127.998 142.061 129.108 142.371C133.018 143.461 136.918 144.661 140.888 145.511C143.594 145.968 146.375 145.529 148.808 144.261C149.311 144.057 149.744 143.713 150.056 143.27C150.368 142.827 150.546 142.303 150.568 141.761C150.798 139.191 152.508 137.441 153.948 135.551L154.258 135.731Z" fill="white"/>
<path d="M176.128 250.531C175.807 250.025 175.667 249.424 175.733 248.828C175.798 248.232 176.064 247.676 176.488 247.251C178.668 244.301 180.808 241.321 182.938 238.341C183.332 237.738 183.686 237.11 183.998 236.461C185.318 234.051 185.608 231.691 183.878 229.271C183.113 228.094 182.444 226.856 181.878 225.571C181.665 225.077 181.485 224.569 181.338 224.051L181.608 223.911C181.858 224.188 182.091 224.478 182.308 224.781C183.438 226.521 184.548 228.281 185.658 230.041C186.083 230.7 186.347 231.45 186.429 232.23C186.51 233.01 186.407 233.798 186.128 234.531C185.775 235.719 185.281 236.86 184.658 237.931C182.408 241.361 180.448 245.001 177.488 247.931C177.008 248.411 176.908 249.271 176.588 249.931C176.488 250.151 176.238 250.301 176.058 250.481L176.128 250.531Z" fill="white"/>
<path d="M128.798 205.75C129.344 205.4 129.932 205.121 130.548 204.92C133.05 204.406 135.577 204.026 138.118 203.78C145.638 203.26 153.178 202.9 160.708 202.48C161.378 202.48 162.048 202.48 162.708 202.48V202.85L129.048 205.91L128.798 205.75Z" fill="white"/>
<path d="M181.838 169.75C181.898 170.24 182.178 170.83 181.998 171.21C181.202 173.067 180.262 174.859 179.188 176.57C177.558 178.97 175.658 181.19 173.908 183.51C173.61 183.995 173.352 184.503 173.138 185.03C173.57 185.192 174.037 185.233 174.49 185.148C174.943 185.063 175.364 184.857 175.708 184.55L179.878 181.55C180.228 181.3 180.618 181.1 180.988 180.87C181.047 180.951 181.097 181.039 181.138 181.13C179.604 183.184 177.651 184.888 175.408 186.13C175.017 186.333 174.588 186.453 174.148 186.48C172.348 186.67 171.488 185.6 172.298 184C173.006 182.618 173.832 181.3 174.768 180.06C177.198 176.78 180.398 174.06 181.308 169.74L181.838 169.75Z" fill="white"/>
<path d="M152.148 130.33C152.729 130.182 153.321 130.082 153.918 130.03C154.422 130.057 154.923 129.94 155.362 129.692C155.802 129.444 156.161 129.076 156.398 128.63C157.568 126.3 159.668 125.06 161.658 123.55C165.128 120.89 169.058 120.14 173.208 119.8C173.555 119.755 173.906 119.826 174.208 120C173.951 120.125 173.688 120.235 173.418 120.33C172.208 120.732 170.976 121.066 169.728 121.33C165.878 122.02 162.958 124.5 159.848 126.55C158.908 127.17 158.368 128.4 157.688 129.39C156.388 131.3 154.908 131.39 152.848 131.11C152.608 131.11 152.398 130.84 152.178 130.7L152.148 130.33Z" fill="white"/>
<path d="M195.388 124.811C194.598 126.971 193.818 129.131 193.018 131.281C191.208 136.151 189.358 141.001 187.608 145.881C187.279 147.064 187.041 148.271 186.898 149.491L186.718 150.341L186.378 150.401C186.198 150.001 185.868 149.601 185.878 149.211C185.847 148.1 185.965 146.99 186.228 145.911C188.376 139.171 191.02 132.6 194.138 126.251C194.439 125.707 194.773 125.183 195.138 124.681L195.388 124.811Z" fill="white"/>
<path d="M167.848 281.511C167.458 281.831 167.088 282.181 166.678 282.461C164.118 284.241 161.488 285.931 158.998 287.811C156.078 290.021 153.278 292.411 150.408 294.701C150.038 294.918 149.641 295.086 149.228 295.201C149.318 294.751 149.228 294.121 149.518 293.871C151.89 291.615 154.373 289.479 156.958 287.471C159.798 285.411 162.878 283.691 165.878 281.861C166.445 281.587 167.038 281.369 167.648 281.211L167.848 281.511Z" fill="white"/>
<path d="M126.098 290.861C117.718 293.434 109.335 295.991 100.948 298.531C100.514 298.592 100.073 298.592 99.6382 298.531C100.818 296.651 120.888 290.801 126.098 290.861Z" fill="white"/>
<path d="M186.538 128.631C185.778 137.551 185.048 146.301 184.308 155.051H183.938C183.746 154.659 183.612 154.241 183.538 153.811C183.538 145.561 183.908 137.361 186.188 129.361C186.289 129.11 186.406 128.866 186.538 128.631Z" fill="white"/>
<path d="M108.438 92.4212C103.808 92.2312 100.328 94.2612 97.1983 97.0912C94.0683 99.9212 92.8283 103.431 91.6583 107.151C91.3883 108.021 91.1483 108.891 90.8883 109.761L90.5283 109.701C90.641 108.487 90.8146 107.278 91.0483 106.081C91.6322 103.207 92.8867 100.512 94.7096 98.2145C96.5325 95.9172 98.8723 94.0829 101.538 92.8612C103.086 92.2269 104.699 91.7642 106.348 91.4812C106.751 91.349 107.189 91.3722 107.576 91.5461C107.962 91.72 108.27 92.0321 108.438 92.4212Z" fill="white"/>
<path d="M165.698 126.68C166.094 126.767 166.473 126.919 166.818 127.13C167.458 127.73 168.018 128.41 168.598 129.07C170.224 130.922 172.286 132.339 174.598 133.19C173.598 130.32 171.758 128.1 171.248 125.38L171.558 125.19C171.904 125.483 172.209 125.819 172.468 126.19C173.548 128.05 174.578 129.94 175.608 131.83C175.798 132.133 175.914 132.475 175.948 132.83C175.948 133.31 175.948 134 175.668 134.23C175.45 134.376 175.2 134.467 174.939 134.497C174.678 134.527 174.414 134.493 174.168 134.4C172.184 133.239 170.28 131.946 168.468 130.53C167.388 129.475 166.41 128.32 165.548 127.08L165.698 126.68Z" fill="white"/>
<path d="M297.988 39.7009C298.418 41.7009 297.438 43.2309 295.208 43.6309C295.318 42.2109 297.408 41.8509 296.948 40.0509C296.441 40.1796 295.921 40.25 295.398 40.2609C294.801 40.1767 294.212 40.0395 293.638 39.8509C293.85 39.4094 294.083 38.9788 294.338 38.5609C295.128 37.4109 295.908 36.2509 296.768 35.1509C297.984 33.5563 299.321 32.0585 300.768 30.6709C300.288 33.0309 298.208 34.3809 297.438 36.2209C298.128 36.8009 298.918 37.2209 299.258 37.8709C299.418 38.1309 298.568 38.9109 297.988 39.7009ZM297.988 37.8709C296.578 37.4009 296.088 38.0709 295.578 39.0809L297.988 37.8709Z" fill="white"/>
<path d="M288.768 73.0803C289.013 72.7008 289.298 72.3487 289.618 72.0303C293.618 68.9503 294.618 64.7803 293.988 60.0303C293.758 58.3303 293.498 56.6303 293.278 54.9303C293.273 54.5454 293.3 54.1608 293.358 53.7803C293.658 54.1303 293.858 54.2703 293.918 54.4503C295.088 58.0303 296.208 61.6703 295.108 65.4503C294.574 67.3703 293.744 69.1955 292.648 70.8603C291.858 72.0003 290.378 72.6703 289.198 73.5503L288.768 73.0803Z" fill="white"/>
<path d="M111.738 208.32C112.478 208.65 113.208 209.01 113.968 209.32C114.836 209.699 115.736 209.997 116.658 210.21C117.458 210.37 117.808 209.79 117.448 209.1C117.071 208.352 116.567 207.675 115.958 207.1C114.458 205.79 112.848 204.61 111.318 203.34C110.781 202.877 110.292 202.361 109.858 201.8C109.748 201.66 109.858 201.29 109.988 201.06C109.988 200.99 110.388 200.99 110.508 201.06C112.508 202.61 114.508 204.13 116.378 205.75C117.146 206.442 117.818 207.232 118.378 208.1C118.938 208.92 119.318 210.02 118.498 210.74C117.783 211.262 116.898 211.497 116.018 211.4C114.158 211.21 112.928 209.78 111.478 208.8L111.738 208.32Z" fill="white"/>
<path d="M105.168 232.081C106.078 231.271 106.898 231.801 107.698 232.081C109.578 232.621 111.418 233.281 113.318 233.751C116.668 234.568 120.141 234.754 123.558 234.301C124.224 234.26 124.892 234.26 125.558 234.301C122.158 236.751 108.768 235.311 105.168 232.081Z" fill="white"/>
<path d="M116.898 260.951C125.368 262.821 133.688 262.491 142.008 262.311V262.611C139.145 263.036 136.261 263.313 133.368 263.441C129.018 263.441 124.678 263.061 120.368 262.771C119.694 262.731 119.036 262.549 118.437 262.235C117.839 261.921 117.315 261.483 116.898 260.951Z" fill="white"/>
<path d="M156.398 124.291L156.548 124.231C157.638 123.471 159.078 123.571 160.108 122.481C160.692 121.942 161.137 121.268 161.403 120.519C161.67 119.77 161.75 118.968 161.638 118.181C161.617 117.411 161.671 116.641 161.798 115.881H162.498C162.651 117.566 162.705 119.259 162.658 120.951C162.45 121.667 161.983 122.28 161.348 122.671C159.945 123.685 158.475 124.604 156.948 125.421C155.061 126.392 153.479 127.866 152.378 129.681C152.186 129.986 151.897 130.218 151.558 130.341C151.611 129.208 151.979 128.111 152.62 127.175C153.262 126.239 154.151 125.5 155.188 125.041L156.398 124.291Z" fill="white"/>
<path d="M32.0482 94.0802C31.7868 93.4775 31.7035 92.8125 31.808 92.164C31.9126 91.5154 32.2007 90.9103 32.6382 90.4202C33.8975 89.113 35.292 87.9432 36.7982 86.9302C37.2785 86.7067 37.6981 86.3711 38.0217 85.9517C38.3454 85.5324 38.5637 85.0415 38.6582 84.5202C38.8982 82.7702 40.1882 81.7902 41.6582 81.0202C41.9282 80.8802 42.3382 81.0202 43.0482 81.0202C42.7328 81.3271 42.3989 81.6143 42.0482 81.8802C41.375 82.2706 40.7998 82.8095 40.3666 83.4559C39.9333 84.1023 39.6534 84.8392 39.5482 85.6102C39.4433 86.0422 39.2495 86.4477 38.9792 86.8006C38.7089 87.1536 38.368 87.4463 37.9782 87.6602C35.2782 89.0002 33.1582 90.7502 32.3882 93.8002C32.3282 93.8202 32.2382 93.8702 32.0482 94.0802Z" fill="white"/>
<path d="M115.788 88.6203L114.898 87.3503L114.708 84.5703L122.438 90.5703L122.188 90.9303C119.99 89.9775 117.963 88.6701 116.188 87.0603L115.908 87.4103L122.698 93.6203L122.608 93.8103C121.789 93.4664 121.006 93.0445 120.268 92.5503C118.748 91.2903 117.288 89.9403 115.788 88.6203Z" fill="white"/>
<path d="M146.758 300.161C151.861 296.253 157.556 293.187 163.628 291.081C163.308 291.311 162.988 291.551 162.628 291.751C158.418 294.291 154.228 296.861 149.988 299.331C148.973 299.819 147.915 300.214 146.828 300.511L146.758 300.161Z" fill="white"/>
<path d="M152.848 93.2108L154.598 94.5308C154.057 95.0112 153.438 95.3966 152.768 95.6708C151.867 95.7603 150.959 95.7603 150.058 95.6708L151.058 93.8508L150.678 93.5008L147.678 94.9708C147.786 94.0912 148.198 93.277 148.842 92.6689C149.487 92.0608 150.324 91.6971 151.208 91.6408L150.278 90.6408C150.615 90.4382 151.017 90.373 151.4 90.4587C151.784 90.5443 152.12 90.7742 152.338 91.1008C152.687 91.6823 152.937 92.3176 153.078 92.9808L152.848 93.2108Z" fill="white"/>
<path d="M84.5983 112.391C83.3407 110.894 82.5975 109.032 82.4783 107.081C82.2045 104.482 82.7313 101.862 83.9883 99.5709C84.6757 98.2654 85.4473 97.0061 86.2983 95.8009C86.5466 95.3928 86.9062 95.0641 87.3349 94.8533C87.7636 94.6425 88.2435 94.5584 88.7183 94.6109C86.3136 96.8819 84.6009 99.7873 83.7783 102.991C82.8583 106.201 83.8083 109.281 84.5983 112.391Z" fill="white"/>
<path d="M173.458 136.27C172.964 136.175 172.479 136.038 172.008 135.86C168.588 134.25 165.168 132.64 161.788 130.95C161.138 130.62 159.858 130.13 160.378 129.26C160.898 128.39 161.728 129.46 162.378 129.78C165.148 131.19 167.888 132.64 170.628 134.12C171.628 134.68 172.628 135.35 173.628 135.97L173.458 136.27Z" fill="white"/>
<path d="M98.228 118.97C96.758 118.67 95.648 118.17 95.108 117.04C94.4373 115.784 93.9555 114.437 93.678 113.04C93.2527 110.734 93.3048 108.364 93.8311 106.078C94.3574 103.792 95.3468 101.639 96.738 99.7503C96.9343 99.4954 97.1447 99.2517 97.368 99.0203C97.4956 98.9256 97.633 98.8451 97.7781 98.7803C97.0481 100.31 96.3181 101.71 95.7081 103.15C94.2868 106.527 93.9377 110.259 94.7081 113.84C94.8376 114.777 95.174 115.673 95.6929 116.463C96.2118 117.254 96.9002 117.919 97.7081 118.41C97.8982 118.581 98.0723 118.768 98.228 118.97Z" fill="white"/>
<path d="M143.338 91.0804C144.678 90.1804 146.048 89.3405 147.338 88.3805C149.688 86.6505 151.858 87.3805 153.968 88.8005C154.328 89.0405 154.428 89.6705 154.648 90.1205C154.228 90.1205 153.648 90.2004 153.388 90.0004C151.168 88.4804 149.088 88.8604 146.998 90.2904C146.022 91.097 144.784 91.52 143.518 91.4805L143.338 91.0804Z" fill="white"/>
<path d="M237.228 102.361C235.748 104.361 234.228 106.421 232.748 108.361C232.568 108.601 232.078 108.601 231.748 108.711L231.548 108.421L230.328 110.881C229.378 109.521 231.438 105.111 233.608 103.971L232.718 106.301L232.548 106.141L236.958 102.021L237.228 102.361Z" fill="white"/>
<path d="M127.188 106.271C126.994 105.93 126.88 105.551 126.853 105.16C126.827 104.769 126.889 104.377 127.035 104.014C127.181 103.65 127.407 103.324 127.697 103.061C127.987 102.797 128.333 102.602 128.708 102.491C130.448 102.011 130.858 102.261 131.198 104.061C131.258 104.411 131.258 104.781 131.298 105.131C131.378 106.001 131.398 106.821 132.378 107.351C132.698 107.52 132.939 107.805 133.053 108.148C133.167 108.491 133.144 108.865 132.988 109.191C132.804 109.761 132.67 110.347 132.588 110.941C131.788 110.361 131.788 110.361 132.278 108.331C130.458 107.771 130.278 107.521 130.158 105.541C130.108 104.751 129.998 103.961 129.908 103.081C128.098 103.301 127.448 104.461 127.188 106.271Z" fill="white"/>
<path d="M213.858 344.801C210.278 343.801 208.078 336.911 208.398 333.461C208.978 334.951 209.478 336.151 209.908 337.371C210.668 339.561 211.378 341.751 213.208 343.371C213.518 343.651 213.598 344.201 213.858 344.801Z" fill="white"/>
<path d="M121.558 319.19C122.948 316.89 124.308 314.58 125.758 312.31C126.355 311.458 127.024 310.658 127.758 309.92C127.918 309.75 128.318 309.79 128.598 309.73C128.598 310.01 128.718 310.37 128.598 310.56C126.598 313.394 124.571 316.21 122.518 319.01C122.364 319.183 122.197 319.343 122.018 319.49L121.558 319.19Z" fill="white"/>
<path d="M123.988 111.921C124.408 114.261 124.908 116.591 125.188 118.921C125.179 119.746 124.94 120.553 124.498 121.251C124.328 121.571 123.698 121.651 123.148 121.671C124.448 120.051 124.058 118.441 123.598 116.791C123.301 116 123.182 115.154 123.249 114.312C123.317 113.471 123.569 112.654 123.988 111.921Z" fill="white"/>
<path d="M151.408 80.1911C151.408 79.2711 151.358 78.3511 151.318 77.4311C151.338 76.5228 151.071 75.6314 150.556 74.883C150.041 74.1346 149.304 73.5672 148.448 73.2611L146.858 72.6311C147.545 72.3667 148.294 72.3063 149.014 72.457C149.734 72.6078 150.395 72.9634 150.918 73.4811C151.378 73.9018 151.744 74.4132 151.996 74.9829C152.247 75.5527 152.377 76.1684 152.378 76.7911C152.378 77.7111 152.378 78.6311 152.378 79.5511C152.378 80.4711 152.058 80.5511 151.378 80.1511L151.408 80.1911Z" fill="white"/>
<path d="M129.208 313.9C129.658 315.55 126.208 321.5 124.208 322.83C125.188 319.35 127.338 316.88 129.208 313.9Z" fill="white"/>
<path d="M44.578 86.2803C46.178 88.0903 47.828 89.9103 47.808 92.5503C47.7127 93.3063 47.4195 94.0238 46.958 94.6303C46.828 94.8403 46.168 94.7003 45.688 94.6303C47.428 93.2103 46.568 91.7203 46.008 90.3203C45.648 89.4003 45.008 88.5803 44.598 87.6803C44.4486 87.2837 44.3315 86.8757 44.248 86.4603L44.578 86.2803Z" fill="white"/>
<path d="M152.758 245.7C152.758 245.54 152.698 245.36 152.758 245.23C152.998 244.75 153.278 244.29 153.538 243.82C153.782 244.248 154.002 244.689 154.198 245.14C154.518 245.95 154.838 246.76 155.078 247.6C155.225 247.966 155.225 248.374 155.078 248.74C154.719 249.124 154.313 249.46 153.868 249.74C153.626 249.382 153.428 248.996 153.278 248.59C153.048 247.59 152.898 246.65 152.708 245.68L152.758 245.7Z" fill="white"/>
<path d="M69.4685 103.891C66.0285 103.891 63.9885 103.551 62.6685 102.611C63.0764 102.505 63.4969 102.454 63.9185 102.461C67.4457 103.223 71.114 103.009 74.5285 101.841C74.8326 101.781 75.1397 101.738 75.4485 101.711C73.4485 103.181 71.4485 103.451 69.4485 103.921L69.4685 103.891Z" fill="white"/>
<path d="M111.808 96.4404C113.66 100.082 116.18 103.342 119.238 106.05C116.448 105.51 111.368 98.9504 111.808 96.4404Z" fill="white"/>
<path d="M74.1582 175.861C72.4482 175.581 69.6082 169.141 69.8182 166.021L74.1582 175.861Z" fill="white"/>
<path d="M151.368 80.1504C151.438 80.6804 151.468 81.4904 150.688 80.9404C148.632 79.4593 146.653 77.8739 144.758 76.1904C147.688 76.2804 149.498 78.3104 151.408 80.1904L151.368 80.1504Z" fill="white"/>
<path d="M121.778 86.2109L120.048 85.9709L123.048 87.7409C120.248 87.7409 118.328 86.0209 115.958 84.5909C118.608 84.2009 120.348 84.6909 121.778 86.2109Z" fill="white"/>
<path d="M244.448 105.531C242.578 108.001 240.718 110.471 238.738 113.111C238.218 111.651 242.288 106.171 244.138 105.291L244.448 105.531Z" fill="white"/>
<path d="M114.198 114.081L121.088 121.361C119.198 121.471 114.778 116.831 114.198 114.081Z" fill="white"/>
<path d="M29.8081 162.451C32.2981 161.781 34.1381 165.351 34.4781 169.381C32.5681 167.081 32.6281 163.791 29.8081 162.451Z" fill="white"/>
<path d="M136.248 93.2304C135.848 89.9604 139.108 85.9704 141.648 87.0504C138.308 87.9704 137.758 90.9604 136.248 93.2304Z" fill="white"/>
<path d="M139.208 137.15L136.478 128.69C138.218 129.93 140.098 135.81 139.208 137.15Z" fill="white"/>
<path d="M41.7781 100.901C41.5681 101.491 41.3481 102.071 41.1581 102.661C40.5981 104.321 40.0781 106.001 39.4781 107.661C39.3681 107.971 38.9881 108.191 38.7381 108.461C38.6381 108.121 38.3781 107.721 38.4781 107.461C39.1447 105.581 39.8347 103.721 40.5481 101.881C40.7987 101.453 41.1084 101.062 41.4681 100.721L41.7781 100.901Z" fill="white"/>
<path d="M42.5483 158.591L46.0483 151.801C46.5383 153.891 45.5883 155.591 44.5983 157.251C44.1383 157.961 43.6183 158.741 42.5483 158.591Z" fill="white"/>
<path d="M137.188 83.7006C138.772 83.3792 140.418 83.6572 141.808 84.4806C141.158 85.8106 139.308 86.3706 137.018 85.7106L139.628 84.7706L137.128 84.0606L137.188 83.7006Z" fill="white"/>
<path d="M162.788 309.99L166.678 318.35C164.778 317.2 162.178 311.67 162.788 309.99Z" fill="white"/>
<path d="M39.8283 117.49C38.6291 115.473 37.9201 113.202 37.7583 110.86C39.1183 111.16 40.5783 115.65 39.8283 117.49Z" fill="white"/>
<path d="M162.718 103.831C162.718 104.611 162.278 105.011 161.558 104.831C161.262 104.716 160.933 104.715 160.636 104.828C160.339 104.94 160.094 105.159 159.948 105.441C159.798 105.641 159.358 105.631 159.048 105.721C158.998 105.391 158.808 105.011 158.918 104.721C159.129 104.179 159.486 103.706 159.948 103.353C160.41 103.001 160.96 102.782 161.538 102.721C162.368 102.581 162.678 103.081 162.718 103.831Z" fill="white"/>
<path d="M130.298 101.841C129.845 101.967 129.379 102.038 128.908 102.051C127.568 101.881 126.908 102.581 126.608 103.741C126.378 104.471 126.068 105.161 125.738 106.011C125.008 105.011 125.618 102.571 126.638 101.531C127.368 100.801 128.908 100.841 130.298 101.841Z" fill="white"/>
<path d="M138.618 81.3603C141.438 80.9203 143.928 81.5003 145.838 83.8403L138.618 81.3603Z" fill="white"/>
<path d="M169.368 222.63C166.882 223.65 164.177 224.022 161.508 223.71C161.888 223.39 162.128 223 162.408 222.97C164.718 222.7 167.038 222.5 169.348 222.28L169.368 222.63Z" fill="white"/>
<path d="M36.458 116.92C36.268 116.69 35.958 116.49 35.898 116.24C35.548 114.57 35.228 112.9 34.958 111.24C34.958 111.03 35.248 110.77 35.408 110.53C35.588 110.7 35.908 110.84 35.938 111.04C36.278 112.94 36.578 114.85 36.878 116.76L36.458 116.92Z" fill="white"/>
<path d="M283.918 72.9311L288.528 68.0811C288.878 70.2111 286.048 73.2911 283.918 72.9311Z" fill="white"/>
<path d="M142.228 77.7803C144.651 78.1225 146.863 79.3476 148.438 81.2203C146.184 80.4422 144.083 79.2782 142.228 77.7803Z" fill="white"/>
<path d="M109.488 217.221L115.398 220.581C112.388 220.741 109.428 219.011 109.488 217.221Z" fill="white"/>
<path d="M75.9484 172.951C74.6684 172.381 74.3384 167.521 75.0784 165.871H75.4284C75.5984 168.211 75.7784 170.581 75.9484 172.951Z" fill="white"/>
<path d="M169.488 318.43C167.826 316.582 166.96 314.153 167.078 311.67L167.588 311.53C168.221 313.83 168.855 316.13 169.488 318.43Z" fill="white"/>
<path d="M242.218 111.081L240.708 111.521C241.751 109.519 243.414 107.909 245.448 106.931L245.688 107.161L242.218 111.081Z" fill="white"/>
<path d="M130.048 124.151L126.488 120.021L126.948 119.601C128.948 120.261 129.438 122.241 130.498 123.741L130.048 124.151Z" fill="white"/>
<path d="M178.388 125.081C178.568 126.351 178.788 127.611 178.898 128.881C178.898 129.101 178.508 129.361 178.298 129.611C178.088 129.401 177.688 129.201 177.688 129.001C177.688 127.701 177.778 126.411 177.828 125.111L178.388 125.081Z" fill="white"/>
<path d="M143.978 131.541C143.978 133.541 144.158 135.631 143.158 137.541L142.648 137.461L143.428 131.461L143.978 131.541Z" fill="white"/>
<path d="M166.948 220.371L171.798 218.921C170.798 220.491 168.408 221.331 167.068 220.771L166.948 220.371Z" fill="white"/>
<path d="M119.928 104.901C118.175 104.126 116.677 102.871 115.608 101.281L115.898 100.931L120.148 104.571L119.928 104.901Z" fill="white"/>
<path d="M118.948 100.76L121.148 103.36C120.148 103.49 117.928 101.85 117.518 100.36L118.998 100.85L118.948 100.76Z" fill="white"/>
<path d="M119.048 100.811L118.048 99.1711L118.388 98.8311L121.908 101.611L121.598 102.111L119.018 100.761L119.048 100.811Z" fill="white"/>
<path d="M33.5483 161.891C35.0083 162.261 36.0183 164.491 35.6083 166.251L33.5483 161.891Z" fill="white"/>
<path d="M153.938 101.08C153.258 100.08 152.568 99.1502 151.938 98.1702C151.888 98.1002 152.018 97.7902 152.088 97.7802C152.338 97.7802 152.688 97.6902 152.848 97.7802C153.741 98.5424 154.313 99.6141 154.448 100.78L153.938 101.08Z" fill="white"/>
<path d="M212.548 337.681L213.958 342.421L213.518 342.541C212.278 341.181 212.258 339.471 212.228 337.771L212.548 337.681Z" fill="white"/>
<path d="M126.298 120.871L129.148 125.201L128.848 125.401C127.588 124.141 126.218 122.951 125.848 121.081L126.298 120.871Z" fill="white"/>
<path d="M156.168 100.421C155.398 99.8107 154.618 99.2207 153.878 98.5807C153.826 98.4855 153.799 98.379 153.799 98.2707C153.799 98.1624 153.826 98.0559 153.878 97.9607C153.983 97.8831 154.103 97.8286 154.231 97.8011C154.358 97.7735 154.49 97.7733 154.618 97.8007C155.119 97.9749 155.558 98.2906 155.883 98.7095C156.208 99.1284 156.404 99.6325 156.448 100.161L156.168 100.421Z" fill="white"/>
<path d="M149.798 91.0811C148.898 91.9511 147.998 92.8211 147.078 93.6611C146.968 93.7611 146.668 93.6611 146.458 93.6611C146.458 93.4811 146.458 93.2111 146.518 93.1211C147.458 92.2711 148.438 91.4511 149.398 90.6211L149.798 91.0811Z" fill="white"/>
<path d="M40.5884 105.69C40.8184 104.14 42.0484 103.3 43.0784 102.32L43.4184 102.56L41.0484 105.99L40.5884 105.69Z" fill="white"/>
<path d="M122.608 100.591C121.228 100.981 120.698 100.511 120.698 99.1406L122.608 100.591Z" fill="white"/>
<path d="M104.048 11.1504L98.3285 18.2604L97.9185 17.9404C99.5288 15.3402 101.502 12.9831 103.778 10.9404L104.048 11.1504Z" fill="white"/>
</svg>
