<svg width="18" height="18" viewBox="0 0 18 18" fill="none" xmlns="http://www.w3.org/2000/svg">
<path d="M12.492 0.666016H5.50866C2.47533 0.666016 0.666992 2.47435 0.666992 5.50768V12.4827C0.666992 15.5244 2.47533 17.3327 5.50866 17.3327H12.4837C15.517 17.3327 17.3253 15.5244 17.3253 12.491V5.50768C17.3337 2.47435 15.5253 0.666016 12.492 0.666016ZM9.00033 14.2077C7.50866 14.2077 6.34199 13.466 5.55033 12.7327V13.3244C5.55033 13.666 5.26699 13.9494 4.92533 13.9494C4.58366 13.9494 4.30033 13.666 4.30033 13.3244V11.0327C4.30033 10.691 4.58366 10.4077 4.92533 10.4077H6.99199C7.33366 10.4077 7.61699 10.691 7.61699 11.0327C7.61699 11.3743 7.33366 11.6577 6.99199 11.6577H6.24199C6.85866 12.2743 7.81699 12.9577 9.00033 12.9577C11.1837 12.9577 12.9587 11.1827 12.9587 8.99935C12.9587 8.65768 13.242 8.37435 13.5837 8.37435C13.9253 8.37435 14.2087 8.65768 14.2087 8.99935C14.2087 11.8743 11.8753 14.2077 9.00033 14.2077ZM14.2087 6.94935C14.2087 6.97435 14.2087 6.99935 14.2087 7.01602C14.2003 7.10768 14.1753 7.19102 14.1337 7.26602C14.092 7.34102 14.0337 7.40768 13.9587 7.46602C13.9003 7.50768 13.8337 7.54102 13.7587 7.56602C13.7003 7.58268 13.642 7.59102 13.5837 7.59102H11.5587C11.217 7.59102 10.9337 7.30768 10.9337 6.96602C10.9337 6.62435 11.217 6.34102 11.5587 6.34102H12.2503C11.5837 5.72435 10.5087 5.04102 9.01699 5.04102C6.83366 5.04102 5.05866 6.81602 5.05866 8.99935C5.05866 9.34102 4.77533 9.62435 4.43366 9.62435C4.09199 9.62435 3.79199 9.34102 3.79199 8.99935C3.79199 6.12435 6.12533 3.79102 9.00033 3.79102C10.792 3.79102 12.1087 4.56602 12.9587 5.30768V4.67435C12.9587 4.33268 13.242 4.04935 13.5837 4.04935C13.9253 4.04935 14.2087 4.33268 14.2087 4.67435V6.94935Z" fill="white"/>
</svg>
