<svg width="18" height="18" viewBox="0 0 18 18" fill="none" xmlns="http://www.w3.org/2000/svg">
<path d="M9 6.5C7.61929 6.5 6.5 5.38071 6.5 4C6.5 2.61929 7.61929 1.5 9 1.5C10.3807 1.5 11.5 2.61929 11.5 4C11.5 5.38071 10.3807 6.5 9 6.5Z" stroke="#027333" stroke-width="1.5"/>
<path d="M3.58301 16.5C2.2023 16.5 1.08301 15.3807 1.08301 14C1.08301 12.6193 2.2023 11.5 3.58301 11.5C4.96372 11.5 6.08301 12.6193 6.08301 14C6.08301 15.3807 4.96372 16.5 3.58301 16.5Z" stroke="#027333" stroke-width="1.5"/>
<path d="M14.416 16.5C13.0353 16.5 11.916 15.3807 11.916 14C11.916 12.6193 13.0353 11.5 14.416 11.5C15.7967 11.5 16.916 12.6193 16.916 14C16.916 15.3807 15.7967 16.5 14.416 16.5Z" stroke="#027333" stroke-width="1.5"/>
<path d="M15.6663 9.83303C15.6663 7.84186 14.7934 6.05458 13.4094 4.83301M2.33301 9.83303C2.33301 7.84186 3.20594 6.05458 4.58999 4.83301M7.33301 16.2897C7.86571 16.4268 8.42418 16.4997 8.99967 16.4997C9.57517 16.4997 10.1336 16.4268 10.6663 16.2897" stroke="#027333" stroke-width="1.5" stroke-linecap="round"/>
</svg>
