<svg width="21" height="20" viewBox="0 0 21 20" fill="none" xmlns="http://www.w3.org/2000/svg">
<path d="M16.238 16.1752C16.352 16.0696 16.4215 16.0098 16.4861 15.9451C17.2472 15.1854 18.0048 14.4223 18.7687 13.666C19.0836 13.3546 19.4638 13.249 19.8919 13.381C20.0857 13.4355 20.26 13.5438 20.3946 13.6934C20.5293 13.843 20.6186 14.0278 20.6523 14.2262C20.6928 14.4011 20.687 14.5835 20.6356 14.7555C20.5842 14.9274 20.4888 15.083 20.359 15.207C18.8739 16.7 17.3839 18.1893 15.889 19.6748C15.4421 20.1162 14.7895 20.1051 14.3446 19.663C12.8544 18.1853 11.3704 16.7025 9.89274 15.2146C9.68808 15.0072 9.57361 14.7274 9.57422 14.4361C9.57483 14.1447 9.69048 13.8654 9.896 13.6588C10.1015 13.4523 10.3803 13.3353 10.6716 13.3332C10.963 13.3312 11.2434 13.4443 11.4518 13.648C12.24 14.4167 13.0129 15.2021 13.792 15.9792C13.8504 16.0376 13.9137 16.0918 14.0131 16.1828V15.8576C14.0131 10.9759 14.0131 6.09447 14.0131 1.21327C14.0131 0.59953 14.3279 0.170676 14.8736 0.0393086C15.015 0.00581262 15.1618 0.000742474 15.3052 0.0243922C15.4487 0.048042 15.586 0.0999408 15.7092 0.177078C15.8325 0.254216 15.9392 0.355056 16.0231 0.47375C16.1071 0.592444 16.1667 0.726628 16.1984 0.868519C16.2266 1.02185 16.2391 1.17765 16.2359 1.33352C16.2359 6.15262 16.2359 10.9733 16.2359 15.7957L16.238 16.1752Z" fill="#13013C"/>
<path d="M4.43071 3.81452C4.31116 3.92851 4.24235 3.99107 4.17701 4.05641C3.43399 4.79804 2.69444 5.54176 1.95281 6.28061C1.45723 6.77202 0.784409 6.79496 0.329143 6.34525C-0.126124 5.89554 -0.112222 5.20813 0.390308 4.70421C1.82353 3.26774 3.25837 1.83313 4.69484 0.400374C5.22308 -0.12996 5.86393 -0.133435 6.38801 0.389948C7.83652 1.83522 9.28364 3.28211 10.7294 4.73062C11.1033 5.10456 11.1944 5.57442 10.9928 6.01648C10.9009 6.21923 10.75 6.38952 10.5598 6.5051C10.3695 6.62068 10.1489 6.67616 9.92658 6.66428C9.60685 6.64621 9.35315 6.49608 9.13073 6.27227C8.38632 5.5209 7.63912 4.7751 6.88985 4.02582C6.82938 3.96535 6.77933 3.89446 6.72442 3.82843L6.65491 3.85345V4.14607C6.65491 9.01893 6.65491 13.8918 6.65491 18.7646C6.65491 19.2713 6.47072 19.6613 6.00434 19.8823C5.853 19.954 5.68722 19.9899 5.51979 19.9874C5.35236 19.985 5.18773 19.9441 5.03859 19.8679C4.88946 19.7918 4.75979 19.6824 4.65958 19.5482C4.55937 19.4141 4.4913 19.2587 4.4606 19.0941C4.43661 18.9487 4.42614 18.8014 4.42932 18.6541C4.42932 13.8424 4.42932 9.03051 4.42932 4.21836L4.43071 3.81452Z" fill="#13013C"/>
</svg>
