<svg width="60" height="107" viewBox="0 0 60 107" fill="none" xmlns="http://www.w3.org/2000/svg">
<g id="Vector" opacity="0.1">
<path id="Vector" d="M38.5582 3.58819C32.8618 0.365592 26.2554 -0.515809 19.5546 1.26984C14.9531 2.49636 11.109 4.70034 7.626 8.10975C5.46262 10.2281 2.24909 15.8599 1.40127 19.0215C-0.409901 25.7674 -0.167441 32.8296 2.15978 41.1466C5.35032 52.5482 10.4286 58.6596 21.3155 64.1956C25.8759 66.5147 29.1295 68.7919 31.6431 71.4269C32.3979 72.2179 33.0087 72.918 33.548 73.625L43.213 71.0566C43.3427 69.9267 43.5672 68.8011 43.8839 67.5573C44.4367 65.3841 44.7985 64.6642 48.9666 57.4152C53.8071 48.9979 54.4715 47.4784 55.317 42.8862C55.8464 40.0133 55.9582 37.9461 55.7515 34.9025C55.2393 27.3506 52.3318 18.7104 48.308 12.7807C45.7299 8.98111 42.5974 5.99807 39.1063 3.9087C38.9245 3.79943 38.7421 3.69334 38.5581 3.5899L38.5582 3.58819ZM37.0609 6.28924C41.1479 8.66241 42.8851 10.264 45.5496 14.1091C48.7444 18.7212 51.8211 26.9562 52.5489 32.8452C53.4307 39.9755 51.4255 47.5179 47.0917 53.3644C41.5207 60.8819 33.1848 63.8832 24.7573 61.4057C21.7673 60.5273 16.1642 57.3519 13.6793 55.1282C9.33587 51.2418 6.62789 46.453 4.80828 39.4397C0.790785 23.9557 4.81865 11.2767 15.4512 5.93973C18.1261 4.59652 23.4121 3.28316 26.1834 3.27254C27.5008 3.26715 29.6838 3.47717 31.0335 3.73824C33.2662 4.17032 33.8122 4.40135 37.0616 6.28864L37.0609 6.28924ZM34.6674 7.96568L33.7904 9.37195C33.257 10.228 32.7033 10.8173 32.3818 10.8709C32.0403 10.9283 31.0221 10.4416 29.5092 9.49903L27.1663 8.03812L27.5278 7.05376C27.8222 6.252 27.811 6.18978 27.4663 6.71934C26.8668 7.64002 26.2927 7.64506 24.4951 6.7419L22.9182 5.95047L24.434 6.89596C25.2678 7.41643 26.0067 8.05945 26.078 8.32608C26.2118 8.83172 23.9559 12.988 23.23 13.5719C22.9118 13.8277 22.3867 13.6219 20.3675 12.4477C18.784 11.5268 17.8489 10.836 17.7666 10.5251C17.6962 10.259 18.0218 9.33432 18.4909 8.4706L19.3434 6.90072L16.9736 10.3033L15.8632 9.86502C14.9145 9.49108 14.8609 9.4978 15.4944 9.91242C16.8156 10.7768 16.7931 10.9663 15.0319 13.8114L13.4136 16.427L9.6783 14.6292L13.117 16.9371L10.0011 22.295L6.80759 20.7436L9.70447 22.8051L8.31477 25.364C7.14588 27.5166 6.82814 27.9326 6.31463 27.9862C5.75176 28.0452 5.73012 28.0824 6.02936 28.4543C6.23027 28.7039 6.18187 29.1865 5.90237 29.7161C5.52423 30.4336 5.52996 30.4808 5.93882 30.0039C6.82847 28.9652 7.17108 29.014 9.81365 30.5507C11.8514 31.7358 12.2913 32.0899 12.2259 32.494C12.0701 33.4569 9.70486 37.2164 9.20178 37.3009C8.93637 37.3457 8.12272 37.0941 7.39397 36.7414L6.06772 36.1017L7.48094 36.9852C9.07477 37.982 9.10929 38.1549 8.08475 40.0715C7.46097 41.2399 7.47578 41.2308 8.47381 39.8427L9.51165 38.3984L12.0845 39.7962C13.9687 40.8196 14.6622 41.3142 14.6745 41.6437C14.6837 41.8908 14.1179 43.0858 13.4157 44.2975C12.2584 46.2957 12.0646 46.5065 11.3327 46.5669C10.6838 46.6209 10.6086 46.685 10.9478 46.8965C11.1796 47.042 11.3009 47.4633 11.2186 47.835L11.0676 48.5104L11.61 48.0626C12.121 47.6404 12.2963 47.6997 14.684 49.0882C17.5304 50.7435 17.5105 50.7 16.4075 52.7641C15.7838 53.9326 15.7986 53.9234 16.7961 52.5362L17.8344 51.091L23.1227 53.972L22.7745 54.8906C22.5829 55.3954 22.2289 56.2324 21.9887 56.7493C21.7081 57.3541 21.9363 57.1206 22.6276 56.0969L23.7033 54.504L28.8062 57.4715L28.3688 58.5824C28.1273 59.1933 28.1009 59.4363 28.3103 59.1231C29.1557 57.8549 29.6729 57.8072 31.5291 58.8298L33.265 59.786L31.6518 58.6452C30.7642 58.0176 29.9981 57.354 29.9501 57.1696C29.8057 56.6211 31.9285 52.7915 32.61 52.3715C33.1847 52.0171 33.3851 52.0922 35.657 53.5046L38.0882 55.0156L37.1214 57.0144C36.1684 58.9833 36.1674 58.991 37.0629 57.5551C38.2873 55.5924 38.8401 55.2918 40.0382 55.9399L41.0028 56.4618L40.1305 55.6997C39.6502 55.2805 39.25 54.7195 39.2402 54.4531C39.2123 53.7022 41.3718 50.1416 42.0211 49.8688C42.4191 49.702 43.0911 49.8914 44.2953 50.5087L46.0042 51.3851L44.3197 50.3404C42.2656 49.0653 42.2286 48.7783 43.7747 46.1197C45.158 43.741 45.5745 43.5567 47.4527 44.4924L48.908 45.2179L47.4781 44.3223C45.7099 43.2158 45.6828 42.8386 47.1871 40.2518C48.2774 38.377 48.9086 37.848 49.8487 38.0227C50.219 38.0911 50.2263 38.0539 49.8849 37.834C49.3706 37.5018 49.3696 36.5294 49.8839 35.5248C50.1295 35.0455 49.9741 35.1578 49.4428 35.8431L48.6221 36.9018L46.1064 35.536C43.7807 34.2735 43.5926 34.1179 43.6156 33.4712C43.6407 32.7534 46.1804 28.6247 46.6775 28.4933C46.819 28.4558 47.5735 28.6991 48.353 29.0338L49.7698 29.6421L48.4607 28.8322C46.9457 27.8955 46.8428 27.396 47.7943 25.6028C48.3154 24.6212 48.2587 24.6616 47.3533 25.9211L46.3145 27.3649L41.2116 24.3973L42.837 21.6024C44.4443 18.8385 44.4705 18.8097 45.2035 19.0003C45.8877 19.1789 45.9027 19.1675 45.3976 18.8418C45.0968 18.6478 44.8546 18.2226 44.8582 17.8964C44.8649 17.3327 44.8343 17.316 44.261 17.5621C43.7418 17.7864 43.3266 17.6161 41.2807 16.341L38.9045 14.8596L39.5706 13.3697C40.1624 12.0464 40.1653 11.9924 39.593 12.8909C38.4916 14.6218 38.1334 14.6245 35.4122 12.9294L33.0359 11.4479L33.8521 9.70406L34.6674 7.96568ZM36.4709 14.0025C37.4636 14.5881 37.6878 14.8547 37.7304 15.2564C37.8185 16.0993 35.4257 20.2302 34.744 20.4099C34.4023 20.5004 33.5016 20.0785 31.8601 19.0575L29.4735 17.5736L32.7377 11.9606L35.2014 13.2938C35.7243 13.5765 36.1398 13.8076 36.4709 14.0025ZM42.339 17.415C43.3317 18.0006 43.5559 18.2672 43.5985 18.6689C43.68 19.4416 41.5651 23.1701 40.7654 23.6628C40.2571 23.9764 39.9757 23.8673 37.7728 22.4973L35.3416 20.9862L38.6058 15.3732L41.0694 16.7064C41.5924 16.9892 42.0079 17.2201 42.339 17.415ZM30.3519 10.4571C31.2786 11.0114 31.823 11.4346 31.9131 11.679C32.0463 12.0409 31.7289 12.8151 30.7916 14.4269C30.0736 15.6614 29.308 16.8149 29.0885 16.9907C28.7518 17.2618 28.2999 17.0689 26.1479 15.7357L23.6055 14.1612L26.8697 8.54817L29.2982 9.86206C29.6901 10.0746 30.0416 10.2731 30.3504 10.4574L30.3519 10.4571ZM26.0289 16.0648C27.1887 16.7238 28.29 17.5017 28.3843 17.8612C28.5607 18.5279 25.9845 22.9435 25.3151 23.1206C24.9733 23.2111 24.0726 22.7892 22.4312 21.7682L20.0445 20.2843L21.4326 17.7282C22.335 16.0665 22.997 15.1074 23.325 14.9878C23.6515 14.8684 24.868 15.4075 26.0279 16.0666L26.0289 16.0648ZM20.0253 12.59C21.5238 13.4614 22.4352 14.142 22.5162 14.4487C22.597 14.754 22.147 15.7888 21.2946 17.2545C20.4422 18.7202 19.7664 19.6236 19.4601 19.7039C19.1534 19.7851 18.1102 19.329 16.6128 18.4582C13.7779 16.8096 13.7538 16.7185 15.4265 13.8422C17.0992 10.9658 17.1903 10.9417 20.0252 12.5903L20.0253 12.59ZM31.9526 19.5262C33.9222 20.6716 34.2054 20.9204 34.1861 21.4852C34.1566 22.3308 32.0596 25.9265 31.3369 26.3724C30.8287 26.6859 30.5473 26.5768 28.3443 25.2068L25.9131 23.6958L27.3012 21.1397C28.2036 19.4779 28.8656 18.5189 29.1935 18.3993C29.5549 18.2669 30.3314 18.5845 31.952 19.527L31.9526 19.5262ZM37.8512 22.9613C39.7928 24.0856 40.0742 24.3334 40.0542 24.8977C40.0246 25.7433 37.9286 29.3395 37.2059 29.7854C36.6976 30.099 36.4162 29.9899 34.2133 28.6199L31.7821 27.1088L33.2551 24.4088C34.3377 22.4229 34.8459 21.7039 35.1768 21.6912C35.4239 21.6821 36.6272 22.2539 37.8513 22.9633L37.8512 22.9613ZM43.4054 26.1983C44.4519 26.7892 45.492 27.4544 45.7232 27.7417C45.9802 28.0619 45.766 28.5974 44.5197 30.7405C43.6854 32.1751 42.875 33.3831 42.7195 33.4244C42.564 33.4655 41.3593 32.8289 40.0425 32.0098L37.648 30.5213L39.121 27.8213C40.2036 25.8353 40.7118 25.1163 41.0427 25.1037C41.3031 25.094 42.3572 25.6086 43.4046 26.1999L43.4054 26.1983ZM16.464 18.7129C17.9625 19.5843 18.8739 20.2649 18.9549 20.5715C19.0346 20.8727 18.6021 21.8833 17.8075 23.2497C17.0129 24.6161 16.3492 25.4926 16.0472 25.5715C15.7405 25.6527 14.6974 25.1966 13.1999 24.3258C10.3809 22.6864 10.3487 22.5728 11.9396 19.8372C13.5305 17.1015 13.6442 17.0731 16.464 18.7129ZM29.3488 26.2486C30.3414 26.8341 30.5656 27.1008 30.6082 27.5024C30.689 28.2724 28.7184 31.7507 27.924 32.2404C27.4157 32.554 27.1343 32.4449 24.9314 31.0749L22.5002 29.5638L25.616 24.2059L28.0797 25.539C28.6026 25.8218 29.0182 26.0528 29.3493 26.2477L29.3488 26.2486ZM35.2168 29.6611C36.2095 30.2467 36.4337 30.5133 36.4763 30.915C36.5571 31.6849 34.5865 35.1632 33.7921 35.6529C33.2838 35.9665 33.0024 35.8574 30.7995 34.4874L28.3682 32.9763L31.4841 27.6184L33.9478 28.9516C34.4707 29.2343 34.8863 29.4653 35.2173 29.6602L35.2168 29.6611ZM44.9218 35.3061C45.2001 35.4715 45.5138 35.6657 45.8724 35.8885L48.3218 37.4113L46.9979 39.8589C46.2698 41.2048 45.5262 42.4243 45.3471 42.5692C45.1081 42.7621 44.371 42.4543 42.5812 41.4135C39.7296 39.7551 39.7206 39.7215 41.3404 36.9362C42.7768 34.4662 42.9751 34.1537 44.9221 35.3075L44.9218 35.3061ZM23.2299 22.7033C24.1567 23.2576 24.701 23.6808 24.7912 23.9252C25.0299 24.5784 22.6348 28.7948 21.9163 28.985C21.363 29.1314 17.1986 26.8079 16.8668 26.1682C16.7145 25.8758 17.0732 25.1019 18.2041 23.2816L19.749 20.7942L22.1775 22.1081C22.5694 22.3206 22.9211 22.5189 23.2299 22.7033ZM37.3524 31.031L42.4553 33.9985L41.1315 36.4461C40.4033 37.792 39.6568 39.0147 39.472 39.1633C39.2137 39.371 38.5732 39.0826 36.6874 37.9113L34.2376 36.3894L35.7955 33.7106L37.3524 31.031ZM40.0152 40.2364L42.4618 41.7576L44.9098 43.2784L43.5119 45.8513C42.4886 47.7354 41.994 48.4289 41.6645 48.4412C41.0437 48.4653 37.1871 46.1894 36.8944 45.6269C36.594 45.0493 38.3376 41.5823 39.3284 40.7874L40.0152 40.2364ZM13.0525 24.5814C14.5509 25.4528 15.4623 26.1334 15.5434 26.44C15.6231 26.7412 15.1906 27.7518 14.396 29.1182C13.6013 30.4847 12.9376 31.3611 12.6357 31.44C12.329 31.5212 11.2858 31.0651 9.78837 30.1943C6.96939 28.5549 6.93714 28.4413 8.52803 25.7057C10.1189 22.9701 10.2326 22.9416 13.0525 24.5814ZM25.9372 32.1171C26.9299 32.7026 27.1541 32.9693 27.1966 33.3709C27.2769 34.1358 25.3097 37.6184 24.5229 38.1031C24.0423 38.3996 23.6878 38.2776 21.7503 37.1462C20.5289 36.4323 19.4353 35.6695 19.3216 35.4493C19.1693 35.1569 19.528 34.3831 20.6589 32.5627L22.2038 30.0753L24.6675 31.4085C25.1904 31.6913 25.6061 31.9222 25.9372 32.1171ZM31.8053 35.5296C32.798 36.1152 33.0221 36.3818 33.0647 36.7835C33.1433 37.5307 31.4097 40.6279 30.5007 41.3637C29.891 41.8578 29.8021 41.8333 27.6344 40.5679C26.4049 39.8494 25.3044 39.0826 25.1906 38.8624C25.0383 38.57 25.3971 37.7961 26.528 35.9758L28.0729 33.4884L30.5366 34.8216C31.0595 35.1043 31.475 35.3353 31.8061 35.5302L31.8053 35.5296ZM19.8182 28.5716C20.7449 29.126 21.2892 29.5492 21.3794 29.7936C21.6182 30.4468 19.2231 34.6632 18.5045 34.8533C17.786 35.0434 13.6192 32.5634 13.5049 31.8771C13.4475 31.5356 13.9342 30.5174 14.8768 29.0046L16.3377 26.6616L18.7662 27.9755C19.1581 28.188 19.5096 28.3865 19.8184 28.5708L19.8182 28.5716ZM33.9406 36.8994L39.0435 39.8669L37.6457 42.4398C36.6223 44.3239 36.1277 45.0175 35.7982 45.0297C35.5511 45.0389 34.4302 44.5127 33.3073 43.8597C32.1844 43.2067 31.1736 42.4932 31.0594 42.2739C30.9071 41.9815 31.2659 41.2077 32.3968 39.3873L33.9406 36.8994ZM28.5605 41.4903C29.5972 42.0979 29.6844 42.3027 29.6667 42.8079C29.6296 43.8601 27.2599 47.4581 26.5876 47.4831C25.9503 47.5072 22.0652 45.2822 21.7779 44.7288C21.6256 44.4364 21.9844 43.6625 23.1153 41.8422L24.6601 39.3548L27.1758 40.7206C27.763 41.0395 28.2147 41.288 28.5605 41.4903ZM37.7132 46.813C38.06 47.0134 38.4998 47.2822 39.0669 47.6358L41.4982 49.1468L40.1003 51.7197C39.0769 53.6038 38.5823 54.2974 38.2528 54.3096C37.6297 54.3336 33.7746 52.0573 33.4802 51.4915C33.1694 50.8948 35.1247 47.0557 36.0217 46.5037C36.4521 46.2384 36.6718 46.2133 37.7132 46.813ZM16.4058 34.4396C17.3325 34.994 17.8769 35.4172 17.967 35.6616C18.2423 36.4131 15.9083 40.345 15.0525 40.5715C14.1967 40.798 10.2246 38.5354 10.0926 37.7452C10.0352 37.4037 10.5219 36.3854 11.4645 34.8726L12.9254 32.5296L15.3538 33.8435C15.7458 34.056 16.0973 34.2545 16.4061 34.4388L16.4058 34.4396ZM22.2739 37.8522C23.2006 38.4065 23.745 38.8297 23.8351 39.0741C24.1104 39.8256 21.7764 43.7575 20.9206 43.984C20.0648 44.2105 16.0927 41.9479 15.9607 41.1577C15.9033 40.8162 16.3899 39.7979 17.3325 38.2851L18.7934 35.9421L21.2219 37.256C21.6138 37.4685 21.9653 37.667 22.2741 37.8513L22.2739 37.8522ZM30.5283 42.7674L35.6312 45.7349L34.2333 48.3078C33.2099 50.1919 32.7153 50.8855 32.3859 50.8978C32.1388 50.9069 31.0179 50.3807 29.895 49.7277C28.772 49.0747 27.7612 48.3612 27.647 48.142C27.4947 47.8495 27.8535 47.0757 28.9844 45.2554L30.5283 42.7674ZM24.6871 47.0975C26.6633 48.2396 26.572 48.6617 25.3802 50.8497L24.4538 52.5507L25.7852 50.5934L27.1158 48.6355L32.2187 51.603L30.8208 54.1759C29.7974 56.06 29.3029 56.7536 28.9734 56.7659C28.4511 56.7857 24.7564 54.7023 24.2929 54.1257C24.12 53.9115 24.0848 53.5544 24.2135 53.333C24.3979 53.0159 24.2681 52.9843 23.6035 53.1856C22.8654 53.4094 22.4936 53.2867 20.666 52.2192C19.5154 51.5465 18.4794 50.8173 18.3658 50.5971C18.2135 50.3047 18.5722 49.5309 19.7031 47.7105L21.248 45.2231L23.7117 46.5563C24.0815 46.756 24.4058 46.9339 24.6879 47.0968L24.6871 47.0975ZM18.8614 43.7203C19.7881 44.2746 20.3324 44.6978 20.4226 44.9422C20.6978 45.6937 18.3639 49.6256 17.5081 49.8521C17.0333 49.9777 16.3481 49.7132 14.7896 48.8021C13.6434 48.132 12.6118 47.4053 12.4982 47.1852C12.3459 46.8928 12.7047 46.1189 13.8356 44.2986L15.3805 41.8112L17.8089 43.1251C18.2009 43.3376 18.5526 43.5359 18.8614 43.7203ZM46.3624 89.9394L40.109 91.6015L41.6786 97.5651C43.7549 97.015 45.832 96.4654 47.9095 95.9172L46.3624 89.9394ZM49.3813 99.2027L42.3594 101.384L42.7579 103.991L52.4137 109.607L49.3813 99.2027ZM53.9482 114.596L44.0238 109.09L45.3697 114.729L55.2942 120.235L53.9482 114.596ZM46.3973 119.423L47.8644 125.055L58.3244 131.138L56.8572 125.505L46.3973 119.423ZM59.4459 135.887L49.4155 130.344C49.2487 130.63 51.8075 139.075 52.3021 139.871C52.5137 140.212 52.7286 140.503 52.779 140.518C54.4547 141.003 58.9431 139.79 59.5899 138.678C59.9963 137.906 59.5155 136.723 59.4444 135.888L59.4459 135.887Z" fill="white"/>
</g>
</svg>
