<svg width="956" height="923" viewBox="0 0 956 923" fill="none" xmlns="http://www.w3.org/2000/svg">
<g opacity="0.1">
<path d="M917.156 233.759C1057.04 207.243 1076.84 333.807 1069.25 400.404C1051.75 524.678 992.107 464.656 933.099 560.049C874.091 655.443 869.557 550.092 809.374 522.892C749.192 495.691 759.139 642.035 649.685 589.345C540.231 536.654 567.698 315.225 702.336 421.221C836.973 527.217 742.301 266.904 917.156 233.759Z" stroke="#FAFBFF" stroke-width="2"/>
<path d="M896.637 275.793C1004.39 255.419 1019.66 352.784 1013.83 404.012C1000.37 499.608 954.415 453.425 908.975 526.797C863.535 600.169 860.024 519.126 813.659 498.192C767.293 477.257 774.981 589.835 690.655 549.283C606.329 508.732 627.448 338.4 731.184 419.962C834.92 501.523 761.944 301.259 896.637 275.793Z" stroke="#FAFBFF" stroke-width="2"/>
<path d="M936.283 194.86C1106.21 162.701 1130.28 316.317 1121.08 397.144C1099.84 547.972 1027.37 475.114 955.707 590.882C884.042 706.651 878.515 578.785 805.402 545.762C732.288 512.739 744.397 690.358 611.425 626.389C478.453 562.419 511.78 293.675 675.355 422.345C838.93 551.016 723.877 235.057 936.283 194.86Z" stroke="#FAFBFF" stroke-width="2"/>
<path d="M952.193 162.159C1147 125.206 1174.56 301.528 1163.99 394.308C1139.6 567.441 1056.55 483.827 974.366 616.729C892.183 749.631 885.878 602.862 802.07 564.974C718.262 527.085 732.101 730.963 579.68 657.567C427.259 584.171 465.528 275.685 653.016 423.341C840.504 570.997 708.685 208.351 952.193 162.159Z" stroke="#FAFBFF" stroke-width="2"/>
<path d="M975.234 115.493C1206.28 71.8 1239.03 280.591 1226.52 390.449C1197.66 595.447 1099.12 496.414 1001.68 653.756C904.245 811.099 896.719 637.308 797.301 592.417C697.882 547.526 714.363 788.942 533.549 701.984C352.736 615.026 398.027 249.76 620.459 424.661C842.89 599.561 686.42 170.109 975.234 115.493Z" stroke="#FAFBFF" stroke-width="2"/>
<path d="M1002.19 61.0612C1275.69 9.53066 1314.53 256.211 1299.77 385.993C1265.67 628.168 1148.99 511.132 1033.7 696.98C918.418 882.828 909.443 677.507 791.734 624.434C674.025 571.361 693.628 856.579 479.548 753.777C265.468 650.975 318.944 219.464 582.325 426.178C845.705 632.892 660.311 125.474 1002.19 61.0612Z" stroke="#FAFBFF" stroke-width="2"/>
</g>
</svg>
