<svg width="22" height="22" viewBox="0 0 22 22" fill="none" xmlns="http://www.w3.org/2000/svg">
<g id="Default Checkbox">
<g id="Stroke 1">
<path d="M15.334 1H6.665C3.26743 1 1 3.4326 1 6.916V15.084C1 18.5707 3.26137 21 6.665 21H15.333C18.7376 21 21 18.5707 21 15.084V6.916C21 3.4295 18.7378 1 15.334 1Z" fill="white"/>
<path d="M15.334 0.5H6.665V1.5H15.334V0.5ZM6.665 0.5C4.84181 0.5 3.29025 1.1556 2.19594 2.30732C1.10388 3.45667 0.5 5.065 0.5 6.916H1.5C1.5 5.28359 2.02983 3.93393 2.92088 2.99613C3.80968 2.0607 5.09062 1.5 6.665 1.5V0.5ZM0.5 6.916V15.084H1.5V6.916H0.5ZM0.5 15.084C0.5 16.9362 1.10209 18.5446 2.1936 19.6938C3.28743 20.8455 4.83916 21.5 6.665 21.5V20.5C5.0872 20.5 3.80644 19.9399 2.91867 19.0052C2.0286 18.068 1.5 16.7185 1.5 15.084H0.5ZM6.665 21.5H15.333V20.5H6.665V21.5ZM15.333 21.5C17.1593 21.5 18.7115 20.8455 19.8057 19.6939C20.8976 18.5447 21.5 16.9362 21.5 15.084H20.5C20.5 16.7184 19.9712 18.068 19.0808 19.0051C18.1926 19.9398 16.9113 20.5 15.333 20.5V21.5ZM21.5 15.084V6.916H20.5V15.084H21.5ZM21.5 6.916C21.5 5.06385 20.8977 3.45539 19.8059 2.30619C18.7119 1.15456 17.1599 0.5 15.334 0.5V1.5C16.9119 1.5 18.1929 2.06019 19.0809 2.99494C19.9712 3.93211 20.5 5.28165 20.5 6.916H21.5Z" fill="#3B2273"/>
</g>
</g>
</svg>
