<svg width="8" height="8" viewBox="0 0 8 8" fill="none" xmlns="http://www.w3.org/2000/svg">
<g id="edit_ic">
<g id="edit-2">
<path id="Vector" d="M7 7.33325H1C0.863333 7.33325 0.75 7.21992 0.75 7.08325C0.75 6.94659 0.863333 6.83325 1 6.83325H7C7.13667 6.83325 7.25 6.94659 7.25 7.08325C7.25 7.21992 7.13667 7.33325 7 7.33325Z" fill="white"/>
<path id="Vector_2" d="M6.34019 1.15997C5.69352 0.513304 5.06019 0.496638 4.39685 1.15997L3.99352 1.5633C3.96019 1.59664 3.94685 1.64997 3.96019 1.69664C4.21352 2.57997 4.92019 3.28664 5.80352 3.53997C5.81685 3.5433 5.83019 3.54664 5.84352 3.54664C5.88019 3.54664 5.91352 3.5333 5.94019 3.50664L6.34019 3.1033C6.67019 2.77664 6.83019 2.45997 6.83019 2.13997C6.83352 1.80997 6.67352 1.48997 6.34019 1.15997Z" fill="white"/>
<path id="Vector_3" d="M5.20279 3.84327C5.10612 3.7966 5.01279 3.74993 4.92279 3.6966C4.84946 3.65327 4.77945 3.6066 4.70945 3.5566C4.65279 3.51993 4.58612 3.4666 4.52279 3.41327C4.51612 3.40993 4.49279 3.38993 4.46612 3.36327C4.35612 3.26993 4.23279 3.14993 4.12279 3.0166C4.11279 3.00993 4.09612 2.9866 4.07279 2.9566C4.03946 2.9166 3.98279 2.84993 3.93279 2.77327C3.89279 2.72327 3.84612 2.64993 3.80279 2.5766C3.74945 2.4866 3.70279 2.3966 3.65612 2.30327V2.30327C3.59494 2.17216 3.42285 2.13321 3.32054 2.23551L1.44612 4.10993C1.40279 4.15327 1.36279 4.2366 1.35279 4.29327L1.17279 5.56993C1.13946 5.7966 1.20279 6.00993 1.34279 6.15327C1.46279 6.26993 1.62946 6.33327 1.80946 6.33327C1.84946 6.33327 1.88946 6.32993 1.92946 6.32327L3.20946 6.14327C3.26946 6.13327 3.35279 6.09327 3.39279 6.04993L5.2703 4.17242C5.37056 4.07216 5.33289 3.89965 5.20279 3.84327V3.84327Z" fill="white"/>
</g>
</g>
</svg>
