<svg width="24" height="20" viewBox="0 0 24 20" fill="none" xmlns="http://www.w3.org/2000/svg">
<g id="Logo">
<g id="Icon">
<path id="Vector" d="M19.1816 0.000291888C19.1438 -0.000260779 19.1059 0.000107682 19.0681 0.000291888C18.3404 0.00950268 17.5879 0.190035 16.8474 0.547582C15.6919 1.10558 14.4652 2.18582 13.707 3.31341C13.4013 3.76806 13.2329 4.09929 13.0562 4.59371C12.774 5.38383 12.7401 5.68023 12.7317 7.42623C12.7244 8.92983 12.7156 9.07442 12.6056 9.46221C12.3324 10.4264 12.003 10.8943 10.5837 12.3369L9.43298 13.5064L10.2481 14.3258L11.3832 13.1819C12.0076 12.5528 12.6728 11.9298 12.8616 11.7974C13.3372 11.4638 13.6273 11.3227 14.1507 11.1701C14.7763 10.9879 15.4843 10.9279 16.398 10.9796C18.5792 11.1032 19.914 10.6125 21.4329 9.1286C22.5407 8.04614 23.2133 6.97009 23.5399 5.75794C23.6929 5.18962 23.7024 4.02387 23.5584 3.49908C23.3264 2.65426 22.9303 1.96417 22.3289 1.35755C21.4533 0.474244 20.3522 0.014058 19.1815 5.15408e-05L19.1816 0.000291888ZM19.1702 0.555505C19.8424 0.555689 19.9476 0.569322 20.3317 0.703983C20.5641 0.78541 20.9204 0.950101 21.1236 1.07002C21.551 1.32204 22.2505 2.00421 22.5434 2.45478C23.7076 4.24539 23.1903 6.58051 21.1764 8.62424C20.2641 9.54994 19.4149 10.0495 18.3938 10.261C17.8096 10.382 16.6576 10.369 16.1162 10.2354C14.5902 9.85849 13.5713 8.63843 13.3858 6.96647C13.2416 5.6659 13.6096 4.31246 14.3872 3.28357C15.0293 2.43394 16.2456 1.43198 17.1544 1.00386C17.9122 0.646846 18.3249 0.555106 19.1703 0.555657L19.1702 0.555505ZM19.3896 1.03173L19.3592 1.37658L19.3286 1.72144L18.8279 1.73691C18.2546 1.7546 18.1997 1.72162 18.1848 1.353C18.1771 1.16178 18.1727 1.17044 18.1452 1.42945L18.1143 1.72126L17.6136 1.73673C17.1826 1.74999 17.1032 1.73876 17.0431 1.65715C16.9768 1.56688 16.9705 1.56688 16.9207 1.65512C16.8919 1.70615 16.816 1.75036 16.7521 1.75331C16.6449 1.75828 16.6462 1.76141 16.7678 1.79549C16.8983 1.83197 16.8998 1.83897 16.8998 2.4139V2.99529H15.8438L15.8132 2.67696C15.7865 2.39916 15.7813 2.38774 15.7736 2.58762C15.7595 2.95237 15.6987 3.02071 15.3802 3.02937L15.1049 3.03674L15.3789 3.07027C15.5295 3.08869 15.6681 3.11909 15.6866 3.13769C15.7517 3.20309 15.7733 4.07443 15.7126 4.18827C15.658 4.29088 15.6149 4.29807 15.1418 4.28406L14.6299 4.26896L14.5982 4.03021C14.5777 3.87565 14.5638 3.84415 14.5586 3.94087C14.5478 4.14351 14.4604 4.29475 14.351 4.29973C14.2786 4.30304 14.2762 4.30967 14.3396 4.33233C14.5007 4.39018 14.5507 4.52945 14.5507 4.91943C14.5507 5.45752 14.5126 5.51373 14.1399 5.52585L13.838 5.5358L14.1283 5.55459C14.5029 5.57891 14.5507 5.64523 14.5507 6.14004C14.5507 6.69322 14.5192 6.73449 14.0869 6.74684L13.7323 6.75697L14.0754 6.77521C14.3171 6.78811 14.438 6.81942 14.4846 6.88132C14.5605 6.98246 14.5744 7.73114 14.5026 7.84532C14.4769 7.88584 14.3646 7.93687 14.2526 7.95861L14.0492 7.99821L14.2453 8.00429C14.4888 8.01185 14.5473 8.10856 14.5601 8.52433C14.5694 8.82847 14.57 8.82718 14.5997 8.43498L14.6297 8.03689L15.1416 8.02178C15.6197 8.0076 15.6575 8.01423 15.7145 8.12108C15.7821 8.248 15.766 9.03518 15.6943 9.10738C15.6703 9.13151 15.4922 9.16559 15.2985 9.18291L14.9464 9.21441L15.301 9.2227C15.68 9.23154 15.7557 9.2857 15.7724 9.55927C15.7766 9.62687 15.7944 9.58671 15.812 9.46992L15.844 9.2577H16.9L16.9231 9.60256C16.9379 9.82417 16.9522 9.88109 16.9632 9.76172C16.9726 9.65948 16.9933 9.49755 17.0088 9.40176L17.0374 9.22749L18.1143 9.2577L18.1449 9.57603C18.1744 9.88202 18.176 9.8846 18.1845 9.64659C18.1995 9.22602 18.1923 9.23099 18.7815 9.23099C19.2756 9.23099 19.3081 9.23781 19.3491 9.34944L19.3927 9.46808L19.4301 9.34944C19.4507 9.28423 19.5076 9.2297 19.5564 9.22804C19.6279 9.22602 19.622 9.20888 19.5265 9.14201C19.4188 9.06648 19.4078 9.01619 19.4085 8.60095C19.4089 8.34913 19.4287 8.11223 19.4525 8.07465C19.484 8.02454 19.6359 8.01035 20.0191 8.02159L20.5427 8.03688L20.5733 8.35521C20.6028 8.6612 20.6045 8.66396 20.6129 8.42577C20.6268 8.03523 20.6477 8.01127 20.9838 8.00059L21.2818 7.99101L21.0192 7.97056C20.8748 7.95933 20.7263 7.92488 20.6893 7.89411C20.6191 7.83553 20.5914 7.03731 20.6539 6.87353C20.6801 6.805 20.7802 6.78952 21.2019 6.78952C21.7489 6.78952 21.8061 6.81292 21.8503 7.0548C21.8706 7.16588 21.8757 7.15906 21.8818 7.01335C21.8862 6.90577 21.9221 6.82637 21.9756 6.80574C22.0555 6.77497 22.0553 6.76724 21.9736 6.70718C21.899 6.65247 21.8875 6.55889 21.9001 6.11877L21.9153 5.59539L22.5487 5.53681L21.9153 5.48928V4.37475L22.6546 4.32685L21.9153 4.26864L21.9003 3.71579C21.8838 3.11431 21.8974 3.0828 22.1794 3.0679C22.3146 3.06072 22.307 3.05482 22.1266 3.02719L21.9155 2.99495L21.855 2.25181L21.8457 2.5729C21.8405 2.74957 21.8079 2.92255 21.7729 2.95773C21.7324 2.99845 21.5255 3.02147 21.1978 3.02147C20.78 3.02147 20.6803 3.006 20.6541 2.93747C20.5944 2.78107 20.6191 1.93108 20.6854 1.86459C20.7203 1.82958 20.8925 1.79643 21.0683 1.7909L21.3877 1.78095L21.0727 1.76142C20.7135 1.73913 20.625 1.68645 20.6152 1.48934C20.6096 1.37567 20.6022 1.38433 20.5757 1.53576L20.543 1.72145L20.0494 1.73674C19.7307 1.74669 19.5294 1.73011 19.4818 1.69032C19.4369 1.65292 19.4043 1.51126 19.3988 1.32999L19.3896 1.03137L19.3896 1.03173ZM17.3536 1.80784C17.4223 1.80728 17.5073 1.80913 17.6136 1.81244L18.1143 1.82792V2.9955L17.6025 3.01061C17.1386 3.02442 17.0853 3.01595 17.0349 2.92126C16.9557 2.77241 16.964 2.00183 17.0461 1.88888C17.0886 1.8303 17.1474 1.80931 17.3536 1.80784ZM18.5679 1.80784C18.6366 1.80728 18.7216 1.80913 18.8279 1.81244L19.3286 1.82792V2.9955L18.8261 3.01042C18.4805 3.02074 18.3034 3.00508 18.2585 2.95995C18.1695 2.87042 18.1707 2.01194 18.2602 1.8889C18.3027 1.83032 18.3615 1.80932 18.5677 1.80784L18.5679 1.80784ZM19.8329 1.80986C19.8973 1.80913 19.9697 1.80986 20.0494 1.81244L20.5431 1.82773V2.99532L20.0083 3.01024C19.5557 3.02295 19.4684 3.01208 19.4407 2.9395C19.4228 2.89234 19.4079 2.64364 19.4079 2.38702C19.4079 2.05174 19.4286 1.90288 19.4818 1.8585C19.5175 1.82866 19.6398 1.81189 19.8329 1.80968L19.8329 1.80986ZM19.9971 3.07233C20.2357 3.07473 20.4723 3.10089 20.5121 3.14897C20.5519 3.19723 20.568 3.40613 20.5583 3.74601L20.5431 4.26883L20.0406 4.28375C19.695 4.29406 19.5179 4.27841 19.473 4.23327C19.3854 4.14522 19.3839 3.22617 19.4714 3.13827C19.5183 3.09111 19.7587 3.06956 19.9973 3.07195L19.9971 3.07233ZM18.7697 3.07491C19.105 3.07491 19.2536 3.09573 19.2976 3.14897C19.3374 3.19723 19.3535 3.40613 19.3438 3.74601L19.3286 4.26882L18.8168 4.28393C18.3529 4.29775 18.2996 4.28927 18.2492 4.19459C18.1775 4.05992 18.1768 3.31142 18.2481 3.17735C18.2957 3.08782 18.3621 3.07474 18.7696 3.07474L18.7697 3.07491ZM21.2378 3.07491C21.8244 3.07491 21.8363 3.08689 21.8363 3.68521C21.8363 4.28353 21.8244 4.2955 21.2378 4.2955C20.9277 4.2955 20.7256 4.27211 20.6855 4.23176C20.6455 4.1916 20.6221 3.99007 20.6221 3.68518C20.6221 3.3803 20.6453 3.17878 20.6855 3.1386C20.7256 3.09825 20.9279 3.07485 21.2378 3.07485V3.07491ZM17.5486 3.07565C17.8016 3.0762 18.0391 3.09591 18.0765 3.11968C18.1266 3.15155 18.1405 3.30923 18.1293 3.71582L18.1143 4.26868L17.6024 4.28378C17.1386 4.2976 17.0853 4.28913 17.0349 4.19444C16.9632 4.05978 16.9625 3.31128 17.0338 3.1772C17.0814 3.08767 17.1472 3.07459 17.5486 3.07533L17.5486 3.07565ZM16.3986 3.07675C16.6135 3.07952 16.823 3.09462 16.8624 3.11986C16.9124 3.15173 16.9264 3.30942 16.9152 3.71601L16.9002 4.26886L16.396 4.28379C16.1187 4.29208 15.8752 4.28213 15.8549 4.26168C15.8345 4.24123 15.8178 3.98038 15.8178 3.68175C15.8178 3.23576 15.8327 3.13333 15.9014 3.10683C15.9632 3.08306 16.1836 3.07367 16.3986 3.07643L16.3986 3.07675ZM21.2379 4.34861C21.8212 4.34861 21.8364 4.36335 21.8364 4.9324C21.8364 5.50145 21.8214 5.51619 21.2379 5.51619C20.9278 5.51619 20.7256 5.4928 20.6855 5.45245C20.6461 5.41284 20.6221 5.21665 20.6221 4.93242C20.6221 4.64819 20.6459 4.45195 20.6855 4.41239C20.7257 4.37204 20.928 4.34861 21.2379 4.34861ZM17.3536 4.35524C17.4223 4.35469 17.5074 4.35653 17.6137 4.35985L18.1144 4.37532V5.48985L17.6025 5.50495C17.1387 5.51877 17.0854 5.5103 17.0349 5.41561C16.9561 5.2675 16.9642 4.54886 17.0461 4.43648C17.0886 4.37789 17.1475 4.35689 17.3536 4.35542V4.35524ZM18.5679 4.35524C18.6366 4.35469 18.7217 4.35653 18.828 4.35985L19.3286 4.37532V5.48985L18.8168 5.50495C18.353 5.51877 18.2997 5.5103 18.2492 5.41561C18.1704 5.2675 18.1785 4.54886 18.2604 4.43648C18.3029 4.37789 18.3618 4.35689 18.5679 4.35542V4.35524ZM15.3453 4.35542C15.7503 4.35211 15.7527 4.41861 15.7527 4.93238C15.7527 5.51174 15.7481 5.51617 15.1582 5.51617C14.7878 5.51617 14.6461 5.49738 14.6265 5.4458C14.6117 5.40711 14.6066 5.15031 14.615 4.87526L14.6304 4.37513L15.1461 4.35984C15.2216 4.35781 15.2876 4.35578 15.3455 4.35523L15.3453 4.35542ZM19.833 4.35727C19.8973 4.35653 19.9697 4.35727 20.0494 4.35985L20.5431 4.37514L20.5583 4.90144C20.5695 5.28683 20.5554 5.43934 20.5055 5.47104C20.3967 5.54049 19.5438 5.52501 19.4714 5.45243C19.3774 5.35793 19.3862 4.48603 19.4818 4.40605C19.5176 4.3762 19.6398 4.35948 19.833 4.35727ZM15.8445 4.37514H16.9004V5.48966L16.3847 5.50477C15.9878 5.51656 15.8626 5.50348 15.8416 5.44766C15.8263 5.40787 15.8208 5.15034 15.8293 4.87529L15.8447 4.37515L15.8445 4.37514ZM15.6608 5.56536L15.7175 5.71328C15.7992 5.92642 15.7569 6.62295 15.6585 6.68558C15.5624 6.74656 14.7614 6.75153 14.6678 6.69184C14.6179 6.66016 14.6038 6.50744 14.615 6.12224L14.6302 5.59594L15.1455 5.58083L15.6608 5.56554L15.6608 5.56536ZM21.2381 5.56923C21.8214 5.56923 21.8366 5.58396 21.8366 6.15302C21.8366 6.72205 21.8216 6.73681 21.2381 6.73681C20.928 6.73681 20.7259 6.71341 20.6857 6.67307C20.6463 6.63346 20.6223 6.43727 20.6223 6.15304C20.6223 5.86879 20.6462 5.67257 20.6857 5.633C20.7259 5.59266 20.9282 5.56923 21.2381 5.56923ZM17.3539 5.57586C17.4226 5.5753 17.5076 5.57715 17.6139 5.58046L18.1146 5.59594L18.1298 6.12224C18.141 6.50763 18.1269 6.66015 18.077 6.69184C18.0396 6.7156 17.8007 6.7355 17.5457 6.73605C17.0968 6.73679 17.081 6.73273 17.0309 6.60065C16.9565 6.4039 16.967 5.76597 17.0463 5.65689C17.0889 5.5983 17.1477 5.57733 17.3539 5.57586ZM18.5682 5.57586C18.6369 5.5753 18.7219 5.57715 18.8282 5.58046L19.3289 5.59594L19.3441 6.12224C19.3553 6.50763 19.3412 6.66015 19.2913 6.69184C19.2539 6.7156 19.0162 6.7355 18.7631 6.73605C18.3618 6.73679 18.296 6.72371 18.2483 6.63418C18.1703 6.48754 18.1793 5.76856 18.2606 5.65688C18.3031 5.5983 18.362 5.57733 18.5682 5.57586ZM19.8332 5.57788C19.8975 5.57715 19.9699 5.57788 20.0496 5.58046L20.5433 5.59575L20.5585 6.09202C20.5684 6.41237 20.5519 6.61464 20.5124 6.66256C20.4328 6.75872 19.5654 6.76775 19.4714 6.67324C19.3774 6.57874 19.3862 5.70684 19.4819 5.62686C19.5176 5.59701 19.6398 5.58025 19.833 5.57804L19.8332 5.57788ZM15.8447 5.59575H16.9007L16.9159 6.12206C16.927 6.50744 16.9129 6.65996 16.8631 6.69165C16.8257 6.71542 16.6051 6.73495 16.3727 6.73495C16.1403 6.73495 15.9197 6.71542 15.8823 6.69165C15.8324 6.65997 15.8183 6.50725 15.8295 6.12206L15.8447 5.59575ZM15.4256 6.79574C15.6405 6.79647 15.6724 6.82024 15.7151 6.90056C15.804 7.06746 15.7611 7.84097 15.6594 7.90563C15.563 7.96697 14.7622 7.97232 14.668 7.91226C14.6181 7.88058 14.604 7.72786 14.6152 7.34266L14.6304 6.81636L15.1422 6.80125C15.2617 6.79775 15.3539 6.79555 15.4256 6.79574ZM17.3198 6.79574C17.3914 6.79555 17.4834 6.79758 17.6031 6.80126L18.1149 6.81637L18.1301 7.34267C18.1413 7.72806 18.1272 7.88058 18.0774 7.91227C17.9832 7.97232 17.1825 7.96698 17.0859 7.90564C16.9842 7.84098 16.9413 7.06747 17.0302 6.90057C17.0729 6.82043 17.1048 6.79666 17.3198 6.79574ZM18.6191 6.7985C18.6834 6.79776 18.7558 6.7985 18.8355 6.80108L19.3292 6.81637L19.3444 7.31263C19.3543 7.63299 19.3378 7.83526 19.2982 7.88317C19.2068 7.99389 18.3891 7.9867 18.2771 7.87415C18.1651 7.76159 18.1578 6.93944 18.2679 6.84747C18.3036 6.81763 18.4259 6.80087 18.619 6.79865L18.6191 6.7985ZM19.8334 6.7985C19.8977 6.79776 19.9701 6.7985 20.0498 6.80108L20.5435 6.81637L20.5587 7.31263C20.5686 7.63299 20.5521 7.83526 20.5125 7.88317C20.4211 7.99389 19.6034 7.9867 19.4914 7.87415C19.3794 7.76159 19.3721 6.93944 19.4822 6.84747C19.5179 6.81763 19.6402 6.80087 19.8333 6.79865L19.8334 6.7985ZM15.8449 6.81637H16.9008L16.916 7.34267C16.9272 7.72806 16.9131 7.88058 16.8632 7.91227C16.8259 7.93603 16.6052 7.95556 16.3728 7.95556C16.1405 7.95556 15.9198 7.93603 15.8824 7.91227C15.8326 7.88058 15.8185 7.72786 15.8297 7.34267L15.8449 6.81637ZM17.4147 8.01729C17.473 8.01748 17.5391 8.01914 17.6142 8.02153L18.1149 8.03701L18.1301 8.56331C18.1413 8.9487 18.1272 9.10122 18.0774 9.13291C18.04 9.15667 17.8144 9.17657 17.5759 9.17712C17.1973 9.17786 17.1288 9.16312 17.0348 9.0618C16.9501 8.97043 16.9272 8.96361 16.9272 9.02956C16.9272 9.0758 16.8896 9.12793 16.8436 9.14562C16.7201 9.19333 15.9612 9.1832 15.8824 9.13291C15.8326 9.10122 15.8185 8.9485 15.8297 8.56331L15.8449 8.037H16.9008L16.9606 8.88626L16.9703 8.53809C16.9827 8.09044 17.0066 8.01655 17.4149 8.01749L17.4147 8.01729ZM18.6191 8.01895C18.6834 8.01822 18.7558 8.01895 18.8355 8.02153L19.3292 8.03682L19.3444 8.56313C19.3556 8.94851 19.3415 9.10103 19.2916 9.13272C19.2542 9.15649 19.0294 9.17638 18.7919 9.17694C18.469 9.17749 18.3392 9.15667 18.2771 9.09441C18.1651 8.98185 18.1578 8.1597 18.2679 8.06773C18.3037 8.03789 18.4259 8.02117 18.6191 8.01895ZM8.91004 13.8847L7.5055 15.2278H9.5036L9.79975 14.8585L8.91004 13.8847ZM6.81956 15.8647L6.10429 16.6196L8.13411 16.6609L8.84938 15.9061L6.81956 15.8648V15.8647ZM5.38865 17.2975L4.65523 18.0405H6.81974L7.55316 17.2975H5.38865ZM4.05467 18.6773C3.96873 18.8007 3.78785 18.9411 3.78125 19.0979C3.78125 19.3295 4.36623 19.9236 4.66897 19.9998C4.67814 20.0024 4.73751 19.9762 4.80092 19.9423C4.94899 19.8633 6.10408 18.7818 6.10408 18.7223L4.05446 18.6773L4.05467 18.6773Z" fill="#3B4650"/>
<path id="Vector_2" d="M4.49464 0.000380154C3.32397 0.014381 2.22312 0.474573 1.3475 1.35788C0.746236 1.96449 0.349993 2.65459 0.117998 3.49941C-0.0260443 4.02425 -0.016516 5.19018 0.136691 5.75827C0.463261 6.97061 1.13584 8.04647 2.24364 9.12893C3.76232 10.6128 5.09719 11.1037 7.27855 10.9801C8.19231 10.9284 8.90021 10.9882 9.52586 11.1706C9.7137 11.2253 9.87113 11.2789 10.0181 11.3401L11.2817 10.0672C11.2001 9.87982 11.1336 9.68455 11.0708 9.46258C10.9608 9.0748 10.952 8.93019 10.9447 7.42659C10.9363 5.68059 10.9023 5.38434 10.6201 4.59408C10.4436 4.09965 10.275 3.76821 9.96937 3.31378C9.21104 2.18619 7.98445 1.10594 6.82898 0.547949C6.08861 0.190383 5.33596 0.00985482 4.60822 0.000658641C4.57028 0.000105974 4.53253 0.000105974 4.49478 0.000658641L4.49464 0.000380154ZM4.506 0.555593C5.35141 0.555041 5.76407 0.646966 6.52189 1.0038C7.43068 1.43192 8.64699 2.43387 9.28912 3.2835C10.0667 4.31216 10.4349 5.66583 10.2905 6.96641C10.105 8.63856 9.08588 9.85863 7.55988 10.2353C7.01853 10.3691 5.86654 10.382 5.28231 10.2609C4.26116 10.0495 3.41176 9.54987 2.49969 8.62417C0.486008 6.58045 -0.0313226 4.24547 1.13292 2.45472C1.42577 2.00412 2.12507 1.32212 2.55266 1.06996C2.75589 0.950032 3.11235 0.785341 3.34453 0.703919C3.72865 0.569254 3.83386 0.555809 4.50605 0.555441L4.506 0.555593ZM4.28664 1.03255L4.27748 1.33043C4.27198 1.5117 4.23936 1.65337 4.19446 1.69076C4.14681 1.73055 3.94559 1.74695 3.62688 1.73718L3.1332 1.72189L3.10058 1.5362C3.07401 1.38496 3.06668 1.3763 3.06099 1.48978C3.0511 1.68708 2.96276 1.73976 2.60357 1.76187L2.28855 1.78139L2.60797 1.79134C2.78372 1.79687 2.95581 1.83003 2.99081 1.86503C3.05697 1.93153 3.08189 2.78154 3.02215 2.93792C2.99594 3.00645 2.89625 3.02192 2.4784 3.02192C2.15073 3.02192 1.944 2.99907 1.90332 2.95818C1.8685 2.92318 1.8357 2.75001 1.83057 2.57334L1.82122 2.25225L1.76074 2.9954L1.54962 3.02763C1.36929 3.05527 1.3616 3.06116 1.49684 3.06835C1.77888 3.08327 1.79245 3.11477 1.77595 3.71623L1.76092 4.26908L1.02164 4.3273L1.76092 4.37519V5.48972L1.12757 5.53725L1.76092 5.59583L1.77613 6.11921C1.78896 6.55949 1.77723 6.65287 1.70265 6.70763C1.62091 6.76768 1.62091 6.77542 1.70063 6.80618C1.75414 6.82681 1.79006 6.90621 1.79446 7.01379C1.80051 7.15951 1.80564 7.16633 1.82598 7.05524C1.87015 6.81336 1.92751 6.78997 2.47435 6.78997C2.89603 6.78997 2.9959 6.80526 3.02212 6.87397C3.08461 7.03774 3.05694 7.83594 2.98675 7.89456C2.94974 7.9255 2.80129 7.95995 2.65689 7.97101L2.39427 7.99145L2.69226 8.00103C3.02836 8.0119 3.04925 8.03567 3.06317 8.42621C3.07179 8.66422 3.07325 8.66146 3.10276 8.35547L3.13336 8.03714L3.65693 8.02185C4.04032 8.01061 4.19204 8.0248 4.22357 8.0749C4.24721 8.11248 4.26719 8.34939 4.26755 8.60121C4.26829 9.01644 4.25729 9.06673 4.14953 9.14227C4.05405 9.20933 4.04819 9.22609 4.11966 9.2283C4.1686 9.22996 4.22522 9.28449 4.24593 9.3497L4.28332 9.46834L4.32693 9.3497C4.36798 9.23788 4.40042 9.23125 4.89451 9.23125C5.48352 9.23125 5.47653 9.22628 5.49159 9.64685C5.50021 9.88486 5.50167 9.88209 5.53118 9.57629L5.56178 9.25778L6.63862 9.22757L6.66739 9.40183C6.68315 9.49763 6.70368 9.65974 6.71302 9.7618C6.72402 9.88117 6.73831 9.82425 6.75316 9.60263L6.77625 9.25778H7.83221L7.86446 9.47C7.88206 9.58679 7.89983 9.62695 7.90405 9.55934C7.92073 9.28578 7.99641 9.23162 8.3754 9.22277L8.72983 9.21448L8.37779 9.18298C8.18408 9.16567 8.00595 9.13177 7.98194 9.10745C7.91029 9.03524 7.89416 8.24806 7.96178 8.12115C8.01878 8.01412 8.05653 8.00767 8.53485 8.02186L9.04669 8.03696L9.07693 8.43506C9.10662 8.82726 9.10717 8.82855 9.11651 8.5244C9.12934 8.10862 9.1878 8.01191 9.43135 8.00437L9.62744 7.99829L9.42402 7.95868C9.31205 7.93694 9.19972 7.88592 9.17424 7.84539C9.10241 7.73117 9.11615 6.98251 9.19202 6.8814C9.23857 6.8195 9.35952 6.78818 9.60124 6.77529L9.94431 6.75705L9.58988 6.74692C9.15757 6.73439 9.12605 6.69313 9.12605 6.14011C9.12605 5.64531 9.17387 5.579 9.54846 5.55467L9.83875 5.53588L9.5371 5.52593C9.16416 5.51377 9.12605 5.45759 9.12605 4.9195C9.12605 4.52951 9.17608 4.39022 9.33716 4.33241C9.40057 4.30956 9.39837 4.30312 9.3258 4.2998C9.2164 4.29464 9.1288 4.14358 9.11798 3.94094C9.11285 3.84423 9.09892 3.87573 9.0784 4.03029L9.04669 4.26903L8.53485 4.28414C8.06167 4.29814 8.0186 4.29096 7.96399 4.18835C7.90333 4.0745 7.92477 3.20313 7.98983 3.13777C8.00834 3.11916 8.14689 3.08876 8.29753 3.07034L8.57132 3.03682L8.29606 3.02926C7.97755 3.0206 7.91671 2.95226 7.9026 2.58751C7.8949 2.38781 7.88977 2.39923 7.86301 2.67685L7.83222 2.99518H6.77626V2.41379C6.77626 1.83887 6.77773 1.83203 6.90821 1.79539C7.03008 1.7613 7.03136 1.75817 6.92397 1.7532C6.86001 1.75025 6.78433 1.70604 6.75556 1.65501C6.70589 1.56677 6.69966 1.56696 6.63314 1.65704C6.57303 1.73883 6.49349 1.74989 6.06247 1.73662L5.56179 1.72115L5.53082 1.42935C5.50333 1.17015 5.49893 1.16149 5.49123 1.35289C5.47657 1.72151 5.42141 1.75431 4.84817 1.7368L4.3475 1.72133L4.31689 1.37647L4.28664 1.03255ZM5.1084 1.80791C5.31457 1.8092 5.37321 1.83038 5.41591 1.88896C5.50534 2.01202 5.50681 2.87046 5.41756 2.96001C5.37285 3.00496 5.19563 3.02081 4.84999 3.01049L4.34748 2.99557V1.82798L4.84835 1.81251C4.95464 1.80919 5.03968 1.80754 5.1084 1.80791ZM6.3227 1.80791C6.52887 1.8092 6.58751 1.83038 6.63021 1.88896C6.71231 2.0017 6.72056 2.77246 6.64121 2.92134C6.59081 3.01603 6.53748 3.0245 6.07363 3.01069L5.56179 2.99558V1.828L6.06265 1.81252C6.16894 1.80921 6.25397 1.80754 6.3227 1.80791ZM3.84334 1.80993C4.0365 1.81233 4.15874 1.82891 4.19465 1.85875C4.2478 1.90297 4.26832 2.052 4.26832 2.38727C4.26832 2.64407 4.25366 2.89259 4.23552 2.93975C4.20785 3.01233 4.12062 3.0232 3.66794 3.01049L3.13321 2.99557V1.82798L3.62689 1.81269C3.70661 1.8103 3.77882 1.80938 3.84314 1.81012L3.84334 1.80993ZM3.67914 3.0724C3.91774 3.07001 4.158 3.09138 4.20491 3.13872C4.29215 3.22641 4.29086 4.14568 4.20326 4.23372C4.15855 4.27867 3.98133 4.29452 3.63569 4.2842L3.13318 4.26928L3.11797 3.74646C3.10808 3.40658 3.1242 3.19766 3.16415 3.14942C3.20392 3.10134 3.44051 3.07518 3.67914 3.07278V3.0724ZM2.43829 3.07498C2.74837 3.07498 2.9505 3.09838 2.99062 3.13872C3.03057 3.17888 3.05403 3.38042 3.05403 3.68531C3.05403 3.99018 3.03075 4.19171 2.99062 4.23189C2.95048 4.27223 2.74816 4.29563 2.43829 4.29563C1.85166 4.29563 1.83975 4.28366 1.83975 3.68533C1.83975 3.08701 1.85166 3.07504 2.43829 3.07504V3.07498ZM4.90643 3.07498C5.31401 3.07498 5.38018 3.08806 5.42799 3.17759C5.49946 3.3117 5.49854 4.06019 5.42689 4.19483C5.37649 4.28952 5.32316 4.29799 4.85931 4.28417L4.34747 4.26907L4.33226 3.74625C4.32236 3.40637 4.33849 3.19746 4.37844 3.14921C4.42242 3.09597 4.57105 3.07516 4.90642 3.07516L4.90643 3.07498ZM6.12749 3.07572C6.52883 3.07498 6.59462 3.08806 6.64228 3.17759C6.71375 3.31171 6.71302 4.06019 6.64137 4.19483C6.59097 4.28952 6.53764 4.29799 6.07379 4.28418L5.56195 4.26907L5.54692 3.71621C5.53574 3.30964 5.54967 3.15195 5.5997 3.12007C5.63709 3.0963 5.87459 3.07641 6.12768 3.07604L6.12749 3.07572ZM7.27746 3.07682C7.49243 3.07406 7.71308 3.08346 7.77467 3.10722C7.84321 3.13375 7.85823 3.23636 7.85823 3.68215C7.85823 3.98058 7.84156 4.2416 7.82121 4.26207C7.80087 4.28252 7.55732 4.29247 7.28005 4.28418L6.7759 4.26925L6.76088 3.7164C6.7497 3.30983 6.76363 3.15213 6.81366 3.12025C6.85306 3.0952 7.06234 3.07991 7.27749 3.07714L7.27746 3.07682ZM2.43819 4.34868C2.74827 4.34868 2.95041 4.37207 2.99052 4.41242C3.02992 4.45203 3.05393 4.64822 3.05393 4.93245C3.05393 5.21668 3.03011 5.41292 2.99052 5.45248C2.95039 5.49283 2.74807 5.51622 2.43819 5.51622C1.85485 5.51622 1.83965 5.50149 1.83965 4.93243C1.83965 4.36338 1.85468 4.34868 2.43819 4.34868ZM5.10831 4.35531C5.31447 4.3566 5.37312 4.37778 5.41582 4.43637C5.49756 4.54874 5.50562 5.26756 5.42682 5.4155C5.37642 5.51019 5.32309 5.51866 4.85924 5.50485L4.3474 5.48974V4.37521L4.84826 4.35974C4.95455 4.35642 5.03959 4.35476 5.10831 4.35513L5.10831 4.35531ZM6.32261 4.35531C6.52877 4.3566 6.58742 4.37778 6.63012 4.43637C6.71185 4.54874 6.71992 5.26756 6.64111 5.4155C6.59072 5.51019 6.53739 5.51866 6.07354 5.50485L5.5617 5.48974V4.37521L6.06256 4.35974C6.16885 4.35642 6.25388 4.35476 6.32261 4.35513L6.32261 4.35531ZM8.33099 4.35549C8.3889 4.35605 8.45487 4.35789 8.53037 4.3601L9.04606 4.37539L9.06146 4.87552C9.06989 5.15056 9.06457 5.40734 9.04991 5.44606C9.0303 5.49764 8.88864 5.51643 8.51827 5.51643C7.92817 5.51643 7.92376 5.51201 7.92376 4.93264C7.92376 4.41883 7.92633 4.35234 8.33116 4.35569L8.33099 4.35549ZM3.84329 4.35734C4.03645 4.35973 4.15869 4.37631 4.19461 4.40616C4.29027 4.48611 4.29907 5.35803 4.20505 5.45254C4.13266 5.52531 3.27975 5.5406 3.17091 5.47115C3.12106 5.43946 3.10695 5.28674 3.11813 4.90155L3.13334 4.37524L3.62702 4.35995C3.70674 4.35756 3.77897 4.3566 3.84329 4.35734ZM6.77604 4.37521H7.832L7.84739 4.87534C7.85582 5.15037 7.85032 5.40791 7.83511 5.44772C7.81386 5.50335 7.68887 5.51643 7.29193 5.50482L6.77624 5.48972V4.93247L6.77604 4.37521ZM8.01562 5.56543L8.53075 5.58072L9.04606 5.59582L9.06127 6.12213C9.07245 6.50751 9.05834 6.66003 9.00849 6.69172C8.91466 6.75159 8.11364 6.74644 8.01779 6.68546C7.91938 6.62283 7.87723 5.92628 7.95897 5.71317L8.01562 5.56543ZM2.43838 5.5693C2.74846 5.5693 2.9506 5.59269 2.99071 5.63304C3.03011 5.67264 3.05412 5.86884 3.05412 6.15307C3.05412 6.43732 3.0303 6.63353 2.99071 6.6731C2.95058 6.71344 2.74825 6.73684 2.43838 6.73684C1.85504 6.73684 1.83984 6.7221 1.83984 6.15305C1.83984 5.58402 1.85487 5.5693 2.43838 5.5693ZM5.1085 5.57593C5.31466 5.57722 5.37331 5.5984 5.41601 5.65699C5.49719 5.76862 5.50617 6.4878 5.4281 6.63428C5.38046 6.72381 5.31466 6.73689 4.91331 6.73615C4.66022 6.7356 4.42253 6.71589 4.38514 6.69194C4.33529 6.66026 4.32118 6.50754 4.33236 6.12234L4.34757 5.59604L4.84843 5.58057C4.95472 5.57725 5.03977 5.57556 5.1085 5.57593ZM6.32279 5.57593C6.52896 5.57722 6.5876 5.5984 6.63031 5.65699C6.70966 5.76604 6.72011 6.40419 6.6457 6.60075C6.59585 6.73265 6.57991 6.73689 6.1309 6.73615C5.87617 6.7356 5.63703 6.71589 5.59964 6.69194C5.54979 6.66025 5.53568 6.50753 5.54686 6.12234L5.56207 5.59604L6.06293 5.58056C6.16922 5.57725 6.25426 5.57559 6.32298 5.57596L6.32279 5.57593ZM3.84343 5.57795C4.03659 5.58035 4.15883 5.59693 4.19475 5.62677C4.29041 5.70672 4.29921 6.57865 4.20519 6.67316C4.11118 6.76766 3.24381 6.75882 3.16443 6.66247C3.12485 6.61458 3.10854 6.4123 3.11825 6.09193L3.13346 5.59567L3.62715 5.58038C3.70687 5.57798 3.77907 5.57706 3.8434 5.5778L3.84343 5.57795ZM6.77618 5.59582H7.83214L7.84735 6.12213C7.85853 6.50751 7.84442 6.66003 7.79457 6.69172C7.75719 6.71549 7.53654 6.73502 7.30417 6.73502C7.0718 6.73502 6.85133 6.71549 6.81396 6.69172C6.76411 6.66004 6.75 6.50732 6.76118 6.12213L6.77618 5.59582ZM6.35706 6.79581C6.57202 6.79654 6.60391 6.82049 6.64661 6.90063C6.73549 7.06753 6.69261 7.84104 6.5909 7.9057C6.49451 7.96704 5.69366 7.97239 5.59945 7.91233C5.5496 7.88064 5.53549 7.72793 5.54667 7.34273L5.56188 6.81643L6.07372 6.80132C6.19321 6.79782 6.2854 6.79562 6.35706 6.79581ZM8.25106 6.79581C8.32271 6.79562 8.4149 6.79765 8.53438 6.80133L9.04623 6.81644L9.06144 7.34274C9.07262 7.72813 9.0585 7.88065 9.00866 7.91234C8.91446 7.97239 8.11362 7.96705 8.01721 7.90571C7.91549 7.84105 7.87261 7.06753 7.96168 6.90064C8.00438 6.8205 8.03609 6.79673 8.25106 6.79581ZM3.84345 6.79857C4.03661 6.80096 4.15885 6.81754 4.19477 6.84739C4.30491 6.93931 4.29758 7.76149 4.1856 7.87406C4.07363 7.98663 3.25594 7.99399 3.16445 7.88309C3.12487 7.83519 3.10856 7.63292 3.11827 7.31255L3.13348 6.81628L3.62717 6.80099C3.70689 6.7986 3.77909 6.79768 3.84342 6.79841L3.84345 6.79857ZM5.05775 6.79857C5.25091 6.80096 5.37315 6.81754 5.40906 6.84739C5.51921 6.93931 5.51187 7.76149 5.3999 7.87406C5.28793 7.98663 4.47024 7.99399 4.37875 7.88309C4.33917 7.83519 4.32286 7.63292 4.33257 7.31255L4.34778 6.81628L4.84147 6.80099C4.92118 6.7986 4.99339 6.79768 5.05772 6.79841L5.05775 6.79857ZM6.7762 6.81644H7.83216L7.84737 7.34274C7.85855 7.72813 7.84444 7.88065 7.79459 7.91234C7.7572 7.9361 7.53656 7.95563 7.30419 7.95563C7.07182 7.95563 6.85135 7.9361 6.81397 7.91234C6.76413 7.88065 6.75002 7.72793 6.7612 7.34274L6.7762 6.81644ZM6.26234 8.01755C6.67064 8.01645 6.69447 8.09032 6.70693 8.53815L6.71664 8.88632L6.74652 8.4617L6.7762 8.03708H7.83217L7.84738 8.56338C7.85856 8.94877 7.84444 9.10129 7.7946 9.13298C7.71561 9.18327 6.95693 9.1934 6.8334 9.14569C6.78741 9.128 6.74984 9.07569 6.74984 9.02963C6.74984 8.96369 6.72693 8.9705 6.64226 9.06187C6.54825 9.16337 6.47971 9.17793 6.1011 9.17719C5.86268 9.17664 5.6369 9.15693 5.59953 9.13298C5.54969 9.10129 5.53557 8.94857 5.54675 8.56338L5.56196 8.03708L6.06283 8.0216C6.13797 8.01921 6.20412 8.01755 6.2624 8.01737L6.26234 8.01755ZM5.05775 8.01921C5.25091 8.02161 5.37315 8.03819 5.40906 8.06803C5.51921 8.15995 5.51187 8.98213 5.3999 9.0947C5.33778 9.15715 5.20803 9.17797 4.8851 9.17723C4.6476 9.17668 4.42273 9.15697 4.38537 9.13302C4.33552 9.10133 4.32141 8.94861 4.33259 8.56342L4.3478 8.03712L4.84148 8.02183C4.9212 8.01943 4.99343 8.01847 5.05775 8.01921ZM13.4668 12.7177L12.6492 13.5413L13.4283 14.3265C13.6999 14.0533 13.9716 13.7801 14.2436 13.5071L13.4668 12.7177ZM14.7666 13.8847L13.8769 14.8585L14.1731 15.2278H16.1712L14.7666 13.8847ZM16.8571 15.8647L14.8273 15.9059L15.5426 16.6609L17.5724 16.6196L16.8571 15.8647ZM16.1235 17.2975L16.8569 18.0405H19.0215L18.288 17.2975H16.1235ZM19.622 18.6773L17.5723 18.7223C17.5723 18.782 18.7274 19.8633 18.8755 19.9424C18.9389 19.9763 18.9983 20.002 19.0074 19.9998C19.3102 19.9238 19.8952 19.3295 19.8952 19.0981C19.8886 18.9413 19.7079 18.801 19.6217 18.6775L19.622 18.6773Z" fill="#3B4650"/>
</g>
<path id="Vector 1" d="M20.8395 11.6367L3.75586 11.6721L5.4713 14.148L3.75586 16.6946H20.8395L19.1595 14.148L20.8395 11.6367Z" fill="#3B4650"/>
<g id="MPR">
<path d="M9.15834 12.1318H10.688V12.2407H10.3729V16.0332H10.688V16.1421H8.94064V16.0332H9.25573V12.4527H9.23282L8.37348 16.1421H7.65736L6.64907 12.4355H6.62615V16.0332H6.94124V16.1421H6.16211V16.0332H6.4772V12.2407H6.16211V12.1318H7.70892L8.47087 15.0822L9.15834 12.1318Z" fill="white"/>
<path d="M10.9162 12.1318H12.6005C13.1772 12.1318 13.6069 12.2159 13.8895 12.3839C14.1722 12.5481 14.3135 12.8441 14.3135 13.2719C14.3135 13.7455 14.1416 14.072 13.7979 14.2515C13.4771 14.4158 13.0283 14.4979 12.4516 14.4979H12.4057V16.0332H13.1219V16.1421H10.9162V16.0332H11.2886V12.2407H10.9162V12.1318ZM12.4057 12.2407V14.389H12.5261C12.7552 14.389 12.9137 14.3107 13.0016 14.1541C13.0894 13.9976 13.1333 13.7436 13.1333 13.3922V13.1172C13.1333 12.7926 13.0913 12.5653 13.0073 12.4355C12.9271 12.3056 12.7781 12.2407 12.5604 12.2407H12.4057Z" fill="white"/>
<path d="M16.3403 14.114H16.0367V16.0332H16.4091V16.1421H14.5472V16.0332H14.9195V12.2407H14.5472V12.1318H16.2773C16.7738 12.1318 17.1252 12.1586 17.3314 12.212C17.5415 12.2617 17.6885 12.3228 17.7725 12.3954C17.9559 12.5443 18.0475 12.7811 18.0475 13.1058C18.0475 13.4304 17.9673 13.6634 17.8069 13.8047C17.6465 13.9422 17.4021 14.0243 17.0736 14.051V14.0682C17.383 14.1102 17.5988 14.2019 17.721 14.3432C17.8432 14.4845 17.9043 14.7213 17.9043 15.0536V15.3572C17.9043 15.5558 17.9139 15.6895 17.933 15.7582C17.9559 15.827 18.0017 15.8614 18.0704 15.8614C18.1392 15.8614 18.1927 15.8308 18.2309 15.7697C18.2729 15.7048 18.3111 15.5711 18.3454 15.3687L18.4428 15.3801C18.4008 15.7048 18.3263 15.9225 18.2194 16.0332C18.1163 16.144 17.9081 16.1994 17.5949 16.1994C17.2818 16.1994 17.0583 16.1268 16.9247 15.9817C16.7948 15.8327 16.7299 15.5558 16.7299 15.151V14.7328C16.7299 14.5189 16.7012 14.3623 16.6439 14.263C16.5905 14.1637 16.4893 14.114 16.3403 14.114ZM16.0367 12.2407V14.0052H16.22C16.4377 14.0052 16.5981 13.9384 16.7012 13.8047C16.8082 13.671 16.8616 13.4533 16.8616 13.1516V12.9854C16.8616 12.6837 16.8101 12.4851 16.707 12.3896C16.6077 12.2903 16.4473 12.2407 16.2257 12.2407H16.0367Z" fill="white"/>
</g>
</g>
</svg>
