<svg width="20" height="20" viewBox="0 0 20 20" fill="none" xmlns="http://www.w3.org/2000/svg">
<path id="Vector" d="M18.7948 12.0229C18.3811 11.3792 17.9673 10.7585 17.5536 10.1149C17.4617 9.97695 17.4617 9.88491 17.5536 9.747C17.9673 9.12628 18.3582 8.50572 18.7719 7.885C19.2548 7.14929 19.0019 6.4367 18.1743 6.13794C17.4846 5.88506 16.7949 5.60925 16.1054 5.35638C15.9675 5.31036 15.8986 5.21847 15.8986 5.05748C15.8756 4.29887 15.8296 3.54022 15.7836 2.80468C15.7376 2.00001 15.117 1.54028 14.3353 1.74714C13.5996 1.93106 12.864 2.13792 12.1514 2.34479C11.9905 2.39081 11.8986 2.34479 11.7836 2.22982C11.3239 1.63216 10.841 1.05746 10.3813 0.482753C9.87558 -0.160918 9.09402 -0.160918 8.56533 0.482753C8.10561 1.05746 7.62277 1.63216 7.18595 2.20687C7.07098 2.36786 6.95601 2.3908 6.77225 2.34477C6.05966 2.13792 5.34702 1.95399 4.84128 1.81609C3.85287 1.58614 3.25505 1.97708 3.20903 2.8045C3.16301 3.56311 3.11715 4.32176 3.09406 5.10332C3.09406 5.26431 3.02511 5.33327 2.8872 5.40221C2.17461 5.67802 1.46197 5.95397 0.749381 6.22979C0.0136757 6.52869 -0.216125 7.24131 0.220693 7.90789C0.634398 8.55156 1.04827 9.17228 1.46197 9.81591C1.55386 9.95382 1.55386 10.0459 1.46197 10.2067C1.02516 10.8504 0.611451 11.494 0.197581 12.1608C-0.193198 12.7815 0.0596766 13.517 0.74934 13.793C1.46193 14.0688 2.19764 14.3448 2.91027 14.6206C3.07127 14.6666 3.11713 14.7585 3.11713 14.9195C3.14006 15.6552 3.2321 16.3678 3.2321 17.1033C3.2321 17.839 3.87577 18.5056 4.77231 18.2298C5.48491 17.9998 6.19754 17.839 6.91014 17.6321C7.04804 17.5861 7.14008 17.6092 7.23196 17.7471C7.7148 18.3448 8.17452 18.9195 8.65719 19.5172C9.18588 20.1609 9.94449 20.1609 10.4503 19.5172C10.9331 18.9196 11.3928 18.3449 11.8755 17.7471C11.9674 17.6321 12.0365 17.5861 12.1973 17.6321C12.933 17.839 13.6686 18.0229 14.4043 18.2298C15.1629 18.4366 15.8066 17.9769 15.8295 17.1954C15.8755 16.4368 15.9214 15.6781 15.9445 14.8965C15.9445 14.7126 16.0364 14.6437 16.1744 14.5976C16.8641 14.3448 17.5767 14.069 18.2664 13.793C19.0018 13.4251 19.2317 12.6896 18.7949 12.0228L18.7948 12.0229ZM13.3006 8.25281L8.703 12.8505C8.58803 12.9654 8.42719 13.0573 8.26619 13.0804C8.22017 13.0804 8.15121 13.1033 8.10519 13.1033C7.89833 13.1033 7.66837 13.0114 7.50754 12.8505L5.62242 10.9653C5.3006 10.6435 5.3006 10.1148 5.62242 9.79298C5.94425 9.47115 6.47295 9.47115 6.79478 9.79298L8.08208 11.0803L12.0821 7.08028C12.4039 6.75846 12.9326 6.75846 13.2544 7.08028C13.6224 7.40228 13.6224 7.93097 13.3006 8.25277L13.3006 8.25281Z" fill="#027333"/>
</svg>
