<svg width="20" height="20" viewBox="0 0 20 20" fill="none" xmlns="http://www.w3.org/2000/svg">
<g id="down_ic">
<g id="Arrow - Down 2">
<path id="Fill 1" d="M9.05604 6.01211L12.572 11.7189C12.6504 11.8467 12.6429 12.0103 12.5504 12.13C12.1329 12.6722 11.7095 13.1565 11.3537 13.4797C11.3537 13.4797 11.0686 13.7582 10.8878 13.8786C10.6411 14.0732 10.3186 14.1668 10.0053 14.1668C9.65357 14.1668 9.32105 14.0643 9.0552 13.8599C9.0077 13.8135 8.79852 13.6369 8.62768 13.47C7.56429 12.4963 5.80754 9.95474 5.27501 8.618C5.18918 8.42344 5.01 7.90405 5 7.63459C5 7.37489 5.05667 7.12415 5.18084 6.88318C5.35168 6.58685 5.6167 6.35484 5.93088 6.22459C6.14922 6.14073 6.80426 6.01129 6.82342 6.01129C7.29095 5.92744 7.94765 5.86476 8.71435 5.83382C8.85186 5.82812 8.9852 5.89732 9.05604 6.01211" fill="#13013C"/>
<path id="Fill 4" opacity="0.4" d="M10.9489 6.39377C10.7931 6.14221 10.9923 5.82553 11.2914 5.83774C11.9931 5.86787 12.6115 5.91997 13.0715 5.98347C13.0815 5.99324 13.8974 6.12268 14.1732 6.27165C14.6858 6.53135 14.9991 7.04097 14.9991 7.58885V7.63444C14.99 7.98775 14.6766 8.73916 14.6574 8.73916C14.4999 9.11771 14.2332 9.61186 13.9124 10.1435C13.7674 10.3828 13.4115 10.3885 13.264 10.1492L10.9489 6.39377Z" fill="#13013C"/>
</g>
</g>
</svg>
