<svg width="102" height="130" viewBox="0 0 102 130" fill="none" xmlns="http://www.w3.org/2000/svg">
<g id="#358_it_support_flatline">
<path id="Vector" d="M38.7926 54.7061C38.7926 54.7061 23.4286 59.218 20.535 60.8927C10.0465 66.9819 1.58599 95.8152 1.38114 100.839C1.17628 105.863 10.8556 114.954 10.8556 114.954L23.8793 109.919C23.8793 109.919 17.4673 99.7074 19.5415 94.2993C21.7145 88.674 24.2304 83.1873 27.075 77.8699C27.075 77.8699 24.6167 88.3995 24.9394 92.3378C25.262 96.2761 28.386 114.969 28.386 114.969H69.0599C69.0599 114.969 72.6858 99.7637 72.8138 90.3865C72.9419 81.0093 70.4324 76.774 70.4324 76.774C70.4324 76.774 75.3643 84.456 77.5357 93.6745C78.0478 95.9022 73.9098 106.529 73.9098 106.529C73.9098 106.529 85.4021 103.354 90.2418 108.946C92.826 105.118 94.1 100.556 93.8728 95.9432C93.417 88.3841 79.6969 63.2024 77.5357 62.2498C71.4515 59.5765 62.4943 55.2284 59.6571 55.4947C56.8198 55.7611 38.7926 54.7061 38.7926 54.7061Z" fill="#3B2273"/>
<path id="Vector_2" d="M50.0151 61.9219H46.8809V72.2465H50.0151V61.9219Z" fill="white"/>
<path id="Vector_3" d="M50.0012 72.5074H46.8669C46.7963 72.5074 46.7285 72.4794 46.6786 72.4294C46.6286 72.3795 46.6006 72.3117 46.6006 72.2411V61.9216C46.6006 61.851 46.6286 61.7832 46.6786 61.7333C46.7285 61.6833 46.7963 61.6553 46.8669 61.6553H50.0012C50.0359 61.6553 50.0703 61.6622 50.1023 61.6756C50.1343 61.6891 50.1634 61.7088 50.1877 61.7336C50.212 61.7584 50.2311 61.7878 50.244 61.8201C50.2568 61.8523 50.263 61.8869 50.2624 61.9216V72.2411C50.263 72.2758 50.2568 72.3104 50.244 72.3426C50.2311 72.3749 50.212 72.4043 50.1877 72.4291C50.1634 72.4539 50.1343 72.4736 50.1023 72.4871C50.0703 72.5005 50.0359 72.5074 50.0012 72.5074ZM47.1281 71.9953H49.7349V62.1828H47.1281V71.9953Z" fill="#231F20"/>
<path id="Vector_4" d="M12.6971 114.421H84.4166L96.841 126.512H0.267578L12.6971 114.421Z" fill="white"/>
<path id="Vector_5" d="M96.8383 126.773H0.264952C0.212526 126.772 0.161412 126.757 0.117788 126.728C0.0741638 126.698 0.039899 126.657 0.019129 126.609C-0.000514069 126.561 -0.00515949 126.508 0.00579737 126.456C0.0167542 126.405 0.0428064 126.359 0.0805828 126.322L12.5101 114.231C12.5598 114.184 12.626 114.158 12.6945 114.159H84.3935C84.4616 114.16 84.5273 114.185 84.5778 114.231L97.0022 126.322C97.04 126.359 97.0661 126.405 97.077 126.456C97.088 126.508 97.0833 126.561 97.0637 126.609C97.0444 126.654 97.0133 126.693 96.9736 126.722C96.934 126.751 96.8872 126.769 96.8383 126.773ZM0.915366 126.261H96.1726L84.3115 114.671H12.802L0.915366 126.261Z" fill="#231F20"/>
<path id="Vector_6" d="M57.6102 116.925H32.4541L33.0431 115.788H57.221L57.6102 116.925Z" fill="#E6E7E8"/>
<path id="Vector_7" d="M63.1602 116.925H59.6418L59.1758 115.788H62.5559L63.1602 116.925Z" fill="#E6E7E8"/>
<path id="Vector_8" d="M68.4344 116.925H64.916L64.2451 115.788H67.6303L68.4344 116.925Z" fill="#E6E7E8"/>
<path id="Vector_9" d="M78.9136 116.925H70.197L69.3213 115.788H77.6998L78.9136 116.925Z" fill="#E6E7E8"/>
<path id="Vector_10" d="M78.9964 116.925H75.4781L74.3975 115.788H77.7776L78.9964 116.925Z" fill="#E6E7E8"/>
<path id="Vector_11" d="M19.7735 116.925H16.25L17.4689 115.788H20.849L19.7735 116.925Z" fill="#E6E7E8"/>
<path id="Vector_12" d="M25.0467 116.925H21.5283L22.5423 115.788H25.9224L25.0467 116.925Z" fill="#E6E7E8"/>
<path id="Vector_13" d="M30.3279 116.925H26.8096L27.6136 115.788H30.9988L30.3279 116.925Z" fill="#E6E7E8"/>
<path id="Vector_14" d="M26.7738 119.065H13.9551L15.3481 117.765H27.6393L26.7738 119.065Z" fill="#E6E7E8"/>
<path id="Vector_15" d="M32.2969 119.065H28.5225L29.3163 117.765H32.9371L32.2969 119.065Z" fill="#E6E7E8"/>
<path id="Vector_16" d="M38.1536 119.065H34.374L34.9271 117.765H38.5428L38.1536 119.065Z" fill="#E6E7E8"/>
<path id="Vector_17" d="M44.0069 119.065H40.2324L40.5397 117.765H44.1554L44.0069 119.065Z" fill="#E6E7E8"/>
<path id="Vector_18" d="M49.8655 119.065H46.0859L46.1525 117.765H49.7682L49.8655 119.065Z" fill="#E6E7E8"/>
<path id="Vector_19" d="M55.7205 119.065H51.941L51.7617 117.765H55.3825L55.7205 119.065Z" fill="#E6E7E8"/>
<path id="Vector_20" d="M61.5755 119.065H57.8011L57.376 117.765H60.9968L61.5755 119.065Z" fill="#E6E7E8"/>
<path id="Vector_21" d="M67.4307 119.065H63.6511L62.9854 117.765H66.6061L67.4307 119.065Z" fill="#E6E7E8"/>
<path id="Vector_22" d="M73.2866 119.065H69.5122L68.6006 117.765H72.2214L73.2866 119.065Z" fill="#E6E7E8"/>
<path id="Vector_23" d="M22.2814 121.545H18.21L19.521 120.034H23.4133L22.2814 121.545Z" fill="#E6E7E8"/>
<path id="Vector_24" d="M28.601 121.545H24.5244L25.5589 120.034H29.4512L28.601 121.545Z" fill="#E6E7E8"/>
<path id="Vector_25" d="M34.9213 121.545H30.8447L31.5924 120.034H35.4847L34.9213 121.545Z" fill="#E6E7E8"/>
<path id="Vector_26" d="M41.2416 121.545H37.165L37.6311 120.034H41.5233L41.2416 121.545Z" fill="#E6E7E8"/>
<path id="Vector_27" d="M47.5559 121.545H43.4844L43.6687 120.034H47.561L47.5559 121.545Z" fill="#E6E7E8"/>
<path id="Vector_28" d="M53.8751 121.545H49.7985L49.7012 120.034H53.5985L53.8751 121.545Z" fill="#E6E7E8"/>
<path id="Vector_29" d="M60.1968 121.545H56.1202L55.7412 120.034H59.6334L60.1968 121.545Z" fill="#E6E7E8"/>
<path id="Vector_30" d="M66.5146 121.545H62.438L61.7773 120.034H65.6696L66.5146 121.545Z" fill="#E6E7E8"/>
<path id="Vector_31" d="M72.8285 121.545H68.757L67.8096 120.034H71.7069L72.8285 121.545Z" fill="#E6E7E8"/>
<path id="Vector_32" d="M24.2803 124.449H19.8555L21.1973 122.677H25.407L24.2803 124.449Z" fill="#E6E7E8"/>
<path id="Vector_33" d="M31.1426 124.449H26.7178L27.7267 122.677H31.9364L31.1426 124.449Z" fill="#E6E7E8"/>
<path id="Vector_34" d="M37.9998 124.449H33.5801L34.2561 122.677H38.4658L37.9998 124.449Z" fill="#E6E7E8"/>
<path id="Vector_35" d="M44.8624 124.449H40.4375L40.7857 122.677H44.9955L44.8624 124.449Z" fill="#E6E7E8"/>
<path id="Vector_36" d="M51.7256 124.449H47.3008L47.3161 122.677H51.5259L51.7256 124.449Z" fill="#E6E7E8"/>
<path id="Vector_37" d="M58.5871 124.449H54.1623L53.8447 122.677H58.0545L58.5871 124.449Z" fill="#E6E7E8"/>
<path id="Vector_38" d="M65.4442 124.449H61.0193L60.374 122.677H64.5838L65.4442 124.449Z" fill="#E6E7E8"/>
<path id="Vector_39" d="M72.3073 124.449H67.8825L66.9043 122.677H71.1141L72.3073 124.449Z" fill="#E6E7E8"/>
<path id="Vector_40" d="M79.1705 124.449H74.7456L73.4346 122.677H77.6443L79.1705 124.449Z" fill="#E6E7E8"/>
<path id="Vector_41" d="M86.6281 124.449H81.0202L79.4121 122.677H84.7486L86.6281 124.449Z" fill="#E6E7E8"/>
<path id="Vector_42" d="M83.867 121.545H75.0736L73.8496 120.034H82.2486L83.867 121.545Z" fill="#E6E7E8"/>
<path id="Vector_43" d="M81.2069 119.065H75.051L73.9141 117.765H79.8139L81.2069 119.065Z" fill="#E6E7E8"/>
<path id="Vector_44" d="M15.3666 121.545H11.29L12.9084 120.034H16.8057L15.3666 121.545Z" fill="#E6E7E8"/>
<path id="Vector_45" d="M17.3708 124.449H8.17285L10.078 122.677H18.8304L17.3708 124.449Z" fill="#E6E7E8"/>
<path id="Vector_46" d="M65.4978 1.49049C74.1683 5.3059 77.8966 15.4769 79.8376 24.7466C80.8619 29.5555 82.2139 35.1583 86.7258 37.1095C91.6065 39.2144 97.0197 35.6551 100.738 31.855C98.254 36.5564 95.6165 41.4627 91.1455 44.3716C86.5824 47.3625 80.8158 47.7927 75.3667 47.5366C72.0992 47.383 68.7703 46.9886 65.8409 45.5393C56.853 41.0735 55.1783 28.9717 48.582 21.4074C43.1431 15.1696 40.4236 10.9138 47.6243 4.69646C52.4383 0.573766 59.5673 -1.10604 65.4978 1.49049Z" fill="white"/>
<path id="Vector_47" d="M77.9601 47.874C77.0434 47.874 76.1728 47.874 75.3687 47.8074C72.3369 47.664 68.8185 47.2953 65.7406 45.7589C60.1993 43.0292 57.3467 37.3394 54.6068 31.7981C52.8245 28.2131 50.9808 24.5308 48.415 21.5912C45.3422 18.0626 42.8123 14.8669 43.053 11.5072C43.2117 9.20263 44.6252 6.97996 47.4881 4.50635C52.6402 0.0610108 59.9227 -1.24493 65.6126 1.25941C72.7005 4.37831 77.448 12.045 80.1316 24.6999C81.2685 30.0773 82.6411 35.0501 86.8662 36.8733C92.3409 39.2394 98.2817 34.031 100.581 31.6803C100.626 31.6349 100.686 31.607 100.75 31.6014C100.813 31.5957 100.877 31.6128 100.929 31.6495C100.98 31.6874 101.016 31.7423 101.03 31.8043C101.044 31.8663 101.036 31.9313 101.006 31.9875C98.6299 36.4841 95.9412 41.5798 91.3269 44.6066C87.1786 47.3106 82.0931 47.874 77.9601 47.874ZM59.4106 0.527055C55.1485 0.56419 51.0385 2.1163 47.8158 4.90581C45.0657 7.28212 43.7188 9.39212 43.56 11.5636C43.3398 14.7183 45.798 17.8219 48.794 21.2583C51.4059 24.2492 53.265 27.9775 55.0626 31.5778C57.9049 37.2728 60.5936 42.6502 65.9762 45.3236C68.967 46.8087 72.4188 47.157 75.3943 47.2953C79.7475 47.5001 86.098 47.4028 91.0196 44.1764C95.0347 41.5491 97.5801 37.2625 99.7259 33.2167C96.8631 35.803 91.6137 39.5108 86.6408 37.3394C81.8165 35.255 80.4952 28.9557 79.599 24.792C76.9563 12.3113 72.3062 4.76754 65.3872 1.74594C63.5008 0.930516 61.4657 0.51547 59.4106 0.527055Z" fill="#231F20"/>
<path id="Vector_48" d="M55.7579 10.6571C56.5526 10.9432 57.2772 11.3954 57.8833 11.9836C58.6054 12.7364 58.9076 13.6173 59.8602 14.2779C60.8127 14.9386 61.7602 15.3534 62.6769 15.9475C65.7241 17.909 67.5524 21.4683 67.8392 25.0789C68.0091 27.7478 67.5202 30.4176 66.4155 32.8531C65.5602 34.8145 65.0737 36.438 63.4605 37.9181C60.6567 40.4479 57.3492 42.3556 53.7555 43.5157C50.2986 44.668 45.8276 43.3877 42.5346 42.0766C40.7012 41.3443 38.878 40.3456 37.7717 38.717C37.5781 38.3825 37.3441 38.0729 37.0752 37.7952C36.8277 37.5942 36.5579 37.4224 36.2712 37.283C31.2523 34.5534 30.4533 28.8482 32.0973 23.8907C32.9782 21.243 33.9461 17.4788 36.3429 15.8143C37.3211 15.1332 38.4222 14.621 39.3286 13.8477C39.933 13.3356 40.44 12.7057 41.0392 12.1782C43.5998 9.94013 48.0605 8.8544 51.3536 9.55091C52.8497 9.79764 54.3228 10.1676 55.7579 10.6571Z" fill="white"/>
<path id="Vector_49" d="M50.7324 44.227C48.4022 44.227 45.6111 43.5919 42.4307 42.3218C40.9404 41.7277 38.815 40.724 37.5501 38.8649L37.4118 38.6498C37.1621 38.1755 36.7571 37.8013 36.2646 37.5897L36.1468 37.5282C30.6106 34.5169 30.3699 28.2586 31.8449 23.8184L32.1419 22.8965C32.9664 20.3358 33.9907 17.135 36.1929 15.6088C36.577 15.3374 36.9867 15.0967 37.3862 14.856C38.0077 14.5042 38.6003 14.1035 39.1582 13.6576C39.4603 13.3913 39.7522 13.0942 40.0288 12.8023C40.3053 12.5104 40.5665 12.2441 40.8636 11.988C43.4243 9.72439 47.9618 8.57209 51.4084 9.30444L52.2893 9.48369C53.5096 9.68477 54.7094 9.99501 55.8743 10.4107C56.7058 10.7061 57.4626 11.1798 58.0918 11.7985C58.3588 12.0996 58.6035 12.4197 58.8242 12.7562C59.1368 13.2607 59.5395 13.7034 60.0123 14.0622C60.5058 14.4011 61.0188 14.7106 61.5487 14.9891C61.9636 15.2196 62.3989 15.4552 62.8086 15.7215C65.7636 17.6266 67.7865 21.2065 68.0887 25.0577C68.262 27.7704 67.7661 30.484 66.6445 32.96C66.5062 33.2775 66.3782 33.5899 66.2501 33.8921C65.5895 35.4746 65.021 36.8368 63.628 38.1121C60.7903 40.6545 57.451 42.5736 53.8257 43.7456C52.8272 44.0711 51.7827 44.2336 50.7324 44.227ZM49.196 9.61172C46.3229 9.61172 43.1733 10.636 41.217 12.3824C40.9404 12.6282 40.6741 12.8945 40.418 13.1711C40.1619 13.4476 39.8291 13.7805 39.5064 14.0571C38.9259 14.5272 38.3075 14.9485 37.6576 15.3169C37.2684 15.5525 36.8638 15.7932 36.4899 16.0544C34.4414 17.4781 33.4171 20.5765 32.6489 23.0655C32.5465 23.3882 32.4441 23.6955 32.3468 23.9925C30.9333 28.2432 31.1484 34.2352 36.3978 37.0724L36.5155 37.1339C36.7798 37.2621 37.0275 37.422 37.253 37.6102C37.4849 37.8338 37.6863 38.0869 37.8522 38.363L37.9854 38.5679C38.8867 39.8892 40.3617 40.9288 42.6304 41.8302C47.2704 43.6739 50.9834 44.1604 53.6721 43.2641C57.2294 42.1113 60.5045 40.2234 63.2849 37.7228C64.5857 36.5296 65.1388 35.2134 65.7739 33.6872C65.9019 33.3851 66.0299 33.0675 66.1733 32.7449C67.2586 30.349 67.7403 27.7238 67.5766 25.0987C67.2795 21.4062 65.3488 17.9851 62.532 16.1671C62.1377 15.911 61.7126 15.6805 61.3029 15.4552C60.762 15.1644 60.2372 14.8447 59.7307 14.4975C59.2118 14.1013 58.7679 13.6157 58.4196 13.0635C58.1975 12.746 57.9509 12.4464 57.6821 12.1673C57.1 11.6008 56.4007 11.169 55.6336 10.9023C54.5049 10.5004 53.3429 10.1988 52.1613 10.0009L51.2702 9.8217C50.5863 9.67962 49.8894 9.60925 49.1909 9.61172H49.196Z" fill="#231F20"/>
<path id="Vector_50" d="M55.5807 55.4384C55.5807 55.4384 51.3709 61.9835 48.462 61.922C45.5531 61.8606 42.2754 55.8737 42.2754 55.8737L42.4598 52.6728L42.89 45.2315L43.2997 38.2767L55.2273 38.1436L55.6882 43.8231L55.8316 45.6617L55.5807 55.4384Z" fill="white"/>
<path id="Vector_51" d="M48.4861 62.1831H48.4605C45.3877 62.1166 42.1817 56.2424 42.0486 55.9914C42.0243 55.9495 42.0119 55.9016 42.0127 55.8531L43.037 38.2562C43.0396 38.1896 43.0676 38.1265 43.1152 38.0798C43.1628 38.0332 43.2264 38.0065 43.2931 38.0052L55.2258 37.8721C55.2931 37.8719 55.3579 37.8971 55.4073 37.9427C55.4566 37.9883 55.487 38.0509 55.4921 38.1179L56.0913 45.6412L55.8609 55.4434C55.8598 55.4908 55.8456 55.5369 55.8199 55.5766C55.6304 55.848 51.5333 62.1831 48.4861 62.1831ZM42.5249 55.8071C42.8885 56.4472 45.8691 61.5993 48.4503 61.6556H48.4912C51.0878 61.6556 54.8878 56.0222 55.318 55.3564L55.5485 45.6258L54.9698 38.3791L43.5338 38.5071L42.5249 55.8071Z" fill="#231F20"/>
<path id="Vector_52" d="M55.8181 45.6569C54.879 47.288 53.5461 48.6579 51.9413 49.6413C49.3806 51.3007 45.5703 53.1751 42.4463 52.6681L42.8765 45.2267C45.1615 45.528 47.4768 45.5194 49.7596 45.2011C51.7672 44.9758 53.8567 44.73 55.6748 43.8184L55.8181 45.6569Z" fill="#231F20"/>
<path id="Vector_53" d="M43.5471 53.0056C43.1646 53.0075 42.7827 52.9784 42.405 52.9185C42.343 52.9084 42.2871 52.8755 42.2482 52.8262C42.2093 52.7769 42.1904 52.7148 42.195 52.6522L42.6252 45.2109C42.626 45.1752 42.6346 45.1402 42.6506 45.1083C42.6665 45.0764 42.6893 45.0485 42.7174 45.0265C42.7449 45.0037 42.7769 44.9869 42.8113 44.9772C42.8457 44.9675 42.8818 44.9651 42.9171 44.9702C45.177 45.281 47.4687 45.281 49.7285 44.9702C51.5978 44.7602 53.713 44.5246 55.5618 43.6079C55.5987 43.5877 55.6401 43.5771 55.6821 43.5771C55.7242 43.5771 55.7656 43.5877 55.8025 43.6079C55.8378 43.629 55.8677 43.6581 55.89 43.6927C55.9122 43.7274 55.9261 43.7667 55.9305 43.8076L56.0688 45.6513C56.081 45.6966 56.081 45.7443 56.0688 45.7896C55.1156 47.4688 53.7517 48.8785 52.1049 49.8867C50.1792 51.0902 46.7274 53.0056 43.5471 53.0056ZM42.7174 52.4474C45.9541 52.8519 49.7798 50.7419 51.8027 49.4309C53.3507 48.4852 54.6404 47.1708 55.5566 45.6052L55.4491 44.2071C53.6054 45.0316 51.5825 45.2314 49.7849 45.4567C47.5774 45.7616 45.3399 45.7822 43.1271 45.5182L42.7174 52.4474Z" fill="#231F20"/>
<path id="Vector_54" d="M49.7413 46.9007H48.5224C45.7415 46.9307 43.0625 45.8551 41.0745 43.9103C39.0865 41.9655 37.9523 39.3108 37.9212 36.5299C37.8802 33.2164 38.8277 26.912 38.8277 26.912C38.8277 26.912 43.6674 25.1707 47.4674 23.7368C53.8435 21.34 55.5592 17.8779 55.5592 17.8779C55.7572 20.1691 56.2602 22.4236 57.0546 24.5818C57.7409 26.1489 59.9021 28.9503 59.9021 28.9503C59.9021 28.9503 60.0864 34.1229 60.112 36.2841C60.1296 37.6625 59.8752 39.0309 59.3633 40.3109C58.8513 41.5908 58.092 42.7573 57.1287 43.7434C56.1654 44.7295 55.0171 45.516 53.7494 46.0578C52.4818 46.5995 51.1198 46.8859 49.7413 46.9007Z" fill="white"/>
<path id="Vector_55" d="M48.4082 47.177C45.577 47.1772 42.8599 46.0609 40.8465 44.0705C38.8331 42.0801 37.6857 39.376 37.6533 36.545C37.6175 33.252 38.5547 26.9476 38.5649 26.8862C38.5708 26.8389 38.5897 26.7942 38.6196 26.7571C38.6494 26.72 38.689 26.692 38.734 26.6762C38.7852 26.6762 43.6197 24.9196 47.3686 23.5009C53.5859 21.1656 55.3118 17.8111 55.3271 17.7753C55.3419 17.7085 55.3822 17.6501 55.4395 17.6128C55.4967 17.5754 55.5664 17.562 55.6334 17.5754C55.7005 17.5888 55.7596 17.628 55.7981 17.6845C55.8366 17.741 55.8514 17.8104 55.8393 17.8777C56.0426 20.1366 56.5402 22.3593 57.3193 24.4894C57.98 26.0258 60.1105 28.7811 60.131 28.8067C60.1654 28.8507 60.1851 28.9045 60.1873 28.9603C60.1873 29.0115 60.3717 34.1585 60.3973 36.2941C60.4273 39.1447 59.3244 41.8907 57.3307 43.9285C55.3371 45.9663 52.616 47.1292 49.7653 47.1616H48.5413L48.4082 47.177ZM49.7449 46.6341C52.4516 46.599 55.0344 45.4938 56.9288 43.5601C58.8231 41.6264 59.875 39.0215 59.8544 36.3146C59.8288 34.3377 59.6701 29.7541 59.6444 29.0781C59.3013 28.6274 57.4576 26.1794 56.8175 24.7147C56.095 22.7745 55.61 20.7539 55.3732 18.6971C54.5385 19.8392 52.3465 22.2052 47.5632 24.0131C44.178 25.2934 39.9119 26.8298 39.0668 27.1371C38.9234 28.1255 38.1552 33.59 38.186 36.5553C38.221 39.2487 39.3156 41.8199 41.2327 43.712C43.1498 45.6042 45.7351 46.6651 48.4287 46.6648H48.5413L49.7449 46.6341Z" fill="#231F20"/>
<path id="Vector_56" d="M48.4612 36.2686C48.013 36.2692 47.5651 36.2452 47.1194 36.1969C47.0142 36.1868 46.9128 36.1519 46.8238 36.0949C46.7347 36.0379 46.6605 35.9605 46.6073 35.8691C45.8084 34.5683 47.9645 28.6582 48.2103 27.9925C48.2224 27.9588 48.241 27.9279 48.2651 27.9015C48.2891 27.8751 48.3181 27.8536 48.3505 27.8384C48.3828 27.8232 48.4178 27.8145 48.4535 27.8128C48.4892 27.8111 48.5249 27.8165 48.5585 27.8286C48.5922 27.8407 48.6231 27.8593 48.6495 27.8834C48.6759 27.9074 48.6974 27.9364 48.7126 27.9688C48.7278 28.0011 48.7365 28.0361 48.7382 28.0718C48.7399 28.1075 48.7345 28.1432 48.7224 28.1768C47.8211 30.6095 46.5714 34.7783 47.0733 35.5926C47.1143 35.6591 47.145 35.6694 47.1758 35.6694C48.1658 35.7657 49.1634 35.7554 50.1513 35.6387C50.186 35.6329 50.2215 35.6341 50.2558 35.6424C50.29 35.6507 50.3222 35.6659 50.3504 35.6869C50.3786 35.708 50.4023 35.7345 50.42 35.7649C50.4377 35.7954 50.4491 35.8291 50.4534 35.864C50.4621 35.9339 50.4428 36.0045 50.3996 36.0601C50.3564 36.1158 50.2929 36.1521 50.223 36.161C49.6385 36.2335 49.0501 36.2694 48.4612 36.2686Z" fill="#231F20"/>
<path id="Vector_57" d="M53.8247 31.6676C54.2235 31.6633 54.538 30.8618 54.5272 29.8776C54.5164 28.8933 54.1843 28.099 53.7855 28.1034C53.3868 28.1078 53.0723 28.9092 53.0831 29.8935C53.0939 30.8777 53.426 31.672 53.8247 31.6676Z" fill="#231F20"/>
<path id="Vector_58" d="M44.274 31.445C44.6727 31.4406 44.9873 30.6392 44.9764 29.6549C44.9656 28.6707 44.6336 27.8763 44.2348 27.8807C43.836 27.8851 43.5215 28.6866 43.5323 29.6708C43.5431 30.655 43.8752 31.4494 44.274 31.445Z" fill="#231F20"/>
<path id="Vector_59" d="M55.9085 53.4766C55.9085 53.4766 60.8609 53.8351 61.1323 55.1205C61.4038 56.406 59.9698 65.8241 58.1978 67.9854C56.4258 70.1466 48.8359 61.9217 48.8359 61.9217L55.9085 53.4766Z" fill="white"/>
<path id="Vector_60" d="M57.3675 68.6156C54.6788 68.6156 48.8866 62.3727 48.6612 62.1063C48.6184 62.0585 48.5947 61.9965 48.5947 61.9322C48.5947 61.868 48.6184 61.806 48.6612 61.7581L55.739 53.3079C55.7645 53.2747 55.7982 53.2487 55.8368 53.2325C55.8754 53.2164 55.9176 53.2106 55.9592 53.2157C56.8196 53.2771 61.1215 53.6561 61.4237 55.0645C61.7258 56.4729 60.256 65.932 58.4328 68.1547C58.3131 68.299 58.1628 68.4149 57.9927 68.4937C57.8225 68.5726 57.637 68.6124 57.4495 68.6105L57.3675 68.6156ZM49.1734 61.9169C50.9454 63.8066 55.4112 68.1393 57.3931 68.0625C57.5047 68.0663 57.6156 68.0448 57.7177 67.9996C57.8197 67.9544 57.9101 67.8865 57.9821 67.8013C59.6824 65.7527 61.142 56.4472 60.8654 55.1515C60.7067 54.4192 57.9821 53.8866 56.0155 53.7329L49.1734 61.9169Z" fill="#231F20"/>
<path id="Vector_61" d="M41.8039 53.1436C41.8039 53.1436 36.8413 53.2665 36.5033 54.5366C36.1652 55.8067 37.1588 65.2914 38.8284 67.5294C40.4979 69.7675 48.4616 61.9216 48.4616 61.9216L41.8039 53.1436Z" fill="white"/>
<path id="Vector_62" d="M39.6903 68.1959H39.5572C39.3684 68.1892 39.1835 68.1396 39.0167 68.0509C38.8499 67.9622 38.7054 67.8366 38.5944 67.6838C36.8787 65.3792 35.8698 55.8176 36.2283 54.4707C36.5868 53.1238 40.9092 52.9035 41.7747 52.8779C41.8162 52.8792 41.857 52.8895 41.8941 52.9081C41.9312 52.9266 41.9639 52.9531 41.9898 52.9855L48.6476 61.7584C48.6894 61.8067 48.7124 61.8685 48.7124 61.9325C48.7124 61.9964 48.6894 62.0582 48.6476 62.1066C48.3762 62.3627 42.42 68.1959 39.6903 68.1959ZM41.6518 53.4106C39.6801 53.4771 36.9299 53.8766 36.7353 54.6038C36.4024 55.8842 37.4216 65.2255 39.0194 67.3714C39.0878 67.4603 39.1753 67.5328 39.2755 67.5833C39.3757 67.6338 39.486 67.6612 39.5982 67.6633C41.5596 67.8169 46.2559 63.6942 48.0945 61.8915L41.6518 53.4106Z" fill="#231F20"/>
<path id="Vector_63" d="M43.2861 38.2718L55.2138 38.1387C55.2138 38.1387 53.3957 44.4328 48.8377 43.8183C44.2797 43.2037 43.2861 38.2718 43.2861 38.2718Z" fill="white"/>
<path id="Vector_64" d="M49.4507 44.1252C49.2331 44.1248 49.0158 44.1094 48.8003 44.0792C44.104 43.4441 43.0336 38.374 43.0234 38.3227C43.0159 38.2842 43.0171 38.2444 43.0269 38.2063C43.0366 38.1683 43.0547 38.1328 43.0797 38.1025C43.1038 38.0726 43.1342 38.0484 43.1687 38.0316C43.2032 38.0148 43.241 38.0058 43.2794 38.0052L55.2122 37.8721C55.2532 37.8723 55.2935 37.8821 55.33 37.9008C55.3665 37.9195 55.3981 37.9465 55.4222 37.9796C55.447 38.0119 55.464 38.0495 55.472 38.0895C55.48 38.1294 55.4787 38.1707 55.4683 38.2101C55.4478 38.2767 53.7065 44.1252 49.4507 44.1252ZM43.6226 38.5327C43.935 39.598 45.2102 43.06 48.8668 43.5568C52.5235 44.0535 54.3928 39.6799 54.8435 38.4047L43.6226 38.5327Z" fill="#231F20"/>
<path id="Vector_65" d="M59.2988 26.9277H60.5023C60.9944 26.9277 61.4815 27.025 61.9358 27.2139C62.3901 27.4028 62.8026 27.6796 63.1496 28.0285C63.4965 28.3773 63.7711 28.7913 63.9575 29.2467C64.1439 29.702 64.2385 30.1897 64.2358 30.6817V37.8516C64.2358 38.3419 64.1392 38.8274 63.9516 39.2803C63.764 39.7333 63.489 40.1449 63.1423 40.4915C62.7956 40.8382 62.384 41.1132 61.9311 41.3009C61.4781 41.4885 60.9926 41.5851 60.5023 41.5851H59.2988V26.9277Z" fill="white"/>
<path id="Vector_66" d="M60.503 41.8101H59.2995C59.2645 41.8101 59.2299 41.8032 59.1976 41.7898C59.1653 41.7764 59.1359 41.7568 59.1112 41.7321C59.0865 41.7074 59.0669 41.678 59.0535 41.6457C59.0401 41.6134 59.0332 41.5788 59.0332 41.5438V26.9274C59.0332 26.8925 59.0401 26.8578 59.0535 26.8255C59.0669 26.7932 59.0865 26.7639 59.1112 26.7391C59.1359 26.7144 59.1653 26.6948 59.1976 26.6814C59.2299 26.668 59.2645 26.6611 59.2995 26.6611H60.503C61.5621 26.6625 62.5773 27.0838 63.3262 27.8326C64.075 28.5815 64.4963 29.5968 64.4977 30.6558V37.8257C64.4936 38.8829 64.0711 39.8956 63.3226 40.6422C62.574 41.3889 61.5603 41.8088 60.503 41.8101ZM59.5658 41.298H60.503C61.423 41.2966 62.3049 40.9302 62.955 40.2792C63.6051 39.6281 63.9702 38.7457 63.9702 37.8257V30.6814C63.9688 29.7623 63.6031 28.8812 62.9532 28.2312C62.3033 27.5813 61.4222 27.2156 60.503 27.2142H59.5658V41.298Z" fill="#231F20"/>
<path id="Vector_67" d="M38.8311 41.5439H37.6275C37.1355 41.544 36.6484 41.4467 36.1941 41.2578C35.7397 41.0689 35.3273 40.7921 34.9803 40.4432C34.6334 40.0943 34.3588 39.6804 34.1724 39.225C33.9859 38.7697 33.8914 38.282 33.8941 37.79V30.6201C33.8941 30.1298 33.9906 29.6443 34.1783 29.1914C34.3659 28.7384 34.6409 28.3268 34.9876 27.9801C35.3343 27.6334 35.7458 27.3584 36.1988 27.1708C36.6518 26.9832 37.1373 26.8866 37.6275 26.8866H38.8311V41.5439Z" fill="white"/>
<path id="Vector_68" d="M38.831 41.8099H37.6275C36.5676 41.8085 35.5515 41.3865 34.8025 40.6366C34.0535 39.8866 33.6328 38.87 33.6328 37.8101V30.6812C33.6342 29.6221 34.0555 28.6069 34.8043 27.858C35.5532 27.1092 36.5684 26.6879 37.6275 26.6865H38.831C38.8657 26.6865 38.9001 26.6934 38.9321 26.7069C38.9642 26.7203 38.9932 26.74 39.0175 26.7648C39.0418 26.7896 39.061 26.819 39.0738 26.8513C39.0866 26.8836 39.0929 26.9181 39.0922 26.9528V41.5692C39.087 41.6348 39.0572 41.6961 39.0088 41.7408C38.9604 41.7854 38.8969 41.8101 38.831 41.8099ZM37.6275 27.1884C37.1702 27.1891 36.7175 27.2801 36.2955 27.4561C35.8735 27.6322 35.4904 27.8899 35.1682 28.2145C34.8461 28.539 34.5912 28.924 34.4182 29.3473C34.2453 29.7706 34.1576 30.2239 34.1603 30.6812V37.8511C34.1603 38.7711 34.5254 39.6535 35.1755 40.3045C35.8256 40.9556 36.7075 41.322 37.6275 41.3234H38.5647V27.1884H37.6275Z" fill="#231F20"/>
<path id="Vector_69" d="M62.4182 29.3863C62.2144 29.3863 62.0191 29.3053 61.875 29.1613C61.7309 29.0172 61.65 28.8218 61.65 28.6181V21.7042C61.65 15.3486 56.1855 10.1966 49.4868 10.1966C42.788 10.1966 37.3031 15.3691 37.3031 21.7247V28.6334C37.3031 28.8372 37.2221 29.0326 37.0781 29.1766C36.934 29.3207 36.7386 29.4016 36.5349 29.4016C36.3311 29.4016 36.1357 29.3207 35.9916 29.1766C35.8476 29.0326 35.7667 28.8372 35.7667 28.6334V21.7042C35.7462 14.4985 41.902 8.66016 49.4868 8.66016C57.0715 8.66016 63.2069 14.519 63.2069 21.7247V28.6334C63.2049 28.7348 63.1829 28.8347 63.1421 28.9275C63.1013 29.0203 63.0426 29.1041 62.9692 29.174C62.8959 29.244 62.8095 29.2988 62.7149 29.3352C62.6203 29.3717 62.5195 29.389 62.4182 29.3863Z" fill="#231F20"/>
<path id="Vector_70" d="M35.1484 40.8425C35.0791 40.8425 35.0127 40.815 34.9637 40.766C34.9147 40.717 34.8872 40.6506 34.8872 40.5813V30.651C34.8759 30.6114 34.8739 30.5696 34.8814 30.5291C34.889 30.4886 34.9058 30.4504 34.9307 30.4175C34.9555 30.3846 34.9876 30.3579 35.0245 30.3395C35.0614 30.3211 35.102 30.3115 35.1433 30.3115C35.1845 30.3115 35.2251 30.3211 35.262 30.3395C35.2989 30.3579 35.331 30.3846 35.3559 30.4175C35.3807 30.4504 35.3975 30.4886 35.4051 30.5291C35.4126 30.5696 35.4107 30.6114 35.3993 30.651V40.5813C35.3994 40.6488 35.3733 40.7138 35.3265 40.7625C35.2797 40.8111 35.2159 40.8398 35.1484 40.8425Z" fill="#231F20"/>
<path id="Vector_71" d="M62.4208 40.8425C62.3516 40.8425 62.2851 40.815 62.2362 40.766C62.1872 40.717 62.1597 40.6506 62.1597 40.5813V30.651C62.1483 30.6114 62.1464 30.5696 62.1539 30.5291C62.1615 30.4886 62.1783 30.4504 62.2031 30.4175C62.2279 30.3846 62.2601 30.3579 62.297 30.3395C62.3338 30.3211 62.3745 30.3115 62.4157 30.3115C62.4569 30.3115 62.4976 30.3211 62.5345 30.3395C62.5714 30.3579 62.6035 30.3846 62.6283 30.4175C62.6532 30.4504 62.67 30.4886 62.6775 30.5291C62.6851 30.5696 62.6831 30.6114 62.6718 30.651V40.5813C62.6718 40.6488 62.6457 40.7138 62.5989 40.7625C62.5522 40.8111 62.4883 40.8398 62.4208 40.8425Z" fill="#231F20"/>
<path id="Vector_72" d="M22.9474 102.975C22.1022 101.923 21.0378 101.069 19.8285 100.471C16.7864 99.1185 13.1707 100.471 10.5384 102.519C9.299 103.477 8.12621 104.634 7.6192 106.104C6.76905 108.598 7.98793 111.323 9.54483 113.448C10.1616 114.38 10.9788 115.162 11.9365 115.737C13.1888 116.335 14.6152 116.458 15.9516 116.086C17.2751 115.706 18.5313 115.122 19.6749 114.355C21.4776 113.228 24.9652 111.405 25.8205 109.341C26.6758 107.277 24.1612 104.368 22.9474 102.975Z" fill="#231F20"/>
<path id="Vector_73" d="M14.324 116.557C13.4547 116.569 12.5953 116.371 11.8197 115.978C10.8271 115.385 9.9801 114.576 9.34092 113.612C7.92743 111.681 6.43711 108.803 7.37944 106.038C7.825 104.737 8.78269 103.559 10.3857 102.325C13.6531 99.8101 17.2227 99.0316 19.9319 100.24C21.1782 100.846 22.2749 101.721 23.143 102.801C24.7869 104.696 26.8816 107.446 26.057 109.459C25.2939 111.302 22.6308 112.895 20.6847 114.068L19.809 114.58C18.6427 115.36 17.3625 115.954 16.014 116.342C15.4616 116.482 14.894 116.555 14.324 116.557ZM17.1971 100.169C15.1485 100.169 12.8593 101.044 10.6981 102.729C9.16167 103.897 8.27568 105.003 7.86597 106.202C6.99022 108.762 8.40883 111.482 9.75063 113.31C10.3445 114.213 11.1339 114.971 12.0604 115.528C13.2548 116.1 14.6177 116.215 15.8911 115.85C17.1873 115.478 18.4175 114.906 19.5375 114.155L20.4235 113.617C22.3082 112.491 24.8894 110.949 25.5859 109.259C26.3899 107.318 23.6551 104.173 22.7538 103.113C21.9369 102.089 20.9032 101.258 19.727 100.681C18.9358 100.343 18.0827 100.176 17.2227 100.189L17.1971 100.169Z" fill="#231F20"/>
<path id="Vector_74" d="M28.8893 112.465C28.2543 113.919 27.2453 115.179 25.965 116.116C23.4043 117.97 21.2379 116.296 18.5236 115.845C18.5236 115.845 14.8977 115.241 12.6802 115.845C11.4049 116.193 10.4626 114.308 9.99657 113.433C9.59832 112.725 9.35453 111.941 9.28126 111.133C9.20799 110.324 9.30691 109.509 9.5715 108.742C10.5958 105.771 13.7608 105.766 16.4085 105.361C18.3751 105.059 20.8948 105.874 20.8948 105.874C20.8948 105.874 18.2215 101.638 18.9282 100.937C19.635 100.235 22.4568 100.127 23.4657 101.136C24.8536 102.524 24.741 105.018 25.6013 106.77C26.2927 106.698 28.0289 106.027 28.7151 106.181C29.5755 106.375 30.4974 107.205 31.1426 107.789C32.6454 109.111 33.8514 110.736 34.6815 112.557C34.991 113.127 35.1513 113.767 35.1476 114.416C35.1378 114.741 35.027 115.055 34.8305 115.313C34.6341 115.572 34.3618 115.763 34.0516 115.86C33.4165 115.998 32.802 115.599 32.3001 115.189C31.0877 114.185 30.0495 112.988 29.2273 111.645C29.1146 111.912 29.0019 112.188 28.8893 112.465Z" fill="white"/>
<path id="Vector_75" d="M23.4555 117.233C22.4757 117.179 21.5093 116.98 20.5875 116.644C19.8983 116.418 19.1952 116.237 18.4826 116.101C18.3341 116.076 14.8721 115.517 12.7467 116.101C11.3383 116.48 10.3704 114.677 9.84802 113.71L9.76608 113.556C9.35093 112.816 9.09663 111.997 9.01985 111.153C8.94307 110.308 9.04553 109.457 9.32052 108.655C10.2424 105.91 12.9516 105.556 15.3432 105.239C15.6864 105.198 16.0346 105.152 16.3675 105.101C17.6875 104.978 19.0187 105.098 20.2956 105.454C19.3891 103.948 18.0473 101.439 18.7233 100.763C19.1945 100.292 20.2597 100.133 21.0689 100.143C21.581 100.143 22.9126 100.245 23.6296 100.962C24.5258 101.859 24.828 103.154 25.1199 104.409C25.2597 105.118 25.4655 105.813 25.7345 106.483C25.9649 106.442 26.2722 106.355 26.5949 106.268C27.4092 106.048 28.2542 105.817 28.7561 105.93C29.6165 106.125 30.5025 106.898 31.1477 107.467L31.2963 107.595C32.8192 108.943 34.0408 110.597 34.8812 112.45C35.2138 113.06 35.3814 113.747 35.3677 114.442C35.3529 114.822 35.2196 115.189 34.9864 115.49C34.7531 115.791 34.4317 116.012 34.0669 116.122C33.2936 116.296 32.5664 115.789 32.0901 115.4C30.988 114.494 30.0252 113.431 29.2324 112.245C29.1863 112.363 29.1402 112.48 29.089 112.593C28.4402 114.093 27.4023 115.393 26.0827 116.357C25.3243 116.925 24.4027 117.232 23.4555 117.233ZM15.1742 115.312C16.3077 115.321 17.4391 115.412 18.5594 115.584C19.2968 115.723 20.024 115.911 20.736 116.147C22.5183 116.695 24.0598 117.172 25.801 115.901C27.0449 114.993 28.0243 113.77 28.6383 112.357C28.7509 112.091 28.8585 111.845 28.9456 111.543C28.9595 111.495 28.9875 111.453 29.0258 111.421C29.0641 111.389 29.111 111.369 29.1607 111.364C29.2114 111.357 29.263 111.365 29.3093 111.387C29.3557 111.409 29.3947 111.443 29.4218 111.487C30.234 112.805 31.2584 113.98 32.4537 114.964C32.8839 115.312 33.4421 115.702 33.9901 115.584C34.2444 115.498 34.466 115.336 34.6246 115.12C34.7832 114.904 34.8711 114.644 34.8761 114.375C34.8773 113.771 34.7276 113.176 34.4408 112.644C33.6228 110.859 32.4379 109.266 30.9634 107.968L30.8148 107.835C30.2105 107.323 29.386 106.586 28.6536 106.422C28.0043 106.424 27.3602 106.537 26.7485 106.755C26.3805 106.865 26.0059 106.953 25.6269 107.016C25.5727 107.021 25.518 107.01 25.4704 106.984C25.4228 106.957 25.3845 106.916 25.3606 106.867C25.0255 106.111 24.778 105.319 24.6231 104.506C24.3312 103.267 24.0598 102.099 23.2762 101.316C22.6455 100.837 21.8646 100.599 21.074 100.645C20.1983 100.645 19.3942 100.824 19.1126 101.111C18.8309 101.398 19.7527 103.564 21.115 105.72C21.145 105.765 21.1609 105.817 21.1609 105.871C21.1609 105.925 21.145 105.978 21.115 106.022C21.0816 106.066 21.0354 106.097 20.9831 106.113C20.9307 106.128 20.8747 106.127 20.8231 106.109C20.8231 106.109 18.3392 105.326 16.4597 105.597L15.4354 105.741C13.0898 106.048 10.6674 106.365 9.84802 108.813C9.59524 109.547 9.50106 110.326 9.57169 111.098C9.64231 111.871 9.87615 112.619 10.2577 113.295L10.3397 113.448C10.7903 114.288 11.6354 115.855 12.634 115.579C13.4662 115.383 14.3197 115.294 15.1742 115.312Z" fill="#231F20"/>
<path id="Vector_76" d="M18.5603 104.905C18.5603 104.905 18.9854 115.706 18.4733 116.859C17.9611 118.011 16.3889 118.062 15.7077 117.56C15.0266 117.058 14.5144 111.599 14.5144 111.599C14.5144 111.599 14.2328 116.587 13.8589 117.294C13.1009 118.728 11.1548 118.702 10.8988 113.811C10.8988 113.811 10.8988 117.616 9.66452 117.616C8.43027 117.616 8.28175 116.592 8.15884 114.897C8.03593 113.202 7.80547 110.319 9.69525 107.896C11.585 105.474 17.9662 104.603 18.5603 104.905Z" fill="white"/>
<path id="Vector_77" d="M12.7583 118.401C12.6738 118.4 12.5895 118.39 12.5074 118.37C12.0516 118.272 11.3551 117.827 10.9454 116.147C10.7456 117.069 10.3718 117.899 9.66502 117.899C8.12861 117.899 8.01594 116.588 7.89303 114.933C7.75987 113.156 7.54478 110.242 9.46528 107.763C11.2834 105.413 17.8489 104.266 18.6837 104.691C18.7254 104.712 18.7605 104.744 18.7857 104.784C18.8109 104.824 18.8252 104.869 18.8271 104.916C18.8681 106.027 19.2368 115.809 18.7145 116.987C18.5922 117.255 18.4106 117.491 18.1834 117.678C17.9563 117.866 17.6896 117.999 17.4034 118.068C17.0923 118.154 16.7664 118.174 16.447 118.127C16.1275 118.079 15.8217 117.965 15.5495 117.791C15.1346 117.484 14.8069 115.912 14.5815 114.39C14.4586 115.712 14.2947 117.079 14.0694 117.463C13.9539 117.722 13.7716 117.945 13.5411 118.11C13.3107 118.275 13.0404 118.375 12.7583 118.401ZM10.8993 113.566C10.9665 113.566 11.0313 113.591 11.0807 113.637C11.1301 113.682 11.1604 113.745 11.1656 113.812C11.309 116.588 12.0157 117.719 12.6252 117.858C12.9837 117.934 13.3678 117.678 13.6494 117.187C13.9311 116.695 14.1616 113.504 14.2794 111.599C14.2953 111.544 14.3288 111.495 14.375 111.46C14.4213 111.425 14.4776 111.406 14.5354 111.406C14.5933 111.406 14.6496 111.425 14.6958 111.46C14.742 111.495 14.7756 111.544 14.7915 111.599C15.0322 114.16 15.5136 117.089 15.8772 117.356C16.0849 117.484 16.3171 117.566 16.5588 117.599C16.8005 117.632 17.0463 117.613 17.2805 117.545C17.4902 117.497 17.686 117.401 17.8529 117.265C18.0198 117.129 18.1533 116.957 18.2433 116.762C18.5915 115.968 18.4789 109.448 18.315 105.131C17.2446 105.044 11.5702 105.91 9.89548 108.081C8.09788 110.411 8.30274 113.202 8.43077 114.872C8.56905 116.736 8.7022 117.381 9.67526 117.381C10.3359 117.381 10.6483 115.266 10.6483 113.837C10.6476 113.803 10.6538 113.769 10.6663 113.738C10.6789 113.706 10.6976 113.677 10.7215 113.653C10.7453 113.629 10.7738 113.609 10.8052 113.596C10.8366 113.583 10.8703 113.576 10.9044 113.576L10.8993 113.566Z" fill="#231F20"/>
<path id="Vector_78" d="M20.5872 114.672H20.5258C20.4916 114.665 20.4593 114.651 20.4308 114.631C20.4023 114.611 20.3782 114.585 20.36 114.555C20.3418 114.525 20.3298 114.492 20.3249 114.458C20.3199 114.423 20.3221 114.388 20.3312 114.354C20.5842 113.193 21.1344 112.117 21.928 111.232C22.7216 110.347 23.7313 109.683 24.8584 109.305C24.9239 109.293 24.9914 109.307 25.0475 109.342C25.1036 109.378 25.1443 109.433 25.1616 109.498C25.179 109.562 25.1717 109.63 25.1411 109.689C25.1106 109.748 25.0591 109.794 24.9967 109.817C23.9602 110.168 23.0325 110.782 22.3044 111.599C21.5763 112.415 21.0729 113.407 20.8433 114.477C20.8277 114.533 20.7942 114.583 20.748 114.618C20.7017 114.653 20.6453 114.672 20.5872 114.672Z" fill="#231F20"/>
<path id="Vector_79" d="M21.9541 100.46C20.0336 99.8201 18.8352 99.9481 17.7341 101.295C17.3369 101.834 17.0466 102.444 16.8789 103.093C16.2711 105.082 15.9994 107.159 16.0748 109.238C16.0566 109.632 16.1413 110.024 16.3206 110.375C16.5169 110.651 16.7954 110.858 17.1164 110.967C17.4373 111.076 17.7844 111.08 18.108 110.979C18.7526 110.762 19.3118 110.346 19.7059 109.791C21.0016 108.147 21.4471 106.012 21.8517 103.958" fill="white"/>
<path id="Vector_80" d="M17.6393 111.297C17.3361 111.307 17.0353 111.239 16.7661 111.099C16.497 110.959 16.2685 110.752 16.1029 110.498C15.9063 110.108 15.8095 109.675 15.8212 109.238C15.7441 107.133 16.0211 105.03 16.6406 103.016C16.8171 102.336 17.1231 101.696 17.542 101.131C18.8325 99.5487 20.2768 99.5948 22.0488 100.209C22.1152 100.233 22.1697 100.281 22.2004 100.345C22.2312 100.408 22.2355 100.481 22.2126 100.547C22.2017 100.58 22.1843 100.61 22.1616 100.636C22.1389 100.662 22.1113 100.683 22.0804 100.699C22.0494 100.714 22.0157 100.723 21.9813 100.725C21.9469 100.727 21.9124 100.722 21.8798 100.711C19.9541 100.071 18.9247 100.266 17.9517 101.464C17.5767 101.976 17.3022 102.555 17.1425 103.169C16.5446 105.128 16.2764 107.172 16.3487 109.218C16.3352 109.571 16.4073 109.923 16.5587 110.242C16.7264 110.467 16.96 110.634 17.227 110.721C17.4941 110.807 17.7813 110.808 18.049 110.723C18.6425 110.526 19.1563 110.141 19.5137 109.628C20.7991 107.999 21.2242 105.822 21.6032 103.907C21.618 103.838 21.6588 103.778 21.7171 103.739C21.7753 103.7 21.8465 103.685 21.9156 103.697C21.9498 103.704 21.9822 103.717 22.0111 103.737C22.04 103.756 22.0647 103.781 22.0838 103.81C22.1029 103.839 22.1159 103.872 22.1222 103.906C22.1285 103.94 22.1279 103.975 22.1205 104.009C21.7312 105.986 21.2908 108.224 19.9285 109.955C19.5036 110.559 18.8944 111.008 18.1924 111.236C18.0115 111.28 17.8255 111.301 17.6393 111.297Z" fill="#231F20"/>
<path id="Vector_81" d="M75.3391 102.975C76.1855 101.924 77.2496 101.07 78.458 100.471C81.5052 99.1185 85.1158 100.471 87.7481 102.519C88.9926 103.477 90.1603 104.634 90.6673 106.104C91.5175 108.598 90.2986 111.323 88.7417 113.448C88.1263 114.381 87.3089 115.163 86.35 115.737C85.0978 116.335 83.6713 116.459 82.3349 116.086C81.0126 115.706 79.758 115.122 78.6168 114.355C76.8089 113.228 73.3213 111.405 72.4711 109.341C71.621 107.277 74.1304 104.368 75.3391 102.975Z" fill="#231F20"/>
<path id="Vector_82" d="M83.9694 116.557C83.3979 116.556 82.8287 116.485 82.2743 116.347C80.9261 115.958 79.6461 115.364 78.4793 114.585L77.6087 114.073C75.6626 112.905 72.9995 111.312 72.2364 109.464C71.4067 107.461 73.5014 104.711 75.1505 102.806C76.0169 101.726 77.1117 100.851 78.3564 100.245C81.0707 99.0365 84.6403 99.815 87.9077 102.33C89.5107 103.564 90.4684 104.742 90.9089 106.043C91.8563 108.808 90.366 111.676 88.9474 113.617C88.3098 114.582 87.4625 115.391 86.4686 115.983C85.6942 116.373 84.8366 116.57 83.9694 116.557ZM81.0964 100.168C80.216 100.154 79.3427 100.328 78.5357 100.68C77.3595 101.258 76.3258 102.089 75.509 103.113C74.6127 104.137 71.8779 107.292 72.682 109.259C73.3785 110.949 75.9596 112.49 77.8443 113.617L78.7252 114.155C79.8452 114.906 81.0754 115.478 82.3716 115.85C83.6467 116.215 85.0112 116.1 86.2075 115.527C87.1328 114.971 87.9206 114.213 88.5121 113.31C89.859 111.481 91.2776 108.757 90.4019 106.201C89.9922 105.003 89.0908 103.897 87.5697 102.729C85.429 101.065 83.1398 100.189 81.0964 100.189V100.168Z" fill="#231F20"/>
<path id="Vector_83" d="M69.4 112.465C70.0349 113.919 71.0439 115.179 72.3242 116.116C74.8849 117.97 77.0513 116.296 79.7656 115.845C79.7656 115.845 83.3966 115.241 85.6142 115.845C86.8843 116.193 87.8266 114.308 88.2926 113.433C88.6931 112.726 88.9381 111.942 89.0114 111.133C89.0847 110.324 88.9846 109.509 88.7177 108.742C87.6934 105.771 84.5336 105.766 81.8807 105.361C79.9141 105.059 77.3944 105.874 77.3944 105.874C77.3944 105.874 80.0677 101.638 79.361 100.937C78.6542 100.235 75.8324 100.127 74.8235 101.136C73.4356 102.524 73.5534 105.018 72.6879 106.77C71.9965 106.698 70.2603 106.027 69.5741 106.181C68.7137 106.375 67.797 107.205 67.1466 107.789C65.6438 109.111 64.4378 110.736 63.6077 112.557C63.2974 113.127 63.1387 113.767 63.1468 114.416C63.1523 114.741 63.2609 115.056 63.457 115.316C63.653 115.575 63.9263 115.766 64.2376 115.86C64.8727 115.998 65.4924 115.599 65.9942 115.189C67.2039 114.182 68.2417 112.985 69.0671 111.645C69.1633 111.924 69.2745 112.198 69.4 112.465Z" fill="white"/>
<path id="Vector_84" d="M74.8345 117.232C73.8712 117.231 72.9352 116.913 72.1714 116.326C70.8504 115.361 69.8109 114.062 69.16 112.562C69.1088 112.449 69.0627 112.336 69.0166 112.213C68.2241 113.398 67.2632 114.461 66.164 115.368C65.6826 115.757 64.9554 116.259 64.1821 116.09C63.8173 115.981 63.4958 115.76 63.2626 115.459C63.0294 115.157 62.8961 114.791 62.8812 114.41C62.8719 113.716 63.0393 113.03 63.3678 112.418C64.21 110.567 65.4313 108.913 66.9527 107.563L67.1012 107.435C67.7516 106.867 68.6376 106.093 69.498 105.899C70.0102 105.786 70.8398 106.016 71.6592 106.237C71.9768 106.324 72.284 106.411 72.5145 106.452C72.7835 105.781 72.9892 105.087 73.1291 104.378C73.4261 103.123 73.7283 101.817 74.6194 100.931C75.6949 99.8554 78.6755 99.8759 79.5308 100.731C80.2068 101.407 78.8599 103.917 77.9534 105.422C79.2384 105.073 80.5768 104.961 81.902 105.095C82.2434 105.146 82.5848 105.192 82.9262 105.233C85.3128 105.55 88.0476 105.904 88.9438 108.649C89.2214 109.451 89.3252 110.302 89.2484 111.147C89.1716 111.992 88.9159 112.811 88.4983 113.55L88.4214 113.704C87.9093 114.672 86.9311 116.474 85.5176 116.095C83.382 115.511 79.8176 116.095 79.7817 116.095C79.0693 116.231 78.3662 116.413 77.6768 116.638C76.7636 116.974 75.8059 117.174 74.8345 117.232ZM69.0883 111.353H69.119C69.1691 111.358 69.2166 111.378 69.2556 111.41C69.2947 111.442 69.3237 111.484 69.3393 111.532C69.4247 111.81 69.5274 112.082 69.6465 112.346C70.2588 113.76 71.2385 114.984 72.4838 115.89C74.2199 117.155 75.7614 116.679 77.5488 116.136C78.2589 115.899 78.9844 115.711 79.7202 115.573C79.8739 115.547 83.4332 114.963 85.6815 115.573C86.7058 115.849 87.5252 114.282 87.981 113.442L88.0629 113.289C88.4424 112.613 88.6747 111.864 88.7444 111.091C88.8141 110.319 88.7198 109.541 88.4675 108.808C87.6532 106.375 85.2257 106.057 82.8801 105.735L81.8559 105.591C79.9763 105.299 77.5181 106.078 77.4925 106.104C77.4407 106.121 77.385 106.121 77.3328 106.106C77.2806 106.09 77.2345 106.059 77.2005 106.016C77.1692 105.972 77.1524 105.919 77.1524 105.865C77.1524 105.811 77.1692 105.758 77.2005 105.714C78.5628 103.553 79.5 101.397 79.203 101.105C78.5987 100.501 75.9509 100.393 75.0393 101.31C74.2506 102.093 73.9792 103.261 73.6924 104.495C73.5365 105.31 73.2874 106.104 72.9498 106.861C72.9275 106.911 72.8902 106.951 72.8433 106.978C72.7964 107.005 72.7423 107.016 72.6886 107.01C72.3078 106.947 71.9314 106.86 71.5619 106.749C70.9512 106.534 70.3093 106.422 69.6619 106.416C68.9296 106.58 68.0999 107.302 67.4956 107.829L67.3471 107.963C65.8576 109.249 64.6584 110.838 63.8287 112.623C63.5382 113.154 63.3867 113.749 63.3882 114.354C63.3955 114.622 63.4841 114.881 63.6424 115.097C63.8007 115.313 64.0211 115.475 64.2742 115.563C64.8222 115.68 65.3805 115.291 65.8106 114.943C67.0075 113.959 68.0336 112.784 68.8476 111.466C68.8742 111.427 68.9107 111.397 68.9531 111.378C68.9955 111.359 69.0422 111.352 69.0883 111.358V111.353Z" fill="#231F20"/>
<path id="Vector_85" d="M79.7277 104.905C79.7277 104.905 79.3078 115.706 79.8148 116.859C80.3218 118.011 81.9043 118.062 82.5803 117.56C83.2564 117.058 83.7992 111.599 83.7992 111.599C83.7992 111.599 84.0809 116.587 84.4548 117.294C85.2178 118.728 87.1588 118.702 87.4149 113.811C87.4149 113.811 87.4149 117.616 88.6492 117.616C89.8834 117.616 90.0319 116.592 90.16 114.897C90.288 113.202 90.5133 110.319 88.6236 107.896C86.7338 105.474 80.3218 104.603 79.7277 104.905Z" fill="white"/>
<path id="Vector_86" d="M85.5377 118.4C85.2476 118.377 84.9695 118.274 84.7337 118.103C84.498 117.933 84.3137 117.7 84.2011 117.432C83.9194 116.43 83.7561 115.399 83.7145 114.359C83.4892 115.896 83.1614 117.432 82.7415 117.76C82.4697 117.935 82.1639 118.05 81.8443 118.098C81.5246 118.145 81.1985 118.124 80.8875 118.036C80.6017 117.967 80.3353 117.833 80.1082 117.646C79.8812 117.459 79.6994 117.223 79.5765 116.956C79.0643 115.778 79.4228 105.996 79.4638 104.885C79.4668 104.837 79.482 104.792 79.5081 104.752C79.5341 104.713 79.5701 104.681 79.6123 104.659C80.442 104.234 87.0076 105.382 88.8308 107.732C90.7564 110.221 90.5362 113.14 90.4081 114.902C90.2801 116.664 90.1828 117.898 88.631 117.898C87.9243 117.898 87.5504 117.068 87.3558 116.147C86.941 117.826 86.2445 118.272 85.7887 118.369C85.7066 118.39 85.6223 118.4 85.5377 118.4ZM83.8016 111.348C83.8682 111.349 83.9319 111.376 83.9795 111.422C84.0271 111.469 84.0551 111.532 84.0577 111.599C84.1652 113.504 84.4315 116.72 84.6876 117.186C84.9437 117.652 85.338 117.934 85.7119 117.857C86.3213 117.719 87.0229 116.587 87.1714 113.811C87.1754 113.745 87.2046 113.682 87.2532 113.636C87.3017 113.591 87.3659 113.565 87.4326 113.565C87.5019 113.565 87.5683 113.593 87.6173 113.642C87.6663 113.691 87.6938 113.757 87.6938 113.827C87.6938 115.255 88.0011 117.371 88.6618 117.371C89.6348 117.371 89.7731 116.725 89.9063 114.892C90.0343 113.192 90.2443 110.4 88.4415 108.07C86.7669 105.899 81.1078 105.028 80.022 105.12C79.8581 109.438 79.7455 115.957 80.0988 116.751C80.1885 116.947 80.3219 117.119 80.4889 117.255C80.6559 117.391 80.8518 117.486 81.0617 117.534C81.296 117.601 81.5416 117.619 81.783 117.586C82.0245 117.553 82.2566 117.471 82.4649 117.345C82.8234 117.079 83.3099 114.149 83.5507 111.589C83.5556 111.525 83.584 111.465 83.6302 111.42C83.6765 111.376 83.7375 111.35 83.8016 111.348Z" fill="#231F20"/>
<path id="Vector_87" d="M77.6995 114.672C77.6401 114.671 77.5826 114.651 77.5362 114.614C77.4898 114.576 77.4572 114.525 77.4435 114.467C77.2139 113.397 76.7104 112.405 75.9824 111.588C75.2543 110.771 74.3266 110.157 73.29 109.807C73.2255 109.785 73.1719 109.739 73.1401 109.679C73.1083 109.618 73.1009 109.548 73.1192 109.483C73.1376 109.417 73.1804 109.361 73.2389 109.326C73.2973 109.291 73.3669 109.28 73.4334 109.294C74.5599 109.673 75.5688 110.337 76.3615 111.222C77.1542 112.107 77.7035 113.183 77.9556 114.344C77.9647 114.378 77.9668 114.413 77.9619 114.447C77.9569 114.482 77.945 114.515 77.9267 114.545C77.9085 114.575 77.8844 114.6 77.8559 114.62C77.8274 114.64 77.7951 114.654 77.761 114.662L77.6995 114.672Z" fill="#231F20"/>
<path id="Vector_88" d="M76.3379 100.46C78.2584 99.8201 79.4568 99.9481 80.5528 101.295C80.952 101.833 81.2425 102.444 81.408 103.093C82.0174 105.082 82.2909 107.159 82.2172 109.238C82.2305 109.632 82.146 110.022 81.9714 110.375C81.7743 110.652 81.4949 110.859 81.173 110.968C80.8512 111.076 80.5033 111.08 80.1789 110.979C79.535 110.761 78.9761 110.345 78.581 109.791C77.2853 108.147 76.8449 106.012 76.4403 103.958" fill="white"/>
<path id="Vector_89" d="M80.6554 111.297C80.4721 111.297 80.2896 111.273 80.1126 111.225C79.4092 111 78.7992 110.551 78.3764 109.945C77.009 108.214 76.5686 105.976 76.1794 103.999C76.1672 103.93 76.1823 103.859 76.2214 103.801C76.2606 103.742 76.3208 103.702 76.3894 103.687C76.4233 103.68 76.4583 103.68 76.4922 103.687C76.5262 103.694 76.5584 103.708 76.587 103.728C76.6155 103.747 76.64 103.772 76.6588 103.801C76.6776 103.83 76.6905 103.863 76.6966 103.897C77.0756 105.812 77.5058 107.994 78.7913 109.617C79.1468 110.131 79.6588 110.515 80.2509 110.713C80.5193 110.797 80.8072 110.796 81.075 110.71C81.3427 110.624 81.5772 110.457 81.7463 110.232C81.8985 109.913 81.9689 109.561 81.9512 109.208C82.0264 107.161 81.758 105.117 81.1573 103.159C80.9977 102.545 80.7231 101.966 80.3482 101.454C79.3751 100.256 78.3457 100.061 76.4201 100.701C76.3875 100.712 76.353 100.717 76.3185 100.715C76.2841 100.713 76.2504 100.704 76.2195 100.689C76.1885 100.673 76.1609 100.652 76.1382 100.626C76.1155 100.6 76.0982 100.57 76.0872 100.537C76.076 100.504 76.0715 100.469 76.0739 100.434C76.0763 100.399 76.0856 100.364 76.1014 100.333C76.1171 100.302 76.1388 100.274 76.1654 100.251C76.192 100.228 76.2228 100.21 76.2562 100.199C78.0282 99.6103 79.4724 99.5386 80.7579 101.121C81.1802 101.684 81.4882 102.324 81.6643 103.006C82.2797 105.02 82.555 107.123 82.4787 109.228C82.4974 109.666 82.4003 110.1 82.197 110.488C82.0329 110.746 81.8043 110.956 81.5339 111.098C81.2635 111.24 80.9606 111.308 80.6554 111.297Z" fill="#231F20"/>
<path id="Vector_90" d="M96.1189 129.733H0.989691L0.267578 126.512H96.841L96.1189 129.733Z" fill="white"/>
<path id="Vector_91" d="M96.1171 130H0.987894C0.928234 130 0.870289 129.98 0.823702 129.943C0.777115 129.906 0.744693 129.853 0.731826 129.795L0.00459033 126.569C-0.00236118 126.53 -0.0014083 126.49 0.00738794 126.451C0.0161842 126.412 0.0326485 126.376 0.055807 126.343C0.081472 126.313 0.113602 126.288 0.149902 126.271C0.186202 126.254 0.225773 126.246 0.265781 126.246H96.8392C96.8792 126.246 96.9188 126.254 96.9551 126.271C96.9914 126.288 97.0235 126.313 97.0492 126.343C97.0735 126.375 97.0906 126.412 97.0994 126.45C97.1083 126.489 97.1086 126.53 97.1004 126.569L96.3731 129.795C96.3603 129.853 96.3279 129.906 96.2813 129.943C96.2347 129.98 96.1767 130 96.1171 130ZM1.20299 129.488H95.9071L96.5114 126.789H0.593547L1.20299 129.488Z" fill="#231F20"/>
<path id="Vector_92" d="M38.4964 47.4951C37.996 47.5232 37.4994 47.3924 37.0778 47.1213C34.9525 45.5849 36.2072 39.6082 36.2635 39.3573C36.2706 39.3237 36.2842 39.2918 36.3036 39.2634C36.323 39.235 36.3478 39.2108 36.3766 39.192C36.4053 39.1732 36.4375 39.1603 36.4713 39.1539C36.5051 39.1476 36.5398 39.1479 36.5734 39.155C36.607 39.1621 36.6389 39.1757 36.6673 39.1951C36.6956 39.2145 36.7199 39.2393 36.7387 39.268C36.7575 39.2968 36.7704 39.329 36.7768 39.3628C36.7831 39.3965 36.7827 39.4312 36.7757 39.4648C36.4223 41.0986 35.8487 45.5849 37.3902 46.7064C38.9318 47.828 43.8995 45.3698 45.6817 44.3301C45.7395 44.304 45.8049 44.3003 45.8653 44.3196C45.9256 44.3389 45.9767 44.38 46.0085 44.4348C46.0404 44.4896 46.0508 44.5542 46.0377 44.6163C46.0247 44.6783 45.9891 44.7333 45.9378 44.7706C45.7022 44.9037 41.2313 47.4951 38.4964 47.4951Z" fill="#231F20"/>
<path id="Vector_93" d="M48.9643 41.3935L45.7851 43.4375C45.276 43.7649 45.1287 44.443 45.456 44.9521C45.7834 45.4613 46.4615 45.6086 46.9706 45.2813L50.1497 43.2372C50.6588 42.9098 50.8062 42.2317 50.4788 41.7226C50.1515 41.2134 49.4734 41.0661 48.9643 41.3935Z" fill="#FFBB34"/>
<path id="Vector_94" d="M46.3841 45.7022C46.286 45.7021 46.1881 45.6918 46.0921 45.6715C45.8308 45.6149 45.5921 45.482 45.4062 45.2897C45.2204 45.0974 45.0957 44.8543 45.048 44.5912C45.0004 44.3281 45.0318 44.0567 45.1383 43.8114C45.2448 43.5661 45.4217 43.358 45.6466 43.2132L48.827 41.1647C49.1285 40.9704 49.4948 40.904 49.8454 40.9798C50.196 41.0557 50.502 41.2677 50.6963 41.5693C50.8905 41.8708 50.957 42.2371 50.8811 42.5877C50.8052 42.9383 50.5932 43.2443 50.2917 43.4386L47.1113 45.4871C46.895 45.6281 46.6422 45.7028 46.3841 45.7022ZM49.5593 41.4668C49.3978 41.4667 49.2396 41.513 49.1035 41.6L45.9231 43.6485C45.7399 43.7654 45.6094 43.9491 45.5595 44.1607C45.5344 44.2686 45.5314 44.3806 45.5508 44.4897C45.5701 44.5989 45.6114 44.703 45.6722 44.7957C45.7877 44.9813 45.9717 45.1138 46.1843 45.1645C46.2927 45.1877 46.4046 45.1893 46.5136 45.169C46.6226 45.1488 46.7265 45.1072 46.8194 45.0467L49.9997 42.9981C50.0932 42.9388 50.1739 42.8616 50.2372 42.7708C50.3006 42.68 50.3452 42.5776 50.3685 42.4694C50.3919 42.3612 50.3935 42.2494 50.3733 42.1406C50.353 42.0318 50.3114 41.9281 50.2507 41.8356C50.1346 41.6516 49.9506 41.5209 49.7386 41.472C49.6792 41.463 49.619 41.4613 49.5593 41.4668Z" fill="#FFBB34"/>
<path id="Vector_95" d="M52.7541 70.1626C53.2548 70.1626 53.6606 69.7567 53.6606 69.2561C53.6606 68.7555 53.2548 68.3496 52.7541 68.3496C52.2535 68.3496 51.8477 68.7555 51.8477 69.2561C51.8477 69.7567 52.2535 70.1626 52.7541 70.1626Z" fill="#231F20"/>
<path id="Vector_96" d="M25.9831 82.8628H25.9268C25.8927 82.8566 25.8602 82.8438 25.8311 82.8249C25.802 82.8061 25.777 82.7817 25.7575 82.7531C25.7379 82.7245 25.7243 82.6923 25.7173 82.6584C25.7103 82.6244 25.7101 82.5895 25.7168 82.5555C25.7475 82.3711 25.9012 81.6132 26.1265 80.5069C26.8281 77.0449 28.129 70.6074 28.6308 67.8777C28.6474 67.8134 28.6878 67.7579 28.7438 67.7223C28.7999 67.6867 28.8673 67.6738 28.9325 67.6862C28.9977 67.6986 29.0558 67.7354 29.0949 67.789C29.1339 67.8426 29.1511 67.9091 29.143 67.975C28.6308 70.7098 27.3403 77.1525 26.6386 80.6145L26.2289 82.663C26.2155 82.7187 26.1842 82.7683 26.1397 82.8044C26.0953 82.8405 26.0403 82.861 25.9831 82.8628Z" fill="#231F20"/>
<path id="Vector_97" d="M37.1031 86.0226C40.271 86.0226 42.839 83.4546 42.839 80.2867C42.839 77.1188 40.271 74.5508 37.1031 74.5508C33.9353 74.5508 31.3672 77.1188 31.3672 80.2867C31.3672 83.4546 33.9353 86.0226 37.1031 86.0226Z" fill="#231F20"/>
<path id="Vector_98" d="M33.4532 77.5782L33.6171 77.2453L33.7093 77.0763C33.7261 77.0396 33.7555 77.0102 33.7921 76.9933C33.8287 76.9763 33.8702 76.9731 33.909 76.9841L34.1856 77.0661C34.2334 77.0851 34.2832 77.0988 34.3341 77.107C34.3688 77.12 34.407 77.12 34.4416 77.107C34.5646 77.02 34.6823 76.9227 34.795 76.8305C34.8157 76.8123 34.8313 76.789 34.8403 76.763C34.8493 76.737 34.8513 76.709 34.8462 76.682L34.8155 76.3337C34.8079 76.2879 34.8079 76.2412 34.8155 76.1954C34.823 76.1619 34.8432 76.1325 34.8718 76.1135C35.06 76.0238 35.2601 75.9617 35.4659 75.9291C35.4969 75.9249 35.5284 75.9305 35.556 75.9452C35.5836 75.9599 35.6058 75.983 35.6196 76.0111C35.681 76.1186 35.7425 76.221 35.7988 76.3337C35.8167 76.3746 35.846 76.4094 35.8833 76.434C35.9205 76.4585 35.9641 76.4717 36.0088 76.472L36.3826 76.5027C36.4058 76.5052 36.4292 76.5018 36.4507 76.4929C36.4722 76.4839 36.491 76.4697 36.5055 76.4515L36.6592 76.2671C36.7053 76.2159 36.7514 76.1596 36.7975 76.1135C36.8178 76.0867 36.8469 76.068 36.8797 76.0605C36.9124 76.053 36.9468 76.0573 36.9767 76.0725L37.4889 76.3286C37.5184 76.3455 37.5415 76.3718 37.5545 76.4034C37.5675 76.4349 37.5696 76.4698 37.5606 76.5027C37.5606 76.6 37.5042 76.6922 37.4786 76.7844C37.4643 76.8281 37.4523 76.8725 37.4428 76.9175C37.4344 76.9457 37.4334 76.9754 37.4396 77.0041C37.4459 77.0327 37.4593 77.0593 37.4786 77.0814C37.5606 77.1787 37.6425 77.276 37.7193 77.3785C37.7413 77.4085 37.771 77.432 37.8052 77.4464C37.8395 77.4609 37.8771 77.4657 37.9139 77.4604L38.2929 77.4245C38.335 77.4153 38.379 77.4231 38.4154 77.4461C38.4518 77.4691 38.4777 77.5055 38.4875 77.5475C38.5387 77.7062 38.5899 77.865 38.636 78.0186C38.6548 78.0635 38.6552 78.1139 38.6369 78.159C38.6187 78.2041 38.5834 78.2401 38.5387 78.2593L38.3236 78.3771C38.2712 78.4029 38.2215 78.4338 38.1751 78.4693C38.1533 78.4807 38.1347 78.4975 38.1213 78.5181C38.1078 78.5388 38.0999 78.5625 38.0983 78.5871C38.0983 78.7202 38.0983 78.8483 38.0624 78.9763C38.0585 79.0116 38.064 79.0472 38.0784 79.0796C38.0928 79.112 38.1156 79.14 38.1444 79.1607L38.339 79.3143L38.4568 79.4168C38.4823 79.4415 38.4991 79.4738 38.5047 79.5089C38.5102 79.544 38.5042 79.58 38.4875 79.6114L38.2571 80.0518C38.2428 80.0745 38.2256 80.0952 38.2058 80.1133C38.1889 80.1369 38.1649 80.1545 38.1373 80.1637C38.1097 80.1729 38.0799 80.1732 38.0522 80.1645L37.7244 80.0672H37.6988C37.6538 80.0493 37.6045 80.0451 37.5572 80.0551C37.5098 80.0651 37.4664 80.0889 37.4325 80.1235C37.3608 80.1901 37.2789 80.2515 37.2021 80.313C37.1668 80.3402 37.1396 80.3765 37.1233 80.418C37.1071 80.4595 37.1024 80.5046 37.1099 80.5486C37.1099 80.6612 37.1099 80.7739 37.1457 80.8866C37.1816 80.9993 37.1457 81.0505 37.0126 81.0914L36.5004 81.24C36.4823 81.2475 36.4628 81.2513 36.4432 81.2512C36.4236 81.2512 36.4041 81.2472 36.386 81.2396C36.3679 81.232 36.3515 81.2208 36.3378 81.2068C36.324 81.1928 36.3131 81.1762 36.3058 81.158C36.2546 81.0761 36.2085 80.989 36.1624 80.9019C36.0651 80.7176 36.0344 80.6971 35.8295 80.6817H35.5837C35.545 80.6773 35.5057 80.6829 35.4698 80.6982C35.4339 80.7135 35.4025 80.7378 35.3789 80.7688C35.3174 80.8456 35.2611 80.9224 35.1996 80.9941C35.1663 81.0308 35.1303 81.0651 35.0921 81.0966C35.0725 81.11 35.0492 81.1172 35.0255 81.1172C35.0017 81.1172 34.9785 81.11 34.9589 81.0966C34.8053 81.0146 34.6465 80.9378 34.4929 80.8507L34.4365 80.8098C34.4123 80.7933 34.3941 80.7694 34.3849 80.7416C34.3756 80.7138 34.3758 80.6838 34.3853 80.6561C34.416 80.5486 34.4468 80.441 34.4826 80.3284C34.4826 80.2976 34.4826 80.2618 34.4826 80.231C34.49 80.2037 34.4906 80.1749 34.4844 80.1472C34.4781 80.1196 34.4652 80.0938 34.4468 80.0723C34.3699 79.9801 34.288 79.8879 34.2112 79.7906C34.19 79.7628 34.1616 79.7414 34.1291 79.7288C34.0966 79.7161 34.0612 79.7127 34.0268 79.7189L33.6888 79.7548C33.5454 79.7548 33.4993 79.7548 33.4583 79.6011C33.4174 79.4475 33.361 79.2887 33.3201 79.13C33.3119 79.1112 33.3076 79.091 33.3076 79.0705C33.3076 79.0501 33.3118 79.0298 33.32 79.0111C33.3282 78.9923 33.3401 78.9755 33.3551 78.9616C33.3701 78.9476 33.3878 78.937 33.4071 78.9302C33.4993 78.879 33.5966 78.8227 33.699 78.7766C33.746 78.7557 33.7863 78.7221 33.8152 78.6796C33.8442 78.637 33.8607 78.5873 33.8629 78.5359C33.8629 78.4181 33.8629 78.3003 33.8885 78.1825C33.8919 78.1586 33.889 78.1341 33.88 78.1117C33.871 78.0892 33.8563 78.0695 33.8373 78.0545L33.571 77.8343C33.507 77.7919 33.4599 77.7285 33.4379 77.655L33.4532 77.5782ZM37.0689 78.6998C37.0882 78.5543 37.0784 78.4065 37.0401 78.2649C37.0017 78.1232 36.9356 77.9906 36.8455 77.8748C36.7555 77.759 36.6432 77.6623 36.5154 77.5902C36.3876 77.5182 36.2467 77.4723 36.101 77.4553C35.8106 77.426 35.5203 77.5106 35.291 77.6911C35.0618 77.8717 34.9115 78.1341 34.8718 78.4232C34.8354 78.7136 34.9151 79.0066 35.0934 79.2387C35.2717 79.4707 35.5344 79.623 35.8244 79.6626C35.9697 79.6834 36.1176 79.6748 36.2595 79.6373C36.4014 79.5999 36.5343 79.5343 36.6504 79.4445C36.7665 79.3547 36.8633 79.2425 36.9352 79.1146C37.0071 78.9867 37.0526 78.8456 37.0689 78.6998Z" fill="white"/>
<path id="Vector_99" d="M36.4072 82.4066C36.4431 82.3144 36.4738 82.2171 36.5045 82.1249C36.5353 82.0327 36.5404 82.0327 36.5609 81.9866C36.5703 81.9559 36.5906 81.9297 36.6179 81.9127C36.6452 81.8958 36.6777 81.8893 36.7094 81.8944L36.9347 81.9303C36.9739 81.9331 37.0133 81.9331 37.0525 81.9303C37.0672 81.9319 37.0821 81.9304 37.0962 81.926C37.1102 81.9216 37.1233 81.9143 37.1345 81.9047C37.2215 81.8227 37.3035 81.7357 37.3854 81.6486C37.3953 81.6305 37.4004 81.6103 37.4004 81.5897C37.4004 81.5691 37.3953 81.5489 37.3854 81.5308C37.3854 81.4386 37.3444 81.3516 37.3291 81.2594C37.3215 81.2239 37.3215 81.1873 37.3291 81.1518C37.3293 81.1387 37.3326 81.1257 37.3389 81.1142C37.3451 81.1026 37.354 81.0927 37.3649 81.0852C37.5009 80.9924 37.6515 80.9232 37.8105 80.8804C37.8339 80.8721 37.8594 80.8722 37.8827 80.8806C37.906 80.889 37.9258 80.9052 37.9385 80.9265C37.9948 81.0033 38.0563 81.0801 38.1126 81.1621C38.1302 81.1918 38.156 81.2159 38.1868 81.2313C38.2177 81.2467 38.2524 81.2529 38.2868 81.2491H38.5889C38.6065 81.2484 38.6237 81.2433 38.6388 81.2344C38.654 81.2255 38.6668 81.2129 38.676 81.1979L38.7835 81.0392C38.8091 80.9931 38.8399 80.947 38.8706 80.9009C38.8845 80.8781 38.906 80.8609 38.9313 80.8525C38.9566 80.844 38.9841 80.8448 39.0089 80.8548L39.4186 81.0033C39.4452 81.0126 39.4676 81.0312 39.4817 81.0556C39.4958 81.0801 39.5007 81.1087 39.4954 81.1365C39.4954 81.2133 39.4698 81.2901 39.4596 81.3618V81.4693C39.4565 81.4928 39.4591 81.5167 39.4671 81.539C39.4751 81.5612 39.4883 81.5813 39.5056 81.5974C39.5773 81.6691 39.6542 81.7357 39.7207 81.8074C39.7418 81.8284 39.768 81.8437 39.7967 81.8518C39.8254 81.8599 39.8556 81.8604 39.8846 81.8535L40.1765 81.7869C40.1923 81.7804 40.2092 81.7773 40.2262 81.7777C40.2432 81.7781 40.2599 81.7821 40.2754 81.7893C40.2908 81.7965 40.3045 81.8069 40.3157 81.8197C40.3269 81.8325 40.3353 81.8475 40.3404 81.8637C40.3968 81.9815 40.4531 82.0993 40.5043 82.2171C40.5144 82.2335 40.5211 82.2517 40.5239 82.2707C40.5268 82.2897 40.5258 82.3092 40.5211 82.3278C40.5163 82.3464 40.5078 82.3639 40.4961 82.3792C40.4844 82.3945 40.4698 82.4073 40.4531 82.4168L40.2995 82.5295C40.2598 82.5556 40.2221 82.5847 40.1868 82.6165C40.1718 82.629 40.1599 82.6447 40.1519 82.6624C40.1439 82.6802 40.1401 82.6995 40.1407 82.719C40.1407 82.8214 40.1407 82.9238 40.1407 83.0262C40.1422 83.0542 40.1505 83.0813 40.1648 83.1054C40.179 83.1295 40.1989 83.1497 40.2226 83.1645L40.3916 83.2618L40.4941 83.3335C40.5173 83.3483 40.5346 83.3707 40.543 83.3969C40.5514 83.4231 40.5504 83.4514 40.5402 83.4769L40.4019 83.8508L40.3712 83.902C40.3593 83.922 40.3417 83.938 40.3208 83.948C40.2998 83.958 40.2764 83.9616 40.2534 83.9583L39.987 83.9122C39.9497 83.9018 39.91 83.903 39.8733 83.9158C39.8367 83.9287 39.8049 83.9524 39.7822 83.9839L39.6234 84.1529C39.597 84.1769 39.578 84.2081 39.5689 84.2426C39.5598 84.2772 39.561 84.3136 39.5722 84.3475L39.6337 84.6087C39.6337 84.7009 39.6337 84.7368 39.5466 84.7777C39.4266 84.8402 39.3035 84.8966 39.1779 84.9468C39.1507 84.9615 39.1188 84.9649 39.0891 84.9562C39.0593 84.9476 39.0342 84.9276 39.0191 84.9007C38.9679 84.8443 38.9269 84.7777 38.8808 84.7163C38.8347 84.6548 38.763 84.5678 38.594 84.578H38.3994C38.3695 84.5793 38.3403 84.588 38.3144 84.6031C38.2885 84.6183 38.2667 84.6396 38.2509 84.6651C38.2099 84.7317 38.1741 84.7982 38.1331 84.8597C38.1133 84.8948 38.0873 84.9261 38.0563 84.9519C38.0451 84.9677 38.0289 84.9792 38.0104 84.9848C37.9918 84.9904 37.9719 84.9896 37.9539 84.9826L37.5647 84.8341C37.5455 84.8277 37.5281 84.8172 37.5134 84.8033C37.4938 84.7927 37.4781 84.776 37.4689 84.7556C37.4596 84.7353 37.4573 84.7125 37.4622 84.6907C37.4622 84.6036 37.4878 84.5114 37.5032 84.4244C37.5186 84.3373 37.5032 84.3732 37.5032 84.3424C37.505 84.3206 37.5018 84.2986 37.4938 84.2782C37.4858 84.2578 37.4733 84.2394 37.4571 84.2246L37.2471 84.03C37.2274 84.0103 37.2028 83.9961 37.1758 83.9889C37.1488 83.9817 37.1204 83.9818 37.0935 83.9891L36.8323 84.0505C36.7145 84.0505 36.6787 84.0505 36.6274 83.9481L36.4738 83.5947C36.4593 83.5661 36.4565 83.533 36.466 83.5023C36.4756 83.4717 36.4968 83.4461 36.525 83.4308L36.735 83.2823C36.771 83.2611 36.8002 83.2301 36.8192 83.1929C36.8383 83.1558 36.8464 83.1139 36.8425 83.0723V82.7958C36.8426 82.7766 36.8379 82.7577 36.829 82.7408C36.8201 82.7238 36.8071 82.7093 36.7913 82.6985L36.5557 82.55C36.5005 82.5237 36.4568 82.4781 36.4328 82.4219L36.4072 82.4066ZM39.3622 82.9187C39.3622 82.8026 39.3393 82.6876 39.2947 82.5804C39.2501 82.4732 39.1848 82.3759 39.1024 82.294C39.0201 82.2121 38.9224 82.1474 38.8149 82.1034C38.7075 82.0594 38.5924 82.0371 38.4763 82.0378C38.2452 82.0431 38.0253 82.1379 37.8629 82.3023C37.7005 82.4666 37.6082 82.6876 37.6056 82.9187C37.607 83.1505 37.6997 83.3725 37.8636 83.5365C38.0275 83.7004 38.2495 83.7931 38.4814 83.7944C38.5972 83.7965 38.7122 83.7753 38.8197 83.7321C38.9272 83.6889 39.0249 83.6245 39.107 83.5429C39.1892 83.4612 39.2541 83.3639 39.2979 83.2567C39.3418 83.1494 39.3636 83.0345 39.3622 82.9187Z" fill="white"/>
<path id="Vector_100" d="M68.2712 79.2783H54.8789V82.1258H68.2712V79.2783Z" fill="white"/>
</g>
</svg>
