<svg width="24" height="20" viewBox="0 0 24 20" fill="none" xmlns="http://www.w3.org/2000/svg">
<g id="Logo">
<g id="Icon">
<path id="Vector" d="M19.205 0.000291888C19.1673 -0.000260779 19.1293 0.000107682 19.0916 0.000291888C18.3638 0.00950268 17.6114 0.190035 16.8708 0.547582C15.7154 1.10558 14.4886 2.18582 13.7304 3.31341C13.4248 3.76806 13.2564 4.09929 13.0797 4.59371C12.7975 5.38383 12.7636 5.68023 12.7551 7.42623C12.7478 8.92983 12.739 9.07442 12.629 9.46221C12.3558 10.4264 12.0265 10.8943 10.6071 12.3369L9.45642 13.5064L10.2716 14.3258L11.4067 13.1819C12.0311 12.5528 12.6963 11.9298 12.8851 11.7974C13.3606 11.4638 13.6507 11.3227 14.1741 11.1701C14.7998 10.9879 15.5077 10.9279 16.4214 10.9796C18.6026 11.1032 19.9375 10.6125 21.4564 9.1286C22.5642 8.04614 23.2367 6.97009 23.5633 5.75794C23.7163 5.18962 23.7259 4.02387 23.5818 3.49908C23.3498 2.65426 22.9538 1.96417 22.3523 1.35755C21.4767 0.474244 20.3756 0.014058 19.205 5.15408e-05L19.205 0.000291888ZM19.1937 0.555505C19.8659 0.555689 19.971 0.569322 20.3552 0.703983C20.5876 0.78541 20.9438 0.950101 21.1471 1.07002C21.5744 1.32204 22.274 2.00421 22.5668 2.45478C23.731 4.24539 23.2137 6.58051 21.1998 8.62424C20.2876 9.54994 19.4383 10.0495 18.4172 10.261C17.833 10.382 16.681 10.369 16.1396 10.2354C14.6136 9.85849 13.5947 8.63843 13.4092 6.96647C13.265 5.6659 13.633 4.31246 14.4106 3.28357C15.0528 2.43394 16.269 1.43198 17.1778 1.00386C17.9356 0.646846 18.3483 0.555106 19.1937 0.555657L19.1937 0.555505ZM19.413 1.03173L19.3826 1.37658L19.352 1.72144L18.8513 1.73691C18.2781 1.7546 18.2231 1.72162 18.2083 1.353C18.2006 1.16178 18.1962 1.17044 18.1687 1.42945L18.1377 1.72126L17.637 1.73673C17.206 1.74999 17.1266 1.73876 17.0665 1.65715C17.0002 1.56688 16.994 1.56688 16.9441 1.65512C16.9154 1.70615 16.8395 1.75036 16.7755 1.75331C16.6683 1.75828 16.6696 1.76141 16.7913 1.79549C16.9218 1.83197 16.9232 1.83897 16.9232 2.4139V2.99529H15.8673L15.8367 2.67696C15.8099 2.39916 15.8048 2.38774 15.7971 2.58762C15.783 2.95237 15.7221 3.02071 15.4036 3.02937L15.1284 3.03674L15.4023 3.07027C15.553 3.08869 15.6915 3.11909 15.71 3.13769C15.7751 3.20309 15.7967 4.07443 15.7361 4.18827C15.6814 4.29088 15.6384 4.29807 15.1652 4.28406L14.6534 4.26896L14.6217 4.03021C14.6011 3.87565 14.5872 3.84415 14.5821 3.94087C14.5713 4.14351 14.4838 4.29475 14.3744 4.29973C14.302 4.30304 14.2997 4.30967 14.3631 4.33233C14.5242 4.39018 14.5742 4.52945 14.5742 4.91943C14.5742 5.45752 14.5361 5.51373 14.1633 5.52585L13.8615 5.5358L14.1518 5.55459C14.5264 5.57891 14.5742 5.64523 14.5742 6.14004C14.5742 6.69322 14.5427 6.73449 14.1104 6.74684L13.7557 6.75697L14.0988 6.77521C14.3405 6.78811 14.4615 6.81942 14.508 6.88132C14.5839 6.98246 14.5978 7.73114 14.526 7.84532C14.5003 7.88584 14.388 7.93687 14.276 7.95861L14.0726 7.99821L14.2687 8.00429C14.5122 8.01185 14.5707 8.10856 14.5835 8.52433C14.5929 8.82847 14.5934 8.82718 14.6231 8.43498L14.6532 8.03689L15.165 8.02178C15.6431 8.0076 15.6809 8.01423 15.7379 8.12108C15.8055 8.248 15.7894 9.03518 15.7177 9.10738C15.6937 9.13151 15.5156 9.16559 15.3219 9.18291L14.9698 9.21441L15.3245 9.2227C15.7034 9.23154 15.7791 9.2857 15.7958 9.55927C15.8 9.62687 15.8178 9.58671 15.8354 9.46992L15.8675 9.2577H16.9234L16.9465 9.60256C16.9614 9.82417 16.9757 9.88109 16.9867 9.76172C16.996 9.65948 17.0167 9.49755 17.0323 9.40176L17.0609 9.22749L18.1377 9.2577L18.1683 9.57603C18.1978 9.88202 18.1995 9.8846 18.2079 9.64659C18.2229 9.22602 18.2158 9.23099 18.805 9.23099C19.299 9.23099 19.3315 9.23781 19.3726 9.34944L19.4162 9.46808L19.4536 9.34944C19.4741 9.28423 19.5311 9.2297 19.5798 9.22804C19.6513 9.22602 19.6454 9.20888 19.55 9.14201C19.4422 9.06648 19.4312 9.01619 19.4319 8.60095C19.4323 8.34913 19.4521 8.11223 19.4759 8.07465C19.5074 8.02454 19.6594 8.01035 20.0426 8.02159L20.5661 8.03688L20.5967 8.35521C20.6262 8.6612 20.6279 8.66396 20.6363 8.42577C20.6502 8.03523 20.6711 8.01127 21.0072 8.00059L21.3052 7.99101L21.0426 7.97056C20.8982 7.95933 20.7498 7.92488 20.7127 7.89411C20.6425 7.83553 20.6149 7.03731 20.6774 6.87353C20.7036 6.805 20.8036 6.78952 21.2253 6.78952C21.7724 6.78952 21.8296 6.81292 21.8737 7.0548C21.894 7.16588 21.8992 7.15906 21.9052 7.01335C21.9096 6.90577 21.9455 6.82637 21.999 6.80574C22.0789 6.77497 22.0788 6.76724 21.997 6.70718C21.9224 6.65247 21.9109 6.55889 21.9235 6.11877L21.9388 5.59539L22.5721 5.53681L21.9388 5.48928V4.37475L22.678 4.32685L21.9388 4.26864L21.9237 3.71579C21.9072 3.11431 21.9208 3.0828 22.2028 3.0679C22.3381 3.06072 22.3304 3.05482 22.1501 3.02719L21.9389 2.99495L21.8785 2.25181L21.8691 2.5729C21.864 2.74957 21.8314 2.92255 21.7964 2.95773C21.7559 2.99845 21.549 3.02147 21.2213 3.02147C20.8034 3.02147 20.7038 3.006 20.6775 2.93747C20.6178 2.78107 20.6425 1.93108 20.7089 1.86459C20.7437 1.82958 20.916 1.79643 21.0917 1.7909L21.4111 1.78095L21.0961 1.76142C20.7369 1.73913 20.6484 1.68645 20.6387 1.48934C20.633 1.37567 20.6257 1.38433 20.5991 1.53576L20.5665 1.72145L20.0728 1.73674C19.7541 1.74669 19.5529 1.73011 19.5052 1.69032C19.4603 1.65292 19.4277 1.51126 19.4222 1.32999L19.413 1.03137L19.413 1.03173ZM17.377 1.80784C17.4457 1.80728 17.5308 1.80913 17.6371 1.81244L18.1377 1.82792V2.9955L17.6259 3.01061C17.1621 3.02442 17.1088 3.01595 17.0583 2.92126C16.9792 2.77241 16.9874 2.00183 17.0695 1.88888C17.112 1.8303 17.1708 1.80931 17.377 1.80784ZM18.5913 1.80784C18.66 1.80728 18.7451 1.80913 18.8514 1.81244L19.352 1.82792V2.9955L18.8495 3.01042C18.5039 3.02074 18.3269 3.00508 18.282 2.95995C18.1929 2.87042 18.1942 2.01194 18.2836 1.8889C18.3261 1.83032 18.385 1.80932 18.5911 1.80784L18.5913 1.80784ZM19.8564 1.80986C19.9207 1.80913 19.9931 1.80986 20.0728 1.81244L20.5665 1.82773V2.99532L20.0318 3.01024C19.5791 3.02295 19.4919 3.01208 19.4642 2.9395C19.4462 2.89234 19.4314 2.64364 19.4314 2.38702C19.4314 2.05174 19.4521 1.90288 19.5052 1.8585C19.541 1.82866 19.6632 1.81189 19.8564 1.80968L19.8564 1.80986ZM20.0206 3.07233C20.2592 3.07473 20.4958 3.10089 20.5356 3.14897C20.5753 3.19723 20.5915 3.40613 20.5817 3.74601L20.5665 4.26883L20.064 4.28375C19.7184 4.29406 19.5413 4.27841 19.4964 4.23327C19.4089 4.14522 19.4074 3.22617 19.4948 3.13827C19.5417 3.09111 19.7822 3.06956 20.0208 3.07195L20.0206 3.07233ZM18.7931 3.07491C19.1285 3.07491 19.2771 3.09573 19.3211 3.14897C19.3608 3.19723 19.377 3.40613 19.3673 3.74601L19.352 4.26882L18.8402 4.28393C18.3764 4.29775 18.3231 4.28927 18.2726 4.19459C18.201 4.05992 18.2002 3.31142 18.2715 3.17735C18.3192 3.08782 18.3855 3.07474 18.7931 3.07474L18.7931 3.07491ZM21.2612 3.07491C21.8479 3.07491 21.8598 3.08689 21.8598 3.68521C21.8598 4.28353 21.8479 4.2955 21.2612 4.2955C20.9512 4.2955 20.749 4.27211 20.7089 4.23176C20.669 4.1916 20.6455 3.99007 20.6455 3.68518C20.6455 3.3803 20.6688 3.17878 20.7089 3.1386C20.749 3.09825 20.9514 3.07485 21.2612 3.07485V3.07491ZM17.572 3.07565C17.8251 3.0762 18.0626 3.09591 18.1 3.11968C18.15 3.15155 18.1639 3.30923 18.1528 3.71582L18.1377 4.26868L17.6259 4.28378C17.1621 4.2976 17.1087 4.28913 17.0583 4.19444C16.9867 4.05978 16.9859 3.31128 17.0572 3.1772C17.1049 3.08767 17.1706 3.07459 17.572 3.07533L17.572 3.07565ZM16.422 3.07675C16.637 3.07952 16.8465 3.09462 16.8858 3.11986C16.9359 3.15173 16.9498 3.30942 16.9386 3.71601L16.9236 4.26886L16.4195 4.28379C16.1422 4.29208 15.8986 4.28213 15.8783 4.26168C15.8579 4.24123 15.8413 3.98038 15.8413 3.68175C15.8413 3.23576 15.8561 3.13333 15.9248 3.10683C15.9866 3.08306 16.2071 3.07367 16.422 3.07643L16.422 3.07675ZM21.2613 4.34861C21.8446 4.34861 21.8598 4.36335 21.8598 4.9324C21.8598 5.50145 21.8448 5.51619 21.2613 5.51619C20.9512 5.51619 20.7491 5.4928 20.709 5.45245C20.6696 5.41284 20.6455 5.21665 20.6455 4.93242C20.6455 4.64819 20.6694 4.45195 20.709 4.41239C20.7491 4.37204 20.9514 4.34861 21.2613 4.34861ZM17.3771 4.35524C17.4458 4.35469 17.5308 4.35653 17.6371 4.35985L18.1378 4.37532V5.48985L17.6259 5.50495C17.1621 5.51877 17.1088 5.5103 17.0584 5.41561C16.9796 5.2675 16.9876 4.54886 17.0695 4.43648C17.1121 4.37789 17.1709 4.35689 17.3771 4.35542V4.35524ZM18.5914 4.35524C18.6601 4.35469 18.7451 4.35653 18.8514 4.35985L19.3521 4.37532V5.48985L18.8402 5.50495C18.3764 5.51877 18.3231 5.5103 18.2727 5.41561C18.1939 5.2675 18.2019 4.54886 18.2838 4.43648C18.3264 4.37789 18.3852 4.35689 18.5914 4.35542V4.35524ZM15.3687 4.35542C15.7737 4.35211 15.7761 4.41861 15.7761 4.93238C15.7761 5.51174 15.7715 5.51617 15.1816 5.51617C14.8112 5.51617 14.6696 5.49738 14.65 5.4458C14.6351 5.40711 14.63 5.15031 14.6384 4.87526L14.6538 4.37513L15.1695 4.35984C15.245 4.35781 15.311 4.35578 15.3689 4.35523L15.3687 4.35542ZM19.8564 4.35727C19.9207 4.35653 19.9931 4.35727 20.0729 4.35985L20.5665 4.37514L20.5817 4.90144C20.5929 5.28683 20.5788 5.43934 20.529 5.47104C20.4201 5.54049 19.5672 5.52501 19.4948 5.45243C19.4008 5.35793 19.4096 4.48603 19.5053 4.40605C19.541 4.3762 19.6633 4.35948 19.8564 4.35727ZM15.8679 4.37514H16.9239V5.48966L16.4082 5.50477C16.0112 5.51656 15.8861 5.50348 15.865 5.44766C15.8498 5.40787 15.8443 5.15034 15.8527 4.87529L15.8681 4.37515L15.8679 4.37514ZM15.6843 5.56536L15.7409 5.71328C15.8226 5.92642 15.7803 6.62295 15.6819 6.68558C15.5859 6.74656 14.7848 6.75153 14.6912 6.69184C14.6413 6.66016 14.6272 6.50744 14.6384 6.12224L14.6536 5.59594L15.1689 5.58083L15.6842 5.56554L15.6843 5.56536ZM21.2615 5.56923C21.8449 5.56923 21.8601 5.58396 21.8601 6.15302C21.8601 6.72205 21.845 6.73681 21.2615 6.73681C20.9514 6.73681 20.7493 6.71341 20.7092 6.67307C20.6698 6.63346 20.6458 6.43727 20.6458 6.15304C20.6458 5.86879 20.6696 5.67257 20.7092 5.633C20.7493 5.59266 20.9516 5.56923 21.2615 5.56923ZM17.3773 5.57586C17.446 5.5753 17.531 5.57715 17.6373 5.58046L18.138 5.59594L18.1532 6.12224C18.1644 6.50763 18.1503 6.66015 18.1004 6.69184C18.0631 6.7156 17.8241 6.7355 17.5692 6.73605C17.1202 6.73679 17.1044 6.73273 17.0544 6.60065C16.98 6.4039 16.9904 5.76597 17.0698 5.65689C17.1123 5.5983 17.1711 5.57733 17.3773 5.57586ZM18.5916 5.57586C18.6603 5.5753 18.7453 5.57715 18.8516 5.58046L19.3523 5.59594L19.3675 6.12224C19.3787 6.50763 19.3646 6.66015 19.3147 6.69184C19.2774 6.7156 19.0397 6.7355 18.7866 6.73605C18.3852 6.73679 18.3194 6.72371 18.2718 6.63418C18.1937 6.48754 18.2027 5.76856 18.2841 5.65688C18.3266 5.5983 18.3854 5.57733 18.5916 5.57586ZM19.8566 5.57788C19.921 5.57715 19.9934 5.57788 20.0731 5.58046L20.5668 5.59575L20.582 6.09202C20.5919 6.41237 20.5754 6.61464 20.5358 6.66256C20.4563 6.75872 19.5889 6.76775 19.4948 6.67324C19.4008 6.57874 19.4096 5.70684 19.5053 5.62686C19.541 5.59701 19.6633 5.58025 19.8564 5.57804L19.8566 5.57788ZM15.8681 5.59575H16.9241L16.9393 6.12206C16.9505 6.50744 16.9364 6.65996 16.8865 6.69165C16.8491 6.71542 16.6285 6.73495 16.3961 6.73495C16.1638 6.73495 15.9431 6.71542 15.9057 6.69165C15.8559 6.65997 15.8418 6.50725 15.8529 6.12206L15.8681 5.59575ZM15.449 6.79574C15.664 6.79647 15.6959 6.82024 15.7386 6.90056C15.8274 7.06746 15.7846 7.84097 15.6829 7.90563C15.5865 7.96697 14.7856 7.97232 14.6914 7.91226C14.6416 7.88058 14.6274 7.72786 14.6386 7.34266L14.6538 6.81636L15.1657 6.80125C15.2852 6.79775 15.3774 6.79555 15.449 6.79574ZM17.3432 6.79574C17.4149 6.79555 17.5069 6.79758 17.6265 6.80126L18.1384 6.81637L18.1536 7.34267C18.1648 7.72806 18.1506 7.88058 18.1008 7.91227C18.0066 7.97232 17.2059 7.96698 17.1093 7.90564C17.0076 7.84098 16.9648 7.06747 17.0536 6.90057C17.0963 6.82043 17.1282 6.79666 17.3432 6.79574ZM18.6425 6.7985C18.7068 6.79776 18.7792 6.7985 18.8589 6.80108L19.3526 6.81637L19.3678 7.31263C19.3777 7.63299 19.3612 7.83526 19.3217 7.88317C19.2302 7.99389 18.4125 7.9867 18.3005 7.87415C18.1885 7.76159 18.1812 6.93944 18.2913 6.84747C18.3271 6.81763 18.4493 6.80087 18.6425 6.79865L18.6425 6.7985ZM19.8568 6.7985C19.9211 6.79776 19.9935 6.7985 20.0732 6.80108L20.5669 6.81637L20.5821 7.31263C20.592 7.63299 20.5755 7.83526 20.536 7.88317C20.4445 7.99389 19.6268 7.9867 19.5148 7.87415C19.4028 7.76159 19.3955 6.93944 19.5056 6.84747C19.5414 6.81763 19.6636 6.80087 19.8568 6.79865L19.8568 6.7985ZM15.8683 6.81637H16.9243L16.9395 7.34267C16.9506 7.72806 16.9365 7.88058 16.8867 7.91227C16.8493 7.93603 16.6287 7.95556 16.3963 7.95556C16.1639 7.95556 15.9433 7.93603 15.9059 7.91227C15.856 7.88058 15.8419 7.72786 15.8531 7.34267L15.8683 6.81637ZM17.4381 8.01729C17.4964 8.01748 17.5625 8.01914 17.6377 8.02153L18.1384 8.03701L18.1536 8.56331C18.1648 8.9487 18.1506 9.10122 18.1008 9.13291C18.0634 9.15667 17.8378 9.17657 17.5994 9.17712C17.2207 9.17786 17.1522 9.16312 17.0582 9.0618C16.9735 8.97043 16.9506 8.96361 16.9506 9.02956C16.9506 9.0758 16.9131 9.12793 16.8671 9.14562C16.7435 9.19333 15.9846 9.1832 15.9059 9.13291C15.856 9.10122 15.8419 8.9485 15.8531 8.56331L15.8683 8.037H16.9243L16.984 8.88626L16.9937 8.53809C17.0062 8.09044 17.03 8.01655 17.4383 8.01749L17.4381 8.01729ZM18.6425 8.01895C18.7068 8.01822 18.7792 8.01895 18.8589 8.02153L19.3526 8.03682L19.3678 8.56313C19.379 8.94851 19.3649 9.10103 19.3151 9.13272C19.2777 9.15649 19.0528 9.17638 18.8153 9.17694C18.4924 9.17749 18.3627 9.15667 18.3005 9.09441C18.1886 8.98185 18.1812 8.1597 18.2914 8.06773C18.3271 8.03789 18.4494 8.02117 18.6425 8.01895ZM8.93347 13.8847L7.52894 15.2278H9.52704L9.82319 14.8585L8.93347 13.8847ZM6.84299 15.8647L6.12773 16.6196L8.15755 16.6609L8.87281 15.9061L6.84299 15.8648V15.8647ZM5.41209 17.2975L4.67867 18.0405H6.84318L7.5766 17.2975H5.41209ZM4.07811 18.6773C3.99216 18.8007 3.81128 18.9411 3.80469 19.0979C3.80469 19.3295 4.38967 19.9236 4.69241 19.9998C4.70157 20.0024 4.76095 19.9762 4.82436 19.9423C4.97243 19.8633 6.12751 18.7818 6.12751 18.7223L4.0779 18.6773L4.07811 18.6773Z" fill="#3B4650"/>
<path id="Vector_2" d="M4.51808 0.000380154C3.34741 0.014381 2.24655 0.474573 1.37093 1.35788C0.769673 1.96449 0.37343 2.65459 0.141436 3.49941C-0.00260684 4.02425 0.00692146 5.19018 0.160129 5.75827C0.486698 6.97061 1.15928 8.04647 2.26708 9.12893C3.78576 10.6128 5.12063 11.1037 7.30198 10.9801C8.21574 10.9284 8.92364 10.9882 9.5493 11.1706C9.73714 11.2253 9.89457 11.2789 10.0415 11.3401L11.3051 10.0672C11.2236 9.87982 11.1571 9.68455 11.0942 9.46258C10.9842 9.0748 10.9755 8.93019 10.9681 7.42659C10.9597 5.68059 10.9258 5.38434 10.6436 4.59408C10.4671 4.09965 10.2985 3.76821 9.99281 3.31378C9.23447 2.18619 8.00788 1.10594 6.85242 0.547949C6.11205 0.190383 5.3594 0.00985482 4.63165 0.000658641C4.59372 0.000105974 4.55597 0.000105974 4.51821 0.000658641L4.51808 0.000380154ZM4.52944 0.555593C5.37485 0.555041 5.78751 0.646966 6.54533 1.0038C7.45412 1.43192 8.67043 2.43387 9.31256 3.2835C10.0901 4.31216 10.4583 5.66583 10.3139 6.96641C10.1284 8.63856 9.10932 9.85863 7.58332 10.2353C7.04197 10.3691 5.88997 10.382 5.30574 10.2609C4.28459 10.0495 3.4352 9.54987 2.52313 8.62417C0.509445 6.58045 -0.00788506 4.24547 1.15635 2.45472C1.44921 2.00412 2.14851 1.32212 2.57609 1.06996C2.77933 0.950032 3.13579 0.785341 3.36797 0.703919C3.75209 0.569254 3.85729 0.555809 4.52949 0.555441L4.52944 0.555593ZM4.31008 1.03255L4.30091 1.33043C4.29542 1.5117 4.2628 1.65337 4.2179 1.69076C4.17025 1.73055 3.96903 1.74695 3.65032 1.73718L3.15664 1.72189L3.12402 1.5362C3.09744 1.38496 3.09011 1.3763 3.08443 1.48978C3.07454 1.68708 2.9862 1.73976 2.62701 1.76187L2.31199 1.78139L2.63141 1.79134C2.80716 1.79687 2.97924 1.83003 3.01425 1.86503C3.08041 1.93153 3.10533 2.78154 3.04559 2.93792C3.01938 3.00645 2.91968 3.02192 2.50184 3.02192C2.17417 3.02192 1.96743 2.99907 1.92676 2.95818C1.89194 2.92318 1.85914 2.75001 1.854 2.57334L1.84466 2.25225L1.78418 2.9954L1.57306 3.02763C1.39273 3.05527 1.38504 3.06116 1.52028 3.06835C1.80232 3.08327 1.81588 3.11477 1.79939 3.71623L1.78436 4.26908L1.04508 4.3273L1.78436 4.37519V5.48972L1.15101 5.53725L1.78436 5.59583L1.79957 6.11921C1.8124 6.55949 1.80067 6.65287 1.72608 6.70763C1.64435 6.76768 1.64435 6.77542 1.72407 6.80618C1.77758 6.82681 1.8135 6.90621 1.8179 7.01379C1.82395 7.15951 1.82908 7.16633 1.84942 7.05524C1.89359 6.81336 1.95095 6.78997 2.49778 6.78997C2.91947 6.78997 3.01934 6.80526 3.04556 6.87397C3.10805 7.03774 3.08038 7.83594 3.01019 7.89456C2.97317 7.9255 2.82473 7.95995 2.68032 7.97101L2.41771 7.99145L2.71569 8.00103C3.0518 8.0119 3.07269 8.03567 3.08661 8.42621C3.09522 8.66422 3.09669 8.66146 3.1262 8.35547L3.1568 8.03714L3.68037 8.02185C4.06375 8.01061 4.21548 8.0248 4.24701 8.0749C4.27065 8.11248 4.29063 8.34939 4.29099 8.60121C4.29172 9.01644 4.28073 9.06673 4.17297 9.14227C4.07749 9.20933 4.07163 9.22609 4.1431 9.2283C4.19203 9.22996 4.24866 9.28449 4.26937 9.3497L4.30675 9.46834L4.35037 9.3497C4.39142 9.23788 4.42386 9.23125 4.91795 9.23125C5.50696 9.23125 5.49997 9.22628 5.51503 9.64685C5.52364 9.88486 5.52511 9.88209 5.55462 9.57629L5.58522 9.25778L6.66206 9.22757L6.69083 9.40183C6.70659 9.49763 6.72712 9.65974 6.73646 9.7618C6.74746 9.88117 6.76175 9.82425 6.7766 9.60263L6.79969 9.25778H7.85565L7.8879 9.47C7.90549 9.58679 7.92327 9.62695 7.92749 9.55934C7.94416 9.28578 8.01985 9.23162 8.39884 9.22277L8.75327 9.21448L8.40122 9.18298C8.20752 9.16567 8.02939 9.13177 8.00538 9.10745C7.93373 9.03524 7.9176 8.24806 7.98522 8.12115C8.04221 8.01412 8.07996 8.00767 8.55829 8.02186L9.07013 8.03696L9.10037 8.43506C9.13005 8.82726 9.1306 8.82855 9.13995 8.5244C9.15278 8.10862 9.21124 8.01191 9.45479 8.00437L9.65088 7.99829L9.44746 7.95868C9.33549 7.93694 9.22315 7.88592 9.19768 7.84539C9.12584 7.73117 9.13958 6.98251 9.21546 6.8814C9.262 6.8195 9.38295 6.78818 9.62468 6.77529L9.96774 6.75705L9.61332 6.74692C9.18101 6.73439 9.14948 6.69313 9.14948 6.14011C9.14948 5.64531 9.19731 5.579 9.5719 5.55467L9.86219 5.53588L9.56054 5.52593C9.1876 5.51377 9.14948 5.45759 9.14948 4.9195C9.14948 4.52951 9.19951 4.39022 9.3606 4.33241C9.42401 4.30956 9.42181 4.30312 9.34924 4.2998C9.23983 4.29464 9.15223 4.14358 9.14142 3.94094C9.13629 3.84423 9.12236 3.87573 9.10183 4.03029L9.07013 4.26903L8.55829 4.28414C8.0851 4.29814 8.04204 4.29096 7.98743 4.18835C7.92677 4.0745 7.94821 3.20313 8.01327 3.13777C8.03178 3.11916 8.17033 3.08876 8.32097 3.07034L8.59475 3.03682L8.3195 3.02926C8.00099 3.0206 7.94015 2.95226 7.92603 2.58751C7.91834 2.38781 7.91321 2.39923 7.88645 2.67685L7.85566 2.99518H6.7997V2.41379C6.7997 1.83887 6.80117 1.83203 6.93165 1.79539C7.05352 1.7613 7.0548 1.75817 6.94741 1.7532C6.88345 1.75025 6.80776 1.70604 6.779 1.65501C6.72933 1.56677 6.7231 1.56696 6.65658 1.65704C6.59647 1.73883 6.51693 1.74989 6.0859 1.73662L5.58523 1.72115L5.55426 1.42935C5.52677 1.17015 5.52237 1.16149 5.51467 1.35289C5.50001 1.72151 5.44485 1.75431 4.87161 1.7368L4.37093 1.72133L4.34033 1.37647L4.31008 1.03255ZM5.13184 1.80791C5.33801 1.8092 5.39665 1.83038 5.43935 1.88896C5.52878 2.01202 5.53025 2.87046 5.441 2.96001C5.39629 3.00496 5.21907 3.02081 4.87342 3.01049L4.37092 2.99557V1.82798L4.87178 1.81251C4.97807 1.80919 5.06311 1.80754 5.13184 1.80791ZM6.34614 1.80791C6.5523 1.8092 6.61095 1.83038 6.65365 1.88896C6.73575 2.0017 6.744 2.77246 6.66465 2.92134C6.61425 3.01603 6.56092 3.0245 6.09707 3.01069L5.58523 2.99558V1.828L6.08609 1.81252C6.19238 1.80921 6.27741 1.80754 6.34614 1.80791ZM3.86678 1.80993C4.05994 1.81233 4.18217 1.82891 4.21809 1.85875C4.27124 1.90297 4.29176 2.052 4.29176 2.38727C4.29176 2.64407 4.2771 2.89259 4.25896 2.93975C4.23129 3.01233 4.14405 3.0232 3.69138 3.01049L3.15665 2.99557V1.82798L3.65033 1.81269C3.73005 1.8103 3.80226 1.80938 3.86658 1.81012L3.86678 1.80993ZM3.70258 3.0724C3.94118 3.07001 4.18144 3.09138 4.22835 3.13872C4.31559 3.22641 4.3143 4.14568 4.2267 4.23372C4.18199 4.27867 4.00477 4.29452 3.65913 4.2842L3.15662 4.26928L3.14141 3.74646C3.13151 3.40658 3.14764 3.19766 3.18759 3.14942C3.22736 3.10134 3.46395 3.07518 3.70258 3.07278V3.0724ZM2.46172 3.07498C2.7718 3.07498 2.97394 3.09838 3.01405 3.13872C3.054 3.17888 3.07746 3.38042 3.07746 3.68531C3.07746 3.99018 3.05419 4.19171 3.01405 4.23189C2.97392 4.27223 2.7716 4.29563 2.46172 4.29563C1.8751 4.29563 1.86318 4.28366 1.86318 3.68533C1.86318 3.08701 1.8751 3.07504 2.46172 3.07504V3.07498ZM4.92987 3.07498C5.33744 3.07498 5.40362 3.08806 5.45142 3.17759C5.52289 3.3117 5.52198 4.06019 5.45032 4.19483C5.39993 4.28952 5.3466 4.29799 4.88275 4.28417L4.37091 4.26907L4.35569 3.74625C4.3458 3.40637 4.36193 3.19746 4.40188 3.14921C4.44586 3.09597 4.59449 3.07516 4.92986 3.07516L4.92987 3.07498ZM6.15092 3.07572C6.55227 3.07498 6.61806 3.08806 6.66572 3.17759C6.73719 3.31171 6.73646 4.06019 6.6648 4.19483C6.61441 4.28952 6.56108 4.29799 6.09723 4.28418L5.58539 4.26907L5.57036 3.71621C5.55918 3.30964 5.57311 3.15195 5.62314 3.12007C5.66052 3.0963 5.89803 3.07641 6.15112 3.07604L6.15092 3.07572ZM7.3009 3.07682C7.51587 3.07406 7.73652 3.08346 7.79811 3.10722C7.86664 3.13375 7.88167 3.23636 7.88167 3.68215C7.88167 3.98058 7.86499 4.2416 7.84465 4.26207C7.82431 4.28252 7.58076 4.29247 7.30349 4.28418L6.79934 4.26925L6.78431 3.7164C6.77314 3.30983 6.78706 3.15213 6.83709 3.12025C6.87649 3.0952 7.08578 3.07991 7.30093 3.07714L7.3009 3.07682ZM2.46163 4.34868C2.77171 4.34868 2.97385 4.37207 3.01396 4.41242C3.05336 4.45203 3.07737 4.64822 3.07737 4.93245C3.07737 5.21668 3.05355 5.41292 3.01396 5.45248C2.97383 5.49283 2.7715 5.51622 2.46163 5.51622C1.87829 5.51622 1.86309 5.50149 1.86309 4.93243C1.86309 4.36338 1.87812 4.34868 2.46163 4.34868ZM5.13174 4.35531C5.33791 4.3566 5.39656 4.37778 5.43926 4.43637C5.52099 4.54874 5.52906 5.26756 5.45025 5.4155C5.39986 5.51019 5.34653 5.51866 4.88268 5.50485L4.37084 5.48974V4.37521L4.8717 4.35974C4.97799 4.35642 5.06302 4.35476 5.13175 4.35513L5.13174 4.35531ZM6.34604 4.35531C6.55221 4.3566 6.61085 4.37778 6.65356 4.43637C6.73529 4.54874 6.74336 5.26756 6.66455 5.4155C6.61416 5.51019 6.56083 5.51866 6.09698 5.50485L5.58513 5.48974V4.37521L6.086 4.35974C6.19229 4.35642 6.27732 4.35476 6.34605 4.35513L6.34604 4.35531ZM8.35442 4.35549C8.41233 4.35605 8.47831 4.35789 8.55381 4.3601L9.0695 4.37539L9.08489 4.87552C9.09332 5.15056 9.08801 5.40734 9.07335 5.44606C9.05374 5.49764 8.91208 5.51643 8.54171 5.51643C7.95161 5.51643 7.9472 5.51201 7.9472 4.93264C7.9472 4.41883 7.94977 4.35234 8.35459 4.35569L8.35442 4.35549ZM3.86673 4.35734C4.05989 4.35973 4.18213 4.37631 4.21804 4.40616C4.31371 4.48611 4.32251 5.35803 4.22849 5.45254C4.1561 5.52531 3.30319 5.5406 3.19435 5.47115C3.1445 5.43946 3.13039 5.28674 3.14157 4.90155L3.15678 4.37524L3.65046 4.35995C3.73018 4.35756 3.80241 4.3566 3.86673 4.35734ZM6.79948 4.37521H7.85544L7.87083 4.87534C7.87926 5.15037 7.87376 5.40791 7.85855 5.44772C7.83729 5.50335 7.71231 5.51643 7.31537 5.50482L6.79968 5.48972V4.93247L6.79948 4.37521ZM8.03906 5.56543L8.55419 5.58072L9.0695 5.59582L9.08471 6.12213C9.09589 6.50751 9.08178 6.66003 9.03193 6.69172C8.9381 6.75159 8.13708 6.74644 8.04123 6.68546C7.94282 6.62283 7.90067 5.92628 7.9824 5.71317L8.03906 5.56543ZM2.46182 5.5693C2.7719 5.5693 2.97403 5.59269 3.01415 5.63304C3.05355 5.67264 3.07756 5.86884 3.07756 6.15307C3.07756 6.43732 3.05373 6.63353 3.01415 6.6731C2.97401 6.71344 2.77169 6.73684 2.46182 6.73684C1.87848 6.73684 1.86328 6.7221 1.86328 6.15305C1.86328 5.58402 1.87831 5.5693 2.46182 5.5693ZM5.13193 5.57593C5.3381 5.57722 5.39674 5.5984 5.43945 5.65699C5.52063 5.76862 5.52961 6.4878 5.45154 6.63428C5.40389 6.72381 5.3381 6.73689 4.93674 6.73615C4.68366 6.7356 4.44597 6.71589 4.40858 6.69194C4.35873 6.66026 4.34462 6.50754 4.3558 6.12234L4.37101 5.59604L4.87187 5.58057C4.97816 5.57725 5.06321 5.57556 5.13193 5.57593ZM6.34623 5.57593C6.5524 5.57722 6.61104 5.5984 6.65374 5.65699C6.7331 5.76604 6.74354 6.40419 6.66914 6.60075C6.61929 6.73265 6.60335 6.73689 6.15434 6.73615C5.89961 6.7356 5.66047 6.71589 5.62308 6.69194C5.57323 6.66025 5.55912 6.50753 5.5703 6.12234L5.58551 5.59604L6.08637 5.58056C6.19266 5.57725 6.27769 5.57559 6.34642 5.57596L6.34623 5.57593ZM3.86687 5.57795C4.06003 5.58035 4.18227 5.59693 4.21818 5.62677C4.31385 5.70672 4.32265 6.57865 4.22863 6.67316C4.13462 6.76766 3.26725 6.75882 3.18787 6.66247C3.14829 6.61458 3.13198 6.4123 3.14169 6.09193L3.1569 5.59567L3.65059 5.58038C3.7303 5.57798 3.80251 5.57706 3.86683 5.5778L3.86687 5.57795ZM6.79962 5.59582H7.85558L7.87079 6.12213C7.88197 6.50751 7.86786 6.66003 7.81801 6.69172C7.78062 6.71549 7.55998 6.73502 7.32761 6.73502C7.09524 6.73502 6.87477 6.71549 6.83739 6.69172C6.78755 6.66004 6.77343 6.50732 6.78461 6.12213L6.79962 5.59582ZM6.3805 6.79581C6.59546 6.79654 6.62735 6.82049 6.67005 6.90063C6.75893 7.06753 6.71605 7.84104 6.61434 7.9057C6.51794 7.96704 5.71709 7.97239 5.62289 7.91233C5.57304 7.88064 5.55893 7.72793 5.57011 7.34273L5.58532 6.81643L6.09716 6.80132C6.21665 6.79782 6.30884 6.79562 6.3805 6.79581ZM8.2745 6.79581C8.34615 6.79562 8.43833 6.79765 8.55782 6.80133L9.06966 6.81644L9.08487 7.34274C9.09605 7.72813 9.08194 7.88065 9.03209 7.91234C8.9379 7.97239 8.13705 7.96705 8.04064 7.90571C7.93893 7.84105 7.89605 7.06753 7.98511 6.90064C8.02781 6.8205 8.05953 6.79673 8.2745 6.79581ZM3.86689 6.79857C4.06005 6.80096 4.18229 6.81754 4.2182 6.84739C4.32835 6.93931 4.32101 7.76149 4.20904 7.87406C4.09707 7.98663 3.27938 7.99399 3.18789 7.88309C3.14831 7.83519 3.132 7.63292 3.14171 7.31255L3.15692 6.81628L3.65061 6.80099C3.73032 6.7986 3.80253 6.79768 3.86685 6.79841L3.86689 6.79857ZM5.08119 6.79857C5.27435 6.80096 5.39658 6.81754 5.4325 6.84739C5.54264 6.93931 5.53531 7.76149 5.42334 7.87406C5.31137 7.98663 4.49367 7.99399 4.40219 7.88309C4.36261 7.83519 4.3463 7.63292 4.35601 7.31255L4.37122 6.81628L4.8649 6.80099C4.94462 6.7986 5.01683 6.79768 5.08115 6.79841L5.08119 6.79857ZM6.79964 6.81644H7.8556L7.87081 7.34274C7.88199 7.72813 7.86787 7.88065 7.81803 7.91234C7.78064 7.9361 7.55999 7.95563 7.32763 7.95563C7.09526 7.95563 6.87479 7.9361 6.83741 7.91234C6.78756 7.88065 6.77345 7.72793 6.78463 7.34274L6.79964 6.81644ZM6.28578 8.01755C6.69408 8.01645 6.7179 8.09032 6.73037 8.53815L6.74008 8.88632L6.76995 8.4617L6.79964 8.03708H7.8556L7.87081 8.56338C7.88199 8.94877 7.86788 9.10129 7.81803 9.13298C7.73905 9.18327 6.98037 9.1934 6.85684 9.14569C6.81084 9.128 6.77328 9.07569 6.77328 9.02963C6.77328 8.96369 6.75037 8.9705 6.6657 9.06187C6.57169 9.16337 6.50315 9.17793 6.12454 9.17719C5.88612 9.17664 5.66034 9.15693 5.62297 9.13298C5.57312 9.10129 5.55901 8.94857 5.57019 8.56338L5.5854 8.03708L6.08627 8.0216C6.1614 8.01921 6.22756 8.01755 6.28584 8.01737L6.28578 8.01755ZM5.08119 8.01921C5.27435 8.02161 5.39658 8.03819 5.4325 8.06803C5.54264 8.15995 5.53531 8.98213 5.42334 9.0947C5.36121 9.15715 5.23147 9.17797 4.90854 9.17723C4.67104 9.17668 4.44617 9.15697 4.4088 9.13302C4.35896 9.10133 4.34485 8.94861 4.35603 8.56342L4.37124 8.03712L4.86492 8.02183C4.94464 8.01943 5.01686 8.01847 5.08119 8.01921ZM13.4902 12.7177L12.6727 13.5413L13.4517 14.3265C13.7233 14.0533 13.9951 13.7801 14.267 13.5071L13.4902 12.7177ZM14.7901 13.8847L13.9003 14.8585L14.1965 15.2278H16.1946L14.7901 13.8847ZM16.8806 15.8647L14.8507 15.9059L15.566 16.6609L17.5958 16.6196L16.8806 15.8647ZM16.147 17.2975L16.8804 18.0405H19.0449L18.3115 17.2975H16.147ZM19.6454 18.6773L17.5958 18.7223C17.5958 18.782 18.7509 19.8633 18.8989 19.9424C18.9623 19.9763 19.0217 20.002 19.0309 19.9998C19.3336 19.9238 19.9186 19.3295 19.9186 19.0981C19.912 18.9413 19.7313 18.801 19.6452 18.6775L19.6454 18.6773Z" fill="#3B4650"/>
</g>
<path id="Vector 1" d="M20.863 11.6367L3.7793 11.6721L5.49474 14.148L3.7793 16.6946H20.863L19.1829 14.148L20.863 11.6367Z" fill="#3B4650"/>
<g id="MPR">
<path d="M9.18178 12.1318H10.7114V12.2407H10.3963V16.0332H10.7114V16.1421H8.96408V16.0332H9.27917V12.4527H9.25625L8.39691 16.1421H7.6808L6.67251 12.4355H6.64959V16.0332H6.96468V16.1421H6.18555V16.0332H6.50064V12.2407H6.18555V12.1318H7.73236L8.4943 15.0822L9.18178 12.1318Z" fill="white"/>
<path d="M10.9397 12.1318H12.624C13.2007 12.1318 13.6303 12.2159 13.913 12.3839C14.1956 12.5481 14.3369 12.8441 14.3369 13.2719C14.3369 13.7455 14.165 14.072 13.8213 14.2515C13.5005 14.4158 13.0517 14.4979 12.475 14.4979H12.4292V16.0332H13.1453V16.1421H10.9397V16.0332H11.312V12.2407H10.9397V12.1318ZM12.4292 12.2407V14.389H12.5495C12.7786 14.389 12.9371 14.3107 13.025 14.1541C13.1128 13.9976 13.1568 13.7436 13.1568 13.3922V13.1172C13.1568 12.7926 13.1147 12.5653 13.0307 12.4355C12.9505 12.3056 12.8016 12.2407 12.5839 12.2407H12.4292Z" fill="white"/>
<path d="M16.3637 14.114H16.0601V16.0332H16.4325V16.1421H14.5706V16.0332H14.943V12.2407H14.5706V12.1318H16.3007C16.7972 12.1318 17.1486 12.1586 17.3549 12.212C17.5649 12.2617 17.712 12.3228 17.796 12.3954C17.9793 12.5443 18.071 12.7811 18.071 13.1058C18.071 13.4304 17.9908 13.6634 17.8304 13.8047C17.6699 13.9422 17.4255 14.0243 17.0971 14.051V14.0682C17.4064 14.1102 17.6222 14.2019 17.7444 14.3432C17.8666 14.4845 17.9277 14.7213 17.9277 15.0536V15.3572C17.9277 15.5558 17.9373 15.6895 17.9564 15.7582C17.9793 15.827 18.0251 15.8614 18.0939 15.8614C18.1626 15.8614 18.2161 15.8308 18.2543 15.7697C18.2963 15.7048 18.3345 15.5711 18.3689 15.3687L18.4663 15.3801C18.4243 15.7048 18.3498 15.9225 18.2428 16.0332C18.1397 16.144 17.9316 16.1994 17.6184 16.1994C17.3052 16.1994 17.0818 16.1268 16.9481 15.9817C16.8182 15.8327 16.7533 15.5558 16.7533 15.151V14.7328C16.7533 14.5189 16.7247 14.3623 16.6674 14.263C16.6139 14.1637 16.5127 14.114 16.3637 14.114ZM16.0601 12.2407V14.0052H16.2434C16.4611 14.0052 16.6215 13.9384 16.7247 13.8047C16.8316 13.671 16.8851 13.4533 16.8851 13.1516V12.9854C16.8851 12.6837 16.8335 12.4851 16.7304 12.3896C16.6311 12.2903 16.4707 12.2407 16.2492 12.2407H16.0601Z" fill="white"/>
</g>
</g>
</svg>
