<svg width="82" height="83" viewBox="0 0 82 83" fill="none" xmlns="http://www.w3.org/2000/svg">
<g id="Vector" opacity="0.1">
<path d="M93.4247 72.5276C92.9003 72.2343 92.1595 71.8015 91.2418 71.218C89.407 70.0512 86.8611 68.2793 83.9209 65.8105C78.0401 60.8725 70.5707 53.1369 64.0695 41.8766C57.5683 30.6162 54.6038 20.2796 53.2678 12.7178C52.5999 8.93707 52.3383 5.84634 52.2453 3.67394C52.1987 2.58743 52.1944 1.72954 52.2025 1.12865C52.2066 0.828171 52.2386 0.221269 52.2453 0.0525879C43.0288 -0.370425 33.5872 1.75056 25.0042 6.70596C16.4262 11.6585 9.87114 18.7693 5.62904 26.9565L6.5732 27.4728C7.09767 27.7661 7.83842 28.1989 8.75611 28.7824C10.591 29.9492 13.1368 31.7211 16.077 34.1899C21.9578 39.1278 29.4272 46.8635 35.9284 58.1238C42.4296 69.3842 45.3941 79.7208 46.7301 87.2826C47.3981 91.0633 47.6597 94.1541 47.7527 96.3265C47.7992 97.413 47.8036 98.2709 47.7954 98.8717V99.9493C56.999 100.364 66.4255 98.2421 74.9958 93.294C83.565 88.3466 90.1153 81.2453 94.3578 73.0688L93.4247 72.5276Z" fill="white"/>
<path d="M40.2922 99.0407C40.2985 98.5732 40.301 97.5856 40.2608 96.6472C40.1804 94.7699 39.9505 92.0101 39.3457 88.5873C38.1364 81.7421 35.431 72.2598 29.4343 61.8732C23.4376 51.4866 16.5784 44.4026 11.255 39.9326C8.59308 37.6975 6.31797 36.1185 4.73237 35.1102C3.93984 34.6062 3.08378 34.1148 2.67571 33.8865C-1.80104 47.0518 -0.793134 62.007 6.70596 74.9958C14.205 87.9845 26.6525 96.335 40.2922 99.0407Z" fill="white"/>
<path d="M59.7058 0.958885C59.6994 1.42642 59.697 2.41483 59.7372 3.35317C59.8175 5.23047 60.0475 7.99031 60.6522 11.4131C61.8616 18.2583 64.5669 27.7405 70.5636 38.1272C76.5604 48.5138 83.4196 55.5978 88.743 60.0677C91.4049 62.3029 93.68 63.8819 95.2656 64.8902C96.0581 65.3941 96.9158 65.8865 97.3239 66.1148C101.801 52.9492 100.793 37.9934 93.294 25.0042C85.7946 12.0148 73.3463 3.66419 59.7058 0.958885Z" fill="white"/>
</g>
</svg>
