<svg width="20" height="21" viewBox="0 0 20 21" fill="none" xmlns="http://www.w3.org/2000/svg">
<path id="Vector" d="M18.7948 12.0483C18.3811 11.4046 17.9673 10.7839 17.5536 10.1402C17.4617 10.0023 17.4617 9.9103 17.5536 9.7724C17.9673 9.15167 18.3582 8.53111 18.7719 7.91039C19.2548 7.17469 19.0019 6.46209 18.1743 6.16333C17.4846 5.91045 16.7949 5.63464 16.1054 5.38177C15.9675 5.33575 15.8986 5.24386 15.8986 5.08287C15.8756 4.32426 15.8296 3.56561 15.7836 2.83007C15.7376 2.0254 15.117 1.56568 14.3353 1.77253C13.5996 1.95645 12.864 2.16331 12.1514 2.37018C11.9905 2.4162 11.8986 2.37018 11.7836 2.25521C11.3239 1.65755 10.841 1.08285 10.3813 0.508143C9.87558 -0.135527 9.09402 -0.135527 8.56533 0.508143C8.10561 1.08285 7.62277 1.65755 7.18595 2.23226C7.07098 2.39326 6.95601 2.41619 6.77225 2.37016C6.05966 2.16331 5.34702 1.97939 4.84128 1.84148C3.85287 1.61153 3.25505 2.00247 3.20903 2.82989C3.16301 3.5885 3.11715 4.34715 3.09406 5.12871C3.09406 5.2897 3.02511 5.35866 2.8872 5.42761C2.17461 5.70341 1.46197 5.97936 0.749381 6.25518C0.0136757 6.55408 -0.216125 7.2667 0.220693 7.93328C0.634398 8.57695 1.04827 9.19767 1.46197 9.8413C1.55386 9.97921 1.55386 10.0712 1.46197 10.2321C1.02516 10.8758 0.611451 11.5194 0.197581 12.1862C-0.193198 12.8069 0.0596766 13.5424 0.74934 13.8184C1.46193 14.0942 2.19764 14.3702 2.91027 14.646C3.07127 14.692 3.11713 14.7839 3.11713 14.9449C3.14006 15.6806 3.2321 16.3932 3.2321 17.1287C3.2321 17.8644 3.87577 18.531 4.77231 18.2552C5.48491 18.0252 6.19754 17.8644 6.91014 17.6575C7.04804 17.6115 7.14008 17.6346 7.23196 17.7725C7.7148 18.3702 8.17452 18.9449 8.65719 19.5426C9.18588 20.1863 9.94449 20.1863 10.4503 19.5426C10.9331 18.945 11.3928 18.3703 11.8755 17.7725C11.9674 17.6575 12.0365 17.6115 12.1973 17.6575C12.933 17.8644 13.6686 18.0483 14.4043 18.2552C15.1629 18.462 15.8066 18.0023 15.8295 17.2208C15.8755 16.4621 15.9214 15.7035 15.9445 14.9219C15.9445 14.738 16.0364 14.6691 16.1744 14.623C16.8641 14.3702 17.5767 14.0943 18.2664 13.8184C19.0018 13.4505 19.2317 12.715 18.7949 12.0482L18.7948 12.0483ZM13.3006 8.2782L8.703 12.8758C8.58803 12.9908 8.42719 13.0827 8.26619 13.1058C8.22017 13.1058 8.15121 13.1287 8.10519 13.1287C7.89833 13.1287 7.66837 13.0368 7.50754 12.8758L5.62242 10.9907C5.3006 10.6689 5.3006 10.1402 5.62242 9.81837C5.94425 9.49654 6.47295 9.49654 6.79478 9.81837L8.08208 11.1057L12.0821 7.10568C12.4039 6.78385 12.9326 6.78385 13.2544 7.10568C13.6224 7.42767 13.6224 7.95636 13.3006 8.27816L13.3006 8.2782Z" fill="#027333"/>
</svg>
