<svg width="71" height="71" viewBox="0 0 71 71" fill="none" xmlns="http://www.w3.org/2000/svg">
<g id="circles" opacity="0.1">
<circle id="dot" cx="3.32625" cy="35.2577" r="3.32625" transform="rotate(-90 3.32625 35.2577)" fill="#FAFBFF"/>
<circle id="dot_2" cx="3.32625" cy="51.4667" r="3.32625" transform="rotate(-90 3.32625 51.4667)" fill="#FAFBFF"/>
<circle id="dot_3" cx="3.32625" cy="67.6737" r="3.32625" transform="rotate(-90 3.32625 67.6737)" fill="#FAFBFF"/>
<circle id="dot_4" cx="3.32625" cy="19.2919" r="3.32625" transform="rotate(-90 3.32625 19.2919)" fill="#FAFBFF"/>
<circle id="dot_5" cx="3.32625" cy="3.32609" r="3.32625" transform="rotate(-90 3.32625 3.32609)" fill="#FAFBFF"/>
<circle id="dot_6" cx="19.2923" cy="35.2577" r="3.32625" transform="rotate(-90 19.2923 35.2577)" fill="#FAFBFF"/>
<circle id="dot_7" cx="19.2923" cy="51.4667" r="3.32625" transform="rotate(-90 19.2923 51.4667)" fill="#FAFBFF"/>
<circle id="dot_8" cx="19.2923" cy="67.6737" r="3.32625" transform="rotate(-90 19.2923 67.6737)" fill="#FAFBFF"/>
<circle id="dot_9" cx="19.2923" cy="19.2919" r="3.32625" transform="rotate(-90 19.2923 19.2919)" fill="#FAFBFF"/>
<circle id="dot_10" cx="19.2923" cy="3.32609" r="3.32625" transform="rotate(-90 19.2923 3.32609)" fill="#FAFBFF"/>
<circle id="dot_11" cx="35.2579" cy="35.2577" r="3.32625" transform="rotate(-90 35.2579 35.2577)" fill="#FAFBFF"/>
<circle id="dot_12" cx="35.2579" cy="51.4667" r="3.32625" transform="rotate(-90 35.2579 51.4667)" fill="#FAFBFF"/>
<circle id="dot_13" cx="35.2579" cy="67.6737" r="3.32625" transform="rotate(-90 35.2579 67.6737)" fill="#FAFBFF"/>
<circle id="dot_14" cx="35.2579" cy="19.2919" r="3.32625" transform="rotate(-90 35.2579 19.2919)" fill="#FAFBFF"/>
<circle id="dot_15" cx="35.2579" cy="3.32609" r="3.32625" transform="rotate(-90 35.2579 3.32609)" fill="#FAFBFF"/>
<circle id="dot_16" cx="51.2247" cy="35.2577" r="3.32625" transform="rotate(-90 51.2247 35.2577)" fill="#FAFBFF"/>
<circle id="dot_17" cx="51.2247" cy="51.4667" r="3.32625" transform="rotate(-90 51.2247 51.4667)" fill="#FAFBFF"/>
<circle id="dot_18" cx="51.2247" cy="67.6737" r="3.32625" transform="rotate(-90 51.2247 67.6737)" fill="#FAFBFF"/>
<circle id="dot_19" cx="51.2247" cy="19.2919" r="3.32625" transform="rotate(-90 51.2247 19.2919)" fill="#FAFBFF"/>
<circle id="dot_20" cx="51.2247" cy="3.32609" r="3.32625" transform="rotate(-90 51.2247 3.32609)" fill="#FAFBFF"/>
<circle id="dot_21" cx="67.1903" cy="35.2577" r="3.32625" transform="rotate(-90 67.1903 35.2577)" fill="#FAFBFF"/>
<circle id="dot_22" cx="67.1903" cy="51.4667" r="3.32625" transform="rotate(-90 67.1903 51.4667)" fill="#FAFBFF"/>
<circle id="dot_23" cx="67.1903" cy="67.6737" r="3.32625" transform="rotate(-90 67.1903 67.6737)" fill="#FAFBFF"/>
<circle id="dot_24" cx="67.1903" cy="19.2919" r="3.32625" transform="rotate(-90 67.1903 19.2919)" fill="#FAFBFF"/>
<circle id="dot_25" cx="67.1903" cy="3.32609" r="3.32625" transform="rotate(-90 67.1903 3.32609)" fill="#FAFBFF"/>
</g>
</svg>
