<svg width="132" height="61" viewBox="0 0 132 61" fill="none" xmlns="http://www.w3.org/2000/svg">
<g id="Vector" opacity="0.1">
<path id="Vector" d="M119.533 4.86341C119.352 4.75466 119.168 4.64983 118.985 4.54462C115.442 2.54374 111.301 1.29698 106.723 0.934687C99.5793 0.370002 90.6312 2.11569 83.8148 5.40573C81.0666 6.73236 79.3268 7.85143 77.0908 9.73179C73.518 12.7371 72.5255 14.0667 67.6035 22.4367C63.3645 29.6445 62.9178 30.3148 61.3023 31.8701C57.2863 35.7374 54.3866 37.0614 43.4945 40.0078L34.6645 42.3959L36.3129 48.6259L44.996 46.3171C49.7721 45.0474 54.7285 43.9217 56.0111 43.8156C59.242 43.5483 61.0382 43.6852 63.9942 44.4228C67.527 45.3052 71.116 47.006 75.3868 49.8226C85.5817 56.5466 93.4045 57.9386 104.893 55.0735C113.272 52.983 119.531 49.7001 124.498 44.7906C126.826 42.4885 130.131 36.9111 130.902 33.9834C132.143 29.27 132.158 24.8395 130.948 20.233C129.186 13.5259 125.152 8.21937 119.534 4.86213L119.533 4.86341ZM117.926 7.5006C121.174 9.39055 121.644 9.75169 123.124 11.4786C124.019 12.5231 125.28 14.316 125.927 15.4637C127.288 17.8762 128.761 23.1216 128.917 26.1106C129.537 37.9906 120.509 47.7626 105.063 51.928C98.0668 53.8145 92.566 53.8297 87.0404 51.9767C83.8787 50.9166 78.3483 47.6164 76.1056 45.4529C69.785 39.3525 68.2718 30.6237 72.0499 22.0647C74.9889 15.4071 80.551 9.9347 87.1851 7.17369C92.6637 4.89387 101.342 3.49513 106.931 3.99095C111.591 4.40419 113.842 5.12299 117.926 7.50147L117.926 7.5006ZM117.655 10.4065L116.544 11.9788L115.432 13.5507L112.969 12.218C110.149 10.692 109.976 10.379 110.935 8.56524C111.432 7.62434 111.386 7.65361 110.53 8.82152L109.564 10.1373L107.101 8.80464C104.981 7.65708 104.629 7.38004 104.567 6.81883C104.499 6.19843 104.469 6.18092 103.981 6.46505C103.699 6.6295 103.209 6.62883 102.892 6.46326C102.36 6.18588 102.357 6.20455 102.85 6.71035C103.379 7.25238 103.366 7.29016 101.759 10.0541L100.133 12.849L95.0304 9.88149L95.7725 8.26515C96.4198 6.85447 96.427 6.78514 95.831 7.7244C94.7431 9.43825 94.258 9.59582 92.6946 8.74235L91.3438 8.00422L92.574 8.93535C93.2505 9.44724 93.835 9.98274 93.8725 10.1242C94.004 10.6214 91.6726 14.871 91.0611 15.2479C90.5104 15.5877 90.2822 15.5012 88.0347 14.1041L85.6034 12.5931L86.1177 11.3562C86.4506 10.5555 86.4714 10.3649 86.1762 10.8155C85.5574 11.7592 84.7121 12.2407 84.1695 11.9571C83.8104 11.7696 83.7804 11.7948 84.0235 12.0819C84.6402 12.8127 84.4926 13.6228 83.4024 15.4976C81.898 18.0844 81.5566 18.2476 79.7214 17.2583L78.235 16.4579L79.5853 17.364C81.3275 18.5336 81.3732 18.9868 79.9899 21.3655C78.4434 24.0249 78.1757 24.1347 76.052 22.9792L74.31 22.0313L75.9169 23.0831C77.049 23.8244 77.5459 24.3149 77.5978 24.7433C77.6817 25.4427 75.656 29.081 74.9896 29.428C74.7523 29.5508 74.0668 29.4804 73.4649 29.2702L72.3712 28.8889L73.3018 29.4692C74.4576 30.19 74.4698 30.8192 73.3694 32.854C72.5643 34.3424 72.5705 34.3378 73.8105 32.5358L75.0686 30.7064L77.5843 32.0722C79.9344 33.3476 80.0984 33.4857 80.0752 34.1595C80.0471 34.9597 77.7685 38.6987 77.2204 38.8444C77.0369 38.8929 76.0808 38.5562 75.0963 38.0951L73.307 37.2572L74.9974 38.2936C76.8042 39.4011 77.0185 39.8742 76.3343 41.2362C76.1657 41.5731 76.3639 41.43 76.7754 40.9179L77.5237 39.9878L82.6266 42.9554L81.7741 44.6781C81.2262 45.7852 81.1362 46.099 81.523 45.5561C81.8541 45.0908 82.4068 44.3706 82.7499 43.9538L83.3753 43.1964L88.4946 46.3679L87.7525 47.9842C87.0397 49.5381 87.0404 49.5552 87.7466 48.4346C88.995 46.455 88.9465 46.4588 91.7939 48.1147C94.1814 49.5031 94.3192 49.6271 94.2055 50.2792L94.0846 50.9721L94.597 50.5068C94.8785 50.251 95.3063 50.149 95.5465 50.278C95.8976 50.4692 95.9171 50.3703 95.6427 49.7805C95.3331 49.1146 95.4206 48.8419 96.585 46.8477C97.2908 45.6382 98.0487 44.5549 98.2689 44.4412C98.5613 44.2889 99.3352 44.6477 101.156 45.7786L103.643 47.3234L102.901 48.9398C102.188 50.4937 102.188 50.5116 102.895 49.3902C104.054 47.5519 104.222 47.4954 105.876 48.3886L107.343 49.18L106.131 48.3437C105.464 47.8838 104.843 47.301 104.751 47.0491C104.575 46.5702 106.673 42.6551 107.433 42.0434C107.751 41.7876 108.278 41.9944 110.316 43.1795C112.959 44.7168 113.17 44.99 112.707 46.2768C112.495 46.868 112.539 46.8497 112.976 46.1662C113.298 45.6613 113.693 45.3806 114.009 45.4318C114.481 45.5084 114.502 45.4707 114.275 44.9523C114.068 44.4797 114.274 43.9974 115.565 41.9171L117.102 39.4437L120.326 40.942L117.398 38.9336L120.514 33.5757L124.221 35.423L120.811 33.0655L122.284 30.3655C123.886 27.4277 124.039 27.3143 125.444 28.0353C126.118 28.3808 126.097 28.3309 125.303 27.6912L124.373 26.943L126.158 23.2004L125.215 24.7178C124.696 25.5526 124.055 26.2926 123.788 26.3633C123.478 26.4452 122.414 25.9745 120.83 25.0536C118.811 23.8794 118.373 23.5249 118.438 23.1217C118.586 22.202 121.082 18.1853 121.588 18.052C121.855 17.9816 122.78 18.3063 123.645 18.7736L125.216 19.6235L123.748 18.6443C122.075 17.5277 121.794 17.0257 122.298 16.0508C122.589 15.4884 122.529 15.5094 121.977 16.1627L121.301 16.9638L118.872 15.6499C117.304 14.8021 116.378 14.1569 116.259 13.8316C116.147 13.5257 116.385 12.753 116.865 11.8661L117.656 10.4048L117.655 10.4065ZM105.646 8.41575C105.98 8.60622 106.385 8.85404 106.89 9.1687L109.266 10.6501L106.002 16.2631L103.486 14.8974C101.206 13.6603 100.972 13.4697 100.993 12.8728C101.027 11.9347 103.221 8.25344 103.933 7.94118C104.303 7.77904 104.646 7.84346 105.646 8.41575ZM111.514 11.8283C111.848 12.0187 112.253 12.2666 112.758 12.5812L115.134 14.0626L111.87 19.6757L109.4 18.3352C107.701 17.4135 106.889 16.8407 106.798 16.4975C106.618 15.8168 109.024 11.6934 109.8 11.3532C110.17 11.1911 110.513 11.2554 111.513 11.8277L111.514 11.8283ZM117.622 15.3932C117.935 15.5704 118.282 15.7774 118.66 16.0138L121.003 17.4747L117.739 23.0877L115.113 21.6567C112.89 20.4457 112.499 20.1483 112.568 19.7216C112.613 19.4444 113.237 18.2071 113.954 16.9734C114.892 15.3616 115.408 14.7042 115.789 14.6402C116.045 14.5971 116.683 14.8601 117.622 15.3923L117.622 15.3932ZM114.886 21.9238C116.032 22.6059 117.102 23.3965 117.16 23.7395C117.217 24.0833 116.711 25.1329 115.714 26.7395L114.179 29.2101L111.709 27.8697C110.01 26.9479 109.198 26.3751 109.107 26.0319C108.93 25.3624 111.493 20.9401 112.161 20.7632C112.519 20.6683 113.741 21.2404 114.888 21.9225L114.886 21.9238ZM108.947 18.4866C110.567 19.4291 111.227 19.9468 111.291 20.3264C111.349 20.6702 110.842 21.7198 109.845 23.3264L108.31 25.797L105.794 24.4313C103.514 23.1942 103.28 23.0036 103.301 22.4067C103.332 21.5579 105.421 17.9576 106.14 17.5133C106.621 17.2169 106.978 17.3404 108.947 18.4858L108.947 18.4866ZM120.874 25.4228C123.709 27.0714 123.733 27.1625 122.06 30.0388C120.388 32.9152 120.297 32.9393 117.462 31.2907C115.963 30.4193 115.052 29.7387 114.971 29.432C114.89 29.1267 115.34 28.0919 116.192 26.6262C117.045 25.1605 117.721 24.2572 118.027 24.1768C118.334 24.0956 119.377 24.5517 120.874 25.4225L120.874 25.4228ZM103.044 15.0586C104.265 15.7724 105.358 16.5347 105.472 16.754C105.625 17.0478 105.251 17.845 104.061 19.7682L102.442 22.3838L99.9267 21.018C97.6466 19.7809 97.4127 19.5903 97.4337 18.9934C97.4639 18.1447 99.5529 14.5443 100.272 14.1001C100.753 13.8036 101.107 13.9256 103.045 15.057L103.044 15.0586ZM97.4835 11.8321C98.5146 12.4495 99.4846 13.1108 99.6044 13.3428C99.7571 13.6366 99.3836 14.4339 98.1929 16.3571L96.5746 18.9726L94.0966 17.6276C92.7335 16.8882 91.5843 16.1559 91.5433 16.0005C91.5021 15.845 92.1508 14.5441 92.9857 13.1085C94.2325 10.9645 94.5906 10.5138 94.9968 10.5795C95.3617 10.6388 96.4533 11.2132 97.4845 11.8306L97.4835 11.8321ZM117.313 31.5461C120.132 33.1854 120.165 33.299 118.574 36.0347C116.983 38.7703 116.869 38.799 114.049 37.1591C112.551 36.2877 111.639 35.6072 111.558 35.3005C111.479 34.9994 111.911 33.9887 112.706 32.6223C113.5 31.2559 114.164 30.3795 114.466 30.3005C114.773 30.2193 115.816 30.6753 117.313 31.5461ZM98.5245 20.6622C98.8581 20.8527 99.2639 21.1005 99.7683 21.4152L102.145 22.8966L99.0287 28.2546L96.513 26.8888C94.2329 25.6517 93.999 25.4611 94.02 24.8642C94.0532 23.9307 96.1013 20.4986 96.8113 20.1886C97.1806 20.0264 97.5236 20.0908 98.524 20.6631L98.5245 20.6622ZM104.393 24.0747C104.726 24.2652 105.132 24.513 105.636 24.8277L108.013 26.3091L104.897 31.6671L102.381 30.3013C100.101 29.0642 99.867 28.8737 99.888 28.2767C99.9213 27.3432 101.969 23.9111 102.679 23.6011C103.049 23.4389 103.392 23.5033 104.392 24.0756L104.393 24.0747ZM88.8187 15.0191C90.7852 16.1414 90.6108 16.4678 89.1745 18.9376C87.5548 21.7228 87.5202 21.7313 84.6694 20.0734C82.8796 19.0326 82.2476 18.5442 82.297 18.2411C82.3334 18.0134 83.0266 16.7644 83.8363 15.4658L85.3089 13.1048L87.8437 14.4805C88.2142 14.6829 88.5387 14.8586 88.8201 15.0187L88.8187 15.0191ZM110.5 27.6397C110.813 27.8169 111.161 28.0239 111.539 28.2603L113.882 29.7212L112.484 32.2941C111.461 34.1782 110.966 34.8718 110.637 34.884C109.916 34.912 105.838 32.4407 105.691 31.8883C105.501 31.1698 107.981 27.003 108.667 26.8873C108.923 26.8443 109.561 27.1075 110.5 27.6397ZM91.1759 16.5167L96.2788 19.4843L93.1629 24.8422L90.6287 23.4656C88.6775 22.4068 88.1091 21.9921 88.1634 21.6646C88.2011 21.4306 88.8945 20.177 89.7042 18.8784L91.1768 16.5174L91.1759 16.5167ZM86.961 21.7225L86.8211 22.5928C86.6202 23.8471 84.4684 27.0766 83.8177 27.1011C83.1832 27.1244 79.2983 24.8972 79.0127 24.3471C78.8604 24.0547 79.2191 23.2809 80.35 21.4605L81.8949 18.9731L84.4274 20.3487L86.9604 21.7233L86.961 21.7225ZM113.902 37.4147C116.721 39.0541 116.753 39.1676 115.162 41.9033C113.572 44.6388 113.458 44.6676 110.638 43.0277C109.139 42.1563 108.228 41.4758 108.147 41.1691C108.067 40.868 108.5 39.8573 109.294 38.4909C110.089 37.1244 110.753 36.2481 111.055 36.1691C111.361 36.088 112.405 36.5439 113.902 37.4147ZM95.1131 26.5308C95.4468 26.7213 95.8526 26.9691 96.357 27.2838L98.7332 28.7652L97.3353 31.3381C96.3119 33.2222 95.8174 33.9158 95.4879 33.9281C95.2408 33.9372 94.0303 33.3613 92.7969 32.6476C90.6251 31.3894 90.5603 31.3256 90.6877 30.55C90.8782 29.395 92.7121 26.3576 93.4006 26.0562C93.7698 25.894 94.1127 25.9585 95.1131 26.5308ZM100.981 29.9434C101.315 30.1338 101.721 30.3816 102.225 30.6963L104.601 32.1777L103.203 34.7506C102.18 36.6347 101.685 37.3283 101.356 37.3406C101.109 37.3498 99.9046 36.7774 98.68 36.0688C96.7384 34.9445 96.4571 34.6967 96.477 34.1323C96.5097 33.208 98.5631 29.7768 99.2686 29.4686C99.6378 29.3065 99.9808 29.3711 100.981 29.9434ZM107.089 33.5083C107.402 33.6855 107.75 33.8925 108.128 34.1289L110.471 35.5898L109.157 38.0183C108.309 39.5862 107.664 40.5122 107.339 40.6313C106.685 40.8701 102.468 38.4758 102.278 37.7573C102.088 37.0388 104.568 32.872 105.254 32.7563C105.51 32.7133 106.148 32.9762 107.087 33.5084L107.089 33.5083ZM87.7645 22.3853L92.8675 25.3529L91.4696 27.9258C90.4462 29.8099 89.9516 30.5034 89.6221 30.5157C89.375 30.5249 88.2542 29.9987 87.1312 29.3457C86.0083 28.6926 84.9966 27.9787 84.8824 27.7594C84.7301 27.467 85.0889 26.6931 86.2198 24.8728L87.7645 22.3853ZM82.3844 26.9763C83.4211 27.5839 83.5088 27.7878 83.4906 28.2939C83.4535 29.3461 81.0838 32.9441 80.4115 32.9691C79.7742 32.9931 75.8891 30.7682 75.6018 30.2147C75.4495 29.9223 75.8083 29.1485 76.9392 27.3281L78.484 24.8407L80.9997 26.2065C81.587 26.5255 82.0386 26.774 82.3844 26.9763ZM91.538 32.2995C91.8848 32.4999 92.3237 32.7682 92.8917 33.1222L95.323 34.6333L93.9251 37.2062C92.9017 39.0903 92.4071 39.7839 92.0776 39.7961C91.4545 39.8201 87.6003 37.5444 87.305 36.978C86.9942 36.3813 88.9495 32.5422 89.8456 31.9897C90.276 31.7244 90.4966 31.6998 91.538 32.2995ZM97.8092 35.9642C98.1221 36.1414 98.4699 36.3484 98.8479 36.5848L101.191 38.0457L99.877 40.4742C99.0292 42.0421 98.384 42.9681 98.0588 43.0872C97.3073 43.3625 93.3758 41.0299 93.1493 40.1741C92.9229 39.3183 95.1859 35.3453 95.9753 35.2127C96.2314 35.1697 96.869 35.4326 97.8086 35.9648L97.8092 35.9642ZM103.677 39.3767C103.99 39.5539 104.338 39.7609 104.716 39.9973L107.059 41.4582L105.745 43.8867C104.897 45.4546 104.252 46.3806 103.927 46.4997C103.175 46.775 99.2439 44.4424 99.0174 43.5866C98.791 42.7308 101.054 38.7578 101.843 38.6253C102.099 38.5822 102.737 38.8451 103.677 39.3773L103.677 39.3767ZM84.3529 28.2537L89.4558 31.2213L88.0579 33.7942C87.0345 35.6783 86.5399 36.3719 86.2104 36.3841C85.9633 36.3933 84.8425 35.8671 83.7196 35.2141C82.5966 34.5611 81.5849 33.8471 81.4707 33.6278C81.3184 33.3354 81.6772 32.5615 82.8081 30.7412L84.3529 28.2537ZM88.5816 38.4387C88.8627 38.6034 89.1777 38.7972 89.5342 39.0199L91.9104 40.5013L90.5125 43.0742C89.4891 44.9583 88.9946 45.6519 88.6651 45.6642C88.418 45.6734 87.2722 45.135 86.1183 44.4676C84.2866 43.4071 83.9966 43.1436 83.8256 42.3924C83.6719 41.7152 83.5802 41.618 83.3958 41.9351C83.2666 42.1573 82.9393 42.3024 82.6676 42.2581C81.9373 42.1404 78.2982 39.959 78.0581 39.4958C77.9058 39.2034 78.2646 38.4296 79.3955 36.6092L80.9404 34.1218L86.0433 37.0894L83.9577 41.34L84.9781 39.6934C86.2898 37.5764 86.6115 37.2882 88.582 38.4402L88.5816 38.4387ZM94.3972 41.8314C94.7101 42.0086 95.0579 42.2156 95.4359 42.452L97.7789 43.9129L96.381 46.4858C95.3576 48.3699 94.863 49.0635 94.5335 49.0757C94.2864 49.0849 93.1442 48.5486 91.9949 47.8839C90.433 46.9791 89.8642 46.5144 89.7379 46.0404C89.5115 45.1846 91.7745 41.2116 92.5639 41.079C92.82 41.036 93.4576 41.2992 94.3972 41.8314ZM31.0797 42.7451L20.5373 45.2548L30.1932 50.8701L32.6569 49.9267L31.0797 42.7451ZM15.4421 46.3887L9.87506 48.0079L19.5688 53.9106L25.1353 52.2924L15.4416 46.3896L15.4421 46.3887ZM4.52148 49.2558L-1.09983 50.7663L9.36014 56.8492L14.9815 55.3387L4.52148 49.2558ZM-5.78244 52.1402C-6.54284 52.492 -7.80939 52.6585 -8.27954 53.3936C-8.92692 54.5068 -7.76095 59.0069 -6.51115 60.2243C-6.47408 60.2624 -6.11402 60.3035 -5.71282 60.3188C-4.77631 60.355 3.8292 58.4018 3.99559 58.1157L-5.78349 52.1396L-5.78244 52.1402Z" fill="white"/>
</g>
</svg>
